<svg width="686" height="347" viewBox="0 0 686 347" fill="none" xmlns="http://www.w3.org/2000/svg">
<rect x="3.26582" y="-3.26582" width="406.532" height="290.532" rx="19.4158" transform="matrix(-1 0 0 1 509.443 88.3291)" fill="url(#paint0_linear_8022_244)" stroke="white" stroke-width="6.53165"/>
<rect width="349" height="137" rx="16.15" transform="matrix(-1 0 0 1 476.911 132.329)" fill="#E1E3EA"/>
<rect width="168" height="10" rx="5" transform="matrix(-1 0 0 1 476.911 106.329)" fill="#E1E3EA"/>
<rect width="349" height="10" rx="5" transform="matrix(-1 0 0 1 476.911 285.329)" fill="#E1E3EA"/>
<rect width="271" height="10" rx="5" transform="matrix(-1 0 0 1 476.911 305.329)" fill="#E1E3EA"/>
<rect width="296" height="10" rx="5" transform="matrix(-1 0 0 1 476.911 323.329)" fill="#E1E3EA"/>
<g filter="url(#filter0_dddd_8022_244)">
<rect x="226.911" y="16.3291" width="400" height="387" rx="16.15" fill="white"/>
<rect x="252.911" y="68.3291" width="349" height="136" rx="16.15" fill="#F6F6F8"/>
<rect x="252.911" y="42.3291" width="167" height="10" rx="5" fill="#F6F6F8"/>
<rect x="252.911" y="222.329" width="349" height="8" rx="4" fill="#F6F6F8"/>
<rect x="252.911" y="240.329" width="271" height="10" rx="5" fill="#F6F6F8"/>
<rect x="252.911" y="258.329" width="296" height="10" rx="5" fill="#F6F6F8"/>
<rect x="392.911" y="92.3291" width="65" height="65" rx="16.3291" fill="url(#paint1_linear_8022_244)"/>
<path fill-rule="evenodd" clip-rule="evenodd" d="M418.341 119.757C418.341 118.653 419.236 117.757 420.341 117.757H428.119C428.65 117.757 429.159 117.547 429.534 117.172L434.962 111.743C436.222 110.483 435.33 108.329 433.548 108.329H410.912C409.807 108.329 408.912 109.224 408.912 110.329V132.965C408.912 134.747 411.066 135.639 412.326 134.379L417.755 128.95C418.13 128.575 418.341 128.067 418.341 127.536V119.757Z" fill="white"/>
<path fill-rule="evenodd" clip-rule="evenodd" d="M441.911 139.329C441.911 140.434 441.016 141.329 439.911 141.329H416.097C414.315 141.329 413.423 139.175 414.683 137.915L421.29 131.308C421.665 130.933 421.876 130.424 421.876 129.893V123.293C421.876 122.189 422.771 121.293 423.876 121.293H430.476C431.006 121.293 431.515 121.082 431.89 120.707L438.497 114.101C439.757 112.841 441.911 113.733 441.911 115.515V139.329Z" fill="white"/>
</g>
<g filter="url(#filter1_dddd_8022_244)">
<rect x="84.9111" y="199.329" width="350" height="70" rx="9.8903" fill="white"/>
<rect x="149.911" y="231.329" width="217" height="6" rx="3" fill="#F6F6F8"/>
<rect x="149.911" y="242.329" width="126" height="6" rx="3" fill="#F6F6F8"/>
<rect x="149.911" y="220.329" width="236" height="6" rx="3" fill="#F6F6F8"/>
<path d="M405.911 232.329L406.911 234.329L410.911 230.329" stroke="white" stroke-linecap="round" stroke-linejoin="round"/>
<ellipse cx="408.411" cy="231.829" rx="7.5" ry="7.5" fill="#ADDFAC"/>
<rect x="99.9111" y="214.329" width="40" height="40" rx="10" fill="url(#paint2_linear_8022_244)"/>
<path d="M122.111 232.329C122.001 232.329 121.911 232.24 121.911 232.129V224.929C121.911 224.737 121.666 224.655 121.551 224.809L113.511 235.529C113.264 235.859 113.499 236.329 113.911 236.329H117.711C117.822 236.329 117.911 236.419 117.911 236.529V243.729C117.911 243.921 118.156 244.003 118.271 243.849L126.311 233.129C126.558 232.799 126.323 232.329 125.911 232.329H122.111Z" fill="white" stroke="white" stroke-width="1.5"/>
</g>
<path fill-rule="evenodd" clip-rule="evenodd" d="M474.911 181.351C474.387 181.495 473.911 181.811 473.911 182.351C473.911 182.562 474.523 185.324 477.911 194.351C482.088 205.48 482.66 206.091 482.911 206.351C483.116 206.563 483.67 206.302 483.911 206.351C483.778 206.383 484.099 206.39 483.911 206.351C484.187 206.285 484.792 205.557 484.911 205.351C484.963 205.26 485.82 203.807 486.911 201.351L488.911 196.351L493.911 194.351C498.516 192.206 498.74 191.771 498.911 191.351C499.104 190.879 499.302 190.663 498.911 190.351C498.709 190.19 475.276 181.414 474.911 181.351C475.053 181.312 474.805 181.333 474.911 181.351Z" fill="url(#paint3_linear_8022_244)"/>
<rect x="502.911" y="193.351" width="121" height="31" rx="15.5" fill="url(#paint4_linear_8022_244)"/>
<path d="M525.219 202.865H526.926L530.404 209.724H530.437L533.916 202.865H535.557V214.351H534.408V204.26H534.375L530.962 210.987H529.814L526.4 204.26H526.368V214.351H525.219V202.865ZM541.457 214.466C540.932 214.466 540.451 214.379 540.013 214.204C539.575 214.028 539.204 213.777 538.897 213.449C538.591 213.11 538.35 212.699 538.175 212.218C538.011 211.726 537.929 211.162 537.929 210.528V209.97C537.929 209.346 538.011 208.788 538.175 208.296C538.35 207.804 538.591 207.394 538.897 207.065C539.214 206.726 539.586 206.469 540.013 206.294C540.451 206.119 540.932 206.032 541.457 206.032C541.982 206.032 542.463 206.119 542.901 206.294C543.339 206.469 543.711 206.726 544.017 207.065C544.323 207.405 544.558 207.826 544.722 208.329C544.898 208.821 544.985 209.396 544.985 210.052V210.544H539.045C539.045 211.496 539.253 212.223 539.668 212.727C540.084 213.23 540.68 213.482 541.457 213.482C542.628 213.482 543.404 213.006 543.787 212.054H544.903C544.706 212.842 544.312 213.443 543.722 213.859C543.142 214.264 542.387 214.466 541.457 214.466ZM541.457 207.016C540.757 207.016 540.194 207.241 539.767 207.689C539.34 208.127 539.1 208.772 539.045 209.625H543.869C543.815 208.739 543.568 208.083 543.131 207.656C542.704 207.23 542.146 207.016 541.457 207.016ZM547.283 206.147H548.366V209.675H552.928V206.147H554.011V214.351H552.928V210.659H548.366V214.351H547.283V206.147ZM559.837 214.466C559.312 214.466 558.831 214.379 558.393 214.204C557.956 214.028 557.584 213.777 557.277 213.449C556.971 213.11 556.731 212.699 556.555 212.218C556.391 211.726 556.309 211.162 556.309 210.528V209.97C556.309 209.346 556.391 208.788 556.555 208.296C556.731 207.804 556.971 207.394 557.277 207.065C557.595 206.726 557.967 206.469 558.393 206.294C558.831 206.119 559.312 206.032 559.837 206.032C560.362 206.032 560.844 206.119 561.281 206.294C561.719 206.469 562.091 206.726 562.397 207.065C562.703 207.405 562.939 207.826 563.103 208.329C563.278 208.821 563.365 209.396 563.365 210.052V210.544H557.425C557.425 211.496 557.633 212.223 558.049 212.727C558.464 213.23 559.061 213.482 559.837 213.482C561.008 213.482 561.785 213.006 562.167 212.054H563.283C563.086 212.842 562.693 213.443 562.102 213.859C561.522 214.264 560.767 214.466 559.837 214.466ZM559.837 207.016C559.137 207.016 558.574 207.241 558.147 207.689C557.721 208.127 557.48 208.772 557.425 209.625H562.249C562.195 208.739 561.949 208.083 561.511 207.656C561.084 207.23 560.527 207.016 559.837 207.016ZM564.436 213.367H565.339C565.514 213.093 565.656 212.814 565.766 212.53C565.886 212.245 565.979 211.923 566.044 211.562C566.121 211.201 566.17 210.785 566.192 210.315C566.225 209.833 566.241 209.264 566.241 208.608V206.147H571.821V213.367H572.887V216.484H571.837V214.351H565.487V216.484H564.436V213.367ZM570.738 213.367V207.131H567.292V208.608C567.292 209.199 567.281 209.718 567.259 210.167C567.237 210.615 567.199 211.026 567.144 211.398C567.089 211.759 567.013 212.098 566.914 212.415C566.816 212.721 566.695 213.028 566.553 213.334V213.367H570.738ZM576.388 210.036L574.025 206.147H575.239L577.258 209.593H578.734V206.147H579.817V209.593H581.294L583.313 206.147H584.527L582.164 210.036L584.691 214.351H583.444L581.294 210.577H579.817V214.351H578.734V210.577H577.258L575.108 214.351H573.861L576.388 210.036ZM589.291 214.466C588.766 214.466 588.284 214.379 587.847 214.204C587.409 214.028 587.037 213.777 586.731 213.449C586.424 213.11 586.184 212.699 586.009 212.218C585.845 211.726 585.763 211.162 585.763 210.528V209.97C585.763 209.346 585.845 208.788 586.009 208.296C586.184 207.804 586.424 207.394 586.731 207.065C587.048 206.726 587.42 206.469 587.847 206.294C588.284 206.119 588.766 206.032 589.291 206.032C589.816 206.032 590.297 206.119 590.735 206.294C591.172 206.469 591.544 206.726 591.85 207.065C592.157 207.405 592.392 207.826 592.556 208.329C592.731 208.821 592.819 209.396 592.819 210.052V210.544H586.878C586.878 211.496 587.086 212.223 587.502 212.727C587.918 213.23 588.514 213.482 589.291 213.482C590.461 213.482 591.238 213.006 591.621 212.054H592.737C592.54 212.842 592.146 213.443 591.555 213.859C590.975 214.264 590.22 214.466 589.291 214.466ZM589.291 207.016C588.59 207.016 588.027 207.241 587.6 207.689C587.174 208.127 586.933 208.772 586.878 209.625H591.703C591.648 208.739 591.402 208.083 590.964 207.656C590.538 207.23 589.98 207.016 589.291 207.016ZM595.117 206.147H595.97L596.101 207.377H596.134C596.495 206.907 596.894 206.568 597.332 206.36C597.769 206.141 598.284 206.032 598.874 206.032C599.356 206.032 599.799 206.119 600.203 206.294C600.608 206.458 600.953 206.71 601.237 207.049C601.533 207.377 601.762 207.787 601.926 208.28C602.09 208.772 602.173 209.335 602.173 209.97V210.528C602.173 211.162 602.09 211.726 601.926 212.218C601.762 212.699 601.533 213.11 601.237 213.449C600.942 213.777 600.592 214.028 600.187 214.204C599.782 214.379 599.345 214.466 598.874 214.466C597.693 214.466 596.812 214.045 596.232 213.203H596.2V217.633H595.117V206.147ZM598.628 213.482C599.35 213.482 599.935 213.241 600.384 212.759C600.832 212.267 601.057 211.523 601.057 210.528V209.97C601.057 208.996 600.827 208.263 600.367 207.771C599.919 207.268 599.339 207.016 598.628 207.016C597.906 207.016 597.321 207.262 596.872 207.755C596.424 208.236 596.2 208.974 596.2 209.97V210.528C596.2 211.501 596.424 212.24 596.872 212.743C597.332 213.235 597.917 213.482 598.628 213.482Z" fill="white"/>
<defs>
<filter id="filter0_dddd_8022_244" x="142" y="-1.23978e-05" width="569.823" height="700.519" filterUnits="userSpaceOnUse" color-interpolation-filters="sRGB">
<feFlood flood-opacity="0" result="BackgroundImageFix"/>
<feColorMatrix in="SourceAlpha" type="matrix" values="0 0 0 0 0 0 0 0 0 0 0 0 0 0 0 0 0 0 127 0" result="hardAlpha"/>
<feOffset dy="13.0633"/>
<feGaussianBlur stdDeviation="14.6962"/>
<feColorMatrix type="matrix" values="0 0 0 0 0 0 0 0 0 0 0 0 0 0 0 0 0 0 0.05 0"/>
<feBlend mode="normal" in2="BackgroundImageFix" result="effect1_dropShadow_8022_244"/>
<feColorMatrix in="SourceAlpha" type="matrix" values="0 0 0 0 0 0 0 0 0 0 0 0 0 0 0 0 0 0 127 0" result="hardAlpha"/>
<feOffset dy="52.2532"/>
<feGaussianBlur stdDeviation="26.1266"/>
<feColorMatrix type="matrix" values="0 0 0 0 0 0 0 0 0 0 0 0 0 0 0 0 0 0 0.04 0"/>
<feBlend mode="normal" in2="effect1_dropShadow_8022_244" result="effect2_dropShadow_8022_244"/>
<feColorMatrix in="SourceAlpha" type="matrix" values="0 0 0 0 0 0 0 0 0 0 0 0 0 0 0 0 0 0 127 0" result="hardAlpha"/>
<feOffset dy="119.203"/>
<feGaussianBlur stdDeviation="35.924"/>
<feColorMatrix type="matrix" values="0 0 0 0 0 0 0 0 0 0 0 0 0 0 0 0 0 0 0.03 0"/>
<feBlend mode="normal" in2="effect2_dropShadow_8022_244" result="effect3_dropShadow_8022_244"/>
<feColorMatrix in="SourceAlpha" type="matrix" values="0 0 0 0 0 0 0 0 0 0 0 0 0 0 0 0 0 0 127 0" result="hardAlpha"/>
<feOffset dy="212.278"/>
<feGaussianBlur stdDeviation="42.4557"/>
<feColorMatrix type="matrix" values="0 0 0 0 0 0 0 0 0 0 0 0 0 0 0 0 0 0 0.01 0"/>
<feBlend mode="normal" in2="effect3_dropShadow_8022_244" result="effect4_dropShadow_8022_244"/>
<feBlend mode="normal" in="SourceGraphic" in2="effect4_dropShadow_8022_244" result="shape"/>
</filter>
<filter id="filter1_dddd_8022_244" x="-0.00025177" y="183" width="519.823" height="383.519" filterUnits="userSpaceOnUse" color-interpolation-filters="sRGB">
<feFlood flood-opacity="0" result="BackgroundImageFix"/>
<feColorMatrix in="SourceAlpha" type="matrix" values="0 0 0 0 0 0 0 0 0 0 0 0 0 0 0 0 0 0 127 0" result="hardAlpha"/>
<feOffset dy="13.0633"/>
<feGaussianBlur stdDeviation="14.6962"/>
<feColorMatrix type="matrix" values="0 0 0 0 0 0 0 0 0 0 0 0 0 0 0 0 0 0 0.05 0"/>
<feBlend mode="normal" in2="BackgroundImageFix" result="effect1_dropShadow_8022_244"/>
<feColorMatrix in="SourceAlpha" type="matrix" values="0 0 0 0 0 0 0 0 0 0 0 0 0 0 0 0 0 0 127 0" result="hardAlpha"/>
<feOffset dy="52.2532"/>
<feGaussianBlur stdDeviation="26.1266"/>
<feColorMatrix type="matrix" values="0 0 0 0 0 0 0 0 0 0 0 0 0 0 0 0 0 0 0.04 0"/>
<feBlend mode="normal" in2="effect1_dropShadow_8022_244" result="effect2_dropShadow_8022_244"/>
<feColorMatrix in="SourceAlpha" type="matrix" values="0 0 0 0 0 0 0 0 0 0 0 0 0 0 0 0 0 0 127 0" result="hardAlpha"/>
<feOffset dy="119.203"/>
<feGaussianBlur stdDeviation="35.924"/>
<feColorMatrix type="matrix" values="0 0 0 0 0 0 0 0 0 0 0 0 0 0 0 0 0 0 0.03 0"/>
<feBlend mode="normal" in2="effect2_dropShadow_8022_244" result="effect3_dropShadow_8022_244"/>
<feColorMatrix in="SourceAlpha" type="matrix" values="0 0 0 0 0 0 0 0 0 0 0 0 0 0 0 0 0 0 127 0" result="hardAlpha"/>
<feOffset dy="212.278"/>
<feGaussianBlur stdDeviation="42.4557"/>
<feColorMatrix type="matrix" values="0 0 0 0 0 0 0 0 0 0 0 0 0 0 0 0 0 0 0.01 0"/>
<feBlend mode="normal" in2="effect3_dropShadow_8022_244" result="effect4_dropShadow_8022_244"/>
<feBlend mode="normal" in="SourceGraphic" in2="effect4_dropShadow_8022_244" result="shape"/>
</filter>
<linearGradient id="paint0_linear_8022_244" x1="200" y1="0" x2="200" y2="284" gradientUnits="userSpaceOnUse">
<stop stop-color="#F3F3F9"/>
<stop offset="1" stop-color="#EBEBF5"/>
</linearGradient>
<linearGradient id="paint1_linear_8022_244" x1="457.911" y1="124.829" x2="392.911" y2="124.829" gradientUnits="userSpaceOnUse">
<stop stop-color="#5F73FE"/>
<stop offset="1" stop-color="#798AFF" stop-opacity="0.894118"/>
</linearGradient>
<linearGradient id="paint2_linear_8022_244" x1="139.911" y1="234.329" x2="99.9111" y2="234.329" gradientUnits="userSpaceOnUse">
<stop stop-color="#5F73FE"/>
<stop offset="1" stop-color="#798AFF" stop-opacity="0.894118"/>
</linearGradient>
<linearGradient id="paint3_linear_8022_244" x1="499.136" y1="193.882" x2="473.911" y2="193.882" gradientUnits="userSpaceOnUse">
<stop stop-color="#5F73FE"/>
<stop offset="1" stop-color="#798AFF" stop-opacity="0.894118"/>
</linearGradient>
<linearGradient id="paint4_linear_8022_244" x1="623.911" y1="208.851" x2="502.911" y2="208.851" gradientUnits="userSpaceOnUse">
<stop stop-color="#5F73FE"/>
<stop offset="1" stop-color="#798AFF" stop-opacity="0.894118"/>
</linearGradient>
</defs>
</svg>
