<svg width="205" height="32" viewBox="0 0 205 32" fill="none" xmlns="http://www.w3.org/2000/svg">
<path d="M32.2929 9.91521C31.4495 12.1171 30.694 14.11 29.9254 16.0962C28.197 20.5712 26.4466 25.0374 24.7423 29.5213C24.5008 30.1552 24.2109 30.4132 23.5103 30.4155C20.9034 30.4199 20.9078 30.4466 19.9502 27.9911C18.7204 24.8439 17.4817 21.6989 16.1662 18.3448C15.9773 18.7074 15.8565 18.8942 15.7775 19.0966C14.4466 22.5041 13.0937 25.9048 11.8111 29.3323C11.5169 30.1219 11.1764 30.4555 10.2914 30.4288C7.9063 30.3576 7.88654 30.4132 7.01026 28.1624C4.71523 22.2727 2.43778 16.3742 0.15593 10.4802C0.107613 10.3534 0.0724745 10.2244 0 10.0064C0.24817 9.97304 0.450219 9.92188 0.654465 9.92188C1.97218 9.91744 3.2899 9.95747 4.60542 9.91077C5.16765 9.89075 5.42021 10.0709 5.62226 10.598C6.90923 13.9654 8.23354 17.3173 9.54686 20.6736C9.61495 20.847 9.70499 21.0116 9.88508 21.3986C10.254 20.5067 10.5637 19.795 10.8492 19.0722C11.9539 16.2608 13.063 13.4517 14.1369 10.627C14.3521 10.0598 14.664 9.84626 15.2438 9.91077C15.6237 9.95303 16.0125 9.91744 16.3946 9.92188C17.921 9.9419 17.9056 9.94635 18.459 11.3898C19.7196 14.675 20.9956 17.9534 22.3419 21.4298C22.5242 21.0784 22.645 20.8893 22.724 20.6847C24.0198 17.3818 25.3309 14.0833 26.5828 10.7626C26.8353 10.0931 27.1801 9.88185 27.8522 9.90187C29.2687 9.94413 30.6853 9.91521 32.2907 9.91521H32.2929Z" fill="#767676"/>
<path d="M80.0648 10.9139C80.4469 10.7315 80.739 10.6047 81.0201 10.4557C85.5575 8.05804 91.105 9.03223 94.5838 12.8378C98.504 17.126 98.1922 24.1566 93.9074 28.0556C89.414 32.1459 82.9791 32.1837 78.5143 28.0734C76.351 26.0828 75.1475 23.5272 75.1145 20.5624C75.0421 14.1189 75.0926 7.67326 75.0596 1.2276C75.0552 0.429117 75.2836 0.153317 76.0809 0.206697C77.0911 0.273422 78.1123 0.275648 79.1226 0.204474C79.8847 0.151094 80.0384 0.453583 80.0296 1.1542C79.9967 4.1257 80.0121 7.09942 80.0142 10.0709C80.0142 10.3111 80.0428 10.5491 80.0648 10.9117V10.9139ZM86.258 26.2073C89.6094 26.2073 92.3722 23.4649 92.3964 20.1131C92.4206 16.7434 89.6577 14.0789 86.1394 14.0789C82.7002 14.0789 80.0252 16.739 80.0274 20.1553C80.0318 23.5694 82.7485 26.2095 86.258 26.2095V26.2073Z" fill="#767676"/>
<path d="M53.0353 0.264439C55.2447 0.264439 57.1839 0.246644 59.1232 0.286679C59.367 0.291127 59.659 0.540235 59.8347 0.755981C63.4036 5.11982 66.9768 9.4792 70.5105 13.872C74.2923 18.5761 73.181 25.4288 68.0793 29.1009C61.886 33.5581 53.009 30.382 50.9511 22.9777C49.55 17.9289 52.5148 12.1593 57.5024 10.2844C58.4204 9.93961 59.3779 9.70829 60.4804 9.37467C58.0229 6.3698 55.6115 3.42054 53.0353 0.268885V0.264439ZM55.5631 20.173C55.6005 23.6027 58.3282 26.2517 61.7916 26.225C65.2132 26.1983 67.8882 23.4693 67.875 20.0218C67.8618 16.7656 64.9914 14.0499 61.5917 14.0788C58.2886 14.1055 55.528 16.8968 55.5631 20.173Z" fill="#767676"/>
<path d="M120.98 21.3807H104.759C104.983 23.4425 106.086 24.7437 107.728 25.4932C111.04 27.0034 113.742 25.9714 115.955 23.1022C117.137 24.0475 118.299 24.9572 119.423 25.9114C119.529 26.0003 119.494 26.4318 119.375 26.5942C116.658 30.3241 111.785 32.039 107.531 30.7868C102.985 29.4478 99.9671 25.6534 99.6048 20.8135C99.1875 15.2531 102.822 10.5356 108.534 9.3924C114.469 8.20247 119.691 11.7345 120.609 17.4328C120.813 18.7006 120.855 19.9928 120.98 21.3807ZM105.451 17.2037H115.176C114.952 15.5667 113.136 14.2611 110.902 14.0965C108.629 13.9297 106.092 14.9684 105.453 17.2037H105.451Z" fill="#767676"/>
<path d="M167.816 21.4254C168.073 23.6073 169.285 24.9885 171.091 25.6647C174.286 26.859 177.055 25.9849 179.399 23.3448C180.418 24.1989 181.454 25.0419 182.449 25.9338C182.548 26.0228 182.478 26.4609 182.348 26.6277C179.59 30.2042 175.957 31.7033 171.552 30.9782C162.824 29.5436 160.149 19.2501 165.071 13.1492C169.059 8.20488 177.108 7.78896 181.338 12.482C183.084 14.4192 183.844 16.8102 183.844 19.4414C183.844 21.3787 183.861 21.3787 181.97 21.3787C177.499 21.3787 173.028 21.3765 168.556 21.3787C168.341 21.3787 168.128 21.4054 167.814 21.4276L167.816 21.4254ZM178.202 17.2195C177.613 15.111 175.858 14.0389 173.271 14.0812C170.904 14.119 168.877 15.5202 168.532 17.2195H178.202Z" fill="#767676"/>
<path d="M201.572 16.5877C200.026 15.0775 198.372 14.0922 196.38 13.7763C194.944 13.5495 193.525 13.5784 192.225 14.3212C191.816 14.5548 191.426 14.9329 191.191 15.3421C190.811 15.9983 191.094 16.7945 191.856 17.0236C192.921 17.3439 194.039 17.4907 195.137 17.6998C197.043 18.0645 198.998 18.258 200.847 18.8141C205.176 20.1152 205.352 25.729 202.896 28.2401C201.135 30.0417 198.937 30.8091 196.545 31.0337C192.409 31.4207 188.726 30.362 185.718 27.3038C185.287 26.8656 185.234 26.5987 185.685 26.1628C186.416 25.4533 187.121 24.7082 187.791 23.9386C188.228 23.4359 188.502 23.4893 188.97 23.9453C191.465 26.3874 194.397 27.1614 197.744 26.1383C198.104 26.0293 198.458 25.838 198.761 25.6112C199.868 24.7793 199.749 23.4515 198.456 22.98C197.621 22.6753 196.694 22.6241 195.805 22.4906C194.019 22.2237 192.192 22.1259 190.448 21.6877C187.692 20.9938 186.363 19.3301 186.122 16.7011C185.869 13.9654 186.983 11.7368 189.431 10.549C194.151 8.26259 198.691 8.7697 202.98 11.7345C204.565 12.831 204.548 12.8666 203.362 14.3702C202.901 14.9551 202.415 15.5223 201.945 16.1006C201.842 16.2274 201.745 16.3608 201.576 16.5855L201.572 16.5877Z" fill="#767676"/>
<path d="M144.049 14.2054C145.158 12.842 146.316 11.6676 147.862 10.907C149.329 10.1819 150.892 9.97281 152.487 9.95057C152.685 9.94835 153.051 10.2975 153.058 10.4933C153.108 11.7966 153.06 13.1045 153.091 14.4101C153.104 14.9439 152.799 14.9505 152.423 15.0172C151.16 15.2419 149.854 15.3575 148.655 15.7779C145.729 16.8055 144.06 19.3344 144.051 22.4794C144.047 24.8414 144.038 27.2035 144.069 29.5634C144.078 30.1661 143.917 30.4174 143.287 30.393C142.165 30.3507 141.036 30.3418 139.914 30.3885C139.255 30.4152 139.068 30.1728 139.07 29.53C139.09 25.224 139.077 20.918 139.077 16.6098C139.077 14.6369 139.097 12.6641 139.073 10.6912C139.066 10.1263 139.226 9.89274 139.815 9.90831C140.994 9.94168 142.174 9.935 143.353 9.90164C143.902 9.88607 144.067 10.1085 144.056 10.6356C144.029 11.8233 144.047 13.0133 144.047 14.2032L144.049 14.2054Z" fill="#767676"/>
<path d="M128.361 30.3798C126.799 30.3798 125.376 30.3731 123.955 30.3842C123.362 30.3887 123.404 29.9817 123.404 29.5835C123.404 26.0827 123.4 22.5818 123.4 19.081C123.4 16.3297 123.426 13.5784 123.384 10.8293C123.373 10.0775 123.61 9.87287 124.322 9.90178C125.631 9.95516 126.944 9.91736 128.372 9.91736V14.15C129.426 13.1891 130.394 12.1326 131.528 11.3164C133.074 10.2065 134.923 9.97741 136.783 9.91958C137.242 9.90624 137.418 10.1042 137.413 10.5624C137.398 11.8413 137.387 13.1179 137.413 14.3969C137.427 14.9952 137.055 14.9751 136.66 15.0018C135.061 15.1175 133.502 15.3955 132.079 16.1984C129.661 17.5596 128.433 19.6637 128.378 22.4439C128.334 24.7771 128.363 27.1125 128.359 29.4456C128.359 29.7192 128.359 29.9905 128.359 30.3842L128.361 30.3798Z" fill="#767676"/>
<path d="M43.1399 0.260124C44.7036 0.260124 46.1531 0.240105 47.6004 0.286813C47.7673 0.291261 48.0418 0.642682 48.0616 0.853979C48.1253 1.51456 48.0924 2.18626 48.0924 2.85129C48.0924 11.6034 48.0968 20.3556 48.0902 29.1099C48.0902 30.6135 48.1319 30.351 46.8559 30.3822C45.9511 30.4022 45.0418 30.3377 44.1414 30.4022C43.3618 30.4578 43.1158 30.2153 43.1202 29.3991C43.1553 24.2301 43.1355 19.0633 43.1355 13.8943C43.1355 9.75514 43.1355 5.61372 43.1355 1.47453C43.1355 1.11643 43.1355 0.758338 43.1355 0.262347L43.1399 0.260124Z" fill="#767676"/>
<path d="M155.244 30.384V9.93717C156.762 9.93717 158.286 9.91938 159.808 9.97276C159.929 9.97721 160.124 10.4888 160.126 10.7668C160.15 13.2957 160.142 15.8268 160.142 18.3557C160.142 22.0812 160.128 25.8067 160.155 29.5299C160.159 30.175 159.992 30.4196 159.325 30.3974C157.987 30.3507 156.648 30.384 155.246 30.384H155.244Z" fill="#767676"/>
<path d="M34.665 9.97949H39.5318C39.5318 10.3042 39.5318 10.5734 39.5318 10.8447C39.5318 17.0368 39.5208 23.2267 39.5493 29.4188C39.5537 30.1884 39.3341 30.4397 38.5764 30.3997C37.4564 30.3396 36.3297 30.3774 35.2053 30.3863C34.777 30.3908 34.575 30.2773 34.5772 29.7724C34.5925 23.2489 34.5859 16.7232 34.5881 10.1997C34.5881 10.1485 34.6233 10.0951 34.665 9.97949Z" fill="#767676"/>
<path d="M37.09 0.00866487C38.9282 -0.0825264 40.7906 1.73463 40.7774 3.61851C40.762 5.70701 39.0446 7.36402 36.9209 7.32176C35.087 7.28618 33.2269 5.82711 33.3103 3.60294C33.3828 1.61897 35.0827 -0.026922 37.09 0.00866487Z" fill="#767676"/>
<path d="M161.339 3.98111C161.267 5.91392 159.69 7.36631 157.742 7.29958C155.343 7.21729 153.881 5.74933 153.969 3.51626C154.05 1.50115 155.767 -0.0646697 157.821 0.00205561C159.786 0.0665567 161.418 1.9104 161.339 3.98111Z" fill="#767676"/>
</svg>
