<svg width="152" height="37" viewBox="0 0 152 37" fill="none" xmlns="http://www.w3.org/2000/svg">
<path d="M49.3029 35.5993V34.131C49.5645 34.0761 49.8008 34.0167 50.0416 33.9766C51.3674 33.7569 51.7835 33.3754 51.7969 32.0303C51.8341 28.1954 51.8266 24.3606 51.7999 20.5258C51.7969 19.9943 51.6483 19.4434 51.4669 18.9372C50.8486 17.2135 49.2048 16.4534 47.2162 16.9374C46.9531 17.0012 46.693 17.0888 46.4418 17.1912C44.7623 17.8727 44.6107 18.1013 44.6107 19.9037V30.4447C44.6107 30.5931 44.6107 30.7416 44.6107 30.8901C44.6122 33.3323 44.6627 33.405 46.8877 34.1681V35.6097H34.6064V34.1414C35.1831 34.042 35.7836 33.944 36.3796 33.8326C37.1748 33.6827 37.6608 33.2224 37.7574 32.4014C37.8005 32.0347 37.8481 31.6636 37.8495 31.2954C37.8555 27.1131 37.8555 22.9324 37.8495 18.7501C37.8495 18.4547 37.8124 18.1592 37.7886 17.8638C37.7113 16.9285 37.1213 16.4979 36.2741 16.2812C35.1727 15.9976 35.1772 15.9813 35.3704 14.8292C38.4128 14.2175 41.4374 13.6103 44.517 12.9927V16.4578C44.9986 16.1446 45.3538 15.8966 45.7254 15.6754C46.9367 14.9569 48.105 14.1418 49.3787 13.5598C52.7021 12.0395 56.018 13.1827 57.8134 16.3598C57.861 16.4445 57.9219 16.5232 58.0111 16.6538C59.0783 15.9709 60.0949 15.2211 61.2007 14.6406C62.3912 14.0141 63.6189 13.303 64.9134 13.0521C68.696 12.3216 71.743 14.5991 72.3211 18.4042C72.4356 19.1584 72.492 19.9289 72.4965 20.692C72.5143 24.1305 72.5024 27.5704 72.5069 31.0103C72.5069 31.38 72.5262 31.7526 72.5693 32.1193C72.718 33.3457 73.0435 33.6886 74.2518 33.9306C75.5419 34.1889 75.5493 34.2008 75.2729 35.6172H63.2978V34.137C63.4375 34.1013 63.5773 34.0598 63.7185 34.0316C65.389 33.6975 65.6848 33.5105 65.7101 31.8224C65.7666 27.9416 65.8335 24.0518 65.6239 20.1798C65.4678 17.2981 63.1537 16.0733 60.4442 17.1408C60.3758 17.1675 60.3044 17.1927 60.2376 17.2224C58.6665 17.9128 58.5551 18.1518 58.5685 19.8502C58.5967 23.3881 58.5759 26.9261 58.5803 30.4654C58.5803 31.0088 58.6056 31.5522 58.6398 32.0956C58.7201 33.3264 59.1095 33.7495 60.3282 33.9648C60.5958 34.0123 60.8603 34.0657 61.1516 34.1221V35.5993H49.3014H49.3029Z" fill="#767676"/>
<path d="M117.948 12.9065C117.948 10.7063 117.978 8.36054 117.933 6.0148C117.915 5.10768 117.446 4.65635 116.52 4.45295C115.945 4.32676 115.356 4.26292 114.735 4.16493V2.82281C118.07 2.24974 121.374 1.68112 124.769 1.09766V1.89343C124.769 11.171 124.769 20.447 124.769 29.7246C124.769 32.2841 124.834 32.3613 127.336 32.6953C127.556 32.725 127.774 32.7592 128.04 32.7978V34.2705C124.687 34.8941 121.37 35.5117 117.99 36.1412V33.6708C117.105 34.2112 116.294 34.6298 115.569 35.1643C113.886 36.407 112.054 36.4827 110.123 35.9987C105.575 34.857 102.451 30.9123 102.165 26.2371C101.753 19.4805 106.782 14.2308 113.092 13.1975C114.659 12.9407 116.276 12.9986 117.948 12.908V12.9065ZM117.987 24.7584C117.987 22.5834 117.988 20.4084 117.987 18.2319C117.984 16.1386 115.699 14.504 113.721 15.1914C112.214 15.7155 111.273 16.8408 110.682 18.2557C109.583 20.8835 109.436 23.6197 109.892 26.4019C110.161 28.0439 110.801 29.5286 111.93 30.7742C113.422 32.4207 115.569 32.9685 117.371 32.2143C117.819 32.0273 118.008 31.7942 118 31.2834C117.969 29.1084 117.987 26.9334 117.987 24.7569V24.7584Z" fill="#767676"/>
<path d="M86.9694 36.2643C79.6286 36.1619 75.299 30.8112 75.4967 24.6529C75.7613 16.382 82.3158 12.6466 88.1139 12.9316C95.0058 13.2716 99.4736 18.3447 99.0545 25.1874C98.5907 32.7502 92.9696 36.444 86.9679 36.2643H86.9694ZM91.7642 25.805C91.5621 23.9091 91.4565 22.23 91.1875 20.5776C90.9007 18.8138 90.3938 17.0976 89.0472 15.7911C87.5996 14.3866 85.7388 14.5365 84.5928 16.1904C84.1915 16.7694 83.8437 17.436 83.6669 18.113C82.512 22.561 82.6621 26.9779 84.3119 31.2744C84.6657 32.1964 85.3657 33.0887 86.1297 33.73C87.4688 34.8539 89.3059 34.4664 90.2348 32.9877C90.596 32.4131 90.9185 31.754 91.0329 31.0948C91.348 29.2761 91.5457 27.4381 91.7627 25.8035L91.7642 25.805Z" fill="#767676"/>
<path d="M151.146 32.0286C151.305 32.5363 151.457 33.0203 151.631 33.577C149.692 34.4797 147.836 35.4833 145.876 36.1974C144.905 36.5493 143.811 36.0609 142.983 35.369C142.405 34.885 141.922 34.2882 141.344 33.6869C140.433 34.2347 139.401 34.8093 138.416 35.4536C135.109 37.6182 130.207 35.127 129.21 31.5787C128.45 28.8752 129.379 26.5636 131.955 25.456C133.904 24.6172 135.952 24.013 137.939 23.2603C138.884 22.9025 139.797 22.4556 140.706 22.0132C140.894 21.9211 141.133 21.6583 141.124 21.4876C141.053 20.1618 141.084 18.8004 140.779 17.5236C140.384 15.8623 138.961 14.973 137.57 15.4243C136.949 15.6262 136.302 16.1533 135.959 16.7115C135.466 17.5147 135.18 18.4649 134.913 19.3824C134.456 20.9472 133.609 21.544 132.046 21.1016C131.31 20.8937 130.574 20.5062 129.975 20.0297C129.174 19.3928 129.161 18.4604 129.803 17.6602C130.048 17.3558 130.341 17.0693 130.663 16.851C133.416 14.9952 136.356 13.5522 139.658 12.9835C143.634 12.2991 147.534 15.3872 147.664 19.4076C147.768 22.6456 147.693 25.8896 147.711 29.1305C147.714 29.6472 147.754 30.1713 147.845 30.679C148.066 31.9395 148.811 32.4487 150.068 32.2409C150.406 32.1845 150.74 32.1102 151.145 32.0315L151.146 32.0286ZM141.148 23.7591C139.881 24.4747 138.721 25.07 137.625 25.7634C135.813 26.911 135.391 29.1498 136.591 30.9255C137.549 32.3448 139.373 32.8718 140.656 32.0597C140.883 31.9157 141.124 31.5817 141.127 31.3323C141.161 28.8678 141.148 26.4018 141.148 23.7591Z" fill="#767676"/>
<path d="M24.9465 27.3149C23.811 28.6333 22.8479 29.9323 21.7019 31.0399C20.1785 32.5141 18.5792 33.932 16.8789 35.1924C16.0659 35.7952 14.9676 36.0699 13.9554 36.3297C13.0963 36.5494 12.4483 35.9956 11.9563 35.3201C11.2162 34.3046 10.9902 33.1154 10.8476 31.9039C9.87552 23.6909 15.9396 15.2002 24.0191 13.4246C25.8561 13.0207 27.6575 13.1885 29.4663 13.5552C29.878 13.6384 30.2912 13.7616 30.7059 13.7705C31.3524 13.7853 31.406 14.0645 31.287 14.6227C30.1218 20.0817 28.9729 25.5437 27.8493 31.0102C27.7556 31.4615 27.879 31.9589 27.8998 32.434C28.3397 32.2558 28.8287 32.1504 29.2092 31.8861C30.0386 31.3101 30.8114 30.6539 31.6081 30.0303C32.378 30.9864 32.3824 31.08 31.5843 31.9529C30.0861 33.592 28.417 35.0158 26.3853 35.9585C24.4219 36.8701 23.5598 36.3653 23.7397 34.22C23.9002 32.3107 24.3639 30.4252 24.6968 28.5308C24.7607 28.1686 24.8425 27.8093 24.9435 27.3149H24.9465ZM27.3603 16.0851C25.8695 15.4452 24.404 15.2477 22.8776 15.4689C20.7656 15.7733 19.37 17.1035 18.2463 18.7648C16.1358 21.8841 15.195 25.3878 15.0523 29.1113C15.0136 30.106 15.1296 31.1393 15.3748 32.1044C15.6468 33.1792 16.2651 33.3693 17.2282 32.8408C17.6815 32.5928 18.117 32.2974 18.5138 31.9678C21.0495 29.864 23.1555 27.3728 24.9138 24.601C25.4043 23.826 25.7461 22.9204 25.9825 22.0296C26.4982 20.0758 26.9025 18.0938 27.3603 16.0865V16.0851Z" fill="#767676"/>
<path d="M2.35309 2.93111C2.2981 1.74637 2.32336 1.81466 3.39795 1.57563C5.30041 1.15399 7.18503 0.644762 9.06816 0.138498C10.2646 -0.18367 10.5173 0.00636475 10.2587 1.24159C8.8898 7.7666 7.50458 14.2886 6.12678 20.8122C5.38661 24.3159 4.64049 27.8182 3.92707 31.3264C3.84978 31.708 3.97166 32.1311 4.00139 32.5349C4.38485 32.4295 4.82628 32.4132 5.14137 32.2038C6.18772 31.5105 7.18948 30.7474 8.25961 29.9739C8.39041 30.158 8.61187 30.3718 8.70847 30.6331C8.78279 30.835 8.79617 31.178 8.67429 31.316C6.97694 33.2431 5.05665 34.9074 2.69791 35.9837C0.829638 36.8359 -0.127534 36.2792 0.0136636 34.2408C0.151889 32.2321 0.519003 30.2278 0.926247 28.2517C2.53144 20.4648 4.19609 12.6897 5.83101 4.90718C6.11341 3.56506 5.79088 3.15826 4.40863 3.04989C3.72196 2.99644 3.03381 2.96823 2.3516 2.92963L2.35309 2.93111Z" fill="#767676"/>
</svg>
