<svg width="111" height="25" viewBox="0 0 111 25" fill="none" xmlns="http://www.w3.org/2000/svg">
<path d="M67.1858 24.2476C63.2665 24.2178 59.5559 23.3752 56.1864 21.2649C54.0473 19.9246 52.2518 18.2161 51.2414 15.8362C49.6495 12.0861 50.4181 8.68737 53.0026 5.68654C55.2447 3.08237 58.1804 1.62797 61.4201 0.738741C63.9346 0.0478373 66.4999 -0.124565 69.078 0.0815399C72.9387 0.391345 76.5285 1.5489 79.6219 4.00141C81.5039 5.4921 82.9418 7.33019 83.6061 9.71271C84.3861 12.5152 83.8364 15.0818 82.2432 17.441C80.4579 20.0853 77.9193 21.7277 75.0269 22.8451C72.5074 23.8185 69.8848 24.2619 67.1858 24.2463V24.2476ZM67.1667 18.6957C69.4852 18.7087 71.7172 18.2913 73.8409 17.336C75.2229 16.7138 76.4686 15.8907 77.4434 14.6955C78.7999 13.0324 78.8177 11.3317 77.5006 9.63493C76.573 8.43849 75.3641 7.60889 74.0127 7.00224C70.3619 5.36248 66.589 5.11619 62.7448 6.13505C60.5752 6.71058 58.5965 7.675 57.0644 9.41068C55.5666 11.1075 55.5043 12.9611 56.9511 14.6903C57.4398 15.2736 58.0187 15.809 58.6397 16.2419C61.2051 18.0269 64.1038 18.6724 67.168 18.697L67.1667 18.6957Z" fill="#767676"/>
<path d="M11.9323 0.0274902C18.5836 0.031379 23.8581 5.39917 23.8849 12.1319C23.9116 18.8063 18.4895 24.2506 11.9336 24.261C5.37897 24.2713 -0.0304112 18.6365 0.000128684 12.1034C0.0306686 5.47694 5.43368 -0.0723211 11.9323 0.0261942V0.0274902ZM11.9565 5.52879C8.47113 5.51713 5.46931 8.51665 5.44768 12.0347C5.42478 15.6798 8.30443 18.7182 11.9107 18.7182C15.4699 18.7182 18.4068 15.9481 18.4284 12.1565C18.4488 8.42462 15.564 5.63249 11.9565 5.53009V5.52879Z" fill="#767676"/>
<path d="M104.573 12.8161C104.573 12.6307 104.573 12.444 104.573 12.2587C104.573 9.4147 104.573 6.57072 104.573 3.72673C104.573 2.55881 104.907 1.55551 105.95 0.924234C106.828 0.39277 107.739 0.391474 108.626 0.891828C109.509 1.38959 110.028 2.16086 110.03 3.20564C110.041 9.74913 110.036 16.2939 110.041 22.8374C110.041 23.1913 109.95 23.4687 109.621 23.6346C109.258 23.8187 108.977 23.6437 108.707 23.4272C106.289 21.4828 103.872 19.5358 101.455 17.5902C98.9877 15.6043 96.5216 13.6172 94.053 11.6326C93.9448 11.5457 93.8252 11.4731 93.6191 11.3293C93.5873 11.6261 93.5465 11.8374 93.5453 12.0474C93.5415 15.021 93.5516 17.9933 93.5389 20.9669C93.5325 22.5561 92.2639 23.7772 90.7152 23.7305C89.3702 23.689 88.1639 22.5341 88.1461 21.1588C88.1092 18.2992 88.1244 15.4397 88.1232 12.5789C88.1206 8.99212 88.1219 5.40409 88.1219 1.81735C88.1219 1.67217 88.1295 1.5257 88.1244 1.38052C88.1117 1.04479 88.2021 0.714241 88.5329 0.642947C88.79 0.587208 89.1552 0.623503 89.3524 0.776461C90.7814 1.88087 92.1824 3.02546 93.5898 4.15968C97.0904 6.97904 100.591 9.79839 104.092 12.6164C104.2 12.7033 104.317 12.7798 104.43 12.8614C104.479 12.8459 104.527 12.829 104.575 12.8135L104.573 12.8161Z" fill="#767676"/>
<path d="M38.3569 6.08834C38.0591 6.08834 37.8924 6.08834 37.7244 6.08834C35.3232 6.08834 32.9208 6.09483 30.5196 6.08575C29.0791 6.08057 28.0166 5.26393 27.6959 3.94952C27.2874 2.27995 28.5587 0.558524 30.2523 0.554635C36.1045 0.540376 41.958 0.54945 47.8102 0.542969C48.164 0.542969 48.4999 0.637595 48.575 0.979806C48.6361 1.25461 48.5941 1.64738 48.4338 1.86256C44.9637 6.54592 41.4694 11.2124 37.9815 15.8828C37.4559 16.5867 36.9368 17.2945 36.34 18.1007C36.6644 18.137 36.8719 18.1785 37.0793 18.1798C40.0531 18.185 43.0282 18.1707 46.002 18.1889C48.0762 18.2018 49.369 20.4599 48.3434 22.2799C47.7581 23.3169 46.8024 23.7291 45.6597 23.7304C41.3332 23.7343 37.008 23.7317 32.6815 23.7317C30.8364 23.7317 28.9913 23.7317 27.1462 23.7317C26.7428 23.7317 26.3318 23.7524 26.1053 23.3169C25.875 22.8735 26.1384 22.5521 26.3827 22.2241C30.2358 17.065 34.0876 11.9046 37.9369 6.74166C38.0642 6.57055 38.1685 6.3813 38.3543 6.08834H38.3569Z" fill="#767676"/>
</svg>
