<svg width="176" height="37" viewBox="0 0 176 37" fill="none" xmlns="http://www.w3.org/2000/svg">
<path d="M99.3899 36.3914C99.3637 36.2116 99.3179 36.0317 99.3179 35.8485C99.3146 26.8214 99.3179 17.7944 99.3179 8.76401C99.3179 8.63743 99.3277 8.51085 99.3375 8.33764H104.009C104.091 9.18038 104.173 10.0365 104.265 10.9858C104.396 10.8426 104.475 10.7759 104.527 10.6993C107.39 6.58552 113.412 7.08851 116.014 11.0491C117.101 12.7046 117.661 14.54 117.897 16.4853C118.254 19.4199 118.143 22.3279 117.082 25.1193C116.128 27.6242 114.51 29.4996 111.859 30.2057C108.894 30.9952 106.398 30.2557 104.396 27.5509C104.396 27.8874 104.396 28.0672 104.396 28.2504C104.396 30.7487 104.396 33.247 104.393 35.7419C104.393 35.9584 104.337 36.1716 104.304 36.3881H99.3899V36.3914ZM112.829 18.9636C112.803 17.438 112.727 15.7591 112.056 14.1769C111.45 12.7512 110.401 11.9751 108.848 11.9285C107.243 11.8818 106.028 12.5081 105.287 13.9937C104.76 15.053 104.547 16.1988 104.471 17.3647C104.33 19.5665 104.288 21.7683 105.045 23.8901C105.461 25.0593 106.162 25.962 107.41 26.2918C109.553 26.8581 111.391 25.8854 112.177 23.7669C112.731 22.2713 112.819 20.7024 112.829 18.9636Z" fill="#767676"/>
<path d="M15.6392 16.5886C16.7236 14.7732 17.8081 12.9611 18.8925 11.1457C20.7993 7.9546 22.706 4.76682 24.6161 1.57571C24.7537 1.34254 24.8421 1.10937 25.2353 1.24927C27.722 2.12865 30.2217 2.9714 32.7149 3.8308C32.7641 3.84746 32.8099 3.87744 32.9148 3.93073C32.8001 4.38375 32.6723 4.83677 32.5675 5.29645C31.9647 7.97458 31.3094 10.6461 30.7983 13.3408C30.6018 14.3735 30.6411 15.4794 30.7426 16.5353C30.8737 17.9376 31.8533 18.4206 32.9738 17.6079C33.9108 16.9283 34.7659 16.0956 35.5259 15.2129C36.4597 14.1303 37.2558 12.9278 38.1076 11.7786C38.2223 11.622 38.3337 11.4655 38.5106 11.219C38.8513 12.8812 38.9431 14.4401 38.871 16.0057C38.7596 18.334 38.2813 20.5825 37.3836 22.731C37.2951 22.9442 37.1739 23.1773 37.0002 23.3172C35.467 24.5497 33.7994 25.4757 31.7976 25.6656C28.0299 26.0253 24.7602 23.5104 24.2557 19.7131C24.0821 18.4106 24.2131 17.0649 24.2098 15.7358C24.2098 15.5726 24.2295 15.4061 24.1574 15.1962C24.0296 15.4027 23.8986 15.6126 23.7708 15.8191C21.2186 20.0595 18.6664 24.2999 16.1274 28.5469C15.9013 28.9233 15.7146 29.0399 15.269 28.88C13.1984 28.1339 11.1147 27.4244 9.03104 26.7215C8.66411 26.5983 8.52651 26.4584 8.59203 26.0187C8.97535 23.3872 9.31608 20.749 9.66991 18.1142C9.6994 17.8977 9.7125 17.6778 9.64042 17.4113C7.4388 20.3626 5.24045 23.3139 2.94708 26.3851C2.39995 25.3625 1.81023 24.4664 1.42363 23.4871C0.873224 22.1047 0.457146 20.6691 0.0246833 19.2434C-0.0441175 19.0136 0.0377851 18.6505 0.185216 18.4506C3.20918 14.3768 6.2528 10.3196 9.28332 6.24912C9.47334 5.99596 9.63715 5.95266 9.91891 6.05259C12.0452 6.80873 14.1715 7.55821 16.3076 8.29103C16.6352 8.40428 16.704 8.55085 16.6516 8.89394C16.2846 11.2656 15.9439 13.6406 15.5933 16.0123C15.5671 16.1922 15.5475 16.3754 15.5245 16.5553C15.5639 16.5619 15.6032 16.5719 15.6392 16.5786V16.5886Z" fill="#767676"/>
<path d="M62.3348 21.8881C64.3104 14.5898 66.2892 7.29492 68.2648 0H74.9221V30.0191H70.1322V7.71463C70.0896 7.70796 70.0503 7.69797 70.0077 7.69131C68.0256 15.1328 66.0468 22.5776 64.0614 30.0357H59.7924C57.8136 22.5976 55.8315 15.1528 53.8494 7.70796C53.8199 7.70796 53.7871 7.71463 53.7576 7.71463V30.0291H49.5771V0.00666218H56.3589C58.305 7.29825 60.2544 14.5965 62.2038 21.8947C62.2463 21.8947 62.2922 21.8914 62.3348 21.8881Z" fill="#767676"/>
<path d="M157.169 21.012H144.883C144.49 23.8734 146.439 26.2217 149.293 26.395C151.816 26.5482 154.158 25.9286 156.353 24.6828C156.478 24.6129 156.602 24.5396 156.783 24.4397C156.799 24.6162 156.822 24.7494 156.822 24.886C156.822 25.922 156.796 26.9579 156.835 27.9938C156.855 28.4735 156.674 28.7233 156.281 28.9398C153.847 30.2822 151.229 30.6253 148.517 30.4521C147.239 30.3689 145.994 30.1024 144.818 29.5761C142.708 28.6301 141.224 27.0345 140.477 24.846C139.137 20.9154 139.14 16.9449 140.69 13.0809C142.056 9.67327 144.696 7.99111 148.297 7.85787C149.938 7.79791 151.534 8.0111 152.998 8.82053C155.249 10.0697 156.321 12.1715 156.678 14.6132C156.982 16.6851 157.009 18.8036 157.166 21.012H157.169ZM151.999 17.1614C151.829 16.0921 151.744 15.0828 151.498 14.1135C151.2 12.9343 150.43 12.1382 149.195 11.975C147.832 11.7951 146.616 12.0982 145.797 13.3374C145.037 14.4833 144.877 15.789 144.811 17.1614H152.002H151.999Z" fill="#767676"/>
<path d="M90.2678 16.4582C90.163 15.5056 90.1728 14.6029 89.9402 13.7734C89.5831 12.4977 88.4953 12.1446 87.329 12.0813C84.7703 11.938 82.4016 12.6142 80.1835 13.8867C80.059 13.9566 79.9378 14.0333 79.7118 14.1732C79.7118 13.5902 79.7118 13.0872 79.7118 12.5809C79.7118 11.8415 79.7249 11.102 79.7052 10.3625C79.6987 10.0527 79.7773 9.8595 80.0689 9.7096C83.4925 7.9375 87.0899 7.4645 90.8182 8.36054C93.3475 8.97012 94.8021 10.7555 95.1166 13.4037C95.2018 14.1165 95.2313 14.8427 95.2378 15.5622C95.2804 19.7426 95.3066 23.9197 95.3492 28.1001C95.3558 28.7264 95.4311 29.3526 95.4803 30.0654C95.2051 30.0654 94.9594 30.0654 94.7136 30.0654C93.4588 30.0654 92.204 30.0554 90.9493 30.0721C90.638 30.0754 90.484 29.9855 90.4251 29.6724C90.3399 29.226 90.2252 28.7896 90.1138 28.3C89.9795 28.3866 89.8779 28.4266 89.8091 28.4998C88.2398 30.1454 86.2446 30.5118 84.1347 30.3419C80.2884 30.0321 78.1162 27.4739 78.1719 23.43C78.2145 20.3755 79.8789 18.2936 83.0568 17.291C85.1503 16.6314 87.3028 16.4882 89.4717 16.4649C89.6846 16.4649 89.9009 16.4649 90.2678 16.4649V16.4582ZM90.1793 22.4307C90.1793 21.7112 90.1957 20.9884 90.1662 20.2689C90.1597 20.1357 89.9697 19.8958 89.8615 19.8958C88.3905 19.8725 86.9162 19.8958 85.491 20.3455C84.2002 20.7586 83.4631 21.6313 83.3549 23.0403C83.237 24.5626 83.8759 25.8184 85.075 26.3247C86.582 26.9609 88.7083 26.5179 89.8059 25.2921C90.0123 25.0622 90.1367 24.6892 90.163 24.3694C90.2187 23.7265 90.1793 23.077 90.1793 22.4307Z" fill="#767676"/>
<path d="M131.631 18.3272C134.331 22.2245 137.011 26.0885 139.733 30.0224C139.527 30.039 139.392 30.059 139.258 30.059C137.656 30.059 136.054 30.0524 134.452 30.069C134.124 30.0723 133.931 29.9624 133.741 29.6893C131.474 26.4282 129.19 23.1772 126.91 19.9261C126.818 19.7928 126.72 19.6629 126.523 19.3931V30.0357H121.475V8.33749H126.494V18.094C126.53 18.114 126.569 18.134 126.605 18.154C126.707 18.0241 126.815 17.9008 126.913 17.7676C129.046 14.773 131.182 11.7818 133.305 8.77718C133.551 8.43076 133.797 8.26754 134.239 8.27753C135.71 8.31084 137.178 8.29086 138.773 8.29086C136.355 11.6885 133.996 15.0028 131.631 18.3272Z" fill="#767676"/>
<path d="M169.091 30.0423H164.036V12.3479H158.076V8.32739H175.024V12.3546H169.091V30.0389V30.0423Z" fill="#767676"/>
</svg>
