<svg width="233" height="30" viewBox="0 0 233 30" fill="none" xmlns="http://www.w3.org/2000/svg">
<path d="M7.81573 9.33517C7.62677 10.4966 7.43019 11.658 7.24887 12.8214C6.75264 16.0234 6.25258 19.2254 5.78116 22.4331C5.69336 23.0301 5.47005 23.2666 4.83258 23.2418C3.50038 23.1922 2.16435 23.2303 0.828333 23.2246C0.574489 23.2246 0.320645 23.1903 0 23.1674C1.20433 15.6229 2.3953 8.15468 3.59772 0.608276C4.82876 0.608276 6.01591 0.608276 7.20116 0.608276C8.06003 0.608276 8.9189 0.644511 9.77395 0.594926C10.3141 0.562505 10.5145 0.781822 10.6576 1.26241C11.8887 5.38938 13.1407 9.50872 14.387 13.63C14.4596 13.8684 14.5378 14.1048 14.7859 14.3585C14.8699 14.1315 14.9634 13.9084 15.0341 13.6796C16.3185 9.56784 17.6126 5.45994 18.8665 1.3406C19.044 0.755123 19.3074 0.583483 19.9029 0.596833C21.6894 0.636882 23.4777 0.629254 25.2642 0.59874C25.7318 0.591112 25.8959 0.779915 25.9608 1.18613C26.6803 5.76699 27.4037 10.3459 28.129 14.9249C28.5279 17.448 28.9325 19.9711 29.3314 22.4942C29.3638 22.6963 29.3829 22.9004 29.4135 23.1483C29.1653 23.1807 28.9821 23.2227 28.797 23.2246C27.2949 23.2303 25.7948 23.2189 24.2927 23.2322C23.8556 23.236 23.6743 23.0816 23.6113 22.6277C23.0025 18.3176 22.3669 14.0095 21.7352 9.70324C21.7046 9.49537 21.6359 9.29322 21.4546 9.06246C21.3821 9.26461 21.3038 9.46295 21.2408 9.66891C19.9182 13.9656 18.5879 18.2604 17.29 22.5647C17.1392 23.0625 16.9331 23.257 16.4063 23.2418C15.2402 23.2074 14.0702 23.2036 12.9041 23.2418C12.3429 23.2608 12.1349 23.0396 11.9803 22.5228C10.7359 18.3252 9.45903 14.1392 8.19172 9.94926C8.13065 9.74901 8.05812 9.55449 7.99132 9.35615C7.93215 9.35043 7.87298 9.34471 7.81191 9.33708L7.81573 9.33517Z" fill="#767676"/>
<path d="M121.414 23.2187C119.539 23.2187 117.78 23.2283 116.022 23.1997C115.881 23.1978 115.648 22.9289 115.621 22.7591C115.029 18.8763 114.463 14.9877 113.89 11.1029C113.791 10.4278 113.682 9.75461 113.436 9.05661C113.327 9.35412 113.203 9.6459 113.109 9.94913C111.823 14.1333 110.529 18.3156 109.271 22.5093C109.105 23.0624 108.87 23.2664 108.288 23.2435C107.145 23.1997 106 23.2111 104.857 23.2397C104.347 23.2531 104.11 23.0872 103.96 22.578C102.715 18.3804 101.44 14.1924 100.173 10.0006C100.106 9.7794 100.028 9.56008 99.7912 9.32742C99.6538 10.1208 99.5068 10.9141 99.3827 11.7094C98.8102 15.3558 98.2471 19.004 97.6612 22.6466C97.6287 22.8507 97.4207 23.1863 97.289 23.1901C95.556 23.2264 93.823 23.2149 91.9697 23.2149C92.1568 22.0001 92.3247 20.8902 92.5003 19.7802C93.2409 15.1307 93.9833 10.4812 94.7238 5.82979C94.972 4.26406 95.2182 2.69833 95.4548 1.13069C95.5159 0.726388 95.7144 0.594798 96.1286 0.600519C97.9876 0.621498 99.8484 0.634847 101.706 0.594798C102.28 0.581448 102.48 0.806486 102.629 1.30805C103.866 5.45791 105.126 9.60204 106.38 13.7462C106.446 13.9636 106.529 14.1772 106.67 14.5796C106.828 14.1486 106.933 13.8987 107.013 13.6394C108.296 9.52766 109.586 5.41786 110.844 1.29661C111.002 0.779787 111.207 0.585263 111.766 0.596705C113.741 0.63294 115.718 0.610055 117.808 0.610055C119.005 8.1145 120.198 15.5999 121.414 23.2187Z" fill="#767676"/>
<path d="M146.115 29.4433V0.613608C148.052 0.613608 149.952 0.602165 151.851 0.6384C151.977 0.640307 152.194 0.983585 152.204 1.1743C152.242 2.01723 152.221 2.86208 152.379 3.74316C152.463 3.62683 152.564 3.51812 152.625 3.39035C153.879 0.827203 156.645 -0.13779 159.212 0.0967832C162.812 0.426712 165.066 2.47875 166.159 5.7666C167.57 10.008 167.579 14.3123 166.003 18.5118C164.449 22.654 160.476 24.6183 156.342 23.4778C154.723 23.0316 153.492 22.0971 152.679 20.6267C152.593 20.4704 152.496 20.3197 152.267 20.1862C152.253 20.457 152.227 20.7259 152.227 20.9967C152.223 23.5351 152.207 26.0715 152.236 28.6099C152.244 29.243 152.08 29.4776 151.4 29.4585C149.665 29.4089 147.928 29.4433 146.117 29.4433H146.115ZM161.275 11.9418C161.033 10.7632 160.89 9.51024 160.506 8.33737C160.021 6.85174 158.922 5.94205 157.305 5.79902C155.479 5.63882 153.918 6.15565 153.043 7.8625C152.631 8.66539 152.356 9.58461 152.242 10.481C152.005 12.3251 152.064 14.1769 152.938 15.8895C153.767 17.5086 155.194 18.1437 156.941 18.0827C158.731 18.0197 160.058 17.173 160.59 15.4318C160.926 14.3371 161.042 13.1776 161.275 11.9437V11.9418Z" fill="#767676"/>
<path d="M52.0517 15.003C51.9257 18.0105 50.7061 20.2742 48.3375 21.9143C46.8603 22.9365 45.1883 23.4839 43.4171 23.6784C40.6611 23.9816 37.9872 23.7146 35.5556 22.2481C32.4656 20.3829 30.8776 17.5471 30.3547 14.0666C29.9978 11.6827 30.16 9.32744 31.0609 7.07516C32.7118 2.952 35.7961 0.686367 40.2145 0.152379C41.9246 -0.0535882 43.5927 0.0932587 45.2303 0.56622C48.9998 1.65327 51.5287 4.71989 51.8646 8.61419C51.9639 9.76799 51.9505 10.9332 51.9944 12.0927C52.0192 12.7469 51.7482 12.9719 51.063 12.9681C46.4614 12.9376 41.8597 12.9528 37.2581 12.9528C36.2236 12.9528 36.2351 12.9528 36.4069 13.9884C37.0749 18.0276 40.7699 18.9259 43.6004 17.938C44.6997 17.5547 45.4403 16.7403 45.759 15.6304C45.9098 15.1079 46.1598 14.9858 46.6618 14.9934C48.4196 15.0201 50.1793 15.0049 52.0517 15.0049V15.003ZM36.6435 8.65042H46.0358C45.9117 7.34215 45.2609 6.24748 44.1539 5.76116C42.1231 4.87055 40.121 4.94874 38.2677 6.25701C37.4547 6.83105 36.947 7.64538 36.6435 8.65233V8.65042Z" fill="#767676"/>
<path d="M195.813 12.9947C195.538 15.6017 197.628 18.0981 200.19 18.2468C200.919 18.2888 201.673 18.2564 202.387 18.1153C203.807 17.8368 204.768 16.971 205.186 15.575C205.314 15.1497 205.499 14.9819 205.975 14.9895C207.78 15.0219 209.588 15.0029 211.569 15.0029C211.382 15.9354 211.292 16.8013 211.029 17.6099C210.197 20.1616 208.423 21.8799 205.957 22.8658C203.1 24.0082 200.144 24.1551 197.22 23.2263C193.031 21.897 190.713 18.8628 189.872 14.6615C189.37 12.1537 189.494 9.65345 190.414 7.24669C192.03 3.01674 195.143 0.684351 199.651 0.148455C201.631 -0.0861183 203.564 0.108406 205.41 0.804498C208.857 2.10514 210.687 4.73503 211.216 8.27652C211.41 9.57907 211.311 10.9236 211.391 12.2452C211.428 12.8345 211.181 12.9565 210.647 12.9565C205.999 12.9413 201.354 12.947 196.707 12.9508C196.405 12.9508 196.103 12.9794 195.813 12.9947ZM205.486 8.68464C205.339 7.50605 204.862 6.61925 203.965 5.98228C201.568 4.28305 197.604 5.29954 196.336 7.93134C196.231 8.15065 196.164 8.38904 196.056 8.68655H205.486V8.68464Z" fill="#767676"/>
<path d="M83.8375 20.0647C83.7459 20.1867 83.639 20.2992 83.5684 20.4308C82.4232 22.5515 80.5394 23.5127 78.2262 23.7187C76.5237 23.8693 74.8442 23.7129 73.2982 22.8795C71.0327 21.659 69.9791 19.7176 69.9028 17.1964C69.8322 14.8411 70.8724 13.1095 72.8668 11.8927C74.869 10.6722 77.1345 10.1954 79.3504 9.57369C80.5165 9.24567 81.6941 8.95579 82.8431 8.57627C83.9539 8.2082 84.2478 7.03534 83.4157 6.21338C82.2686 5.08056 80.8009 5.20643 79.3809 5.44481C78.127 5.6546 77.3005 6.41934 76.9799 7.68184C76.6974 8.79368 76.6879 8.79178 75.4854 8.79178C73.8231 8.79178 72.1626 8.79178 70.4277 8.79178C70.4391 6.21147 71.1052 4.00114 73.0997 2.33433C74.5674 1.10806 76.3119 0.514956 78.1785 0.253683C80.4879 -0.0686168 82.782 -0.0514529 85.0151 0.730459C87.8952 1.73932 89.7217 4.05644 89.7809 7.08111C89.882 12.2494 89.861 17.4176 89.903 22.5858C89.9068 23.0779 89.7274 23.2571 89.235 23.2495C87.6871 23.2304 86.1374 23.2324 84.5895 23.2476C84.1238 23.2514 83.9635 23.0722 83.9768 22.6145C84.0035 21.7753 83.9845 20.9343 83.9845 20.0933C83.9367 20.0818 83.8871 20.0723 83.8394 20.0608L83.8375 20.0647ZM83.9902 12.7872C82.7286 13.1362 81.654 13.4127 80.5948 13.735C79.4172 14.0935 78.2224 14.4234 77.0944 14.9002C76.2603 15.253 75.9263 16.1341 76.0752 16.979C76.2279 17.8429 76.8177 18.3883 77.7758 18.5523C80.3867 18.9986 83.0015 17.3528 83.6982 14.7839C83.8604 14.1889 83.8814 13.5557 83.9902 12.7852V12.7872Z" fill="#767676"/>
<path d="M137.072 19.9822C136.904 20.1195 136.854 20.1405 136.837 20.1767C135.001 24.3571 129.048 24.3609 126.17 22.7723C122.442 20.7164 121.566 14.3925 125.967 11.8942C127.685 10.9178 129.542 10.3666 131.426 9.85932C132.825 9.48172 134.226 9.10983 135.617 8.70743C136.258 8.52054 136.919 8.31648 136.953 7.45256C136.984 6.65348 136.613 5.99744 135.789 5.67896C134.377 5.13352 132.937 5.13162 131.561 5.78194C130.363 6.34835 130.038 7.464 129.951 8.73032C129.767 8.7532 129.588 8.79325 129.407 8.79325C127.691 8.79897 125.973 8.778 124.257 8.80851C123.717 8.81804 123.561 8.64641 123.58 8.11623C123.696 4.84174 125.162 2.39683 128.218 1.14196C131.737 -0.303622 135.361 -0.42949 138.913 1.06758C141.286 2.06881 142.5 4.0255 142.851 6.51999C142.963 7.31334 142.99 8.12577 142.992 8.92866C143.005 13.437 142.986 17.9454 143.013 22.4519C143.017 23.0793 142.837 23.2777 142.213 23.2624C140.761 23.2262 139.305 23.2243 137.852 23.2624C137.215 23.2796 137.02 23.0622 137.062 22.4424C137.114 21.6662 137.075 20.8843 137.075 19.9841L137.072 19.9822ZM136.974 12.8916C136.728 12.9469 136.524 12.9832 136.323 13.0385C134.724 13.479 133.121 13.9062 131.527 14.3734C131.031 14.5184 130.536 14.7205 130.092 14.9818C129.351 15.4166 129.063 16.1547 129.221 16.99C129.382 17.8444 129.889 18.4031 130.767 18.5233C131.371 18.6053 132 18.6072 132.603 18.5328C135.287 18.2067 137.364 15.5673 136.972 12.8916H136.974Z" fill="#767676"/>
<path d="M190.513 23.2187C188.198 23.2187 186.032 23.2321 183.867 23.1958C183.663 23.192 183.405 22.9002 183.272 22.6828C181.76 20.2131 180.249 17.7434 178.783 15.247C178.449 14.6768 178.067 14.4785 177.418 14.4937C175.758 14.5338 175.756 14.5052 175.756 16.1453C175.756 18.2812 175.739 20.4153 175.767 22.5493C175.775 23.0929 175.592 23.2435 175.072 23.2359C173.452 23.2111 171.832 23.2149 170.211 23.2359C169.719 23.2416 169.551 23.0757 169.553 22.576C169.566 15.4358 169.56 8.29565 169.564 1.15546C169.564 0.997175 169.606 0.836979 169.633 0.646268H175.723C175.735 0.907541 175.756 1.15928 175.756 1.40911C175.758 3.73387 175.771 6.05862 175.746 8.38338C175.74 8.90211 175.889 9.0871 176.424 9.09854C178.321 9.14431 178.319 9.16148 179.283 7.5023C180.51 5.38923 181.747 3.28188 182.953 1.15546C183.18 0.75688 183.419 0.589055 183.896 0.596684C185.896 0.627197 187.898 0.610033 190.034 0.610033C189.887 0.896099 189.788 1.11542 189.669 1.32138C187.805 4.54438 185.951 7.77692 184.052 10.9809C183.724 11.5358 183.757 11.9249 184.081 12.455C186.083 15.7372 188.051 19.0384 190.026 22.3357C190.169 22.5741 190.295 22.824 190.511 23.2168L190.513 23.2187Z" fill="#767676"/>
<path d="M225.682 6.35633V7.26029C225.682 12.3141 225.667 17.3679 225.7 22.4217C225.703 23.1083 225.474 23.2609 224.846 23.2456C223.321 23.2113 221.795 23.2113 220.27 23.2456C219.657 23.259 219.458 23.0854 219.462 22.4465C219.489 17.3698 219.478 12.2912 219.478 7.21452V6.36968C219.153 6.34298 218.878 6.30102 218.605 6.29911C217.008 6.29339 215.41 6.27623 213.815 6.30674C213.215 6.31818 212.96 6.16752 212.981 5.51339C213.025 4.11548 212.992 2.71376 212.996 1.31395C212.996 1.10608 213.028 0.900109 213.049 0.648371C213.32 0.635021 213.551 0.612136 213.784 0.612136C219.649 0.610229 225.513 0.623579 231.378 0.593065C232.065 0.589251 232.227 0.814289 232.21 1.44173C232.174 2.79386 232.172 4.1479 232.21 5.49813C232.229 6.13319 231.992 6.32009 231.378 6.30674C229.805 6.27432 228.23 6.29339 226.658 6.29911C226.354 6.29911 226.053 6.33344 225.684 6.35633H225.682Z" fill="#767676"/>
<path d="M54.7084 0.644531H69.1528C69.1528 1.28532 69.1528 1.89368 69.1528 2.50205C69.1528 3.49756 69.1203 4.49688 69.1642 5.49048C69.1909 6.10838 68.9924 6.32007 68.3569 6.31053C66.1887 6.27811 64.0186 6.29718 61.8504 6.29909C61.1341 6.29909 60.7753 6.66652 60.774 7.40139C60.774 12.3599 60.774 17.3164 60.774 22.2749C60.774 22.9144 60.4438 23.2354 59.7834 23.238C58.2813 23.238 56.7793 23.2284 55.2791 23.2418C54.8363 23.2456 54.6436 23.114 54.6436 22.6334C54.6569 15.4227 54.6531 8.21 54.6569 0.999252C54.6569 0.907711 54.6836 0.814263 54.7084 0.646438V0.644531Z" fill="#767676"/>
</svg>
