<svg width="220" height="134" viewBox="0 0 220 134" fill="none" xmlns="http://www.w3.org/2000/svg">
<rect x="123" width="350" height="70" rx="9.8903" fill="white"/>
<rect x="188" y="32" width="217" height="6" rx="3" fill="#F6F6F8"/>
<rect x="188" y="43" width="126" height="6" rx="3" fill="#F6F6F8"/>
<rect x="188" y="21" width="236" height="6" rx="3" fill="#F6F6F8"/>
<rect x="138" y="15" width="40" height="40" rx="10" fill="#E1E3EA"/>
<rect x="158" y="45" width="0.0001" height="0.0001" stroke="white" stroke-width="3" stroke-linejoin="round"/>
<path d="M155.245 27.8998C155.982 27.1244 157.034 26.4517 158 26.4499C158.97 26.4481 160.015 27.1208 160.755 27.8998C161.494 28.677 162.133 29.781 162.133 30.7996C162.133 31.8182 161.494 32.9222 160.755 33.6994C160.015 34.4783 158.97 35.151 158 35.1493V36.5991" stroke="white" stroke-width="3" stroke-linecap="round" stroke-linejoin="round"/>
<rect x="82" y="88" width="350" height="70" rx="9.8903" fill="white"/>
<rect x="147" y="120" width="217" height="6" rx="3" fill="#F6F6F8"/>
<rect x="147" y="131" width="126" height="6" rx="3" fill="#F6F6F8"/>
<rect x="147" y="109" width="236" height="6" rx="3" fill="#F6F6F8"/>
<rect x="97" y="103" width="40" height="40" rx="10" fill="#E1E3EA"/>
<rect x="117" y="133" width="0.0001" height="0.0001" stroke="white" stroke-width="3" stroke-linejoin="round"/>
<path d="M114.245 115.9C114.982 115.124 116.034 114.452 117 114.45C117.97 114.448 119.015 115.121 119.755 115.9C120.494 116.677 121.133 117.781 121.133 118.8C121.133 119.818 120.494 120.922 119.755 121.699C119.015 122.478 117.97 123.151 117 123.149V124.599" stroke="white" stroke-width="3" stroke-linecap="round" stroke-linejoin="round"/>
<g filter="url(#filter0_dddd_8005_4527)">
<rect x="52" y="39" width="191" height="70" rx="9.8903" fill="white"/>
<rect x="117" y="71" width="77" height="6" rx="3" fill="#F6F6F8"/>
<rect x="117" y="82" width="47" height="6" rx="3" fill="#F6F6F8"/>
<rect x="117" y="60" width="84" height="6" rx="3" fill="#F6F6F8"/>
<rect x="67" y="54" width="40" height="40" rx="10" fill="url(#paint0_linear_8005_4527)"/>
<path fill-rule="evenodd" clip-rule="evenodd" d="M83.2736 72.2736C83.2736 71.1691 84.169 70.2736 85.2736 70.2736H88.0352C88.5656 70.2736 89.0743 70.0629 89.4494 69.6878L90.4184 68.7189C91.6783 67.459 90.786 65.3047 89.0041 65.3047H80.3046C79.2 65.3047 78.3046 66.2001 78.3046 67.3047V76.0042C78.3046 77.786 80.4589 78.6784 81.7188 77.4184L82.6878 76.4495C83.0628 76.0744 83.2736 75.5657 83.2736 75.0353V72.2736Z" fill="white"/>
<path fill-rule="evenodd" clip-rule="evenodd" d="M95.6953 80.6957C95.6953 81.8003 94.7999 82.6957 93.6953 82.6957H84.3747C82.593 82.6957 81.7006 80.5416 82.9604 79.2816L84.5511 77.6907C84.9261 77.3156 85.1368 76.8069 85.1368 76.2766V74.1361C85.1368 73.0316 86.0322 72.1361 87.1368 72.1361H89.2772C89.8076 72.1361 90.3162 71.9255 90.6913 71.5505L92.2813 69.9608C93.5412 68.701 95.6953 69.5934 95.6953 71.3751V80.6957Z" fill="white"/>
</g>
<defs>
<filter id="filter0_dddd_8005_4527" x="0" y="29" width="295" height="262" filterUnits="userSpaceOnUse" color-interpolation-filters="sRGB">
<feFlood flood-opacity="0" result="BackgroundImageFix"/>
<feColorMatrix in="SourceAlpha" type="matrix" values="0 0 0 0 0 0 0 0 0 0 0 0 0 0 0 0 0 0 127 0" result="hardAlpha"/>
<feOffset dy="8"/>
<feGaussianBlur stdDeviation="9"/>
<feColorMatrix type="matrix" values="0 0 0 0 0 0 0 0 0 0 0 0 0 0 0 0 0 0 0.05 0"/>
<feBlend mode="normal" in2="BackgroundImageFix" result="effect1_dropShadow_8005_4527"/>
<feColorMatrix in="SourceAlpha" type="matrix" values="0 0 0 0 0 0 0 0 0 0 0 0 0 0 0 0 0 0 127 0" result="hardAlpha"/>
<feOffset dy="32"/>
<feGaussianBlur stdDeviation="16"/>
<feColorMatrix type="matrix" values="0 0 0 0 0 0 0 0 0 0 0 0 0 0 0 0 0 0 0.04 0"/>
<feBlend mode="normal" in2="effect1_dropShadow_8005_4527" result="effect2_dropShadow_8005_4527"/>
<feColorMatrix in="SourceAlpha" type="matrix" values="0 0 0 0 0 0 0 0 0 0 0 0 0 0 0 0 0 0 127 0" result="hardAlpha"/>
<feOffset dy="73"/>
<feGaussianBlur stdDeviation="22"/>
<feColorMatrix type="matrix" values="0 0 0 0 0 0 0 0 0 0 0 0 0 0 0 0 0 0 0.03 0"/>
<feBlend mode="normal" in2="effect2_dropShadow_8005_4527" result="effect3_dropShadow_8005_4527"/>
<feColorMatrix in="SourceAlpha" type="matrix" values="0 0 0 0 0 0 0 0 0 0 0 0 0 0 0 0 0 0 127 0" result="hardAlpha"/>
<feOffset dy="130"/>
<feGaussianBlur stdDeviation="26"/>
<feColorMatrix type="matrix" values="0 0 0 0 0 0 0 0 0 0 0 0 0 0 0 0 0 0 0.01 0"/>
<feBlend mode="normal" in2="effect3_dropShadow_8005_4527" result="effect4_dropShadow_8005_4527"/>
<feBlend mode="normal" in="SourceGraphic" in2="effect4_dropShadow_8005_4527" result="shape"/>
</filter>
<linearGradient id="paint0_linear_8005_4527" x1="107" y1="74" x2="67" y2="74" gradientUnits="userSpaceOnUse">
<stop stop-color="#5F73FE"/>
<stop offset="1" stop-color="#798AFF" stop-opacity="0.894118"/>
</linearGradient>
</defs>
</svg>
