<svg width="24" height="24" viewBox="0 0 24 24" fill="none" xmlns="http://www.w3.org/2000/svg">
<path fill-rule="evenodd" clip-rule="evenodd" d="M2 10.5714V13.4286C2 18.1624 5.83756 22 10.5714 22H13.4286C18.1624 22 22 18.1624 22 13.4286V10.5714C22 5.83756 18.1624 2 13.4286 2H10.5714C5.83756 2 2 5.83756 2 10.5714Z" fill="#6F81FE"/>
<path fill-rule="evenodd" clip-rule="evenodd" d="M10.583 7.96458L15.0987 11.0332C15.3913 11.204 15.5711 11.5173 15.5711 11.856C15.5711 12.1948 15.3913 12.5081 15.0987 12.6789L10.583 16.036C9.72585 16.6174 8.42871 16.1217 8.42871 15.2132V8.78458C8.42871 7.88029 9.72728 7.38315 10.583 7.96458Z" fill="white"/>
</svg>
