<svg width="24" height="24" viewBox="0 0 24 24" fill="none" xmlns="http://www.w3.org/2000/svg">
<path fill-rule="evenodd" clip-rule="evenodd" d="M5.92932 19.6483C4.98952 19.8103 4.02513 19.5654 3.27655 18.9745C2.52797 18.3837 2.06571 17.5026 2.005 16.5508V6.32302C1.96127 5.24977 2.61406 4.27059 3.62157 3.89816C6.58073 2.8122 9.90298 3.6439 12.0015 5.99599V20.5923C10.5948 19.4098 8.16425 19.3384 5.92932 19.6483Z" fill="#6F81FE" stroke="white" stroke-linecap="round" stroke-linejoin="round"/>
<path fill-rule="evenodd" clip-rule="evenodd" d="M18.0741 19.6483C19.0139 19.8103 19.9783 19.5654 20.7269 18.9745C21.4754 18.3837 21.9377 17.5026 21.9984 16.5508V6.32302C22.0421 5.24977 21.3893 4.27059 20.3818 3.89816C17.4227 2.8122 14.1004 3.6439 12.002 5.99599V20.5923C13.4086 19.4098 15.8392 19.3384 18.0741 19.6483Z" fill="#6F81FE" stroke="white" stroke-linecap="round" stroke-linejoin="round"/>
<path fill-rule="evenodd" clip-rule="evenodd" d="M8.43133 10.5957H5.5752H8.43133ZM8.43133 13.4518H5.5752H8.43133ZM18.4278 10.5957H15.5717H18.4278ZM18.4278 13.4518H15.5717H18.4278Z" fill="#6F81FE"/>
<path d="M8.43133 11.0957C8.70747 11.0957 8.93133 10.8718 8.93133 10.5957C8.93133 10.3196 8.70747 10.0957 8.43133 10.0957V10.5957V11.0957ZM5.5752 10.0957C5.29905 10.0957 5.0752 10.3196 5.0752 10.5957C5.0752 10.8718 5.29905 11.0957 5.5752 11.0957V10.5957V10.0957ZM8.43133 13.9518C8.70747 13.9518 8.93133 13.728 8.93133 13.4518C8.93133 13.1757 8.70747 12.9518 8.43133 12.9518V13.4518V13.9518ZM5.5752 12.9518C5.29905 12.9518 5.0752 13.1757 5.0752 13.4518C5.0752 13.728 5.29905 13.9518 5.5752 13.9518V13.4518V12.9518ZM18.4278 11.0957C18.7039 11.0957 18.9278 10.8718 18.9278 10.5957C18.9278 10.3196 18.7039 10.0957 18.4278 10.0957V10.5957V11.0957ZM15.5717 10.0957C15.2955 10.0957 15.0717 10.3196 15.0717 10.5957C15.0717 10.8718 15.2955 11.0957 15.5717 11.0957V10.5957V10.0957ZM18.4278 13.9518C18.7039 13.9518 18.9278 13.728 18.9278 13.4518C18.9278 13.1757 18.7039 12.9518 18.4278 12.9518V13.4518V13.9518ZM15.5717 12.9518C15.2955 12.9518 15.0717 13.1757 15.0717 13.4518C15.0717 13.728 15.2955 13.9518 15.5717 13.9518V13.4518V12.9518ZM8.43133 10.5957V10.0957H5.5752V10.5957V11.0957H8.43133V10.5957ZM8.43133 13.4518V12.9518H5.5752V13.4518V13.9518H8.43133V13.4518ZM18.4278 10.5957V10.0957H15.5717V10.5957V11.0957H18.4278V10.5957ZM18.4278 13.4518V12.9518H15.5717V13.4518V13.9518H18.4278V13.4518Z" fill="white"/>
</svg>
