<svg width="20" height="15" viewBox="0 0 20 15" fill="none" xmlns="http://www.w3.org/2000/svg">
<path d="M0 13C0 12.4477 0.447715 12 1 12H19C19.5523 12 20 12.4477 20 13V14C20 14.5523 19.5523 15 19 15H1C0.447716 15 0 14.5523 0 14V13Z" fill="white"/>
<path d="M19 12V12.0713C19 12.5841 18.5523 13 18 13H2C1.44772 13 1 12.5841 1 12.0713V12H19ZM5.96973 0C6.43964 0 6.8306 0.375642 7.20312 0.662109C7.41943 0.828431 7.69722 0.928711 8 0.928711H12C12.3028 0.928711 12.5806 0.82843 12.7969 0.662109C13.1694 0.375642 13.5604 0 14.0303 0H18C18.5523 0 19 0.415875 19 0.928711V10.5H1V0.928711C1 0.415875 1.44772 0 2 0H5.96973Z" fill="white"/>
</svg>
