<svg width="17" height="20" viewBox="0 0 17 20" fill="none" xmlns="http://www.w3.org/2000/svg">
<path fill-rule="evenodd" clip-rule="evenodd" d="M2.71293 15.8623C2.7382 17.4416 4.00864 18.7177 5.58779 18.75H11.3426C12.8791 18.7204 14.1317 17.5088 14.2124 15.9741C14.2226 15.825 14.2304 15.6759 14.2522 15.5293L16.1654 2.22214C16.222 1.85673 16.1174 1.48472 15.8787 1.20234C15.64 0.919954 15.2905 0.754947 14.9208 0.75H2.00964C1.6399 0.754947 1.29047 0.919954 1.05174 1.20234C0.813012 1.48472 0.708438 1.85673 0.765072 2.22214L2.69364 15.6386C2.7041 15.7127 2.71054 15.7874 2.71293 15.8623Z" fill="white" stroke="url(#paint0_linear_4434_8618)" stroke-width="1.5" stroke-linecap="round" stroke-linejoin="round"/>
<path fill-rule="evenodd" clip-rule="evenodd" d="M5.71396 10.6847C5.55222 10.9391 5.53593 11.2598 5.67107 11.5293C5.8062 11.7987 6.07291 11.9775 6.37353 12H7.42011M11.2168 10.6847C11.3785 10.9391 11.3948 11.2598 11.2597 11.5293C11.1245 11.7987 10.8578 11.9775 10.5572 12H9.51193M7.02682 8.24959L7.80596 7.1413C7.93741 6.89968 8.19047 6.74927 8.46553 6.74927C8.7406 6.74927 8.99366 6.89968 9.12511 7.1413L9.90425 8.24959" fill="white"/>
<path d="M6.34687 11.0871C6.56911 10.7376 6.46591 10.2741 6.11636 10.0518C5.76682 9.82958 5.30329 9.93278 5.08105 10.2823L5.71396 10.6847L6.34687 11.0871ZM5.67107 11.5293L6.34149 11.1931H6.34149L5.67107 11.5293ZM6.37353 12L6.31746 12.7479C6.33612 12.7493 6.35482 12.75 6.37353 12.75V12ZM7.42011 12.75C7.83432 12.75 8.17011 12.4142 8.17011 12C8.17011 11.5858 7.83432 11.25 7.42011 11.25V12V12.75ZM11.8497 10.2823C11.6275 9.93278 11.1639 9.82958 10.8144 10.0518C10.4648 10.2741 10.3616 10.7376 10.5839 11.0871L11.2168 10.6847L11.8497 10.2823ZM11.2597 11.5293L10.5893 11.1931V11.1931L11.2597 11.5293ZM10.5572 12V12.75C10.5759 12.75 10.5946 12.7493 10.6133 12.7479L10.5572 12ZM9.51193 11.25C9.09771 11.25 8.76193 11.5858 8.76193 12C8.76193 12.4142 9.09771 12.75 9.51193 12.75V12V11.25ZM6.41327 7.81825C6.17505 8.15711 6.25663 8.62492 6.59548 8.86314C6.93434 9.10136 7.40215 9.01978 7.64037 8.68093L7.02682 8.24959L6.41327 7.81825ZM7.80596 7.1413L8.41952 7.57264C8.43598 7.54922 8.4511 7.52487 8.46478 7.49972L7.80596 7.1413ZM9.12511 7.1413L8.46629 7.49972C8.47997 7.52487 8.49509 7.54922 8.51155 7.57264L9.12511 7.1413ZM9.2907 8.68093C9.52892 9.01978 9.99673 9.10136 10.3356 8.86314C10.6744 8.62492 10.756 8.15711 10.5178 7.81825L9.90425 8.24959L9.2907 8.68093ZM5.71396 10.6847L5.08105 10.2823C4.77785 10.7592 4.74732 11.3603 5.00064 11.8655L5.67107 11.5293L6.34149 11.1931C6.32454 11.1593 6.32658 11.119 6.34687 11.0871L5.71396 10.6847ZM5.67107 11.5293L5.00064 11.8655C5.25396 12.3706 5.75392 12.7057 6.31746 12.7479L6.37353 12L6.42961 11.2521C6.3919 11.2493 6.35844 11.2269 6.34149 11.1931L5.67107 11.5293ZM6.37353 12V12.75H7.42011V12V11.25H6.37353V12ZM11.2168 10.6847L10.5839 11.0871C10.6042 11.119 10.6062 11.1593 10.5893 11.1931L11.2597 11.5293L11.9301 11.8655C12.1834 11.3603 12.1529 10.7592 11.8497 10.2823L11.2168 10.6847ZM11.2597 11.5293L10.5893 11.1931C10.5723 11.2269 10.5388 11.2493 10.5011 11.2521L10.5572 12L10.6133 12.7479C11.1768 12.7057 11.6768 12.3706 11.9301 11.8655L11.2597 11.5293ZM10.5572 12V11.25H9.51193V12V12.75H10.5572V12ZM7.02682 8.24959L7.64037 8.68093L8.41952 7.57264L7.80596 7.1413L7.19241 6.70997L6.41327 7.81825L7.02682 8.24959ZM7.80596 7.1413L8.46478 7.49972L8.46553 7.49927V6.74927V5.99927C7.91571 5.99927 7.4099 6.29991 7.14714 6.78289L7.80596 7.1413ZM8.46553 6.74927V7.49927L8.46629 7.49972L9.12511 7.1413L9.78392 6.78289C9.52117 6.29991 9.01536 5.99927 8.46553 5.99927V6.74927ZM9.12511 7.1413L8.51155 7.57264L9.2907 8.68093L9.90425 8.24959L10.5178 7.81825L9.73866 6.70997L9.12511 7.1413Z" fill="url(#paint1_linear_4434_8618)"/>
<defs>
<linearGradient id="paint0_linear_4434_8618" x1="16.1804" y1="9.75" x2="0.75" y2="9.75" gradientUnits="userSpaceOnUse">
<stop stop-color="#5F73FE"/>
<stop offset="1" stop-color="#798AFF" stop-opacity="0.894118"/>
</linearGradient>
<linearGradient id="paint1_linear_4434_8618" x1="11.3507" y1="9.37464" x2="5.58008" y2="9.37464" gradientUnits="userSpaceOnUse">
<stop stop-color="#5F73FE"/>
<stop offset="1" stop-color="#798AFF" stop-opacity="0.894118"/>
</linearGradient>
</defs>
</svg>
