<svg width="22" height="22" viewBox="0 0 22 22" fill="none" xmlns="http://www.w3.org/2000/svg">
<path fill-rule="evenodd" clip-rule="evenodd" d="M18.3222 0.0220957C19.9361 -0.188979 21.2667 1.14162 21.0556 2.75549C20.7471 5.11442 19.8991 9.12092 17.5039 11.7037C16.7418 12.5254 15.8206 13.2841 14.874 13.9586L15.1513 15.8971C15.2292 16.4423 15.0456 16.992 14.6562 17.3815L11.4746 20.5641C10.4549 21.5835 8.70898 21.0012 8.50486 19.5739L8.08006 16.6041L8.08494 16.6031C7.81318 16.472 7.56027 16.2962 7.3408 16.0768L5.00095 13.7369C4.7814 13.5172 4.60578 13.2639 4.47459 12.9918L4.47361 12.9977L1.50388 12.5739C0.0764894 12.3697 -0.505016 10.6228 0.514626 9.60315L3.69627 6.42151C4.08567 6.03219 4.63552 5.8496 5.18064 5.92737L7.11814 6.20374C7.79269 5.25713 8.55234 4.33592 9.374 3.57385C11.9567 1.17866 15.9633 0.330646 18.3222 0.0220957ZM6.17088 18.0885C6.46367 17.7958 6.93855 17.796 7.23142 18.0885C7.52427 18.3814 7.52419 18.8561 7.23142 19.149L5.81736 20.5641C5.52449 20.8566 5.0496 20.8567 4.75681 20.5641C4.46392 20.2712 4.46392 19.7955 4.75681 19.5026L6.17088 18.0885ZM4.04978 15.9674C4.34265 15.6747 4.81747 15.6747 5.11033 15.9674C5.40318 16.2603 5.4031 16.7351 5.11033 17.028L2.2822 19.8561C1.98931 20.149 1.51455 20.149 1.22166 19.8561C0.928872 19.5632 0.9288 19.0884 1.22166 18.7955L4.04978 15.9674ZM1.92869 13.8463C2.22159 13.5535 2.69638 13.5535 2.98924 13.8463C3.28197 14.1392 3.28196 14.614 2.98924 14.9069L1.57517 16.3209C1.28232 16.6138 0.807528 16.6137 0.514626 16.3209C0.221733 16.028 0.221733 15.5533 0.514626 15.2604L1.92869 13.8463ZM15.1865 5.89124C14.4055 5.11026 13.1394 5.11042 12.3584 5.89124C11.5773 6.67228 11.5773 7.93831 12.3584 8.71936C13.1394 9.50031 14.4055 9.50038 15.1865 8.71936C15.9673 7.93833 15.9674 6.67222 15.1865 5.89124Z" fill="white"/>
</svg>
