<svg width="21" height="22" viewBox="0 0 21 22" fill="none" xmlns="http://www.w3.org/2000/svg">
<path d="M10.8133 0C10.8758 0 10.9381 0.00212789 11 0.00633957V4.75C11 6.26878 12.2312 7.5 13.75 7.5H17.5V12.8954C17.2684 12.8016 17.0152 12.75 16.75 12.75C15.6454 12.75 14.75 13.6454 14.75 14.75V15.75H13.75C12.6454 15.75 11.75 16.6454 11.75 17.75C11.75 18.8546 12.6454 19.75 13.75 19.75H14.75V20.75C14.75 20.8517 14.7576 20.9516 14.7722 21.0493C14.1587 21.3384 13.4732 21.5 12.75 21.5H4.75C2.12665 21.5 0 19.3734 0 16.75V4.75C0 2.12665 2.12665 0 4.75 0H10.8133Z" fill="white"/>
<path d="M16.8626 5.71359C16.9387 5.8049 17.0084 5.90059 17.0715 6H13.75C13.0596 6 12.5 5.44036 12.5 4.75V0.578021C12.655 0.69837 12.798 0.836007 12.9259 0.989493L16.8626 5.71359Z" fill="white"/>
<path d="M20.5 17.75C20.5 18.1642 20.1642 18.5 19.75 18.5H17.5V20.75C17.5 21.1642 17.1642 21.5 16.75 21.5C16.3358 21.5 16 21.1642 16 20.75V18.5H13.75C13.3358 18.5 13 18.1642 13 17.75C13 17.3358 13.3358 17 13.75 17H16V14.75C16 14.3358 16.3358 14 16.75 14C17.1642 14 17.5 14.3358 17.5 14.75V17H19.75C20.1642 17 20.5 17.3358 20.5 17.75Z" fill="white"/>
</svg>
