<svg width="18" height="22" viewBox="0 0 18 22" fill="none" xmlns="http://www.w3.org/2000/svg">
<path fill-rule="evenodd" clip-rule="evenodd" d="M0 4.75C0 2.12665 2.12665 0 4.75 0H12.75C15.3734 0 17.5 2.12665 17.5 4.75V16.75C17.5 19.3734 15.3734 21.5 12.75 21.5H4.75C2.12665 21.5 0 19.3734 0 16.75V4.75ZM4.75 5C4.33579 5 4 5.33579 4 5.75C4 6.16421 4.33579 6.5 4.75 6.5H12.75C13.1642 6.5 13.5 6.16421 13.5 5.75C13.5 5.33579 13.1642 5 12.75 5H4.75ZM4 10.75C4 10.3358 4.33579 10 4.75 10H12.75C13.1642 10 13.5 10.3358 13.5 10.75C13.5 11.1642 13.1642 11.5 12.75 11.5H4.75C4.33579 11.5 4 11.1642 4 10.75ZM4.75 15C4.33579 15 4 15.3358 4 15.75C4 16.1642 4.33579 16.5 4.75 16.5H8.75C9.16421 16.5 9.5 16.1642 9.5 15.75C9.5 15.3358 9.16421 15 8.75 15H4.75Z" fill="white"/>
</svg>
