<svg width="26" height="20" viewBox="0 0 26 20" fill="none" xmlns="http://www.w3.org/2000/svg">
<path fill-rule="evenodd" clip-rule="evenodd" d="M12.7772 7.84001V18.4746L21.6394 14.9297V7.56022M12.7772 7.84001L15.9423 10.2455L21.6394 7.56022M12.7772 7.83996L21.6394 4.29509L12.7772 7.83996ZM21.6394 4.29511L12.7772 0.750244L21.6394 4.29511ZM21.6394 4.29509L24.8044 6.06753L21.6394 7.56017M3.91506 4.29511L12.7772 0.750244L3.91506 4.29511ZM3.91506 4.29509L0.75 6.06753L3.91506 7.56017M3.91506 4.29509L12.7772 7.83996L3.91506 4.29509ZM12.7772 7.84001V18.4746L3.91506 14.9297V7.56022M12.7772 7.84001L9.61216 10.2455L3.91506 7.56022" fill="white"/>
<path d="M13.5272 7.84001C13.5272 7.4258 13.1914 7.09001 12.7772 7.09001C12.363 7.09001 12.0272 7.4258 12.0272 7.84001H12.7772H13.5272ZM12.7772 18.4746H12.0272C12.0272 18.7235 12.1507 18.9561 12.3568 19.0957C12.5628 19.2352 12.8247 19.2634 13.0558 19.171L12.7772 18.4746ZM21.6394 14.9297L21.9179 15.6261C22.2027 15.5122 22.3894 15.2364 22.3894 14.9297H21.6394ZM22.3894 7.56022C22.3894 7.14601 22.0536 6.81022 21.6394 6.81022C21.2252 6.81022 20.8894 7.14601 20.8894 7.56022H21.6394H22.3894ZM13.231 7.24289C12.9013 6.99226 12.4307 7.05642 12.1801 7.3862C11.9295 7.71598 11.9936 8.1865 12.3234 8.43713L12.7772 7.84001L13.231 7.24289ZM15.9423 10.2455L15.4885 10.8426C15.711 11.0117 16.0092 11.0431 16.262 10.9239L15.9423 10.2455ZM21.9591 8.23864C22.3338 8.06204 22.4944 7.61514 22.3178 7.24046C22.1412 6.86578 21.6943 6.7052 21.3196 6.8818L21.6394 7.56022L21.9591 8.23864ZM12.4987 7.1436C12.1141 7.29744 11.927 7.73391 12.0809 8.1185C12.2347 8.50309 12.6712 8.69015 13.0558 8.53632L12.7772 7.83996L12.4987 7.1436ZM21.9179 4.99145C22.3025 4.83762 22.4896 4.40114 22.3357 4.01655C22.1819 3.63196 21.7454 3.4449 21.3608 3.59874L21.6394 4.29509L21.9179 4.99145ZM21.3608 4.99147C21.7454 5.1453 22.1819 4.95824 22.3357 4.57365C22.4896 4.18906 22.3025 3.75259 21.9179 3.59875L21.6394 4.29511L21.3608 4.99147ZM13.0558 0.0538866C12.6712 -0.0999484 12.2347 0.0871135 12.0809 0.471701C11.927 0.856289 12.1141 1.29277 12.4987 1.4466L12.7772 0.750244L13.0558 0.0538866ZM22.0058 3.64071C21.6444 3.43833 21.1874 3.56724 20.985 3.92864C20.7826 4.29005 20.9115 4.74709 21.2729 4.94947L21.6394 4.29509L22.0058 3.64071ZM24.8044 6.06753L25.1244 6.74588C25.3784 6.62608 25.5442 6.37439 25.554 6.0937C25.5638 5.81302 25.4159 5.55038 25.1709 5.41315L24.8044 6.06753ZM21.3195 6.88182C20.9448 7.0585 20.7844 7.50544 20.961 7.88008C21.1377 8.25472 21.5847 8.4152 21.9593 8.23852L21.6394 7.56017L21.3195 6.88182ZM3.63652 3.59875C3.25193 3.75259 3.06487 4.18906 3.2187 4.57365C3.37254 4.95824 3.80901 5.1453 4.1936 4.99147L3.91506 4.29511L3.63652 3.59875ZM13.0558 1.4466C13.4404 1.29277 13.6274 0.856289 13.4736 0.471701C13.3197 0.0871135 12.8833 -0.0999484 12.4987 0.0538866L12.7772 0.750244L13.0558 1.4466ZM4.28151 4.94947C4.64291 4.74709 4.77182 4.29005 4.56944 3.92864C4.36705 3.56724 3.91001 3.43833 3.54861 3.64071L3.91506 4.29509L4.28151 4.94947ZM0.75 6.06753L0.383547 5.41315C0.138497 5.55038 -0.00934553 5.81302 0.000456929 6.0937C0.0102594 6.37439 0.176064 6.62608 0.43009 6.74588L0.75 6.06753ZM3.59515 8.23852C3.96979 8.4152 4.41673 8.25472 4.59341 7.88008C4.77009 7.50544 4.60961 7.0585 4.23497 6.88182L3.91506 7.56017L3.59515 8.23852ZM4.1936 3.59874C3.80901 3.4449 3.37254 3.63196 3.2187 4.01655C3.06487 4.40114 3.25193 4.83762 3.63652 4.99145L3.91506 4.29509L4.1936 3.59874ZM12.4987 8.53632C12.8833 8.69015 13.3197 8.50309 13.4736 8.1185C13.6274 7.73391 13.4404 7.29744 13.0558 7.1436L12.7772 7.83996L12.4987 8.53632ZM13.5272 7.84001C13.5272 7.4258 13.1914 7.09001 12.7772 7.09001C12.363 7.09001 12.0272 7.4258 12.0272 7.84001H12.7772H13.5272ZM12.7772 18.4746L12.4987 19.171C12.7297 19.2634 12.9916 19.2352 13.1977 19.0957C13.4038 18.9561 13.5272 18.7235 13.5272 18.4746H12.7772ZM3.91506 14.9297H3.16506C3.16506 15.2364 3.35177 15.5122 3.63652 15.6261L3.91506 14.9297ZM4.66506 7.56022C4.66506 7.14601 4.32927 6.81022 3.91506 6.81022C3.50084 6.81022 3.16506 7.14601 3.16506 7.56022H3.91506H4.66506ZM13.231 8.43713C13.5608 8.1865 13.625 7.71598 13.3743 7.3862C13.1237 7.05642 12.6532 6.99226 12.3234 7.24289L12.7772 7.84001L13.231 8.43713ZM9.61216 10.2455L9.2924 10.9239C9.54526 11.0431 9.84342 11.0117 10.066 10.8426L9.61216 10.2455ZM4.23482 6.8818C3.86014 6.7052 3.41324 6.86578 3.23664 7.24046C3.06004 7.61514 3.22062 8.06204 3.5953 8.23864L3.91506 7.56022L4.23482 6.8818ZM12.7772 7.84001H12.0272V18.4746H12.7772H13.5272V7.84001H12.7772ZM12.7772 18.4746L13.0558 19.171L21.9179 15.6261L21.6394 14.9297L21.3608 14.2334L12.4987 17.7782L12.7772 18.4746ZM21.6394 14.9297H22.3894V7.56022H21.6394H20.8894V14.9297H21.6394ZM12.7772 7.84001L12.3234 8.43713L15.4885 10.8426L15.9423 10.2455L16.3961 9.64833L13.231 7.24289L12.7772 7.84001ZM15.9423 10.2455L16.262 10.9239L21.9591 8.23864L21.6394 7.56022L21.3196 6.8818L15.6225 9.56704L15.9423 10.2455ZM12.7772 7.83996L13.0558 8.53632L21.9179 4.99145L21.6394 4.29509L21.3608 3.59874L12.4987 7.1436L12.7772 7.83996ZM21.6394 4.29511L21.9179 3.59875L13.0558 0.0538866L12.7772 0.750244L12.4987 1.4466L21.3608 4.99147L21.6394 4.29511ZM21.6394 4.29509L21.2729 4.94947L24.438 6.72191L24.8044 6.06753L25.1709 5.41315L22.0058 3.64071L21.6394 4.29509ZM24.8044 6.06753L24.4845 5.38918L21.3195 6.88182L21.6394 7.56017L21.9593 8.23852L25.1244 6.74588L24.8044 6.06753ZM3.91506 4.29511L4.1936 4.99147L13.0558 1.4466L12.7772 0.750244L12.4987 0.0538866L3.63652 3.59875L3.91506 4.29511ZM3.91506 4.29509L3.54861 3.64071L0.383547 5.41315L0.75 6.06753L1.11645 6.72191L4.28151 4.94947L3.91506 4.29509ZM0.75 6.06753L0.43009 6.74588L3.59515 8.23852L3.91506 7.56017L4.23497 6.88182L1.06991 5.38918L0.75 6.06753ZM3.91506 4.29509L3.63652 4.99145L12.4987 8.53632L12.7772 7.83996L13.0558 7.1436L4.1936 3.59874L3.91506 4.29509ZM12.7772 7.84001H12.0272V18.4746H12.7772H13.5272V7.84001H12.7772ZM12.7772 18.4746L13.0558 17.7782L4.1936 14.2334L3.91506 14.9297L3.63652 15.6261L12.4987 19.171L12.7772 18.4746ZM3.91506 14.9297H4.66506V7.56022H3.91506H3.16506V14.9297H3.91506ZM12.7772 7.84001L12.3234 7.24289L9.15835 9.64833L9.61216 10.2455L10.066 10.8426L13.231 8.43713L12.7772 7.84001ZM9.61216 10.2455L9.93192 9.56704L4.23482 6.8818L3.91506 7.56022L3.5953 8.23864L9.2924 10.9239L9.61216 10.2455Z" fill="white"/>
</svg>
