<svg width="19" height="17" viewBox="0 0 19 17" fill="none" xmlns="http://www.w3.org/2000/svg">
<path fill-rule="evenodd" clip-rule="evenodd" d="M4.25 0C1.90279 0 0 1.90279 0 4.25V12.25C0 14.5972 1.90279 16.5 4.25 16.5H14.25C16.5972 16.5 18.5 14.5972 18.5 12.25V7.75C18.5 5.40279 16.5972 3.5 14.25 3.5H11.7939C10.5828 3.5 9.44627 2.91513 8.74235 1.92964C7.89468 0.742904 7.31458 0 6.20615 0H4.25ZM9.25 12C8.83579 12 8.5 12.3358 8.5 12.75C8.5 13.1642 8.83579 13.5 9.25 13.5H15.25C15.6642 13.5 16 13.1642 16 12.75C16 12.3358 15.6642 12 15.25 12H9.25Z" fill="white"/>
<path d="M8.25 1.26102V4.75H17.2604C16.4909 3.97784 15.4262 3.5 14.25 3.5H11.7939C10.5828 3.5 9.44627 2.91513 8.74235 1.92964C8.56935 1.68743 8.40748 1.46371 8.25 1.26102Z" fill="white"/>
<path d="M9.36801 0.25C9.55995 0.492333 9.73363 0.736047 9.89585 0.963696L9.96295 1.05779C10.3853 1.64908 11.0672 2 11.7939 2H14.25C15.7097 2 17.0424 2.54393 18.0564 3.44017C17.4955 1.59376 15.7797 0.25 13.75 0.25H9.36801Z" fill="white"/>
</svg>
