<svg width="23" height="23" viewBox="0 0 23 23" fill="none" xmlns="http://www.w3.org/2000/svg">
<path d="M2.02564 17.6884C1.40456 17.4297 1 16.8228 1 16.15V5.07452L10.1636 1.25636C10.9841 0.914476 11.9072 0.914476 12.7277 1.25636L16.6685 2.89834L21.8913 5.07452V16.15C21.8913 16.8228 21.4867 17.4297 20.8656 17.6884L11.4456 21.6134L2.02564 17.6884Z" fill="white"/>
<path d="M21.8913 5.07452V16.15C21.8913 16.8228 21.4867 17.4297 20.8656 17.6884L11.4456 21.6134L2.02564 17.6884C1.40456 17.4297 1 16.8228 1 16.15V5.07452L10.1636 1.25636C10.9841 0.914476 11.9072 0.914476 12.7277 1.25636L16.6685 2.89834L21.8913 5.07452ZM11.4456 9.42687L6.22282 7.25069L1 5.07452M11.4456 9.42687V21.6134M11.4456 9.42687L21.8913 5.07452M6.22282 7.25069L16.6685 2.89834" stroke="url(#paint0_linear_4434_8651)" stroke-width="2" stroke-linejoin="round"/>
<defs>
<linearGradient id="paint0_linear_4434_8651" x1="21.8913" y1="11.1678" x2="1" y2="11.1678" gradientUnits="userSpaceOnUse">
<stop stop-color="#5F73FE"/>
<stop offset="1" stop-color="#798AFF" stop-opacity="0.894118"/>
</linearGradient>
</defs>
</svg>
