<svg width="266" height="194" viewBox="0 0 266 194" fill="none" xmlns="http://www.w3.org/2000/svg">
<rect x="123" width="350" height="70" rx="9.8903" fill="white"/>
<rect x="188" y="32" width="217" height="6" rx="3" fill="#F6F6F8"/>
<rect x="188" y="43" width="126" height="6" rx="3" fill="#F6F6F8"/>
<rect x="188" y="21" width="236" height="6" rx="3" fill="#F6F6F8"/>
<rect x="138" y="15" width="40" height="40" rx="10" fill="#E1E3EA"/>
<rect x="158" y="45" width="0.0001" height="0.0001" stroke="white" stroke-width="3" stroke-linejoin="round"/>
<path d="M155.245 27.8998C155.982 27.1244 157.034 26.4517 158 26.4499C158.97 26.4481 160.015 27.1208 160.755 27.8998C161.494 28.677 162.133 29.781 162.133 30.7996C162.133 31.8182 161.494 32.9222 160.755 33.6994C160.015 34.4783 158.97 35.151 158 35.1493V36.5991" stroke="white" stroke-width="3" stroke-linecap="round" stroke-linejoin="round"/>
<rect x="82" y="88" width="350" height="70" rx="9.8903" fill="white"/>
<rect x="147" y="120" width="217" height="6" rx="3" fill="#F6F6F8"/>
<rect x="147" y="131" width="126" height="6" rx="3" fill="#F6F6F8"/>
<rect x="147" y="109" width="236" height="6" rx="3" fill="#F6F6F8"/>
<rect x="97" y="103" width="40" height="40" rx="10" fill="#E1E3EA"/>
<rect x="117" y="133" width="0.0001" height="0.0001" stroke="white" stroke-width="3" stroke-linejoin="round"/>
<path d="M114.245 115.9C114.982 115.124 116.034 114.452 117 114.45C117.97 114.448 119.015 115.121 119.755 115.9C120.494 116.677 121.133 117.781 121.133 118.8C121.133 119.818 120.494 120.922 119.755 121.699C119.015 122.478 117.97 123.151 117 123.149V124.599" stroke="white" stroke-width="3" stroke-linecap="round" stroke-linejoin="round"/>
<g filter="url(#filter0_dddd_8051_298)">
<rect x="52" y="39" width="191" height="70" rx="9.8903" fill="white"/>
<rect x="117" y="71" width="77" height="6" rx="3" fill="#F6F6F8"/>
<rect x="117" y="82" width="47" height="6" rx="3" fill="#F6F6F8"/>
<rect x="117" y="60" width="84" height="6" rx="3" fill="#F6F6F8"/>
<circle cx="220.5" cy="67.5" r="7.5" fill="#ADDFAC"/>
<path d="M217 68L219 70L224 65" stroke="white" stroke-linecap="round" stroke-linejoin="round"/>
<rect x="67" y="54" width="40" height="40" rx="10" fill="url(#paint0_linear_8051_298)"/>
<path d="M89.2 72C89.0895 72 89 71.9105 89 71.8V64.6C89 64.4078 88.7553 64.3262 88.64 64.48L80.6 75.2C80.3528 75.5296 80.588 76 81 76H84.8C84.9105 76 85 76.0895 85 76.2V83.4C85 83.5922 85.2447 83.6738 85.36 83.52L93.4 72.8C93.6472 72.4704 93.412 72 93 72H89.2Z" fill="white" stroke="white" stroke-width="1.5"/>
</g>
<defs>
<filter id="filter0_dddd_8051_298" x="0" y="29" width="295" height="262" filterUnits="userSpaceOnUse" color-interpolation-filters="sRGB">
<feFlood flood-opacity="0" result="BackgroundImageFix"/>
<feColorMatrix in="SourceAlpha" type="matrix" values="0 0 0 0 0 0 0 0 0 0 0 0 0 0 0 0 0 0 127 0" result="hardAlpha"/>
<feOffset dy="8"/>
<feGaussianBlur stdDeviation="9"/>
<feColorMatrix type="matrix" values="0 0 0 0 0 0 0 0 0 0 0 0 0 0 0 0 0 0 0.05 0"/>
<feBlend mode="normal" in2="BackgroundImageFix" result="effect1_dropShadow_8051_298"/>
<feColorMatrix in="SourceAlpha" type="matrix" values="0 0 0 0 0 0 0 0 0 0 0 0 0 0 0 0 0 0 127 0" result="hardAlpha"/>
<feOffset dy="32"/>
<feGaussianBlur stdDeviation="16"/>
<feColorMatrix type="matrix" values="0 0 0 0 0 0 0 0 0 0 0 0 0 0 0 0 0 0 0.04 0"/>
<feBlend mode="normal" in2="effect1_dropShadow_8051_298" result="effect2_dropShadow_8051_298"/>
<feColorMatrix in="SourceAlpha" type="matrix" values="0 0 0 0 0 0 0 0 0 0 0 0 0 0 0 0 0 0 127 0" result="hardAlpha"/>
<feOffset dy="73"/>
<feGaussianBlur stdDeviation="22"/>
<feColorMatrix type="matrix" values="0 0 0 0 0 0 0 0 0 0 0 0 0 0 0 0 0 0 0.03 0"/>
<feBlend mode="normal" in2="effect2_dropShadow_8051_298" result="effect3_dropShadow_8051_298"/>
<feColorMatrix in="SourceAlpha" type="matrix" values="0 0 0 0 0 0 0 0 0 0 0 0 0 0 0 0 0 0 127 0" result="hardAlpha"/>
<feOffset dy="130"/>
<feGaussianBlur stdDeviation="26"/>
<feColorMatrix type="matrix" values="0 0 0 0 0 0 0 0 0 0 0 0 0 0 0 0 0 0 0.01 0"/>
<feBlend mode="normal" in2="effect3_dropShadow_8051_298" result="effect4_dropShadow_8051_298"/>
<feBlend mode="normal" in="SourceGraphic" in2="effect4_dropShadow_8051_298" result="shape"/>
</filter>
<linearGradient id="paint0_linear_8051_298" x1="107" y1="74" x2="67" y2="74" gradientUnits="userSpaceOnUse">
<stop stop-color="#5F73FE"/>
<stop offset="1" stop-color="#798AFF" stop-opacity="0.894118"/>
</linearGradient>
</defs>
</svg>
