<svg width="572" height="288" viewBox="0 0 572 288" fill="none" xmlns="http://www.w3.org/2000/svg">
<g filter="url(#filter0_dddd_4412_2415)">
<rect x="281" y="110" width="245" height="237" rx="9.8903" fill="white"/>
<rect x="297" y="142" width="214" height="83" rx="9.8903" fill="#F6F6F8"/>
<rect x="297" y="126" width="102" height="6" rx="3" fill="#F6F6F8"/>
<rect x="297" y="236" width="214" height="5" rx="2.5" fill="#F6F6F8"/>
<rect x="297" y="247" width="166" height="6" rx="3" fill="#F6F6F8"/>
<rect x="297" y="258" width="181" height="6" rx="3" fill="#F6F6F8"/>
<rect x="384" y="163" width="40" height="40" rx="10" fill="url(#paint0_linear_4412_2415)"/>
<path d="M394 181.571L404 181.571C403.751 181.571 402.979 180.539 402.571 180.143C402.175 179.747 402.571 179.405 402.571 178.714L402.571 173L405.429 173L405.429 181.571L414 181.571L414 184.429L404 184.429C404.249 184.429 405.032 185.461 405.429 185.857C405.836 186.253 405.429 186.595 405.429 187.286L405.429 193L402.571 193L402.571 184.429L394 184.429L394 181.571Z" fill="white"/>
</g>
<g filter="url(#filter1_dddd_4412_2415)">
<rect x="52" y="146" width="191" height="70" rx="9.8903" fill="white"/>
<rect x="117" y="178" width="93" height="6" rx="3" fill="#F6F6F8"/>
<rect x="117" y="189" width="57" height="6" rx="3" fill="#F6F6F8"/>
<rect x="117" y="167" width="102" height="6" rx="3" fill="#F6F6F8"/>
<rect x="67" y="161" width="40" height="40" rx="10" fill="url(#paint1_linear_4412_2415)"/>
<path d="M94 177.5L86 177.5" stroke="white" stroke-width="1.5" stroke-linecap="round" stroke-linejoin="round"/>
<circle cx="1.5" cy="1.5" r="1.5" transform="matrix(-1 0 0 1 83 175.5)" fill="white" stroke="white"/>
<path d="M80 185.5L88 185.5" stroke="white" stroke-width="1.5" stroke-linecap="round" stroke-linejoin="round"/>
<circle cx="92.5" cy="185" r="1.5" fill="white" stroke="white"/>
</g>
<g filter="url(#filter2_dddd_4412_2415)">
<rect x="175" y="10" width="191" height="70" rx="9.8903" fill="white"/>
<rect x="240" y="42" width="94" height="6" rx="3" fill="#F6F6F8"/>
<rect x="240" y="53" width="57" height="6" rx="3" fill="#F6F6F8"/>
<rect x="240" y="31" width="102" height="6" rx="3" fill="#F6F6F8"/>
<rect x="190" y="25" width="40" height="40" rx="10" fill="url(#paint2_linear_4412_2415)"/>
<path fill-rule="evenodd" clip-rule="evenodd" d="M210.5 39.5C214.058 39.5 216.908 41.7795 218.5 44.5C218.769 44.9603 218.824 44.9535 218.667 45.2197C218.702 45.6987 218.647 46.248 218.5 46.5C216.989 49.0894 213.875 50.5 210.5 50.5C207.703 50.4999 205.086 49.5305 203.411 47.7246C202.624 47.0509 201.965 46.2948 201.5 45.5C201.16 44.919 201.16 45.081 201.5 44.5C203.092 41.7796 206.942 39.5001 210.5 39.5ZM210 41.75C208.205 41.7501 206.75 43.2051 206.75 45C206.75 46.7949 208.205 48.2499 210 48.25C211.777 48.25 213.219 46.8239 213.248 45.0537C213.407 44.895 213.5 44.7051 213.5 44.5C213.5 44.2053 213.308 43.9418 213.004 43.7588C212.516 42.5798 211.355 41.75 210 41.75ZM210 43.25C210.438 43.25 210.838 43.4126 211.145 43.6787C210.755 43.8593 210.5 44.1598 210.5 44.5C210.5 44.9796 211.007 45.3794 211.683 45.4766C211.475 46.2112 210.801 46.75 210 46.75C209.034 46.7499 208.25 45.9664 208.25 45C208.25 44.0336 209.034 43.2501 210 43.25Z" fill="white"/>
</g>
<path d="M402.584 110.5V57.5842C402.584 50.6341 396.95 45 390 45H364" stroke="white"/>
<path fill-rule="evenodd" clip-rule="evenodd" d="M399.051 108.103L402.051 104.103C402.203 103.871 402.789 104.103 403.051 104.103C403.314 104.103 403.899 103.871 404.051 104.103L407.051 108.103C407.272 108.402 407.189 108.751 407.051 109.103C406.913 109.455 406.403 110.067 406.051 110.103H400.051C399.699 110.067 399.189 109.455 399.051 109.103C398.914 108.751 398.83 108.401 399.051 108.103Z" fill="white"/>
<path d="M281.584 179H269H243" stroke="white"/>
<path fill-rule="evenodd" clip-rule="evenodd" d="M279.103 183.136L275.103 180.136C274.871 179.984 275.103 179.399 275.103 179.136C275.103 178.874 274.871 178.289 275.103 178.136L279.103 175.136C279.402 174.916 279.751 174.998 280.103 175.136C280.455 175.275 281.067 175.784 281.103 176.136L281.103 182.136C281.067 182.488 280.455 182.999 280.103 183.136C279.751 183.274 279.401 183.357 279.103 183.136Z" fill="white"/>
<path d="M524 179H539.655C545.921 179 551 173.921 551 167.655V102.5C551 93.3873 558.387 86 567.5 86H582.5" stroke="white"/>
<path fill-rule="evenodd" clip-rule="evenodd" d="M526.481 183.136L530.481 180.136C530.713 179.984 530.481 179.399 530.481 179.136C530.481 178.874 530.713 178.289 530.481 178.136L526.481 175.136C526.182 174.916 525.833 174.998 525.481 175.136C525.129 175.275 524.517 175.784 524.481 176.136L524.481 182.136C524.517 182.488 525.129 182.999 525.481 183.136C525.833 183.274 526.183 183.357 526.481 183.136Z" fill="white"/>
<defs>
<filter id="filter0_dddd_4412_2415" x="229" y="100" width="349" height="429" filterUnits="userSpaceOnUse" color-interpolation-filters="sRGB">
<feFlood flood-opacity="0" result="BackgroundImageFix"/>
<feColorMatrix in="SourceAlpha" type="matrix" values="0 0 0 0 0 0 0 0 0 0 0 0 0 0 0 0 0 0 127 0" result="hardAlpha"/>
<feOffset dy="8"/>
<feGaussianBlur stdDeviation="9"/>
<feColorMatrix type="matrix" values="0 0 0 0 0 0 0 0 0 0 0 0 0 0 0 0 0 0 0.05 0"/>
<feBlend mode="normal" in2="BackgroundImageFix" result="effect1_dropShadow_4412_2415"/>
<feColorMatrix in="SourceAlpha" type="matrix" values="0 0 0 0 0 0 0 0 0 0 0 0 0 0 0 0 0 0 127 0" result="hardAlpha"/>
<feOffset dy="32"/>
<feGaussianBlur stdDeviation="16"/>
<feColorMatrix type="matrix" values="0 0 0 0 0 0 0 0 0 0 0 0 0 0 0 0 0 0 0.04 0"/>
<feBlend mode="normal" in2="effect1_dropShadow_4412_2415" result="effect2_dropShadow_4412_2415"/>
<feColorMatrix in="SourceAlpha" type="matrix" values="0 0 0 0 0 0 0 0 0 0 0 0 0 0 0 0 0 0 127 0" result="hardAlpha"/>
<feOffset dy="73"/>
<feGaussianBlur stdDeviation="22"/>
<feColorMatrix type="matrix" values="0 0 0 0 0 0 0 0 0 0 0 0 0 0 0 0 0 0 0.03 0"/>
<feBlend mode="normal" in2="effect2_dropShadow_4412_2415" result="effect3_dropShadow_4412_2415"/>
<feColorMatrix in="SourceAlpha" type="matrix" values="0 0 0 0 0 0 0 0 0 0 0 0 0 0 0 0 0 0 127 0" result="hardAlpha"/>
<feOffset dy="130"/>
<feGaussianBlur stdDeviation="26"/>
<feColorMatrix type="matrix" values="0 0 0 0 0 0 0 0 0 0 0 0 0 0 0 0 0 0 0.01 0"/>
<feBlend mode="normal" in2="effect3_dropShadow_4412_2415" result="effect4_dropShadow_4412_2415"/>
<feBlend mode="normal" in="SourceGraphic" in2="effect4_dropShadow_4412_2415" result="shape"/>
</filter>
<filter id="filter1_dddd_4412_2415" x="0" y="136" width="295" height="262" filterUnits="userSpaceOnUse" color-interpolation-filters="sRGB">
<feFlood flood-opacity="0" result="BackgroundImageFix"/>
<feColorMatrix in="SourceAlpha" type="matrix" values="0 0 0 0 0 0 0 0 0 0 0 0 0 0 0 0 0 0 127 0" result="hardAlpha"/>
<feOffset dy="8"/>
<feGaussianBlur stdDeviation="9"/>
<feColorMatrix type="matrix" values="0 0 0 0 0 0 0 0 0 0 0 0 0 0 0 0 0 0 0.05 0"/>
<feBlend mode="normal" in2="BackgroundImageFix" result="effect1_dropShadow_4412_2415"/>
<feColorMatrix in="SourceAlpha" type="matrix" values="0 0 0 0 0 0 0 0 0 0 0 0 0 0 0 0 0 0 127 0" result="hardAlpha"/>
<feOffset dy="32"/>
<feGaussianBlur stdDeviation="16"/>
<feColorMatrix type="matrix" values="0 0 0 0 0 0 0 0 0 0 0 0 0 0 0 0 0 0 0.04 0"/>
<feBlend mode="normal" in2="effect1_dropShadow_4412_2415" result="effect2_dropShadow_4412_2415"/>
<feColorMatrix in="SourceAlpha" type="matrix" values="0 0 0 0 0 0 0 0 0 0 0 0 0 0 0 0 0 0 127 0" result="hardAlpha"/>
<feOffset dy="73"/>
<feGaussianBlur stdDeviation="22"/>
<feColorMatrix type="matrix" values="0 0 0 0 0 0 0 0 0 0 0 0 0 0 0 0 0 0 0.03 0"/>
<feBlend mode="normal" in2="effect2_dropShadow_4412_2415" result="effect3_dropShadow_4412_2415"/>
<feColorMatrix in="SourceAlpha" type="matrix" values="0 0 0 0 0 0 0 0 0 0 0 0 0 0 0 0 0 0 127 0" result="hardAlpha"/>
<feOffset dy="130"/>
<feGaussianBlur stdDeviation="26"/>
<feColorMatrix type="matrix" values="0 0 0 0 0 0 0 0 0 0 0 0 0 0 0 0 0 0 0.01 0"/>
<feBlend mode="normal" in2="effect3_dropShadow_4412_2415" result="effect4_dropShadow_4412_2415"/>
<feBlend mode="normal" in="SourceGraphic" in2="effect4_dropShadow_4412_2415" result="shape"/>
</filter>
<filter id="filter2_dddd_4412_2415" x="123" y="0" width="295" height="262" filterUnits="userSpaceOnUse" color-interpolation-filters="sRGB">
<feFlood flood-opacity="0" result="BackgroundImageFix"/>
<feColorMatrix in="SourceAlpha" type="matrix" values="0 0 0 0 0 0 0 0 0 0 0 0 0 0 0 0 0 0 127 0" result="hardAlpha"/>
<feOffset dy="8"/>
<feGaussianBlur stdDeviation="9"/>
<feColorMatrix type="matrix" values="0 0 0 0 0 0 0 0 0 0 0 0 0 0 0 0 0 0 0.05 0"/>
<feBlend mode="normal" in2="BackgroundImageFix" result="effect1_dropShadow_4412_2415"/>
<feColorMatrix in="SourceAlpha" type="matrix" values="0 0 0 0 0 0 0 0 0 0 0 0 0 0 0 0 0 0 127 0" result="hardAlpha"/>
<feOffset dy="32"/>
<feGaussianBlur stdDeviation="16"/>
<feColorMatrix type="matrix" values="0 0 0 0 0 0 0 0 0 0 0 0 0 0 0 0 0 0 0.04 0"/>
<feBlend mode="normal" in2="effect1_dropShadow_4412_2415" result="effect2_dropShadow_4412_2415"/>
<feColorMatrix in="SourceAlpha" type="matrix" values="0 0 0 0 0 0 0 0 0 0 0 0 0 0 0 0 0 0 127 0" result="hardAlpha"/>
<feOffset dy="73"/>
<feGaussianBlur stdDeviation="22"/>
<feColorMatrix type="matrix" values="0 0 0 0 0 0 0 0 0 0 0 0 0 0 0 0 0 0 0.03 0"/>
<feBlend mode="normal" in2="effect2_dropShadow_4412_2415" result="effect3_dropShadow_4412_2415"/>
<feColorMatrix in="SourceAlpha" type="matrix" values="0 0 0 0 0 0 0 0 0 0 0 0 0 0 0 0 0 0 127 0" result="hardAlpha"/>
<feOffset dy="130"/>
<feGaussianBlur stdDeviation="26"/>
<feColorMatrix type="matrix" values="0 0 0 0 0 0 0 0 0 0 0 0 0 0 0 0 0 0 0.01 0"/>
<feBlend mode="normal" in2="effect3_dropShadow_4412_2415" result="effect4_dropShadow_4412_2415"/>
<feBlend mode="normal" in="SourceGraphic" in2="effect4_dropShadow_4412_2415" result="shape"/>
</filter>
<linearGradient id="paint0_linear_4412_2415" x1="424" y1="183" x2="384" y2="183" gradientUnits="userSpaceOnUse">
<stop stop-color="#5F73FE"/>
<stop offset="1" stop-color="#798AFF" stop-opacity="0.894118"/>
</linearGradient>
<linearGradient id="paint1_linear_4412_2415" x1="107" y1="181" x2="67" y2="181" gradientUnits="userSpaceOnUse">
<stop stop-color="#5F73FE"/>
<stop offset="1" stop-color="#798AFF" stop-opacity="0.894118"/>
</linearGradient>
<linearGradient id="paint2_linear_4412_2415" x1="230" y1="45" x2="190" y2="45" gradientUnits="userSpaceOnUse">
<stop stop-color="#5F73FE"/>
<stop offset="1" stop-color="#798AFF" stop-opacity="0.894118"/>
</linearGradient>
</defs>
</svg>
