<svg width="202" height="240" viewBox="0 0 202 240" fill="none" xmlns="http://www.w3.org/2000/svg">
<rect x="2" y="-2" width="249" height="178" rx="11.8903" transform="matrix(-1 0 0 1 253 131)" fill="url(#paint0_linear_8051_302)" stroke="white" stroke-width="4"/>
<rect width="214" height="84" rx="9.8903" transform="matrix(-1 0 0 1 233 158)" fill="#E1E3EA"/>
<rect width="103" height="6" rx="3" transform="matrix(-1 0 0 1 233 142)" fill="#E1E3EA"/>
<rect x="2" y="-2" width="249" height="178" rx="11.8903" transform="matrix(-1 0 0 1 375 4)" fill="url(#paint1_linear_8051_302)" stroke="white" stroke-width="4"/>
<rect width="214" height="84" rx="9.8903" transform="matrix(-1 0 0 1 355 31)" fill="#E1E3EA"/>
<rect width="214" height="6" rx="3" transform="matrix(-1 0 0 1 355 125)" fill="#E1E3EA"/>
<rect width="166" height="6" rx="3" transform="matrix(-1 0 0 1 355 137)" fill="#E1E3EA"/>
<rect width="181" height="6" rx="3" transform="matrix(-1 0 0 1 355 148)" fill="#E1E3EA"/>
<g filter="url(#filter0_dddd_8051_302)">
<rect x="67" y="73" width="245" height="237" rx="9.8903" fill="white"/>
<rect x="83" y="105" width="214" height="83" rx="9.8903" fill="#F6F6F8"/>
<rect x="83" y="89" width="102" height="6" rx="3" fill="#F6F6F8"/>
<rect x="83" y="199" width="214" height="5" rx="2.5" fill="#F6F6F8"/>
<rect x="83" y="210" width="166" height="6" rx="3" fill="#F6F6F8"/>
<rect x="83" y="221" width="181" height="6" rx="3" fill="#F6F6F8"/>
<path d="M67 187C67 164.909 84.9086 147 107 147H272C294.091 147 312 164.909 312 187V248H67V187Z" fill="url(#paint2_linear_8051_302)"/>
<path d="M100.5 147.5H276.5" stroke="url(#paint3_linear_8051_302)"/>
<rect x="142" y="126" width="40" height="40" rx="10" fill="url(#paint4_linear_8051_302)"/>
<path fill-rule="evenodd" clip-rule="evenodd" d="M158 143C158 142.211 158.211 142 159 142H163C163.366 142 163.735 141.251 164 141L167 138C167.938 137.112 167.291 136 166 136H153C152.211 136 152 136.211 152 137V150C152 151.291 153.112 151.938 154 151L157 148C157.251 147.735 158 147.366 158 147V143Z" fill="white"/>
<path d="M172 155C172 155.789 171.789 156 171 156H157C155.727 156 155.1 154.9 156 154L160 150C160.268 149.732 160 149.379 160 149V145C160 144.211 160.211 144 161 144H165C165.379 144 165.732 144.268 166 144L170 140C170.9 139.1 172 139.727 172 141V155Z" fill="white"/>
</g>
<defs>
<filter id="filter0_dddd_8051_302" x="15" y="63" width="349" height="429" filterUnits="userSpaceOnUse" color-interpolation-filters="sRGB">
<feFlood flood-opacity="0" result="BackgroundImageFix"/>
<feColorMatrix in="SourceAlpha" type="matrix" values="0 0 0 0 0 0 0 0 0 0 0 0 0 0 0 0 0 0 127 0" result="hardAlpha"/>
<feOffset dy="8"/>
<feGaussianBlur stdDeviation="9"/>
<feColorMatrix type="matrix" values="0 0 0 0 0 0 0 0 0 0 0 0 0 0 0 0 0 0 0.05 0"/>
<feBlend mode="normal" in2="BackgroundImageFix" result="effect1_dropShadow_8051_302"/>
<feColorMatrix in="SourceAlpha" type="matrix" values="0 0 0 0 0 0 0 0 0 0 0 0 0 0 0 0 0 0 127 0" result="hardAlpha"/>
<feOffset dy="32"/>
<feGaussianBlur stdDeviation="16"/>
<feColorMatrix type="matrix" values="0 0 0 0 0 0 0 0 0 0 0 0 0 0 0 0 0 0 0.04 0"/>
<feBlend mode="normal" in2="effect1_dropShadow_8051_302" result="effect2_dropShadow_8051_302"/>
<feColorMatrix in="SourceAlpha" type="matrix" values="0 0 0 0 0 0 0 0 0 0 0 0 0 0 0 0 0 0 127 0" result="hardAlpha"/>
<feOffset dy="73"/>
<feGaussianBlur stdDeviation="22"/>
<feColorMatrix type="matrix" values="0 0 0 0 0 0 0 0 0 0 0 0 0 0 0 0 0 0 0.03 0"/>
<feBlend mode="normal" in2="effect2_dropShadow_8051_302" result="effect3_dropShadow_8051_302"/>
<feColorMatrix in="SourceAlpha" type="matrix" values="0 0 0 0 0 0 0 0 0 0 0 0 0 0 0 0 0 0 127 0" result="hardAlpha"/>
<feOffset dy="130"/>
<feGaussianBlur stdDeviation="26"/>
<feColorMatrix type="matrix" values="0 0 0 0 0 0 0 0 0 0 0 0 0 0 0 0 0 0 0.01 0"/>
<feBlend mode="normal" in2="effect3_dropShadow_8051_302" result="effect4_dropShadow_8051_302"/>
<feBlend mode="normal" in="SourceGraphic" in2="effect4_dropShadow_8051_302" result="shape"/>
</filter>
<linearGradient id="paint0_linear_8051_302" x1="122.5" y1="0" x2="122.5" y2="174" gradientUnits="userSpaceOnUse">
<stop stop-color="#F3F3F9"/>
<stop offset="1" stop-color="#EBEBF5"/>
</linearGradient>
<linearGradient id="paint1_linear_8051_302" x1="122.5" y1="0" x2="122.5" y2="174" gradientUnits="userSpaceOnUse">
<stop stop-color="#F3F3F9"/>
<stop offset="1" stop-color="#EBEBF5"/>
</linearGradient>
<linearGradient id="paint2_linear_8051_302" x1="189.5" y1="147" x2="189.5" y2="248" gradientUnits="userSpaceOnUse">
<stop stop-color="#6F81FE" stop-opacity="0.42"/>
<stop offset="1" stop-color="#6F81FE" stop-opacity="0"/>
</linearGradient>
<linearGradient id="paint3_linear_8051_302" x1="100" y1="148" x2="275.5" y2="148" gradientUnits="userSpaceOnUse">
<stop stop-color="#6F81FE" stop-opacity="0"/>
<stop offset="0.502232" stop-color="#6F81FE"/>
<stop offset="1" stop-color="#6F81FE" stop-opacity="0"/>
</linearGradient>
<linearGradient id="paint4_linear_8051_302" x1="182" y1="146" x2="142" y2="146" gradientUnits="userSpaceOnUse">
<stop stop-color="#5F73FE"/>
<stop offset="1" stop-color="#798AFF" stop-opacity="0.894118"/>
</linearGradient>
</defs>
</svg>
