<svg width="250" height="165" viewBox="0 0 250 165" fill="none" xmlns="http://www.w3.org/2000/svg">
<rect x="74" y="93" width="290" height="70" rx="10" fill="url(#paint0_linear_8051_303)"/>
<rect x="114" y="109" width="180" height="6" rx="3" fill="#E2E3EA"/>
<rect x="114" y="143" width="180" height="6" rx="3" fill="#E2E3EA"/>
<rect x="114" y="120" width="54" height="6" rx="3" fill="#E2E3EA"/>
<rect x="110" width="290" height="70" rx="10" fill="url(#paint1_linear_8051_303)"/>
<rect x="150" y="16" width="180" height="6" rx="3" fill="#E2E3EA"/>
<rect x="150" y="50" width="180" height="6" rx="3" fill="#E2E3EA"/>
<rect x="150" y="27" width="54" height="6" rx="3" fill="#E2E3EA"/>
<circle cx="132.5" cy="22.5" r="7.5" fill="#DFACAC"/>
<path d="M129.342 25.1435L132.192 22.2933C132.121 22.3642 131.607 22.29 131.378 22.2933C131.152 22.2933 131.167 22.0829 130.97 21.8861L129.342 20.2574L130.156 19.443L132.599 21.8861L135.042 19.443L135.857 20.2574L133.006 23.1076C133.077 23.0366 133.595 23.1076 133.821 23.1076C134.05 23.1044 134.031 23.318 134.228 23.5148L135.857 25.1435L135.042 25.9578L132.599 23.5148L130.156 25.9578L129.342 25.1435Z" fill="white"/>
<g filter="url(#filter0_dddd_8051_303)">
<rect x="52" y="39" width="290" height="70" rx="10" fill="white"/>
<rect x="92" y="54" width="180" height="6" rx="3" fill="#E1E3EA"/>
<rect x="92" y="88" width="180" height="6" rx="3" fill="#F6F6F8"/>
<rect x="92" y="65" width="54" height="6" rx="3" fill="#E1E3EA"/>
<circle cx="74.5" cy="61.5" r="7.5" fill="#ADDFAC"/>
<path d="M71 62L73 64L78 59" stroke="white" stroke-linecap="round" stroke-linejoin="round"/>
</g>
<defs>
<filter id="filter0_dddd_8051_303" x="0" y="29" width="394" height="262" filterUnits="userSpaceOnUse" color-interpolation-filters="sRGB">
<feFlood flood-opacity="0" result="BackgroundImageFix"/>
<feColorMatrix in="SourceAlpha" type="matrix" values="0 0 0 0 0 0 0 0 0 0 0 0 0 0 0 0 0 0 127 0" result="hardAlpha"/>
<feOffset dy="8"/>
<feGaussianBlur stdDeviation="9"/>
<feColorMatrix type="matrix" values="0 0 0 0 0 0 0 0 0 0 0 0 0 0 0 0 0 0 0.05 0"/>
<feBlend mode="normal" in2="BackgroundImageFix" result="effect1_dropShadow_8051_303"/>
<feColorMatrix in="SourceAlpha" type="matrix" values="0 0 0 0 0 0 0 0 0 0 0 0 0 0 0 0 0 0 127 0" result="hardAlpha"/>
<feOffset dy="32"/>
<feGaussianBlur stdDeviation="16"/>
<feColorMatrix type="matrix" values="0 0 0 0 0 0 0 0 0 0 0 0 0 0 0 0 0 0 0.04 0"/>
<feBlend mode="normal" in2="effect1_dropShadow_8051_303" result="effect2_dropShadow_8051_303"/>
<feColorMatrix in="SourceAlpha" type="matrix" values="0 0 0 0 0 0 0 0 0 0 0 0 0 0 0 0 0 0 127 0" result="hardAlpha"/>
<feOffset dy="73"/>
<feGaussianBlur stdDeviation="22"/>
<feColorMatrix type="matrix" values="0 0 0 0 0 0 0 0 0 0 0 0 0 0 0 0 0 0 0.03 0"/>
<feBlend mode="normal" in2="effect2_dropShadow_8051_303" result="effect3_dropShadow_8051_303"/>
<feColorMatrix in="SourceAlpha" type="matrix" values="0 0 0 0 0 0 0 0 0 0 0 0 0 0 0 0 0 0 127 0" result="hardAlpha"/>
<feOffset dy="130"/>
<feGaussianBlur stdDeviation="26"/>
<feColorMatrix type="matrix" values="0 0 0 0 0 0 0 0 0 0 0 0 0 0 0 0 0 0 0.01 0"/>
<feBlend mode="normal" in2="effect3_dropShadow_8051_303" result="effect4_dropShadow_8051_303"/>
<feBlend mode="normal" in="SourceGraphic" in2="effect4_dropShadow_8051_303" result="shape"/>
</filter>
<linearGradient id="paint0_linear_8051_303" x1="219" y1="93" x2="219" y2="163" gradientUnits="userSpaceOnUse">
<stop stop-color="#F3F3F9"/>
<stop offset="1" stop-color="#EBEBF5"/>
</linearGradient>
<linearGradient id="paint1_linear_8051_303" x1="255" y1="0" x2="255" y2="70" gradientUnits="userSpaceOnUse">
<stop stop-color="#F3F3F9"/>
<stop offset="1" stop-color="#EBEBF5"/>
</linearGradient>
</defs>
</svg>
