<svg width="350" height="150" viewBox="0 0 350 150" fill="none" xmlns="http://www.w3.org/2000/svg">
<rect x="60" y="80" width="290" height="70" rx="10" fill="url(#paint0_linear_8010_220)"/>
<rect x="100" y="96" width="180" height="6" rx="3" fill="#E1E3EA"/>
<rect x="100" y="130" width="180" height="6" rx="3" fill="#E1E3EA"/>
<rect x="100" y="107" width="54" height="6" rx="3" fill="#E1E3EA"/>
<circle cx="321.5" cy="99.5" r="4.5" fill="#E1E3EA"/>
<circle cx="328.5" cy="99.5" r="4.5" fill="#E1E3EA"/>
<rect x="60" width="290" height="70" rx="10" fill="white"/>
<rect x="100" y="15" width="180" height="6" rx="3" fill="#E1E3EA"/>
<rect x="100" y="49" width="180" height="6" rx="3" fill="#F6F6F8"/>
<rect x="100" y="26" width="54" height="6" rx="3" fill="#E1E3EA"/>
<circle cx="328.5" cy="18.5" r="5" fill="#F6F6F8" stroke="white"/>
<circle cx="321.5" cy="18.5" r="5" fill="#F6F6F8" stroke="white"/>
<circle cx="313.5" cy="18.5" r="5" fill="#F6F6F8" stroke="white"/>
<circle cx="82.5" cy="22.5" r="7.5" fill="#ADDFAC"/>
<path d="M79 23L81 25L86 20" stroke="white" stroke-linecap="round" stroke-linejoin="round"/>
<rect width="40" height="40" rx="10" fill="url(#paint1_linear_8010_220)"/>
<path fill-rule="evenodd" clip-rule="evenodd" d="M22 9.00094C21.9363 8.99663 22.0643 9.00094 22 9.00094H16C13.3017 9.00094 11 11.3166 11 14.0009V26.0009C11 28.6853 13.3017 31.0009 16 31.0009H24C26.6983 31.0009 29 28.6853 29 26.0009V17.0009H25C23.4378 17.0009 22 15.555 22 14.0009V9.00094ZM15 20.0009C15 19.5771 15.574 19.0009 16 19.0009H24C24.426 19.0009 25 19.5771 25 20.0009C25 20.4248 24.426 21.0009 24 21.0009H16C15.574 21.0009 15 20.4248 15 20.0009ZM16 24.0009C15.574 24.0009 15 24.5771 15 25.0009C15 25.4248 15.574 26.0009 16 26.0009H20C20.426 26.0009 21 25.4248 21 25.0009C21 24.5771 20.426 24.0009 20 24.0009H16Z" fill="white"/>
<path d="M29 15.0009C28.9351 14.8992 28.0783 15.0944 28 15.0009L24 10.0009C23.8684 9.84388 24.1594 10.1241 24 10.0009V14.0009C24 14.7073 24.2899 15.0009 25 15.0009H29Z" fill="white"/>
<defs>
<linearGradient id="paint0_linear_8010_220" x1="205" y1="80" x2="205" y2="150" gradientUnits="userSpaceOnUse">
<stop stop-color="#F3F3F9"/>
<stop offset="1" stop-color="#EBEBF5"/>
</linearGradient>
<linearGradient id="paint1_linear_8010_220" x1="40" y1="20" x2="0" y2="20" gradientUnits="userSpaceOnUse">
<stop stop-color="#5F73FE"/>
<stop offset="1" stop-color="#798AFF" stop-opacity="0.894118"/>
</linearGradient>
</defs>
</svg>
