<svg width="340" height="190" viewBox="0 0 340 190" fill="none" xmlns="http://www.w3.org/2000/svg">
<rect width="245" height="237" rx="9.8903" fill="white"/>
<rect x="16" y="133" width="215" height="6" rx="3" fill="#F6F6F8"/>
<rect x="16" y="144" width="167" height="6" rx="3" fill="#F6F6F8"/>
<rect x="16" y="155" width="182" height="6" rx="3" fill="#F6F6F8"/>
<path d="M33 102C25.2082 102 15 111 15 111V129L226 131V80H221C221 80 213.106 73 207 73C198.859 73 186.141 95 178 95C168.992 95 164.106 84 158 84C151.894 84 148.427 95 143 95C137.573 95 134.469 78 129 78C122.894 78 110.176 100 100 100C91.8593 100 84.4623 84 77 84C71.1897 84 71.0704 95 67 95C60.3768 95 55.7839 93 49 93C42.2456 93 39.1055 102 33 102Z" fill="url(#paint0_linear_8053_317)"/>
<path d="M15 110C15 110 25.1792 101 33 101C39.1283 101 42.2204 92 49 92C55.8092 92 60.3521 94 67 94C71.0855 94 71.168 83 77 83C84.4901 83 92.8289 99 101 99C111.214 99 122.872 78 129 78C134.49 78 137.553 94 143 94C148.447 94 152.872 83 159 83C165.128 83 169.959 94 179 94C187.171 94 199.829 73 208 73C214.128 73 222 80 222 80" stroke="#F6F6F8" stroke-width="0.641548"/>
<path d="M33 106C24.5376 106 19 123 19 123V131H230L228 77H223C223 77 215.842 83.6894 209 84C197.085 84.5409 202.115 59 196 59C189.205 59 194.986 85.9467 183 89C177.821 90.3193 174.436 87 169 87C158.868 87 159.833 106 151 106C143.273 106 140.154 100 132 100C123.808 100 121.192 110 113 110C106.885 110 103.398 103.405 98 103C92.6019 102.595 89.4359 106 84 106C74.2827 106 76.1154 85 70 85C62.5256 85 59.8334 112 51 112C43.7815 112 40.4744 106 33 106Z" fill="url(#paint1_linear_8053_317)"/>
<path d="M19 123C19 123 24.4898 106 33 106C40.5167 106 43.7407 112 51 112C59.8833 112 62.4833 85 70 85C76.15 85 75.2277 106 85 106C90.4667 106 92.5714 102.595 98 103C103.429 103.405 106.85 110 113 110C121.238 110 123.762 100 132 100C140.2 100 144.229 106 152 106C160.883 106 159.81 87 170 87C175.467 87 178.792 90.3193 184 89C196.054 85.9467 190.167 59 197 59C203.15 59 198.018 84.5409 210 84C216.88 83.6894 224 77 224 77" stroke="#E1E3EA" stroke-width="0.641548"/>
<path fill-rule="evenodd" clip-rule="evenodd" d="M191 84.0001C190.476 84.1444 190 84.46 190 85.0001C190 85.2105 190.612 87.9732 194 97.0001C198.177 108.129 198.749 108.74 199 109C199.205 109.212 199.759 108.95 200 109C199.867 109.032 200.188 109.039 200 109C200.276 108.934 200.881 108.206 201 108C201.052 107.909 201.909 106.456 203 104L205 99.0001L210 97.0001C214.605 94.8554 214.829 94.42 215 94.0001C215.193 93.5276 215.391 93.3123 215 93.0001C214.798 92.8386 191.364 84.0626 191 84.0001C191.141 83.9612 190.894 83.982 191 84.0001Z" fill="#8695FE"/>
<rect x="219" y="96" width="121" height="31" rx="15.5" fill="#8695FE"/>
<path d="M239.151 105.8H240.271V110.728H242.031L245.679 105.8H246.991L242.959 111.208L247.311 117H245.935L242.031 111.752H240.271V117H239.151V105.8ZM248.5 116.152H248.74C249.07 116.152 249.326 116.04 249.508 115.816C249.689 115.592 249.822 115.267 249.908 114.84C250.004 114.413 250.057 113.896 250.068 113.288C250.089 112.68 250.1 111.997 250.1 111.24V109H255.54V117H254.484V109.96H251.156V111.24C251.156 112.104 251.14 112.893 251.108 113.608C251.086 114.323 250.996 114.941 250.836 115.464C250.686 115.987 250.446 116.392 250.116 116.68C249.796 116.968 249.337 117.112 248.74 117.112H248.5V116.152ZM260.338 117.112C259.453 117.112 258.792 116.909 258.354 116.504C257.917 116.088 257.698 115.517 257.698 114.792C257.698 114.035 257.96 113.432 258.482 112.984C259.005 112.536 259.837 112.312 260.978 112.312H263.042V111.72C263.042 111.08 262.888 110.616 262.578 110.328C262.269 110.029 261.762 109.88 261.058 109.88C260.408 109.88 259.928 109.992 259.618 110.216C259.32 110.44 259.149 110.728 259.106 111.08H258.018C258.04 110.792 258.12 110.515 258.258 110.248C258.397 109.981 258.589 109.747 258.834 109.544C259.09 109.341 259.405 109.181 259.778 109.064C260.152 108.947 260.578 108.888 261.058 108.888C262.093 108.888 262.856 109.128 263.346 109.608C263.848 110.077 264.098 110.781 264.098 111.72V117H263.266L263.138 115.64H263.106C262.786 116.12 262.386 116.488 261.906 116.744C261.437 116.989 260.914 117.112 260.338 117.112ZM260.418 116.12C260.802 116.12 261.154 116.061 261.474 115.944C261.794 115.816 262.072 115.645 262.306 115.432C262.541 115.208 262.722 114.947 262.85 114.648C262.978 114.339 263.042 114.003 263.042 113.64V113.208H261.058C260.237 113.208 259.65 113.352 259.298 113.64C258.957 113.928 258.786 114.312 258.786 114.792C258.786 115.197 258.914 115.523 259.17 115.768C259.437 116.003 259.853 116.12 260.418 116.12ZM265.703 116.04H266.583C266.753 115.773 266.892 115.501 266.999 115.224C267.116 114.947 267.207 114.632 267.271 114.28C267.345 113.928 267.393 113.523 267.415 113.064C267.447 112.595 267.463 112.04 267.463 111.4V109H272.903V116.04H273.943V119.08H272.919V117H266.727V119.08H265.703V116.04ZM271.847 116.04V109.96H268.487V111.4C268.487 111.976 268.476 112.483 268.455 112.92C268.433 113.357 268.396 113.757 268.343 114.12C268.289 114.472 268.215 114.803 268.119 115.112C268.023 115.411 267.905 115.709 267.767 116.008V116.04H271.847ZM278.736 117.112C277.659 117.112 276.8 116.781 276.16 116.12C275.531 115.459 275.216 114.509 275.216 113.272V112.728C275.216 112.12 275.296 111.576 275.456 111.096C275.627 110.616 275.867 110.216 276.176 109.896C276.485 109.565 276.853 109.315 277.28 109.144C277.717 108.973 278.203 108.888 278.736 108.888C279.813 108.888 280.667 109.219 281.296 109.88C281.936 110.541 282.256 111.491 282.256 112.728V113.272C282.256 113.88 282.171 114.424 282 114.904C281.84 115.384 281.605 115.789 281.296 116.12C280.987 116.44 280.613 116.685 280.176 116.856C279.749 117.027 279.269 117.112 278.736 117.112ZM278.736 116.152C279.472 116.152 280.059 115.912 280.496 115.432C280.944 114.952 281.168 114.232 281.168 113.272V112.728C281.168 111.779 280.944 111.064 280.496 110.584C280.048 110.093 279.461 109.848 278.736 109.848C278 109.848 277.408 110.088 276.96 110.568C276.523 111.048 276.304 111.768 276.304 112.728V113.272C276.304 114.221 276.528 114.941 276.976 115.432C277.424 115.912 278.011 116.152 278.736 116.152ZM284.493 109H287.533C288.471 109 289.159 109.197 289.597 109.592C290.034 109.987 290.253 110.52 290.253 111.192C290.253 111.544 290.162 111.864 289.981 112.152C289.81 112.44 289.565 112.664 289.245 112.824V112.856C289.682 113.027 290.013 113.272 290.237 113.592C290.461 113.912 290.573 114.285 290.573 114.712C290.573 115.427 290.354 115.987 289.917 116.392C289.479 116.797 288.791 117 287.853 117H284.493V109ZM289.165 111.208C289.165 110.813 289.037 110.509 288.781 110.296C288.525 110.072 288.082 109.96 287.453 109.96H285.549V112.472H287.453C288.082 112.472 288.525 112.365 288.781 112.152C289.037 111.928 289.165 111.613 289.165 111.208ZM289.485 114.696C289.485 114.259 289.357 113.928 289.101 113.704C288.845 113.48 288.402 113.368 287.773 113.368H285.549V116.04H287.773C288.402 116.04 288.845 115.928 289.101 115.704C289.357 115.48 289.485 115.144 289.485 114.696ZM302.389 117H292.805V109H293.861V116.04H296.997V109H298.053V116.04H301.189V109H302.245V116.04H303.445V119.08H302.389V117ZM305.212 109H306.268V115.8H306.3L310.3 109H311.772V117H310.716V110.2H310.684L306.684 117H305.212V109ZM314.493 109H315.549V112.36H316.989L319.325 109H320.573L317.837 112.808L320.893 117H319.613L316.989 113.32H315.549V117H314.493V109Z" fill="white"/>
<defs>
<linearGradient id="paint0_linear_8053_317" x1="120.5" y1="75.4681" x2="120.5" y2="122.362" gradientUnits="userSpaceOnUse">
<stop stop-color="#F6F6F8"/>
<stop offset="1" stop-color="#F6F6F8" stop-opacity="0"/>
</linearGradient>
<linearGradient id="paint1_linear_8053_317" x1="124.5" y1="53.4615" x2="124.5" y2="118.692" gradientUnits="userSpaceOnUse">
<stop stop-color="#F6F6F8"/>
<stop offset="1" stop-color="#F6F6F8" stop-opacity="0"/>
</linearGradient>
</defs>
</svg>
