<svg width="410" height="209" viewBox="0 0 410 209" fill="none" xmlns="http://www.w3.org/2000/svg">
									<style>
									    /* Анимация дальних фоновых полей */
									    .bg-outer {
									        opacity: 0;
									        animation: fadeOuter 6s ease-in-out infinite;
									    }
									    
									    /* Анимация центральной плашки и всех столбцов */
									    .bg-inner {
									        opacity: 0;
									        animation: fadeInner 6s ease-in-out infinite;
									    }
									    
									    /* Анимация появления контейнера с шестеренкой */
									    .gear-container {
									        opacity: 0;
									        transform-origin: 204px 79px; /* Центр синего квадрата: x=172+32, y=47+32 */
									        animation: popupGear 6s ease-in-out infinite;
									    }
									    
									    /* Отдельная анимация именно для вращения самой шестеренки */
									    .gear-icon {
									        transform-origin: 204px 79px;
									        /* cubic-bezier дает красивую задержку на старте и плавное торможение */
									        animation: spinGear 6s cubic-bezier(0.4, 0, 0.2, 1) infinite;
									    }

									    /* === КЛЮЧЕВЫЕ КАДРЫ === */
									    
									    @keyframes fadeOuter {
									        0%, 100% { opacity: 0; }
									        10%, 90% { opacity: 1; }
									    }

									    @keyframes fadeInner {
									        0%, 5%, 95%, 100% { opacity: 0; transform: translateY(10px); }
									        15%, 85% { opacity: 1; transform: translateY(0); }
									    }

									    @keyframes popupGear {
									        0%, 15%, 85%, 100% { opacity: 0; transform: scale(0.5); }
									        25%, 75% { opacity: 1; transform: scale(1); }
									    }

									    @keyframes spinGear {
									        0%, 25% { transform: rotate(0deg); }
									        75%, 100% { transform: rotate(720deg); } /* Два полных оборота */
									    }
									</style>

									<!-- Боковые фоновые фигуры -->
									<g class="bg-outer">
									    <path d="M251 14.413C251 7.46883 257.969 2.68678 264.448 5.18483L413.442 62.6283C415.732 63.5111 418.268 63.5111 420.558 62.6283L569.552 5.18483C576.031 2.68678 583 7.46883 583 14.413V239.11C583 244.572 578.572 249 573.11 249H260.89C255.428 249 251 244.572 251 239.11V14.413Z" fill="url(#paint0_linear_8010_223)"/>
									    <path d="M-160 30.413C-160 23.4688 -153.031 18.6868 -146.552 21.1848L2.44214 78.6283C4.7319 79.5111 7.2681 79.5111 9.55786 78.6283L158.552 21.1848C165.031 18.6868 172 23.4688 172 30.413V255.11C172 260.572 167.572 265 162.11 265H-150.11C-155.572 265 -160 260.572 -160 255.11V30.413Z" fill="url(#paint1_linear_8010_223)"/>
									</g>

									<!-- Центральная подложка и столбики графиков -->
									<g class="bg-inner">
									    <path d="M39 30.413C39 23.4688 45.9688 18.6868 52.4482 21.1848L201.442 78.6283C203.732 79.5111 206.268 79.5111 208.558 78.6283L357.552 21.1848C364.031 18.6868 371 23.4688 371 30.413V255.11C371 260.572 366.572 265 361.11 265H48.8903C43.428 265 39 260.572 39 255.11V30.413Z" fill="white"/>
									    <rect x="67" y="60" width="15" height="273" rx="7.5" fill="#F6F6F8"/>
									    <rect x="110" y="100" width="15" height="233" rx="7.5" fill="#F6F6F8"/>
									    <rect x="153" y="146" width="15" height="187" rx="7.5" fill="#F6F6F8"/>
									    <rect x="196" y="47" width="20" height="286" rx="10" fill="url(#paint2_linear_8010_223)"/>
									    <rect x="244" y="146" width="15" height="187" rx="7.5" fill="#F6F6F8"/>
									    <rect x="287" y="100" width="15" height="233" rx="7.5" fill="#F6F6F8"/>
									    <rect x="330" y="62" width="15" height="271" rx="7.5" fill="#F6F6F8"/>
									</g>

									<!-- Блок с шестеренкой -->
									<g class="gear-container">
									    <rect x="172" y="47" width="64" height="64" rx="10" fill="url(#paint3_linear_8010_223)"/>
									    <!-- Сама прозрачная белая шестеренка, которая крутится внутри квадрата -->
									    <path class="gear-icon" fill-rule="evenodd" clip-rule="evenodd" d="M204 62C205.425 62 206.676 62.6611 208 63C209.08 63.2766 209.82 64.2153 210 65C210.212 65.9295 211.121 66.4865 212 67C212.808 67.472 213.157 67.201 214 67C214.774 66.8153 216.276 67.1455 217 68C218.345 69.5887 219.303 70.9817 220 73C220.416 74.2049 219.68 75.433 219 76C218.215 76.6545 218 77.894 218 79C218 80.106 218.215 81.3455 219 82C219.68 82.567 220.416 83.7951 220 85C219.303 87.0181 218.345 88.4114 217 90C216.276 90.8546 214.775 91.1848 214 91C213.157 90.7989 212.808 90.528 212 91C211.121 91.5135 210.212 92.0704 210 93C209.82 93.7848 209.08 94.7233 208 95C206.676 95.3389 205.425 96 204 96C202.575 96 201.324 95.3389 200 95C198.919 94.7234 198.179 93.7848 198 93C197.787 92.0704 196.879 91.5135 196 91C195.192 90.5279 194.843 90.7989 194 91C193.225 91.1848 191.724 90.8546 191 90C189.654 88.4114 188.696 87.0181 188 85C187.584 83.795 188.32 82.567 189 82C189.785 81.3455 190 80.1059 190 79C190 77.8941 189.785 76.6545 189 76C188.32 75.433 187.584 74.205 188 73C188.696 70.9816 189.654 69.5888 191 68C191.724 67.1455 193.225 66.8152 194 67C194.843 67.2011 195.192 67.4721 196 67C196.879 66.4866 197.787 65.9295 198 65C198.179 64.2153 198.919 63.2766 200 63C201.324 62.6611 202.575 62 204 62ZM204.5 74C202.015 74 200 76.0147 200 78.5C200 80.9853 202.015 83 204.5 83C206.985 82.9999 209 80.9852 209 78.5C209 76.0148 206.985 74.0001 204.5 74Z" fill="white"/>
									</g>

									<defs>
									    <linearGradient id="paint0_linear_8010_223" x1="417" y1="0" x2="417" y2="249" gradientUnits="userSpaceOnUse">
									        <stop stop-color="#F3F3F9"/>
									        <stop offset="1" stop-color="#EBEBF5"/>
									    </linearGradient>
									    <linearGradient id="paint1_linear_8010_223" x1="6" y1="16" x2="6" y2="265" gradientUnits="userSpaceOnUse">
									        <stop stop-color="#F3F3F9"/>
									        <stop offset="1" stop-color="#EBEBF5"/>
									    </linearGradient>
									    <linearGradient id="paint2_linear_8010_223" x1="206" y1="333" x2="206" y2="103.839" gradientUnits="userSpaceOnUse">
									        <stop stop-color="#798AFF" stop-opacity="0.894118"/>
									        <stop offset="1" stop-color="white"/>
									    </linearGradient>
									    <linearGradient id="paint3_linear_8010_223" x1="236" y1="79" x2="172" y2="79" gradientUnits="userSpaceOnUse">
									        <stop stop-color="#5F73FE"/>
									        <stop offset="1" stop-color="#798AFF" stop-opacity="0.894118"/>
									    </linearGradient>
									</defs>
									</svg>