<svg width="392" height="203" viewBox="0 0 392 203" fill="none" xmlns="http://www.w3.org/2000/svg">
<g filter="url(#filter0_dddd_4412_2416)">
<rect x="179.395" y="78.3384" width="191.929" height="185.662" rx="7.74789" fill="white"/>
<rect x="191.929" y="103.406" width="167.644" height="65.0208" rx="7.74789" fill="#F6F6F8"/>
<rect x="191.929" y="90.8723" width="79.905" height="4.7003" rx="2.35015" fill="#F6F6F8"/>
<rect x="191.929" y="177.044" width="167.644" height="3.91691" rx="1.95846" fill="#F6F6F8"/>
<rect x="191.929" y="185.662" width="130.042" height="4.7003" rx="2.35015" fill="#F6F6F8"/>
<rect x="191.929" y="194.279" width="141.792" height="4.7003" rx="2.35015" fill="#F6F6F8"/>
<rect x="260.083" y="119.858" width="31.3353" height="31.3353" rx="7.83383" fill="url(#paint0_linear_4412_2416)"/>
<path d="M267.917 134.406L275.751 134.406C275.556 134.406 274.951 133.597 274.632 133.287C274.321 132.977 274.632 132.709 274.632 132.168L274.632 127.691L276.87 127.691L276.87 134.406L283.584 134.406L283.584 136.644L275.751 136.644C275.946 136.644 276.559 137.453 276.87 137.763C277.189 138.074 276.87 138.342 276.87 138.883L276.87 143.359L274.632 143.359L274.632 136.644L267.917 136.644L267.917 134.406Z" fill="white"/>
</g>
<rect y="106.54" width="149.626" height="54.8368" rx="7.74789" fill="white"/>
<rect x="50.9199" y="131.608" width="72.8546" height="4.7003" rx="2.35015" fill="#F6F6F8"/>
<rect x="50.9199" y="140.226" width="44.6528" height="4.7003" rx="2.35015" fill="#F6F6F8"/>
<rect x="50.9199" y="122.991" width="79.905" height="4.7003" rx="2.35015" fill="#F6F6F8"/>
<rect x="11.75" y="118.291" width="31.3353" height="31.3353" rx="7.83383" fill="url(#paint1_linear_4412_2416)"/>
<path d="M32.9013 131.217L26.6343 131.217" stroke="white" stroke-width="1.17507" stroke-linecap="round" stroke-linejoin="round"/>
<circle cx="1.17507" cy="1.17507" r="1.17507" transform="matrix(-1 0 0 1 24.2842 129.65)" fill="white" stroke="white" stroke-width="0.783383"/>
<path d="M21.9346 137.484L28.2017 137.484" stroke="white" stroke-width="1.17507" stroke-linecap="round" stroke-linejoin="round"/>
<circle cx="31.7268" cy="137.092" r="1.17507" fill="white" stroke="white" stroke-width="0.783383"/>
<rect x="96.3555" width="149.626" height="54.8368" rx="7.74789" fill="white"/>
<rect x="147.275" y="25.0684" width="73.638" height="4.7003" rx="2.35015" fill="#F6F6F8"/>
<rect x="147.275" y="33.6855" width="44.6528" height="4.7003" rx="2.35015" fill="#F6F6F8"/>
<rect x="147.275" y="16.4509" width="79.905" height="4.7003" rx="2.35015" fill="#F6F6F8"/>
<rect x="108.106" y="11.7507" width="31.3353" height="31.3353" rx="7.83383" fill="url(#paint2_linear_4412_2416)"/>
<path fill-rule="evenodd" clip-rule="evenodd" d="M124.167 23.1099C126.851 23.11 129.018 24.7683 130.289 26.7944C130.338 26.8707 130.388 26.9478 130.434 27.0269C130.435 27.0293 130.437 27.0322 130.438 27.0347C130.644 27.3864 130.686 27.3837 130.565 27.5894C130.592 27.9646 130.549 28.3955 130.434 28.5933C129.297 30.5421 127 31.6351 124.477 31.7183C124.374 31.7232 124.271 31.727 124.167 31.7271L123.905 31.7222C123.886 31.7214 123.868 31.7192 123.849 31.7183C121.781 31.6485 119.865 30.9006 118.617 29.5571C117.998 29.0285 117.481 28.4341 117.116 27.8101C116.849 27.355 116.849 27.482 117.116 27.0269C118.363 24.8957 121.379 23.1099 124.167 23.1099ZM123.774 24.8716C122.368 24.872 121.229 26.012 121.228 27.4175C121.228 28.8233 122.368 29.9639 123.774 29.9644C125.166 29.9644 126.295 28.847 126.318 27.4604C126.443 27.3361 126.516 27.1877 126.516 27.0269C126.516 26.7955 126.366 26.5882 126.126 26.4448C125.744 25.522 124.835 24.8716 123.774 24.8716ZM123.774 26.0474C124.117 26.0474 124.431 26.1748 124.671 26.3833C124.366 26.5248 124.167 26.7603 124.167 27.0269C124.167 27.4022 124.563 27.7151 125.091 27.7915C124.928 28.3668 124.401 28.7886 123.774 28.7886C123.017 28.7882 122.404 28.1744 122.404 27.4175C122.404 26.661 123.017 26.0478 123.774 26.0474ZM124.458 23.8999C124.435 23.8989 124.413 23.8977 124.39 23.897L124.167 23.8931C124.264 23.8931 124.361 23.8969 124.458 23.8999Z" fill="white"/>
<path d="M274.641 78.73V37.2766C274.641 31.8321 270.228 27.4184 264.783 27.4184H244.415" stroke="white" stroke-width="2"/>
<path fill-rule="evenodd" clip-rule="evenodd" d="M271.873 76.8521L274.223 73.7185C274.343 73.5372 274.801 73.7185 275.007 73.7185C275.212 73.7185 275.671 73.5372 275.79 73.7185L278.14 76.8521C278.313 77.0862 278.249 77.3594 278.14 77.6354C278.032 77.9115 277.633 78.3909 277.357 78.4188H272.657C272.381 78.3904 271.981 77.9114 271.873 77.6354C271.765 77.3595 271.7 77.086 271.873 76.8521Z" fill="white"/>
<path d="M179.852 132.392H169.994H149.626" stroke="white" stroke-width="2"/>
<path fill-rule="evenodd" clip-rule="evenodd" d="M177.908 135.632L174.775 133.282C174.594 133.163 174.775 132.704 174.775 132.499C174.775 132.293 174.594 131.834 174.775 131.715L177.908 129.365C178.143 129.192 178.416 129.257 178.692 129.365C178.968 129.473 179.447 129.873 179.475 130.148L179.475 134.849C179.447 135.124 178.968 135.524 178.692 135.632C178.416 135.74 178.142 135.805 177.908 135.632Z" fill="white"/>
<path d="M369.756 132.392H382.02C386.928 132.392 390.907 128.413 390.907 123.504V72.4628C390.907 65.3241 396.695 59.537 403.833 59.537H415.584" stroke="white" stroke-width="0.783383"/>
<path fill-rule="evenodd" clip-rule="evenodd" d="M371.7 135.632L374.833 133.282C375.015 133.163 374.833 132.704 374.833 132.499C374.833 132.293 375.015 131.834 374.833 131.715L371.7 129.365C371.466 129.192 371.193 129.257 370.917 129.365C370.641 129.473 370.161 129.873 370.133 130.148L370.133 134.849C370.162 135.124 370.641 135.524 370.917 135.632C371.192 135.74 371.466 135.805 371.7 135.632Z" fill="white"/>
<defs>
<filter id="filter0_dddd_4412_2416" x="138.659" y="70.5046" width="273.401" height="336.071" filterUnits="userSpaceOnUse" color-interpolation-filters="sRGB">
<feFlood flood-opacity="0" result="BackgroundImageFix"/>
<feColorMatrix in="SourceAlpha" type="matrix" values="0 0 0 0 0 0 0 0 0 0 0 0 0 0 0 0 0 0 127 0" result="hardAlpha"/>
<feOffset dy="6.26706"/>
<feGaussianBlur stdDeviation="7.05045"/>
<feColorMatrix type="matrix" values="0 0 0 0 0 0 0 0 0 0 0 0 0 0 0 0 0 0 0.05 0"/>
<feBlend mode="normal" in2="BackgroundImageFix" result="effect1_dropShadow_4412_2416"/>
<feColorMatrix in="SourceAlpha" type="matrix" values="0 0 0 0 0 0 0 0 0 0 0 0 0 0 0 0 0 0 127 0" result="hardAlpha"/>
<feOffset dy="25.0682"/>
<feGaussianBlur stdDeviation="12.5341"/>
<feColorMatrix type="matrix" values="0 0 0 0 0 0 0 0 0 0 0 0 0 0 0 0 0 0 0.04 0"/>
<feBlend mode="normal" in2="effect1_dropShadow_4412_2416" result="effect2_dropShadow_4412_2416"/>
<feColorMatrix in="SourceAlpha" type="matrix" values="0 0 0 0 0 0 0 0 0 0 0 0 0 0 0 0 0 0 127 0" result="hardAlpha"/>
<feOffset dy="57.1869"/>
<feGaussianBlur stdDeviation="17.2344"/>
<feColorMatrix type="matrix" values="0 0 0 0 0 0 0 0 0 0 0 0 0 0 0 0 0 0 0.03 0"/>
<feBlend mode="normal" in2="effect2_dropShadow_4412_2416" result="effect3_dropShadow_4412_2416"/>
<feColorMatrix in="SourceAlpha" type="matrix" values="0 0 0 0 0 0 0 0 0 0 0 0 0 0 0 0 0 0 127 0" result="hardAlpha"/>
<feOffset dy="101.84"/>
<feGaussianBlur stdDeviation="20.368"/>
<feColorMatrix type="matrix" values="0 0 0 0 0 0 0 0 0 0 0 0 0 0 0 0 0 0 0.01 0"/>
<feBlend mode="normal" in2="effect3_dropShadow_4412_2416" result="effect4_dropShadow_4412_2416"/>
<feBlend mode="normal" in="SourceGraphic" in2="effect4_dropShadow_4412_2416" result="shape"/>
</filter>
<linearGradient id="paint0_linear_4412_2416" x1="291.418" y1="135.525" x2="260.083" y2="135.525" gradientUnits="userSpaceOnUse">
<stop stop-color="#5F73FE"/>
<stop offset="1" stop-color="#798AFF" stop-opacity="0.894118"/>
</linearGradient>
<linearGradient id="paint1_linear_4412_2416" x1="43.0853" y1="133.958" x2="11.75" y2="133.958" gradientUnits="userSpaceOnUse">
<stop stop-color="#5F73FE"/>
<stop offset="1" stop-color="#798AFF" stop-opacity="0.894118"/>
</linearGradient>
<linearGradient id="paint2_linear_4412_2416" x1="139.442" y1="27.4184" x2="108.106" y2="27.4184" gradientUnits="userSpaceOnUse">
<stop stop-color="#5F73FE"/>
<stop offset="1" stop-color="#798AFF" stop-opacity="0.894118"/>
</linearGradient>
</defs>
</svg>
