<svg width="380" height="212" viewBox="0 0 380 212" fill="none" xmlns="http://www.w3.org/2000/svg">
<g opacity="0.3">
<path d="M67 0V248" stroke="white" stroke-width="0.378342"/>
<path d="M134 0V248" stroke="white" stroke-width="0.378342"/>
<path d="M202 0V248" stroke="white" stroke-width="0.378342"/>
<path d="M269 0V248" stroke="white" stroke-width="0.378342"/>
<path d="M336 0V248" stroke="white" stroke-width="0.378342"/>
<path d="M580 60L25 60" stroke="white" stroke-width="0.378342"/>
<path d="M580 53L25 53" stroke="white" stroke-width="0.378342"/>
<path d="M580 105L25 105" stroke="white" stroke-width="0.378342"/>
<path d="M580 98L25 98" stroke="white" stroke-width="0.378342"/>
<path d="M580 150L25 150" stroke="white" stroke-width="0.378342"/>
<path d="M580 143L25 143" stroke="white" stroke-width="0.378342"/>
<path d="M580 194L25 194" stroke="white" stroke-width="0.378342"/>
<path d="M580 187L25 187" stroke="white" stroke-width="0.378342"/>
</g>
<rect y="22" width="245" height="237" rx="9.8903" fill="white"/>
<rect x="16" y="155" width="215" height="6" rx="3" fill="#F6F6F8"/>
<rect x="16" y="166" width="167" height="6" rx="3" fill="#F6F6F8"/>
<rect x="16" y="177" width="182" height="6" rx="3" fill="#F6F6F8"/>
<path d="M33 124C25.2082 124 15 133 15 133V151L226 153V102H221C221 102 213.106 95 207 95C198.859 95 186.141 117 178 117C168.992 117 164.106 106 158 106C151.894 106 148.427 117 143 117C137.573 117 134.469 100 129 100C122.894 100 110.176 122 100 122C91.8593 122 84.4623 106 77 106C71.1897 106 71.0704 117 67 117C60.3768 117 55.7839 115 49 115C42.2456 115 39.1055 124 33 124Z" fill="url(#paint0_linear_8011_225)"/>
<path d="M15 132C15 132 25.1792 123 33 123C39.1283 123 42.2204 114 49 114C55.8092 114 60.3521 116 67 116C71.0855 116 71.168 105 77 105C84.4901 105 92.8289 121 101 121C111.214 121 122.872 100 129 100C134.49 100 137.553 116 143 116C148.447 116 152.872 105 159 105C165.128 105 169.959 116 179 116C187.171 116 199.829 95 208 95C214.128 95 222 102 222 102" stroke="#F6F6F8" stroke-width="0.641548"/>
<path d="M33 128C24.5376 128 19 145 19 145V153H230L228 99H223C223 99 215.842 105.689 209 106C197.085 106.541 202.115 81 196 81C189.205 81 194.986 107.947 183 111C177.821 112.319 174.436 109 169 109C158.868 109 159.833 128 151 128C143.273 128 140.154 122 132 122C123.808 122 121.192 132 113 132C106.885 132 103.398 125.405 98 125C92.6019 124.595 89.4359 128 84 128C74.2827 128 76.1154 107 70 107C62.5256 107 59.8334 134 51 134C43.7815 134 40.4744 128 33 128Z" fill="url(#paint1_linear_8011_225)"/>
<path d="M19 145C19 145 24.4898 128 33 128C40.5167 128 43.7407 134 51 134C59.8833 134 62.4833 107 70 107C76.15 107 75.2277 128 85 128C90.4667 128 92.5714 124.595 98 125C103.429 125.405 106.85 132 113 132C121.238 132 123.762 122 132 122C140.2 122 144.229 128 152 128C160.883 128 159.81 109 170 109C175.467 109 178.792 112.319 184 111C196.054 107.947 190.167 81 197 81C203.15 81 198.018 106.541 210 106C216.88 105.689 224 99 224 99" stroke="#E1E3EA" stroke-width="0.641548"/>
<rect x="20" y="42" width="40" height="40" rx="10" fill="url(#paint2_linear_8011_225)"/>
<path d="M46.9333 53.7565C47.6564 53.7565 48.249 54.3492 48.249 55.0841V58.3674H50.999V55.0841C50.999 52.832 49.1736 51.0066 46.9333 51.0066H43.6382V53.7684H46.9333V53.7565Z" fill="white"/>
<path d="M48.249 68.9282C48.249 69.6513 47.6564 70.2439 46.9333 70.2439H43.6382V72.9938H46.9333C49.1736 72.9938 50.999 71.1685 50.999 68.9282V65.6331H48.249V68.9282Z" fill="white"/>
<path d="M31.7485 55.0837C31.7485 54.3488 32.3411 53.7562 33.0641 53.7562H36.3593V50.9944H33.0641C30.8121 51.0062 28.9985 52.8316 28.9985 55.0718V58.3552H31.7485V55.0837Z" fill="white"/>
<path d="M33.0773 70.2559C32.3543 70.2559 31.7616 69.6632 31.7616 68.9402V65.645H29.0117V68.9402C29.0236 71.1804 30.8371 73.0058 33.0773 73.0058H36.3725V70.2559H33.0773Z" fill="white"/>
<path d="M38.4255 68.5966L32.5464 62.7175L34.4903 60.7736L38.4255 64.7088L45.5374 57.5969L47.4813 59.5408L38.4255 68.5966Z" fill="white"/>
<path fill-rule="evenodd" clip-rule="evenodd" d="M191 106C190.476 106.144 190 106.46 190 107C190 107.21 190.612 109.973 194 119C198.177 130.129 198.749 130.74 199 131C199.205 131.212 199.759 130.95 200 131C199.867 131.032 200.188 131.039 200 131C200.276 130.934 200.881 130.206 201 130C201.052 129.909 201.909 128.456 203 126L205 121L210 119C214.605 116.855 214.829 116.42 215 116C215.193 115.528 215.391 115.312 215 115C214.798 114.839 191.364 106.063 191 106C191.141 105.961 190.894 105.982 191 106Z" fill="#8695FE"/>
<rect x="219" y="118" width="121" height="31" rx="15.5" fill="#8695FE"/>
<path d="M239.151 127.8H240.271V132.728H242.031L245.679 127.8H246.991L242.959 133.208L247.311 139H245.935L242.031 133.752H240.271V139H239.151V127.8ZM248.5 138.152H248.74C249.07 138.152 249.326 138.04 249.508 137.816C249.689 137.592 249.822 137.267 249.908 136.84C250.004 136.413 250.057 135.896 250.068 135.288C250.089 134.68 250.1 133.997 250.1 133.24V131H255.54V139H254.484V131.96H251.156V133.24C251.156 134.104 251.14 134.893 251.108 135.608C251.086 136.323 250.996 136.941 250.836 137.464C250.686 137.987 250.446 138.392 250.116 138.68C249.796 138.968 249.337 139.112 248.74 139.112H248.5V138.152ZM260.338 139.112C259.453 139.112 258.792 138.909 258.354 138.504C257.917 138.088 257.698 137.517 257.698 136.792C257.698 136.035 257.96 135.432 258.482 134.984C259.005 134.536 259.837 134.312 260.978 134.312H263.042V133.72C263.042 133.08 262.888 132.616 262.578 132.328C262.269 132.029 261.762 131.88 261.058 131.88C260.408 131.88 259.928 131.992 259.618 132.216C259.32 132.44 259.149 132.728 259.106 133.08H258.018C258.04 132.792 258.12 132.515 258.258 132.248C258.397 131.981 258.589 131.747 258.834 131.544C259.09 131.341 259.405 131.181 259.778 131.064C260.152 130.947 260.578 130.888 261.058 130.888C262.093 130.888 262.856 131.128 263.346 131.608C263.848 132.077 264.098 132.781 264.098 133.72V139H263.266L263.138 137.64H263.106C262.786 138.12 262.386 138.488 261.906 138.744C261.437 138.989 260.914 139.112 260.338 139.112ZM260.418 138.12C260.802 138.12 261.154 138.061 261.474 137.944C261.794 137.816 262.072 137.645 262.306 137.432C262.541 137.208 262.722 136.947 262.85 136.648C262.978 136.339 263.042 136.003 263.042 135.64V135.208H261.058C260.237 135.208 259.65 135.352 259.298 135.64C258.957 135.928 258.786 136.312 258.786 136.792C258.786 137.197 258.914 137.523 259.17 137.768C259.437 138.003 259.853 138.12 260.418 138.12ZM265.703 138.04H266.583C266.753 137.773 266.892 137.501 266.999 137.224C267.116 136.947 267.207 136.632 267.271 136.28C267.345 135.928 267.393 135.523 267.415 135.064C267.447 134.595 267.463 134.04 267.463 133.4V131H272.903V138.04H273.943V141.08H272.919V139H266.727V141.08H265.703V138.04ZM271.847 138.04V131.96H268.487V133.4C268.487 133.976 268.476 134.483 268.455 134.92C268.433 135.357 268.396 135.757 268.343 136.12C268.289 136.472 268.215 136.803 268.119 137.112C268.023 137.411 267.905 137.709 267.767 138.008V138.04H271.847ZM278.736 139.112C277.659 139.112 276.8 138.781 276.16 138.12C275.531 137.459 275.216 136.509 275.216 135.272V134.728C275.216 134.12 275.296 133.576 275.456 133.096C275.627 132.616 275.867 132.216 276.176 131.896C276.485 131.565 276.853 131.315 277.28 131.144C277.717 130.973 278.203 130.888 278.736 130.888C279.813 130.888 280.667 131.219 281.296 131.88C281.936 132.541 282.256 133.491 282.256 134.728V135.272C282.256 135.88 282.171 136.424 282 136.904C281.84 137.384 281.605 137.789 281.296 138.12C280.987 138.44 280.613 138.685 280.176 138.856C279.749 139.027 279.269 139.112 278.736 139.112ZM278.736 138.152C279.472 138.152 280.059 137.912 280.496 137.432C280.944 136.952 281.168 136.232 281.168 135.272V134.728C281.168 133.779 280.944 133.064 280.496 132.584C280.048 132.093 279.461 131.848 278.736 131.848C278 131.848 277.408 132.088 276.96 132.568C276.523 133.048 276.304 133.768 276.304 134.728V135.272C276.304 136.221 276.528 136.941 276.976 137.432C277.424 137.912 278.011 138.152 278.736 138.152ZM284.493 131H287.533C288.471 131 289.159 131.197 289.597 131.592C290.034 131.987 290.253 132.52 290.253 133.192C290.253 133.544 290.162 133.864 289.981 134.152C289.81 134.44 289.565 134.664 289.245 134.824V134.856C289.682 135.027 290.013 135.272 290.237 135.592C290.461 135.912 290.573 136.285 290.573 136.712C290.573 137.427 290.354 137.987 289.917 138.392C289.479 138.797 288.791 139 287.853 139H284.493V131ZM289.165 133.208C289.165 132.813 289.037 132.509 288.781 132.296C288.525 132.072 288.082 131.96 287.453 131.96H285.549V134.472H287.453C288.082 134.472 288.525 134.365 288.781 134.152C289.037 133.928 289.165 133.613 289.165 133.208ZM289.485 136.696C289.485 136.259 289.357 135.928 289.101 135.704C288.845 135.48 288.402 135.368 287.773 135.368H285.549V138.04H287.773C288.402 138.04 288.845 137.928 289.101 137.704C289.357 137.48 289.485 137.144 289.485 136.696ZM302.389 139H292.805V131H293.861V138.04H296.997V131H298.053V138.04H301.189V131H302.245V138.04H303.445V141.08H302.389V139ZM305.212 131H306.268V137.8H306.3L310.3 131H311.772V139H310.716V132.2H310.684L306.684 139H305.212V131ZM314.493 131H315.549V134.36H316.989L319.325 131H320.573L317.837 134.808L320.893 139H319.613L316.989 135.32H315.549V139H314.493V131Z" fill="white"/>
<defs>
<linearGradient id="paint0_linear_8011_225" x1="120.5" y1="97.4681" x2="120.5" y2="144.362" gradientUnits="userSpaceOnUse">
<stop stop-color="#F6F6F8"/>
<stop offset="1" stop-color="#F6F6F8" stop-opacity="0"/>
</linearGradient>
<linearGradient id="paint1_linear_8011_225" x1="124.5" y1="75.4615" x2="124.5" y2="140.692" gradientUnits="userSpaceOnUse">
<stop stop-color="#F6F6F8"/>
<stop offset="1" stop-color="#F6F6F8" stop-opacity="0"/>
</linearGradient>
<linearGradient id="paint2_linear_8011_225" x1="60" y1="62" x2="20" y2="62" gradientUnits="userSpaceOnUse">
<stop stop-color="#5F73FE"/>
<stop offset="1" stop-color="#798AFF" stop-opacity="0.894118"/>
</linearGradient>
</defs>
</svg>
