<svg width="410" height="209" viewBox="0 0 410 209" fill="none" xmlns="http://www.w3.org/2000/svg">
<path d="M251 14.413C251 7.46883 257.969 2.68678 264.448 5.18483L413.442 62.6283C415.732 63.5111 418.268 63.5111 420.558 62.6283L569.552 5.18483C576.031 2.68678 583 7.46883 583 14.413V239.11C583 244.572 578.572 249 573.11 249H260.89C255.428 249 251 244.572 251 239.11V14.413Z" fill="url(#paint0_linear_8020_4517)"/>
<path d="M-160 30.413C-160 23.4688 -153.031 18.6868 -146.552 21.1848L2.44214 78.6283C4.7319 79.5111 7.2681 79.5111 9.55786 78.6283L158.552 21.1848C165.031 18.6868 172 23.4688 172 30.413V255.11C172 260.572 167.572 265 162.11 265H-150.11C-155.572 265 -160 260.572 -160 255.11V30.413Z" fill="url(#paint1_linear_8020_4517)"/>
<path d="M39 30.413C39 23.4688 45.9688 18.6868 52.4482 21.1848L201.442 78.6283C203.732 79.5111 206.268 79.5111 208.558 78.6283L357.552 21.1848C364.031 18.6868 371 23.4688 371 30.413V255.11C371 260.572 366.572 265 361.11 265H48.8903C43.428 265 39 260.572 39 255.11V30.413Z" fill="white"/>
<rect x="67" y="60" width="15" height="273" rx="7.5" fill="#F6F6F8"/>
<rect x="110" y="100" width="15" height="233" rx="7.5" fill="#F6F6F8"/>
<rect x="153" y="146" width="15" height="187" rx="7.5" fill="#F6F6F8"/>
<rect x="196" y="47" width="20" height="286" rx="10" fill="url(#paint2_linear_8020_4517)"/>
<rect x="244" y="146" width="15" height="187" rx="7.5" fill="#F6F6F8"/>
<rect x="287" y="100" width="15" height="233" rx="7.5" fill="#F6F6F8"/>
<rect x="330" y="62" width="15" height="271" rx="7.5" fill="#F6F6F8"/>
<rect x="172" y="47" width="64" height="64" rx="10" fill="url(#paint3_linear_8020_4517)"/>
<path d="M213.442 67.7976C213.771 68.5945 214.404 69.2278 215.2 69.5585L217.992 70.7152C218.789 71.0453 219.422 71.6784 219.752 72.4753C220.083 73.2722 220.083 74.1676 219.752 74.9645L218.597 77.7549C218.266 78.5521 218.266 79.4484 218.598 80.2453L219.751 83.0349C219.915 83.4296 219.999 83.8526 219.999 84.2799C220 84.7072 219.915 85.1303 219.752 85.525C219.588 85.9198 219.349 86.2784 219.047 86.5805C218.744 86.8826 218.386 87.1222 217.991 87.2856L215.201 88.4414C214.404 88.7709 213.77 89.4033 213.44 90.1996L212.283 92.992C211.953 93.7889 211.32 94.4221 210.523 94.7522C209.726 95.0822 208.831 95.0823 208.034 94.7522L205.244 93.5963C204.447 93.2671 203.552 93.2677 202.755 93.5982L199.963 94.7532C199.167 95.0825 198.272 95.0822 197.476 94.7524C196.68 94.4226 196.047 93.7902 195.716 92.9942L194.56 90.2009C194.23 89.4041 193.598 88.7707 192.801 88.44L190.009 87.2834C189.213 86.9534 188.58 86.3207 188.249 85.5243C187.919 84.7278 187.919 83.8328 188.248 83.0361L189.404 80.2457C189.733 79.4488 189.733 78.5537 189.402 77.7573L188.248 74.9629C188.084 74.5682 188 74.1451 188 73.7178C188 73.2905 188.084 72.8674 188.248 72.4727C188.411 72.0779 188.651 71.7193 188.953 71.4172C189.255 71.1151 189.614 70.8755 190.009 70.7122L192.799 69.5563C193.595 69.2272 194.228 68.5955 194.559 67.8001L195.715 65.0077C196.046 64.2108 196.679 63.5777 197.476 63.2476C198.272 62.9175 199.168 62.9175 199.965 63.2476L202.755 64.4034C203.552 64.7327 204.447 64.732 205.243 64.4015L208.037 63.2494C208.834 62.9195 209.729 62.9195 210.525 63.2495C211.322 63.5796 211.955 64.2125 212.285 65.0092L213.442 67.8024L213.442 67.7976Z" fill="white"/>
<path d="M199.199 79.8L202.399 83L209.599 75.8" stroke="#6F81FE" stroke-width="1.6" stroke-linecap="round" stroke-linejoin="round"/>
<defs>
<linearGradient id="paint0_linear_8020_4517" x1="417" y1="0" x2="417" y2="249" gradientUnits="userSpaceOnUse">
<stop stop-color="#F3F3F9"/>
<stop offset="1" stop-color="#EBEBF5"/>
</linearGradient>
<linearGradient id="paint1_linear_8020_4517" x1="6" y1="16" x2="6" y2="265" gradientUnits="userSpaceOnUse">
<stop stop-color="#F3F3F9"/>
<stop offset="1" stop-color="#EBEBF5"/>
</linearGradient>
<linearGradient id="paint2_linear_8020_4517" x1="206" y1="333" x2="206" y2="103.839" gradientUnits="userSpaceOnUse">
<stop stop-color="#798AFF" stop-opacity="0.894118"/>
<stop offset="1" stop-color="white"/>
</linearGradient>
<linearGradient id="paint3_linear_8020_4517" x1="236" y1="79" x2="172" y2="79" gradientUnits="userSpaceOnUse">
<stop stop-color="#5F73FE"/>
<stop offset="1" stop-color="#798AFF" stop-opacity="0.894118"/>
</linearGradient>
</defs>
</svg>
