<svg width="350" height="199" viewBox="0 0 350 199" fill="none" xmlns="http://www.w3.org/2000/svg">
<rect y="160" width="350" height="70" rx="9.8903" fill="white"/>
<rect x="65" y="192" width="217" height="6" rx="3" fill="#F6F6F8"/>
<rect x="65" y="181" width="236" height="6" rx="3" fill="#F6F6F8"/>
<circle cx="323.5" cy="192.5" r="7" stroke="#F6F6F8"/>
<rect x="15" y="175" width="40" height="40" rx="10" fill="#E1E3EA"/>
<path d="M31.2116 186.812C30.6409 187.413 30.6409 188.387 31.2116 188.987C31.7822 189.588 32.7074 189.588 33.278 188.987L32.2448 187.9L31.2116 186.812ZM35 186.45L35.0026 187.988L35.0026 187.988L35 186.45ZM35 195.149L35.0026 193.611C34.6146 193.611 34.2423 193.772 33.9677 194.061C33.6931 194.349 33.5388 194.741 33.5388 195.149H35ZM39.1328 190.8L40.594 190.8L39.1328 190.8ZM33.5388 196.599C33.5388 197.448 34.193 198.137 35 198.137C35.807 198.137 36.4612 197.448 36.4612 196.599H35H33.5388ZM32.2448 187.9L33.278 188.987C33.8962 188.337 34.5981 187.988 35.0026 187.988L35 186.45L34.9974 184.912C33.4707 184.915 32.0668 185.912 31.2116 186.812L32.2448 187.9ZM35 186.45L35.0026 187.988C35.4053 187.987 36.0969 188.329 36.722 188.987L37.7552 187.9L38.7884 186.812C37.9333 185.912 36.5349 184.909 34.9974 184.912L35 186.45ZM37.7552 193.699L36.722 192.612C36.0969 193.27 35.4053 193.612 35.0026 193.611L35 195.149L34.9974 196.687C36.5349 196.69 37.9333 195.687 38.7884 194.787L37.7552 193.699ZM37.7552 187.9L36.722 188.987C37.3437 189.642 37.6717 190.375 37.6717 190.8L39.1328 190.8L40.594 190.8C40.594 189.187 39.6436 187.712 38.7884 186.812L37.7552 187.9ZM39.1328 190.8L37.6717 190.8C37.6717 191.224 37.3437 191.958 36.722 192.612L37.7552 193.699L38.7884 194.787C39.6436 193.887 40.594 192.412 40.594 190.8L39.1328 190.8ZM35 195.149H33.5388V196.599H35H36.4612V195.149H35Z" fill="white"/>
<rect y="80" width="350" height="70" rx="9.8903" fill="white"/>
<rect x="65" y="112" width="217" height="6" rx="3" fill="#F6F6F8"/>
<rect x="65" y="123" width="126" height="6" rx="3" fill="#F6F6F8"/>
<rect x="65" y="101" width="236" height="6" rx="3" fill="#F6F6F8"/>
<circle cx="323.5" cy="112.5" r="7" stroke="#F6F6F8"/>
<rect x="15" y="95" width="40" height="40" rx="10" fill="#E1E3EA"/>
<rect x="35" y="125" width="0.0001" height="0.0001" stroke="white" stroke-width="3" stroke-linejoin="round"/>
<path d="M31.2116 106.812C30.6409 107.413 30.6409 108.387 31.2116 108.987C31.7822 109.588 32.7074 109.588 33.278 108.987L32.2448 107.9L31.2116 106.812ZM35 106.45L35.0026 107.988L35.0026 107.988L35 106.45ZM35 115.149L35.0026 113.611C34.6146 113.611 34.2423 113.772 33.9677 114.061C33.6931 114.349 33.5388 114.741 33.5388 115.149H35ZM39.1328 110.8L40.594 110.8L39.1328 110.8ZM33.5388 116.599C33.5388 117.448 34.193 118.137 35 118.137C35.807 118.137 36.4612 117.448 36.4612 116.599H35H33.5388ZM32.2448 107.9L33.278 108.987C33.8962 108.337 34.5981 107.988 35.0026 107.988L35 106.45L34.9974 104.912C33.4707 104.915 32.0668 105.912 31.2116 106.812L32.2448 107.9ZM35 106.45L35.0026 107.988C35.4053 107.987 36.0969 108.329 36.722 108.987L37.7552 107.9L38.7884 106.812C37.9333 105.912 36.5349 104.909 34.9974 104.912L35 106.45ZM37.7552 113.699L36.722 112.612C36.0969 113.27 35.4053 113.612 35.0026 113.611L35 115.149L34.9974 116.687C36.5349 116.69 37.9333 115.687 38.7884 114.787L37.7552 113.699ZM37.7552 107.9L36.722 108.987C37.3437 109.642 37.6717 110.375 37.6717 110.8L39.1328 110.8L40.594 110.8C40.594 109.187 39.6436 107.712 38.7884 106.812L37.7552 107.9ZM39.1328 110.8L37.6717 110.8C37.6717 111.224 37.3437 111.958 36.722 112.612L37.7552 113.699L38.7884 114.787C39.6436 113.887 40.594 112.412 40.594 110.8L39.1328 110.8ZM35 115.149H33.5388V116.599H35H36.4612V115.149H35Z" fill="white"/>
<rect width="350" height="70" rx="9.8903" fill="white"/>
<rect x="65" y="32" width="217" height="6" rx="3" fill="#F6F6F8"/>
<rect x="65" y="43" width="126" height="6" rx="3" fill="#F6F6F8"/>
<rect x="65" y="21" width="236" height="6" rx="3" fill="#F6F6F8"/>
<circle cx="323.5" cy="32.5" r="7.5" fill="#ADDFAC"/>
<path d="M320 33L322 35L327 30" stroke="white" stroke-linecap="round" stroke-linejoin="round"/>
<rect x="15" y="15" width="40" height="40" rx="10" fill="url(#paint0_linear_8019_4515)"/>
<path d="M37.2 33C37.0895 33 37 32.9105 37 32.8V25.6C37 25.4078 36.7553 25.3262 36.64 25.48L28.6 36.2C28.3528 36.5296 28.588 37 29 37H32.8C32.9105 37 33 37.0895 33 37.2V44.4C33 44.5922 33.2447 44.6738 33.36 44.52L41.4 33.8C41.6472 33.4704 41.412 33 41 33H37.2Z" fill="white" stroke="white" stroke-width="1.5"/>
<defs>
<linearGradient id="paint0_linear_8019_4515" x1="55" y1="35" x2="15" y2="35" gradientUnits="userSpaceOnUse">
<stop stop-color="#5F73FE"/>
<stop offset="1" stop-color="#798AFF" stop-opacity="0.894118"/>
</linearGradient>
</defs>
</svg>
