<svg width="316" height="213" viewBox="0 0 316 213" fill="none" xmlns="http://www.w3.org/2000/svg">
<circle cx="245" cy="61" r="54" fill="#E1E3EA"/>
<circle cx="275" cy="108" r="15" fill="white"/>
<path fill-rule="evenodd" clip-rule="evenodd" d="M268 111.341C268 111.741 268.238 112.102 268.606 112.26L275 115L275 115H275V107.2L271.5 106.333L268 104.6V111.341ZM268.394 103.831L271.5 104.6L278.5 102L279.375 102.867L273.25 105.467L275 106.333L281.743 103.829L279 102L275.654 101.163C275.23 101.057 274.782 101.093 274.381 101.265L268.394 103.831ZM282 104.6L275.875 107.2V114.625L281.394 112.26C281.762 112.102 282 111.741 282 111.341V104.6Z" fill="#E1E3EA"/>
<circle cx="301" cy="59" r="15" fill="white"/>
<path d="M303 51C304.648 51 306.369 52.4641 306.861 54.0967C306.868 54.1189 306.873 54.1417 306.88 54.1641C306.893 54.2114 306.905 54.259 306.916 54.3066C306.969 54.5294 307 54.7611 307 55V64C307 65.6569 305.657 67 304 67H298C297.94 67 297.881 66.9976 297.822 66.9941C297.816 66.9938 297.811 66.9926 297.805 66.9922C297.634 66.9812 297.468 66.9544 297.306 66.916C297.264 66.9061 297.222 66.8953 297.18 66.8838C297.151 66.8757 297.122 66.8693 297.094 66.8604C295.464 66.3672 294 64.6494 294 63V55C294 53.0477 296.051 51 298 51H303ZM297 62.459C296.701 62.459 296.459 62.7014 296.459 63C296.459 63.2986 296.701 63.541 297 63.541H298C298.299 63.541 298.541 63.2986 298.541 63C298.541 62.7014 298.299 62.459 298 62.459H297ZM303 62.459C302.701 62.459 302.459 62.7014 302.459 63C302.459 63.2986 302.701 63.541 303 63.541H304C304.299 63.541 304.541 63.2986 304.541 63C304.541 62.7014 304.299 62.459 304 62.459H303ZM297 59.459C296.701 59.459 296.459 59.7014 296.459 60C296.459 60.2986 296.701 60.541 297 60.541H298C298.299 60.541 298.541 60.2986 298.541 60C298.541 59.7014 298.299 59.459 298 59.459H297ZM303 59.459C302.701 59.459 302.459 59.7014 302.459 60C302.459 60.2986 302.701 60.541 303 60.541H304C304.299 60.541 304.541 60.2986 304.541 60C304.541 59.7014 304.299 59.459 304 59.459H303ZM298 54C297.288 54 297 54.3557 297 55V56C297 56.6443 297.288 57 298 57H303C303.712 57 304 56.6443 304 56V55C304 54.3557 303.712 54 303 54H298ZM298 55C298 55.3682 298.586 56 299 56H298V55Z" fill="#E1E3EA"/>
<circle cx="267" cy="15" r="15" fill="white"/>
<path d="M274 12L266 12" stroke="#E1E3EA" stroke-width="1.5" stroke-linecap="round" stroke-linejoin="round"/>
<circle cx="1.5" cy="1.5" r="1.5" transform="matrix(-1 0 0 1 263 10)" fill="#E1E3EA" stroke="#E1E3EA"/>
<path d="M260 20L268 20" stroke="#E1E3EA" stroke-width="1.5" stroke-linecap="round" stroke-linejoin="round"/>
<circle cx="272.5" cy="19.5" r="1.5" fill="#E1E3EA" stroke="#E1E3EA"/>
<circle cx="205" cy="28" r="15" fill="white"/>
<path fill-rule="evenodd" clip-rule="evenodd" d="M204.999 22C208.557 22 211.407 24.2795 212.999 27C213.268 27.4603 213.323 27.4535 213.166 27.7197C213.201 28.1986 213.146 28.7479 212.999 29C211.489 31.5894 208.374 32.9999 204.999 33C202.202 33 199.585 32.0303 197.91 30.2246C197.123 29.5509 196.464 28.7948 195.999 28C195.659 27.419 195.659 27.581 195.999 27C197.591 24.2796 201.441 22.0001 204.999 22ZM204.5 24.25C202.705 24.25 201.25 25.7051 201.25 27.5C201.25 29.2949 202.705 30.75 204.5 30.75C206.277 30.75 207.719 29.3239 207.748 27.5537C207.907 27.3951 208 27.205 208 27C208 26.705 207.808 26.4408 207.503 26.2578C207.015 25.0794 205.855 24.25 204.5 24.25ZM204.5 25.75C204.938 25.75 205.338 25.9125 205.645 26.1787C205.255 26.3593 205 26.6597 205 27C205 27.4794 205.506 27.8792 206.182 27.9766C205.974 28.7111 205.301 29.25 204.5 29.25C203.534 29.25 202.75 28.4665 202.75 27.5C202.75 26.5335 203.534 25.75 204.5 25.75Z" fill="#E1E3EA"/>
<rect y="59" width="245" height="237" rx="9.8903" fill="white"/>
<rect x="40" y="120" width="174" height="6" rx="3" fill="#F6F6F8"/>
<rect x="40" y="109" width="190" height="6" rx="3" fill="#F6F6F8"/>
<circle cx="22.5" cy="116.5" r="7.5" fill="#ADDFAC"/>
<path d="M19 117L21 119L26 114" stroke="white" stroke-linecap="round" stroke-linejoin="round"/>
<rect x="40" y="152" width="174" height="6" rx="3" fill="#F6F6F8"/>
<rect x="40" y="141" width="190" height="6" rx="3" fill="#F6F6F8"/>
<circle cx="22.5" cy="148.5" r="7" stroke="#F6F6F8"/>
<rect x="40" y="184" width="174" height="6" rx="3" fill="#F6F6F8"/>
<rect x="40" y="173" width="190" height="6" rx="3" fill="#F6F6F8"/>
<circle cx="22.5" cy="180.5" r="7" stroke="#F6F6F8"/>
<rect x="40" y="205" width="190" height="6" rx="3" fill="#F6F6F8"/>
<circle cx="22.5" cy="212.5" r="7" stroke="#F6F6F8"/>
<rect x="15" y="74" width="162" height="15" rx="7.5" fill="#F6F6F8"/>
<rect x="225" y="41" width="40" height="40" rx="10" fill="url(#paint0_linear_8019_4516)"/>
<path fill-rule="evenodd" clip-rule="evenodd" d="M241 58C241 57.211 241.211 57 242 57H246C246.366 57 246.735 56.2514 247 56L250 53C250.938 52.1118 250.291 51 249 51H236C235.211 51 235 51.211 235 52V65C235 66.2914 236.112 66.9375 237 66L240 63C240.251 62.7346 241 62.3655 241 62V58Z" fill="white"/>
<path d="M255 70C255 70.789 254.789 71 254 71H240C238.727 71 238.1 69.9 239 69L243 65C243.268 64.7321 243 64.3789 243 64V60C243 59.211 243.211 59 244 59H248C248.379 59 248.732 59.2679 249 59L253 55C253.9 54.1 255 54.7273 255 56V70Z" fill="white"/>
<defs>
<linearGradient id="paint0_linear_8019_4516" x1="265" y1="61" x2="225" y2="61" gradientUnits="userSpaceOnUse">
<stop stop-color="#5F73FE"/>
<stop offset="1" stop-color="#798AFF" stop-opacity="0.894118"/>
</linearGradient>
</defs>
</svg>
