<svg width="15" height="15" viewBox="0 0 15 15" fill="none" xmlns="http://www.w3.org/2000/svg">
<path d="M8.57064 4.9463C8.16995 5.23196 7.6796 5.4 7.15 5.4C5.7969 5.4 4.7 4.3031 4.7 2.95C4.7 1.5969 5.7969 0.5 7.15 0.5C8.02709 0.5 8.79654 0.960892 9.22936 1.6537M3.3 13.161H5.1272C5.36544 13.161 5.60222 13.1894 5.83317 13.2461L7.76383 13.7152C8.18274 13.8173 8.61914 13.8272 9.04243 13.745L11.1771 13.3297C11.741 13.2198 12.2597 12.9498 12.6662 12.5544L14.1765 11.0852C14.6078 10.6664 14.6078 9.9867 14.1765 9.56715C13.7882 9.1894 13.1733 9.14688 12.734 9.46722L10.9738 10.7514C10.7217 10.9357 10.415 11.0349 10.0996 11.0349H8.39985L9.48175 11.0348C10.0915 11.0348 10.5855 10.5543 10.5855 9.96114V9.7464C10.5855 9.25385 10.2409 8.82437 9.74985 8.70531L8.08002 8.29922C7.80827 8.23331 7.52996 8.2 7.2502 8.2C6.57483 8.2 5.35233 8.75917 5.35233 8.75917L3.3 9.61742M13.1 3.65C13.1 5.0031 12.0031 6.1 10.65 6.1C9.2969 6.1 8.2 5.0031 8.2 3.65C8.2 2.2969 9.2969 1.2 10.65 1.2C12.0031 1.2 13.1 2.2969 13.1 3.65ZM0.5 9.32L0.5 13.38C0.5 13.772 0.5 13.9681 0.576295 14.1178C0.643407 14.2495 0.750493 14.3566 0.882206 14.4237C1.03194 14.5 1.22796 14.5 1.62 14.5H2.18C2.57204 14.5 2.76805 14.5 2.91779 14.4237C3.04951 14.3566 3.15659 14.2495 3.2237 14.1178C3.3 13.9681 3.3 13.772 3.3 13.38V9.32C3.3 8.92796 3.3 8.73195 3.2237 8.58221C3.15659 8.45049 3.04951 8.34341 2.91779 8.2763C2.76806 8.2 2.57204 8.2 2.18 8.2L1.62 8.2C1.22796 8.2 1.03195 8.2 0.882207 8.2763C0.750493 8.34341 0.643407 8.45049 0.576295 8.58221C0.5 8.73195 0.5 8.92796 0.5 9.32Z" stroke="currentColor" stroke-linecap="round" stroke-linejoin="round"/>
</svg>
