<svg width="12" height="11" viewBox="0 0 12 11" fill="none" xmlns="http://www.w3.org/2000/svg">
<path d="M6.96018 4.06356C6.7645 3.86871 6.44792 3.86937 6.25307 4.06504C6.05822 4.26071 6.05888 4.5773 6.25456 4.77215L6.60737 4.41785L6.96018 4.06356ZM6.60737 7.66352L6.25456 7.30923L6.25454 7.30924L6.60737 7.66352ZM4.43413 9.82778L4.78695 10.1821V10.1821L4.43413 9.82778ZM1.17499 6.58211L1.52781 6.93639V6.93639L1.17499 6.58211ZM2.61443 5.85427C2.8101 5.65941 2.81075 5.34283 2.61589 5.14716C2.42104 4.95149 2.10445 4.95084 1.90879 5.1457L2.26161 5.49998L2.61443 5.85427ZM4.08175 6.93642C4.27742 7.13128 4.594 7.13061 4.78886 6.93494C4.98371 6.73927 4.98304 6.42269 4.78737 6.22783L4.43456 6.58213L4.08175 6.93642ZM4.43456 3.33646L4.78737 3.69075L4.78738 3.69074L4.43456 3.33646ZM6.6078 1.1722L6.96062 1.52649V1.52649L6.6078 1.1722ZM9.86694 1.1722L9.51412 1.52649V1.52649L9.86694 1.1722ZM9.86694 4.41787L10.2198 4.77216V4.77216L9.86694 4.41787ZM8.4275 5.14572C8.23183 5.34057 8.23118 5.65715 8.42603 5.85282C8.62089 6.04849 8.93747 6.04914 9.13314 5.85428L8.78032 5.5L8.4275 5.14572ZM6.60737 4.41785L6.25456 4.77215C6.59276 5.10893 6.78238 5.56528 6.78238 6.04069H7.28238H7.78238C7.78238 5.29872 7.48638 4.58756 6.96018 4.06356L6.60737 4.41785ZM7.28238 6.04069H6.78238C6.78238 6.51609 6.59276 6.97244 6.25456 7.30923L6.60737 7.66352L6.96018 8.01782C7.48638 7.49382 7.78238 6.78266 7.78238 6.04069H7.28238ZM6.60737 7.66352L6.25454 7.30924L4.08131 9.4735L4.43413 9.82778L4.78695 10.1821L6.96019 8.01781L6.60737 7.66352ZM4.43413 9.82778L4.08131 9.4735C3.37641 10.1755 2.2327 10.1755 1.52781 9.4735L1.17499 9.82778L0.822169 10.1821C1.91725 11.2726 3.69187 11.2726 4.78695 10.1821L4.43413 9.82778ZM1.17499 9.82778L1.52781 9.4735C0.824063 8.77266 0.824063 7.63723 1.52781 6.93639L1.17499 6.58211L0.822169 6.22783C-0.274056 7.31952 -0.274056 9.09037 0.822169 10.1821L1.17499 9.82778ZM1.17499 6.58211L1.52781 6.93639L2.61443 5.85427L2.26161 5.49998L1.90879 5.1457L0.822169 6.22783L1.17499 6.58211ZM4.43456 6.58213L4.78737 6.22783C4.44917 5.89105 4.25954 5.4347 4.25954 4.95929H3.75954H3.25954C3.25954 5.70126 3.55554 6.41242 4.08175 6.93642L4.43456 6.58213ZM3.75954 4.95929H4.25954C4.25954 4.48389 4.44917 4.02754 4.78737 3.69075L4.43456 3.33646L4.08175 2.98216C3.55554 3.50617 3.25954 4.21732 3.25954 4.95929H3.75954ZM4.43456 3.33646L4.78738 3.69074L6.96062 1.52649L6.6078 1.1722L6.25498 0.817916L4.08174 2.98217L4.43456 3.33646ZM6.6078 1.1722L6.96062 1.52649C7.66551 0.824505 8.80922 0.824505 9.51412 1.52649L9.86694 1.1722L10.2198 0.817916C9.12468 -0.272639 7.35006 -0.272639 6.25498 0.817916L6.6078 1.1722ZM9.86694 1.1722L9.51412 1.52649C10.2179 2.22732 10.2179 3.36275 9.51412 4.06359L9.86694 4.41787L10.2198 4.77216C11.316 3.68046 11.316 1.90961 10.2198 0.817916L9.86694 1.1722ZM9.86694 4.41787L9.51412 4.06359L8.4275 5.14572L8.78032 5.5L9.13314 5.85428L10.2198 4.77216L9.86694 4.41787Z" fill="currentColor"/>
</svg>
