<svg width="12" height="11" viewBox="0 0 12 11" fill="none" xmlns="http://www.w3.org/2000/svg">
<path fill-rule="evenodd" clip-rule="evenodd" d="M6.40365 3.0773C6.21119 3.02498 6.01255 2.99857 5.81304 2.99878H2.86213C2.66262 2.99857 2.46398 3.02498 2.27151 3.0773C1.20325 3.39724 0.479564 4.38638 0.50111 5.49708V7.99539C0.460912 9.33434 1.51765 10.4525 2.86213 10.4937H5.81376C7.15823 10.4525 8.21497 9.33434 8.17477 7.99539V5.49708C8.19623 4.38618 7.4722 3.39698 6.40365 3.0773Z" fill="currentColor" stroke="currentColor"/>
<path d="M4.51684 8.50049V6.50049" stroke="white"/>
<path d="M6.40335 3.07731V2.74896C6.35273 1.5606 7.27668 0.555254 8.46978 0.500488C9.66259 0.555634 10.5861 1.56087 10.5355 2.74896V3.07731" stroke="currentColor"/>
</svg>
