<svg width="26" height="26" viewBox="0 0 26 26" fill="none" xmlns="http://www.w3.org/2000/svg">
<path fill-rule="evenodd" clip-rule="evenodd" d="M6.35335 6.8922C7.30668 5.88795 7.6436 5.60628 8.04985 5.4752C8.331 5.40153 8.62585 5.39744 8.90893 5.46328C9.2816 5.57161 9.38018 5.65395 10.6022 6.87161C11.6758 7.94086 11.783 8.05678 11.8859 8.26586C12.0827 8.63287 12.1135 9.06643 11.9704 9.45753C11.8621 9.75545 11.7083 9.95261 11.0572 10.6059L10.6325 11.0316C10.521 11.1449 10.4948 11.3171 10.5675 11.4584C11.511 13.0681 12.8496 14.4105 14.4567 15.3584C14.6417 15.4575 14.8695 15.4255 15.02 15.2794L15.4284 14.8774C15.6809 14.6187 15.9482 14.3749 16.229 14.1473C16.6701 13.8765 17.2197 13.8523 17.6829 14.0834C17.9093 14.1917 17.984 14.2589 19.0912 15.3639C20.233 16.5024 20.2655 16.5382 20.3912 16.7993C20.6277 17.2315 20.6252 17.7549 20.3847 18.1849C20.2623 18.4275 20.1875 18.5153 19.5451 19.1718C19.1573 19.5683 18.7922 19.9301 18.7337 19.9832C18.2037 20.422 17.5238 20.6372 16.8379 20.5834C15.5828 20.469 14.3681 20.0811 13.2791 19.4469C10.8667 18.1688 8.81295 16.3065 7.3056 14.0303C6.97729 13.5539 6.68541 13.0534 6.43243 12.5331C5.75382 11.37 5.40337 10.0446 5.41843 8.69811C5.47024 7.99369 5.80806 7.34115 6.35335 6.8922Z" fill="currentColor" stroke="currentColor" stroke-linecap="round" stroke-linejoin="round"/>
</svg>
