<svg width="10" height="11" viewBox="0 0 10 11" fill="none" xmlns="http://www.w3.org/2000/svg">
<path fill-rule="evenodd" clip-rule="evenodd" d="M3.58642 0.5H6.34859C7.05603 0.5 6.66754 1.56149 6.38112 2.20897L6.05515 2.9515L6.01113 3.05165C6.31989 3.03667 6.62518 3.12217 6.88124 3.29534C7.83903 4.17172 8.61633 5.22683 9.16944 6.40134C9.385 6.83565 9.47051 7.32299 9.41567 7.80475C9.34987 9.03267 8.36474 10.0112 7.13641 10.0687H2.7986C1.56995 10.0129 0.583353 9.03538 0.516146 7.8073C0.461313 7.32554 0.546819 6.8382 0.76238 6.40389C1.31615 5.22819 2.09456 4.17218 3.05377 3.29534C3.30983 3.12217 3.61512 3.03667 3.92388 3.05165L3.87285 2.93619L3.55389 2.20897C3.26874 1.56149 2.87834 0.5 3.58642 0.5Z" fill="currentColor" stroke="currentColor" stroke-linecap="round" stroke-linejoin="round"/>
<path fill-rule="evenodd" clip-rule="evenodd" d="M6.0101 3.05151H3.92285H6.0101ZM7.51835 2.4137C7.06216 2.66992 6.56791 2.85147 6.05433 2.95146C5.33296 3.08976 4.5914 3.08456 3.87203 2.93615C3.36295 2.83593 2.8718 2.65982 2.41504 2.4137" fill="currentColor"/>
<path d="M6.0101 3.55151C6.28625 3.55151 6.5101 3.32765 6.5101 3.05151C6.5101 2.77537 6.28625 2.55151 6.0101 2.55151V3.05151V3.55151ZM3.92285 2.55151C3.64671 2.55151 3.42285 2.77537 3.42285 3.05151C3.42285 3.32765 3.64671 3.55151 3.92285 3.55151V3.05151V2.55151ZM7.7632 2.84964C8.00396 2.71441 8.08952 2.40961 7.95429 2.16884C7.81906 1.92808 7.51426 1.84252 7.27349 1.97775L7.51835 2.4137L7.7632 2.84964ZM6.05433 2.95146L6.14848 3.44252L6.14989 3.44224L6.05433 2.95146ZM3.87203 2.93615L3.97306 2.44644L3.96861 2.44556L3.87203 2.93615ZM2.65222 1.97353C2.40912 1.84254 2.10586 1.93342 1.97487 2.17652C1.84388 2.41962 1.93476 2.72287 2.17786 2.85386L2.41504 2.4137L2.65222 1.97353ZM6.0101 3.05151V2.55151H3.92285V3.05151V3.55151H6.0101V3.05151ZM7.51835 2.4137L7.27349 1.97775C6.86383 2.20784 6.41998 2.37088 5.95878 2.46067L6.05433 2.95146L6.14989 3.44224C6.71583 3.33205 7.26049 3.13199 7.7632 2.84964L7.51835 2.4137ZM6.05433 2.95146L5.96019 2.4604C5.30333 2.58634 4.62809 2.5816 3.97306 2.44646L3.87203 2.93615L3.77101 3.42583C4.55471 3.58752 5.36259 3.59319 6.14848 3.44251L6.05433 2.95146ZM3.87203 2.93615L3.96861 2.44556C3.50865 2.35502 3.0649 2.1959 2.65222 1.97353L2.41504 2.4137L2.17786 2.85386C2.67871 3.12374 3.21725 3.31685 3.77546 3.42673L3.87203 2.93615Z" fill="currentColor"/>
<path d="M4.9822 8.21994C4.91742 8.0812 4.78329 7.97999 4.62096 7.96196C4.48352 7.9467 4.34896 7.91798 4.22098 7.87658C4.16358 7.85773 4.10973 7.83721 4.05989 7.81518L4.1427 7.59505C4.20118 7.6205 4.26146 7.64382 4.32314 7.66486L4.32572 7.66574L4.32831 7.66658C4.52631 7.73035 4.72112 7.7627 4.90731 7.7627C5.09418 7.7627 5.2297 7.73829 5.3338 7.68588L5.34003 7.68275L5.3461 7.67935C5.50381 7.59112 5.59426 7.43945 5.59426 7.26322C5.59426 7.06763 5.48605 6.90529 5.29728 6.81756C5.20237 6.77251 5.06752 6.72955 4.87327 6.68247C4.67405 6.63334 4.50668 6.58123 4.3769 6.52784C4.28198 6.48599 4.1997 6.41918 4.1255 6.3237C4.06167 6.2385 4.0293 6.1103 4.0293 5.9426C4.0293 5.74029 4.08774 5.57329 4.20798 5.43204C4.31504 5.30825 4.46705 5.22422 4.67106 5.17706C4.82234 5.14207 4.9404 5.03678 4.99347 4.90076C5.05344 5.03865 5.18113 5.14115 5.33994 5.16583C5.47264 5.18645 5.59449 5.21926 5.70402 5.26375L5.62776 5.47949C5.42094 5.39854 5.2174 5.35762 5.02054 5.35762C4.36671 5.35762 4.33359 5.79743 4.33359 5.8856C4.33359 6.0767 4.43946 6.23697 4.62404 6.32531L4.62922 6.32779L4.63448 6.33008C4.72767 6.37063 4.85999 6.40973 5.05092 6.45314C5.24831 6.49663 5.41291 6.54645 5.54226 6.60171L5.54492 6.60284L5.54761 6.60393C5.64366 6.64291 5.72604 6.70799 5.79947 6.80287L5.80064 6.80438L5.80183 6.80588C5.86602 6.8868 5.89856 7.0119 5.89856 7.17772C5.89856 7.36917 5.84169 7.53124 5.72471 7.67316C5.62328 7.79628 5.48161 7.88148 5.29155 7.93369C5.14478 7.97399 5.03093 8.08336 4.9822 8.21994Z" fill="white" stroke="white" stroke-width="0.2"/>
<path d="M5.14732 8.79291H4.83231C4.76185 8.79291 4.70473 8.73579 4.70473 8.66533V8.4092C4.70473 8.34184 4.6523 8.28646 4.58534 8.27902C4.42584 8.26131 4.27153 8.22834 4.12242 8.1801C3.97757 8.13256 3.85208 8.07612 3.74594 8.01078C3.69716 7.98075 3.67942 7.91973 3.69959 7.86612L3.91566 7.29166C3.94476 7.2143 4.03867 7.18472 4.11101 7.22471C4.20862 7.27866 4.31352 7.32477 4.4257 7.36303C4.59285 7.41687 4.75325 7.44379 4.90692 7.44379C5.03902 7.44379 5.13337 7.42954 5.18999 7.40104C5.2466 7.36937 5.27491 7.32344 5.27491 7.26327C5.27491 7.1936 5.23717 7.14134 5.16168 7.10651C5.08889 7.07167 4.96758 7.03367 4.79773 6.9925C4.57937 6.93866 4.3974 6.88166 4.25182 6.82148C4.10624 6.75814 3.97953 6.6568 3.8717 6.51746C3.76386 6.37494 3.70995 6.18334 3.70995 5.94265C3.70995 5.66397 3.79487 5.42486 3.96471 5.22535C4.11775 5.04837 4.32912 4.9287 4.59882 4.86635C4.65953 4.85231 4.70473 4.79967 4.70473 4.73735V4.4551C4.70473 4.38463 4.76185 4.32751 4.83231 4.32751H5.14732C5.21779 4.32751 5.27491 4.38463 5.27491 4.4551V4.72123C5.27491 4.7864 5.32412 4.8407 5.38853 4.85071C5.62476 4.88742 5.83234 4.95691 6.01125 5.05916C6.06198 5.08815 6.08216 5.14994 6.06268 5.20503L5.86046 5.7772C5.83366 5.85301 5.74433 5.8851 5.67252 5.8489C5.44473 5.73406 5.22727 5.67663 5.02015 5.67663C4.77482 5.67663 4.65216 5.7463 4.65216 5.88565C4.65216 5.95216 4.68856 6.00283 4.76134 6.03766C4.83413 6.06934 4.9541 6.10417 5.12124 6.14217C5.33691 6.18968 5.51888 6.2451 5.66716 6.30844C5.81543 6.36861 5.94348 6.46837 6.05132 6.60772C6.16185 6.74706 6.21712 6.93708 6.21712 7.17777C6.21712 7.44379 6.1349 7.67656 5.97044 7.87608C5.82717 8.05 5.6289 8.17174 5.37563 8.2413C5.31742 8.25729 5.27491 8.30884 5.27491 8.36921V8.66533C5.27491 8.73579 5.21779 8.79291 5.14732 8.79291Z" fill="white" stroke="white" stroke-width="0.1"/>
</svg>
