<svg width="24" height="20" viewBox="0 0 24 20" fill="none" xmlns="http://www.w3.org/2000/svg">
<path d="M16.6608 9.08682H4.96158V4.41051H16.6608C17.3442 4.41051 17.8194 4.53085 18.0578 4.74094C18.2963 4.95106 18.444 5.34076 18.444 5.91003V7.58912C18.444 8.18891 18.2963 8.57861 18.0578 8.78873C17.8194 8.99882 17.3442 9.08864 16.6608 9.08864V9.08682ZM17.4635 0.00178828H0V20H4.96158V13.4938H14.1053L18.444 20H24L19.2164 13.4632C20.98 13.1992 21.7719 12.6533 22.425 11.7536C23.0781 10.8539 23.4057 9.41545 23.4057 7.49573V5.99624C23.4057 4.85767 23.2863 3.95797 23.0781 3.26839C22.8699 2.57879 22.5141 1.979 22.0086 1.44024C21.4747 0.930242 20.8803 0.571061 20.1667 0.330424C19.4531 0.120334 18.5615 0 17.4635 0V0.00178828Z" fill="currentColor"/>
</svg>
