<svg width="16" height="16" viewBox="0 0 16 16" fill="none" xmlns="http://www.w3.org/2000/svg">
<circle cx="2.2695" cy="2.2695" r="2.2695" transform="matrix(-1 0 0 1 10.4113 3.3335)" stroke="currentColor" stroke-width="0.8"/>
<path d="M4.17004 11.2398C4.17004 10.7516 4.47691 10.3162 4.93662 10.152C7.00922 9.41177 9.27413 9.41177 11.3467 10.152C11.8064 10.3162 12.1133 10.7516 12.1133 11.2398V11.9861C12.1133 12.6599 11.5166 13.1774 10.8496 13.0821L10.6273 13.0504C8.97858 12.8148 7.30477 12.8148 5.65608 13.0504L5.43371 13.0821C4.76676 13.1774 4.17004 12.6599 4.17004 11.9861V11.2398Z" stroke="currentColor" stroke-width="0.8"/>
<path d="M11.5459 7.93502C12.5307 7.93502 13.3291 7.13666 13.3291 6.15183C13.3291 5.16701 12.5307 4.36865 11.5459 4.36865" stroke="currentColor" stroke-width="0.8" stroke-linecap="round"/>
<path d="M13.4988 12.0032L13.6735 12.0282C14.1976 12.103 14.6664 11.6964 14.6664 11.167V10.5806C14.6664 10.1971 14.4253 9.85492 14.0641 9.72592C13.7038 9.59724 13.3361 9.49703 12.9643 9.42529" stroke="currentColor" stroke-width="0.8" stroke-linecap="round"/>
<path d="M4.45384 7.93502C3.46901 7.93502 2.67065 7.13666 2.67065 6.15183C2.67065 5.16701 3.46901 4.36865 4.45384 4.36865" stroke="currentColor" stroke-width="0.8" stroke-linecap="round"/>
<path d="M2.50093 12.0032L2.32621 12.0282C1.80218 12.103 1.33333 11.6964 1.33333 11.167V10.5806C1.33333 10.1971 1.57444 9.85492 1.93564 9.72592C2.29594 9.59724 2.66364 9.49703 3.03546 9.42529" stroke="currentColor" stroke-width="0.8" stroke-linecap="round"/>
</svg>
