<svg width="22" height="18" viewBox="0 0 22 18" fill="none" xmlns="http://www.w3.org/2000/svg">
<path d="M1.51224 7.74886C7.41892 5.20887 11.3566 3.53418 13.3255 2.72512C18.9537 0.414817 20.1217 0.0135696 20.8845 0.000132155C21.0523 -0.00268034 21.4258 0.0382567 21.6696 0.232944C21.8721 0.397006 21.9292 0.618879 21.9577 0.774504C21.983 0.930129 22.0178 1.28482 21.9893 1.56169C21.6855 4.72418 20.3655 12.3985 19.6944 15.9407C19.4127 17.4395 18.8524 17.942 18.3111 17.9911C17.1335 18.098 16.2409 17.2236 15.1013 16.4863C13.3192 15.3323 12.3126 14.6142 10.5811 13.4882C8.5806 12.187 9.87838 11.4717 11.0179 10.3029C11.3155 9.99698 16.5004 5.3423 16.5985 4.92012C16.6112 4.86731 16.6239 4.67043 16.5036 4.56668C16.3865 4.46262 16.2123 4.49824 16.0857 4.52637C15.9053 4.56637 13.0596 6.42511 7.53906 10.1023C6.73188 10.6504 6.00069 10.9176 5.34228 10.9035C4.62056 10.8882 3.22787 10.4998 2.19278 10.1679C0.926608 9.76073 -0.0832116 9.54542 0.00542027 8.85386C0.0497362 8.49386 0.553119 8.12542 1.51224 7.74886Z" fill="currentColor"/>
</svg>
