<svg width="24" height="24" viewBox="0 0 24 24" fill="none" xmlns="http://www.w3.org/2000/svg">
<path d="M5.67877 8.50002C6.35183 7.38202 7.33416 6.46428 8.51715 5.84829C9.70014 5.23229 11.0377 4.94203 12.382 5.0096C13.7263 5.07716 15.0249 5.49992 16.1342 6.23113C17.2436 6.96234 18.1205 7.97352 18.668 9.15287M4 6.32595L4.66551 9.09057C4.77886 9.56143 5.26877 9.85502 5.75975 9.74632L8.64247 9.10808M18.3212 15.5C17.6482 16.618 16.6658 17.5357 15.4828 18.1517C14.2999 18.7677 12.9623 19.058 11.618 18.9904C10.2737 18.9228 8.97513 18.5001 7.86576 17.7689C6.75639 17.0377 5.87947 16.0265 5.33196 14.8471M20 17.674L19.3345 14.9094C19.2211 14.4386 18.7312 14.145 18.2403 14.2537L15.3575 14.8919" stroke="currentColor" stroke-linecap="round"/>
</svg>
