<svg width="380" height="440" viewBox="0 0 380 440" fill="none" xmlns="http://www.w3.org/2000/svg">
<rect x="2.04867" y="-2.04867" width="255.097" height="182.097" rx="12.1797" transform="matrix(-1 0 0 1 286.097 55.2434)" fill="url(#paint0_linear_4819_11025)" stroke="white" stroke-width="4.09734"/>
<rect width="219" height="86" rx="10.131" transform="matrix(-1 0 0 1 266 83.2434)" fill="#E1E3EA"/>
<rect width="105" height="6" rx="3" transform="matrix(-1 0 0 1 266 66.2434)" fill="#E1E3EA"/>
<rect width="219" height="6" rx="3" transform="matrix(-1 0 0 1 266 178.243)" fill="#E1E3EA"/>
<rect width="170" height="6" rx="3" transform="matrix(-1 0 0 1 266 191.243)" fill="#E1E3EA"/>
<rect width="186" height="6" rx="3" transform="matrix(-1 0 0 1 266 202.243)" fill="#E1E3EA"/>
<g filter="url(#filter0_dddd_4819_11025)">
<rect x="109" y="10.2434" width="251" height="243" rx="10.131" fill="white"/>
<rect x="125" y="43.2434" width="219" height="85" rx="10.131" fill="#F6F6F8"/>
<rect x="125" y="26.2434" width="105" height="6" rx="3" fill="#F6F6F8"/>
<rect x="125" y="139.243" width="219" height="5" rx="2.5" fill="#F6F6F8"/>
<rect x="125" y="151.243" width="170" height="6" rx="3" fill="#F6F6F8"/>
<rect x="125" y="162.243" width="186" height="6" rx="3" fill="#F6F6F8"/>
<rect x="216" y="65.2434" width="36" height="36" rx="9" fill="url(#paint1_linear_4819_11025)"/>
<path fill-rule="evenodd" clip-rule="evenodd" d="M230.048 80.3938C230.048 79.7854 230.541 79.2922 231.15 79.2922H235.738C236.03 79.2922 236.311 79.1762 236.517 78.9696L239.582 75.9045C240.276 75.2105 239.785 74.0239 238.803 74.0239H225.882C225.273 74.0239 224.78 74.5171 224.78 75.1255V88.0473C224.78 89.0288 225.967 89.5203 226.661 88.8263L229.726 85.7612C229.932 85.5546 230.048 85.2744 230.048 84.9823V80.3938Z" fill="white"/>
<path d="M243.219 91.3611C243.219 91.9695 242.726 92.4627 242.117 92.4627H228.317C227.335 92.4627 226.844 91.2761 227.538 90.5822L231.481 86.6389C231.688 86.4323 231.804 86.1521 231.804 85.8599V82.1503C231.804 81.5419 232.297 81.0487 232.905 81.0487H236.616C236.908 81.0487 237.188 80.9326 237.395 80.726L241.338 76.7827C242.032 76.0888 243.219 76.5803 243.219 77.5617V91.3611Z" fill="white"/>
</g>
<g filter="url(#filter1_dddd_4819_11025)">
<rect x="11" y="120.243" width="229" height="54" rx="6.20425" fill="white"/>
<rect x="78" y="145.243" width="120" height="4" rx="2" fill="#F6F6F8"/>
<rect x="78" y="152.243" width="70" height="4" rx="2" fill="#F6F6F8"/>
<rect x="78" y="138.243" width="131" height="4" rx="2" fill="#F6F6F8"/>
<path d="M222 146.243L223 147.243L225 144.243" stroke="white" stroke-width="0.627306" stroke-linecap="round" stroke-linejoin="round"/>
<circle cx="223.5" cy="145.743" r="4.5" fill="#ADDFAC"/>
<rect x="23.5" y="128.743" width="36" height="36" rx="9.03321" fill="url(#paint2_linear_4819_11025)"/>
<path d="M43.8402 144.583C43.7404 144.583 43.6595 144.503 43.6595 144.403V137.925C43.6595 137.752 43.4385 137.678 43.3343 137.817L35.5615 148.181C35.3382 148.479 35.5507 148.903 35.9229 148.903H39.1589C39.2586 148.903 39.3395 148.984 39.3395 149.084V155.561C39.3395 155.735 39.5606 155.809 39.6647 155.67L47.4375 145.306C47.6609 145.008 47.4484 144.583 47.0762 144.583H43.8402Z" fill="white"/>
<path d="M43.8402 144.583C43.7404 144.583 43.6595 144.503 43.6595 144.403V137.925C43.6595 137.752 43.4385 137.678 43.3343 137.817L35.5615 148.181C35.3382 148.479 35.5507 148.903 35.9229 148.903H39.1589C39.2586 148.903 39.3395 148.984 39.3395 149.084V155.561C39.3395 155.735 39.5606 155.809 39.6647 155.67L47.4375 145.306C47.6609 145.008 47.4484 144.583 47.0762 144.583H43.8402Z" stroke="white" stroke-width="1.35498"/>
</g>
<path fill-rule="evenodd" clip-rule="evenodd" d="M265 107.243C264.668 107.335 264 107.899 264 108.243C264 108.378 264.851 109.491 267 115.243C269.65 122.336 269.841 123.078 270 123.243C269.847 123.212 270.13 123.379 270 123.243C269.916 123.264 270.119 123.268 270 123.243C270.175 123.201 270.925 122.375 271 122.243C271.033 122.186 271.308 121.809 272 120.243L274 117.243L277 115.243C279.921 113.877 279.891 113.511 280 113.243C280.122 112.942 280.248 113.442 280 113.243C279.872 113.141 265.231 107.283 265 107.243C265.09 107.219 264.933 107.232 265 107.243Z" fill="url(#paint3_linear_4819_11025)"/>
<rect x="282" y="115.243" width="76" height="19" rx="9.5" fill="url(#paint4_linear_4819_11025)"/>
<path d="M296.042 121.538H297.112L299.295 125.841H299.315L301.497 121.538H302.527V128.743H301.806V122.413H301.786L299.645 126.633H298.924L296.783 122.413H296.762V128.743H296.042V121.538ZM306.228 128.815C305.899 128.815 305.597 128.761 305.322 128.651C305.048 128.541 304.814 128.383 304.622 128.177C304.43 127.965 304.279 127.707 304.169 127.405C304.066 127.096 304.015 126.743 304.015 126.345V125.995C304.015 125.604 304.066 125.254 304.169 124.945C304.279 124.636 304.43 124.379 304.622 124.173C304.821 123.96 305.055 123.799 305.322 123.689C305.597 123.579 305.899 123.525 306.228 123.525C306.557 123.525 306.859 123.579 307.134 123.689C307.408 123.799 307.642 123.96 307.834 124.173C308.026 124.386 308.174 124.65 308.276 124.966C308.386 125.274 308.441 125.635 308.441 126.046V126.355H304.715C304.715 126.952 304.845 127.409 305.106 127.724C305.367 128.04 305.741 128.198 306.228 128.198C306.962 128.198 307.45 127.899 307.69 127.302H308.39C308.266 127.796 308.019 128.174 307.649 128.435C307.285 128.689 306.811 128.815 306.228 128.815ZM306.228 124.142C305.789 124.142 305.435 124.283 305.168 124.564C304.9 124.839 304.749 125.244 304.715 125.779H307.741C307.707 125.223 307.553 124.811 307.278 124.544C307.01 124.276 306.66 124.142 306.228 124.142ZM309.883 123.597H310.562V125.81H313.424V123.597H314.103V128.743H313.424V126.427H310.562V128.743H309.883V123.597ZM317.758 128.815C317.429 128.815 317.127 128.761 316.852 128.651C316.578 128.541 316.344 128.383 316.152 128.177C315.96 127.965 315.809 127.707 315.699 127.405C315.596 127.096 315.545 126.743 315.545 126.345V125.995C315.545 125.604 315.596 125.254 315.699 124.945C315.809 124.636 315.96 124.379 316.152 124.173C316.351 123.96 316.585 123.799 316.852 123.689C317.127 123.579 317.429 123.525 317.758 123.525C318.088 123.525 318.389 123.579 318.664 123.689C318.938 123.799 319.172 123.96 319.364 124.173C319.556 124.386 319.704 124.65 319.807 124.966C319.916 125.274 319.971 125.635 319.971 126.046V126.355H316.245C316.245 126.952 316.375 127.409 316.636 127.724C316.897 128.04 317.271 128.198 317.758 128.198C318.492 128.198 318.98 127.899 319.22 127.302H319.92C319.796 127.796 319.549 128.174 319.179 128.435C318.815 128.689 318.341 128.815 317.758 128.815ZM317.758 124.142C317.319 124.142 316.966 124.283 316.698 124.564C316.43 124.839 316.279 125.244 316.245 125.779H319.271C319.237 125.223 319.083 124.811 318.808 124.544C318.54 124.276 318.19 124.142 317.758 124.142ZM320.643 128.126H321.209C321.319 127.954 321.408 127.779 321.477 127.601C321.552 127.422 321.611 127.22 321.652 126.993C321.7 126.767 321.731 126.506 321.745 126.211C321.765 125.909 321.775 125.552 321.775 125.141V123.597H325.275V128.126H325.944V130.082H325.286V128.743H321.302V130.082H320.643V128.126ZM324.596 128.126V124.214H322.434V125.141C322.434 125.511 322.427 125.837 322.414 126.119C322.4 126.4 322.376 126.657 322.342 126.891C322.307 127.117 322.259 127.33 322.197 127.529C322.136 127.721 322.06 127.913 321.971 128.105V128.126H324.596ZM328.14 126.036L326.658 123.597H327.42L328.686 125.758H329.612V123.597H330.292V125.758H331.218L332.484 123.597H333.246L331.764 126.036L333.349 128.743H332.567L331.218 126.376H330.292V128.743H329.612V126.376H328.686L327.337 128.743H326.555L328.14 126.036ZM336.234 128.815C335.905 128.815 335.603 128.761 335.329 128.651C335.054 128.541 334.821 128.383 334.629 128.177C334.436 127.965 334.285 127.707 334.176 127.405C334.073 127.096 334.021 126.743 334.021 126.345V125.995C334.021 125.604 334.073 125.254 334.176 124.945C334.285 124.636 334.436 124.379 334.629 124.173C334.828 123.96 335.061 123.799 335.329 123.689C335.603 123.579 335.905 123.525 336.234 123.525C336.564 123.525 336.866 123.579 337.14 123.689C337.415 123.799 337.648 123.96 337.84 124.173C338.032 124.386 338.18 124.65 338.283 124.966C338.393 125.274 338.447 125.635 338.447 126.046V126.355H334.721C334.721 126.952 334.852 127.409 335.112 127.724C335.373 128.04 335.747 128.198 336.234 128.198C336.969 128.198 337.456 127.899 337.696 127.302H338.396C338.273 127.796 338.025 128.174 337.655 128.435C337.291 128.689 336.818 128.815 336.234 128.815ZM336.234 124.142C335.795 124.142 335.442 124.283 335.174 124.564C334.906 124.839 334.756 125.244 334.721 125.779H337.748C337.713 125.223 337.559 124.811 337.284 124.544C337.017 124.276 336.667 124.142 336.234 124.142ZM339.889 123.597H340.424L340.507 124.369H340.527C340.754 124.074 341.004 123.861 341.279 123.73C341.553 123.593 341.876 123.525 342.246 123.525C342.548 123.525 342.826 123.579 343.08 123.689C343.334 123.792 343.55 123.95 343.729 124.163C343.914 124.369 344.058 124.626 344.161 124.935C344.264 125.244 344.315 125.597 344.315 125.995V126.345C344.315 126.743 344.264 127.096 344.161 127.405C344.058 127.707 343.914 127.965 343.729 128.177C343.543 128.383 343.324 128.541 343.07 128.651C342.816 128.761 342.541 128.815 342.246 128.815C341.505 128.815 340.953 128.551 340.589 128.023H340.568V130.802H339.889V123.597ZM342.092 128.198C342.545 128.198 342.912 128.047 343.193 127.745C343.475 127.436 343.615 126.969 343.615 126.345V125.995C343.615 125.384 343.471 124.924 343.183 124.616C342.902 124.3 342.538 124.142 342.092 124.142C341.639 124.142 341.272 124.297 340.99 124.605C340.709 124.907 340.568 125.371 340.568 125.995V126.345C340.568 126.956 340.709 127.419 340.99 127.735C341.279 128.043 341.646 128.198 342.092 128.198Z" fill="white"/>
<defs>
<filter id="filter0_dddd_4819_11025" x="55.7346" y="5.24521e-05" width="357.531" height="439.672" filterUnits="userSpaceOnUse" color-interpolation-filters="sRGB">
<feFlood flood-opacity="0" result="BackgroundImageFix"/>
<feColorMatrix in="SourceAlpha" type="matrix" values="0 0 0 0 0 0 0 0 0 0 0 0 0 0 0 0 0 0 127 0" result="hardAlpha"/>
<feOffset dy="8.19468"/>
<feGaussianBlur stdDeviation="9.21902"/>
<feColorMatrix type="matrix" values="0 0 0 0 0 0 0 0 0 0 0 0 0 0 0 0 0 0 0.05 0"/>
<feBlend mode="normal" in2="BackgroundImageFix" result="effect1_dropShadow_4819_11025"/>
<feColorMatrix in="SourceAlpha" type="matrix" values="0 0 0 0 0 0 0 0 0 0 0 0 0 0 0 0 0 0 127 0" result="hardAlpha"/>
<feOffset dy="32.7787"/>
<feGaussianBlur stdDeviation="16.3894"/>
<feColorMatrix type="matrix" values="0 0 0 0 0 0 0 0 0 0 0 0 0 0 0 0 0 0 0.04 0"/>
<feBlend mode="normal" in2="effect1_dropShadow_4819_11025" result="effect2_dropShadow_4819_11025"/>
<feColorMatrix in="SourceAlpha" type="matrix" values="0 0 0 0 0 0 0 0 0 0 0 0 0 0 0 0 0 0 127 0" result="hardAlpha"/>
<feOffset dy="74.7765"/>
<feGaussianBlur stdDeviation="22.5354"/>
<feColorMatrix type="matrix" values="0 0 0 0 0 0 0 0 0 0 0 0 0 0 0 0 0 0 0.03 0"/>
<feBlend mode="normal" in2="effect2_dropShadow_4819_11025" result="effect3_dropShadow_4819_11025"/>
<feColorMatrix in="SourceAlpha" type="matrix" values="0 0 0 0 0 0 0 0 0 0 0 0 0 0 0 0 0 0 127 0" result="hardAlpha"/>
<feOffset dy="133.164"/>
<feGaussianBlur stdDeviation="26.6327"/>
<feColorMatrix type="matrix" values="0 0 0 0 0 0 0 0 0 0 0 0 0 0 0 0 0 0 0.01 0"/>
<feBlend mode="normal" in2="effect3_dropShadow_4819_11025" result="effect4_dropShadow_4819_11025"/>
<feBlend mode="normal" in="SourceGraphic" in2="effect4_dropShadow_4819_11025" result="shape"/>
</filter>
<filter id="filter1_dddd_4819_11025" x="-42.2654" y="110" width="335.531" height="250.672" filterUnits="userSpaceOnUse" color-interpolation-filters="sRGB">
<feFlood flood-opacity="0" result="BackgroundImageFix"/>
<feColorMatrix in="SourceAlpha" type="matrix" values="0 0 0 0 0 0 0 0 0 0 0 0 0 0 0 0 0 0 127 0" result="hardAlpha"/>
<feOffset dy="8.19468"/>
<feGaussianBlur stdDeviation="9.21902"/>
<feColorMatrix type="matrix" values="0 0 0 0 0 0 0 0 0 0 0 0 0 0 0 0 0 0 0.05 0"/>
<feBlend mode="normal" in2="BackgroundImageFix" result="effect1_dropShadow_4819_11025"/>
<feColorMatrix in="SourceAlpha" type="matrix" values="0 0 0 0 0 0 0 0 0 0 0 0 0 0 0 0 0 0 127 0" result="hardAlpha"/>
<feOffset dy="32.7787"/>
<feGaussianBlur stdDeviation="16.3894"/>
<feColorMatrix type="matrix" values="0 0 0 0 0 0 0 0 0 0 0 0 0 0 0 0 0 0 0.04 0"/>
<feBlend mode="normal" in2="effect1_dropShadow_4819_11025" result="effect2_dropShadow_4819_11025"/>
<feColorMatrix in="SourceAlpha" type="matrix" values="0 0 0 0 0 0 0 0 0 0 0 0 0 0 0 0 0 0 127 0" result="hardAlpha"/>
<feOffset dy="74.7765"/>
<feGaussianBlur stdDeviation="22.5354"/>
<feColorMatrix type="matrix" values="0 0 0 0 0 0 0 0 0 0 0 0 0 0 0 0 0 0 0.03 0"/>
<feBlend mode="normal" in2="effect2_dropShadow_4819_11025" result="effect3_dropShadow_4819_11025"/>
<feColorMatrix in="SourceAlpha" type="matrix" values="0 0 0 0 0 0 0 0 0 0 0 0 0 0 0 0 0 0 127 0" result="hardAlpha"/>
<feOffset dy="133.164"/>
<feGaussianBlur stdDeviation="26.6327"/>
<feColorMatrix type="matrix" values="0 0 0 0 0 0 0 0 0 0 0 0 0 0 0 0 0 0 0.01 0"/>
<feBlend mode="normal" in2="effect3_dropShadow_4819_11025" result="effect4_dropShadow_4819_11025"/>
<feBlend mode="normal" in="SourceGraphic" in2="effect4_dropShadow_4819_11025" result="shape"/>
</filter>
<linearGradient id="paint0_linear_4819_11025" x1="125.5" y1="0" x2="125.5" y2="178" gradientUnits="userSpaceOnUse">
<stop stop-color="#F3F3F9"/>
<stop offset="1" stop-color="#EBEBF5"/>
</linearGradient>
<linearGradient id="paint1_linear_4819_11025" x1="252" y1="83.2434" x2="216" y2="83.2434" gradientUnits="userSpaceOnUse">
<stop stop-color="#5F73FE"/>
<stop offset="1" stop-color="#798AFF" stop-opacity="0.894118"/>
</linearGradient>
<linearGradient id="paint2_linear_4819_11025" x1="59.5" y1="146.743" x2="23.5" y2="146.743" gradientUnits="userSpaceOnUse">
<stop stop-color="#5F73FE"/>
<stop offset="1" stop-color="#798AFF" stop-opacity="0.894118"/>
</linearGradient>
<linearGradient id="paint3_linear_4819_11025" x1="280.143" y1="115.263" x2="264" y2="115.263" gradientUnits="userSpaceOnUse">
<stop stop-color="#5F73FE"/>
<stop offset="1" stop-color="#798AFF" stop-opacity="0.894118"/>
</linearGradient>
<linearGradient id="paint4_linear_4819_11025" x1="358" y1="124.743" x2="282" y2="124.743" gradientUnits="userSpaceOnUse">
<stop stop-color="#5F73FE"/>
<stop offset="1" stop-color="#798AFF" stop-opacity="0.894118"/>
</linearGradient>
</defs>
</svg>
