<svg width="1214" height="600" viewBox="0 0 1214 600" fill="none" xmlns="http://www.w3.org/2000/svg">
<g opacity="0.1">
<path d="M72.4268 322.5H290C306.292 322.5 319.5 335.708 319.5 352V569.573C319.5 595.855 287.725 609.017 269.141 590.434L222.141 543.434C216.608 537.901 213.5 530.397 213.5 522.573V459C213.5 442.155 199.845 428.5 183 428.5H119.427C111.603 428.5 104.099 425.392 98.5664 419.859L51.5664 372.859C32.9829 354.275 46.1452 322.5 72.4268 322.5Z" stroke="#6F81FE"/>
<path d="M350.427 44.5H568C584.292 44.5 597.5 57.7076 597.5 74V291.573C597.5 317.855 565.725 331.017 547.141 312.434L500.141 265.434C494.608 259.901 491.5 252.397 491.5 244.573V181C491.5 164.155 477.845 150.5 461 150.5H397.427C389.603 150.5 382.099 147.392 376.566 141.859L329.566 94.8594C310.983 76.2754 324.145 44.5 350.427 44.5Z" stroke="#6F81FE"/>
<path d="M350.427 322.5H568C584.292 322.5 597.5 335.708 597.5 352V569.573C597.5 595.855 565.725 609.017 547.141 590.434L500.141 543.434C494.608 537.901 491.5 530.397 491.5 522.573V459C491.5 442.155 477.845 428.5 461 428.5H397.427C389.603 428.5 382.099 425.392 376.566 419.859L329.566 372.859C310.983 354.275 324.145 322.5 350.427 322.5Z" stroke="#6F81FE"/>
<path d="M628.427 -233.5H846C862.292 -233.5 875.5 -220.292 875.5 -204V13.5732C875.5 39.8548 843.725 53.0171 825.141 34.4336L778.141 -12.5664C772.608 -18.0987 769.5 -25.6029 769.5 -33.4268V-97C769.5 -113.845 755.845 -127.5 739 -127.5H675.427C667.603 -127.5 660.099 -130.608 654.566 -136.141L607.566 -183.141C588.983 -201.725 602.145 -233.5 628.427 -233.5Z" stroke="#6F81FE"/>
<path d="M628.427 44.5H846C862.292 44.5 875.5 57.7076 875.5 74V291.573C875.5 317.855 843.725 331.017 825.141 312.434L778.141 265.434C772.608 259.901 769.5 252.397 769.5 244.573V181C769.5 164.155 755.845 150.5 739 150.5H675.427C667.603 150.5 660.099 147.392 654.566 141.859L607.566 94.8594C588.983 76.2754 602.145 44.5 628.427 44.5Z" stroke="#6F81FE"/>
<path d="M628.427 322.5H846C862.292 322.5 875.5 335.708 875.5 352V569.573C875.5 595.855 843.725 609.017 825.141 590.434L778.141 543.434C772.608 537.901 769.5 530.397 769.5 522.573V459C769.5 442.155 755.845 428.5 739 428.5H675.427C667.603 428.5 660.099 425.392 654.566 419.859L607.566 372.859C588.983 354.275 602.145 322.5 628.427 322.5Z" stroke="#6F81FE"/>
<path d="M906.427 -233.5H1124C1140.29 -233.5 1153.5 -220.292 1153.5 -204V13.5732C1153.5 39.8548 1121.72 53.0171 1103.14 34.4336L1056.14 -12.5664C1050.61 -18.0987 1047.5 -25.6029 1047.5 -33.4268V-97C1047.5 -113.845 1033.84 -127.5 1017 -127.5H953.427C945.603 -127.5 938.099 -130.608 932.566 -136.141L885.566 -183.141C866.983 -201.725 880.145 -233.5 906.427 -233.5Z" stroke="#6F81FE"/>
<path d="M906.427 44.5H1124C1140.29 44.5 1153.5 57.7076 1153.5 74V291.573C1153.5 317.855 1121.72 331.017 1103.14 312.434L1056.14 265.434C1050.61 259.901 1047.5 252.397 1047.5 244.573V181C1047.5 164.155 1033.84 150.5 1017 150.5H953.427C945.603 150.5 938.099 147.392 932.566 141.859L885.566 94.8594C866.983 76.2754 880.145 44.5 906.427 44.5Z" stroke="#6F81FE"/>
<path d="M906.427 322.5H1124C1140.29 322.5 1153.5 335.708 1153.5 352V569.573C1153.5 595.855 1121.72 609.017 1103.14 590.434L1056.14 543.434C1050.61 537.901 1047.5 530.397 1047.5 522.573V459C1047.5 442.155 1033.84 428.5 1017 428.5H953.427C945.603 428.5 938.099 425.392 932.566 419.859L885.566 372.859C866.983 354.275 880.145 322.5 906.427 322.5Z" stroke="#6F81FE"/>
<path d="M1184.43 -233.5H1402C1418.29 -233.5 1431.5 -220.292 1431.5 -204V13.5732C1431.5 39.8548 1399.72 53.0171 1381.14 34.4336L1334.14 -12.5664C1328.61 -18.0987 1325.5 -25.6029 1325.5 -33.4268V-97C1325.5 -113.845 1311.84 -127.5 1295 -127.5H1231.43C1223.6 -127.5 1216.1 -130.608 1210.57 -136.141L1163.57 -183.141C1144.98 -201.725 1158.15 -233.5 1184.43 -233.5Z" stroke="#6F81FE"/>
<path d="M1184.43 44.5H1402C1418.29 44.5 1431.5 57.7076 1431.5 74V291.573C1431.5 317.855 1399.72 331.017 1381.14 312.434L1334.14 265.434C1328.61 259.901 1325.5 252.397 1325.5 244.573V181C1325.5 164.155 1311.84 150.5 1295 150.5H1231.43C1223.6 150.5 1216.1 147.392 1210.57 141.859L1163.57 94.8594C1144.98 76.2754 1158.15 44.5 1184.43 44.5Z" stroke="#6F81FE"/>
<path d="M1184.43 322.5H1402C1418.29 322.5 1431.5 335.708 1431.5 352V569.573C1431.5 595.855 1399.72 609.017 1381.14 590.434L1334.14 543.434C1328.61 537.901 1325.5 530.397 1325.5 522.573V459C1325.5 442.155 1311.84 428.5 1295 428.5H1231.43C1223.6 428.5 1216.1 425.392 1210.57 419.859L1163.57 372.859C1144.98 354.275 1158.15 322.5 1184.43 322.5Z" stroke="#6F81FE"/>
</g>
</svg>
