<svg width="630" height="639" viewBox="0 0 630 639" fill="none" xmlns="http://www.w3.org/2000/svg">
	<style>
		/* Анимация зацикленной прокрутки фоновых плашек */
		@keyframes scrollBg {
		0% {
			transform: translateY(0);
		}
		100% {
			transform: translateY(-110px);
		}
		}

		/* Анимация появления и ухода центральной панели */
		@keyframes slideCards {
		0% {
			transform: translateY(500px);
			opacity: 0;
		}
		12% {
			transform: translateY(0);
			opacity: 1;
		}
		82% {
			transform: translateY(0);
			opacity: 1;
		}
		92%, 100% {
			transform: translateY(500px);
			opacity: 0;
		}
		}

		/* Динамичное движение курсора около графика */
		@keyframes cursorFloat {
		0%, 100% {
			transform: translate(0px, 0px);
		}
		25% {
			transform: translate(-50px, -40px);
		}
		50% {
			transform: translate(20px, -70px);
		}
		75% {
			transform: translate(-25px, 15px);
		}
		}

		#bg-plates {
		animation: scrollBg 5s linear infinite;
		}

		#central-container {
		animation: slideCards 8s cubic-bezier(0.25, 1, 0.5, 1) infinite;
		transform-origin: center bottom;
		}

		#cursor-manager {
		animation: cursorFloat 6s ease-in-out infinite;
		}
	</style>

	<g clip-path="url(#clip0_4308_4351)">
	<rect width="630" height="639" rx="30" fill="url(#paint0_linear_4308_4351)"></rect>
	<g opacity="0.1">
	<path d="M26.9756 -34V673" stroke="white"></path>
	<path d="M218.248 -34V673" stroke="white"></path>
	<path d="M410.938 -34V673" stroke="white"></path>
	<path d="M602.21 -34V673" stroke="white"></path>
	<path d="M1105.19 138.854L-476 138.854" stroke="white"></path>
	<path d="M1105.19 117.601L-476 117.601" stroke="white"></path>
	<path d="M1105.19 264.952L-476 264.952" stroke="white"></path>
	<path d="M1105.19 245.116L-476 245.116" stroke="white"></path>
	<path d="M1105.19 392.467L-476 392.467" stroke="white"></path>
	<path d="M1105.19 372.631L-476 372.631" stroke="white"></path>
	<path d="M1105.19 519.982L-476 519.982" stroke="white"></path>
	<path d="M1105.19 500.146L-476 500.146" stroke="white"></path>
	</g>

	<!-- СКРОЛЛЯЩИЙСЯ ФОН С ДОПОЛНИТЕЛЬНОЙ ПЛАШКОЙ ДЛЯ БЕСШОВНОСТИ -->
	<g id="bg-plates">
	<g>
	<rect x="300" y="40" width="290" height="100" rx="10" fill="#8695FE"></rect>
	<rect x="366" y="56" width="180" height="6" rx="3" fill="#6F81FE"></rect>
	<rect x="316" y="100" width="230" height="6" rx="3" fill="#6F81FE"></rect>
	<rect x="316" y="111" width="230" height="6" rx="3" fill="#6F81FE"></rect>
	<rect x="316" y="122" width="230" height="6" rx="3" fill="#6F81FE"></rect>
	<rect x="366" y="67" width="54" height="6" rx="3" fill="#6F81FE"></rect>
	<circle cx="561.5" cy="59.5" r="4.5" fill="#6F81FE"></circle>
	<circle cx="332.5" cy="72.5" r="16.5" fill="#6F81FE"></circle>
	<circle cx="568.5" cy="59.5" r="4.5" fill="#6F81FE"></circle>
	</g>
	<g>
	<rect x="300" y="150" width="290" height="100" rx="10" fill="#8695FE"></rect>
	<rect x="366" y="166" width="180" height="6" rx="3" fill="#6F81FE"></rect>
	<rect x="316" y="210" width="230" height="6" rx="3" fill="#6F81FE"></rect>
	<rect x="316" y="221" width="230" height="6" rx="3" fill="#6F81FE"></rect>
	<rect x="316" y="232" width="230" height="6" rx="3" fill="#6F81FE"></rect>
	<rect x="366" y="177" width="54" height="6" rx="3" fill="#6F81FE"></rect>
	<circle cx="561.5" cy="169.5" r="4.5" fill="#6F81FE"></circle>
	<circle cx="332.5" cy="182.5" r="16.5" fill="#6F81FE"></circle>
	<circle cx="568.5" cy="169.5" r="4.5" fill="#6F81FE"></circle>
	</g>
	<g>
	<rect x="300" y="260" width="290" height="100" rx="10" fill="#8695FE"></rect>
	<rect x="366" y="276" width="180" height="6" rx="3" fill="#6F81FE"></rect>
	<rect x="316" y="320" width="230" height="6" rx="3" fill="#6F81FE"></rect>
	<rect x="316" y="331" width="230" height="6" rx="3" fill="#6F81FE"></rect>
	<rect x="316" y="342" width="230" height="6" rx="3" fill="#6F81FE"></rect>
	<rect x="366" y="287" width="54" height="6" rx="3" fill="#6F81FE"></rect>
	<circle cx="561.5" cy="279.5" r="4.5" fill="#6F81FE"></circle>
	<circle cx="332.5" cy="292.5" r="16.5" fill="#6F81FE"></circle>
	<circle cx="568.5" cy="279.5" r="4.5" fill="#6F81FE"></circle>
	</g>
	<g>
	<rect x="300" y="370" width="290" height="100" rx="10" fill="#8695FE"></rect>
	<rect x="366" y="386" width="180" height="6" rx="3" fill="#6F81FE"></rect>
	<rect x="316" y="430" width="230" height="6" rx="3" fill="#6F81FE"></rect>
	<rect x="316" y="441" width="230" height="6" rx="3" fill="#6F81FE"></rect>
	<rect x="316" y="452" width="230" height="6" rx="3" fill="#6F81FE"></rect>
	<rect x="366" y="397" width="54" height="6" rx="3" fill="#6F81FE"></rect>
	<circle cx="561.5" cy="389.5" r="4.5" fill="#6F81FE"></circle>
	<circle cx="332.5" cy="402.5" r="16.5" fill="#6F81FE"></circle>
	<circle cx="568.5" cy="389.5" r="4.5" fill="#6F81FE"></circle>
	</g>
	<g>
	<rect x="300" y="480" width="290" height="100" rx="10" fill="#8695FE"></rect>
	<rect x="366" y="496" width="180" height="6" rx="3" fill="#6F81FE"></rect>
	<rect x="316" y="540" width="230" height="6" rx="3" fill="#6F81FE"></rect>
	<rect x="316" y="551" width="230" height="6" rx="3" fill="#6F81FE"></rect>
	<rect x="316" y="562" width="230" height="6" rx="3" fill="#6F81FE"></rect>
	<rect x="366" y="507" width="54" height="6" rx="3" fill="#6F81FE"></rect>
	<circle cx="561.5" cy="499.5" r="4.5" fill="#6F81FE"></circle>
	<circle cx="332.5" cy="512.5" r="16.5" fill="#6F81FE"></circle>
	<circle cx="568.5" cy="499.5" r="4.5" fill="#6F81FE"></circle>
	</g>
	<g>
	<rect x="300" y="590" width="290" height="100" rx="10" fill="#8695FE"></rect>
	<rect x="366" y="606" width="180" height="6" rx="3" fill="#6F81FE"></rect>
	<rect x="366" y="617" width="54" height="6" rx="3" fill="#6F81FE"></rect>
	<circle cx="561.5" cy="609.5" r="4.5" fill="#6F81FE"></circle>
	<circle cx="332.5" cy="622.5" r="16.5" fill="#6F81FE"></circle>
	<circle cx="568.5" cy="609.5" r="4.5" fill="#6F81FE"></circle>
	</g>
	<!-- Дополнительный бесшовный элемент сдвига -->
	<g>
	<rect x="300" y="700" width="290" height="100" rx="10" fill="#8695FE"></rect>
	<rect x="366" y="716" width="180" height="6" rx="3" fill="#6F81FE"></rect>
	<rect x="316" y="760" width="230" height="6" rx="3" fill="#6F81FE"></rect>
	<rect x="316" y="771" width="230" height="6" rx="3" fill="#6F81FE"></rect>
	<rect x="316" y="782" width="230" height="6" rx="3" fill="#6F81FE"></rect>
	<rect x="366" y="727" width="54" height="6" rx="3" fill="#6F81FE"></rect>
	<circle cx="561.5" cy="719.5" r="4.5" fill="#6F81FE"></circle>
	<circle cx="332.5" cy="732.5" r="16.5" fill="#6F81FE"></circle>
	<circle cx="568.5" cy="719.5" r="4.5" fill="#6F81FE"></circle>
	</g>
	</g>

	<!-- ЦЕНТРАЛЬНЫЕ КАРТЫ С КУРСОРОМ -->
	<g id="central-container">
	<rect x="3.26582" y="-3.26582" width="406.532" height="290.532" rx="19.4158" transform="matrix(-1 0 0 1 596.532 222)" fill="url(#paint1_linear_4308_4351)" stroke="white" stroke-width="6.53165"></rect>
	<rect width="349" height="137" rx="16.15" transform="matrix(-1 0 0 1 564 266)" fill="#E1E3EA"></rect>
	<rect width="168" height="10" rx="5" transform="matrix(-1 0 0 1 564 240)" fill="#E1E3EA"></rect>
	<rect width="349" height="10" rx="5" transform="matrix(-1 0 0 1 564 419)" fill="#E1E3EA"></rect>
	<rect width="271" height="10" rx="5" transform="matrix(-1 0 0 1 564 439)" fill="#E1E3EA"></rect>
	<rect width="296" height="10" rx="5" transform="matrix(-1 0 0 1 564 457)" fill="#E1E3EA"></rect>
	<g filter="url(#filter0_dddd_4308_4351)">
	<g clip-path="url(#clip1_4308_4351)">
	<rect x="40" y="133" width="520" height="343" rx="17.6804" fill="white"></rect>
	<rect x="75" y="168" width="51" height="51" rx="12.8121" fill="url(#paint2_linear_4308_4351)"></rect>
	<path fill-rule="evenodd" clip-rule="evenodd" d="M94.9514 189.521C94.9514 188.654 95.654 187.952 96.5207 187.952H102.624C103.04 187.952 103.439 187.786 103.734 187.492L107.993 183.233C108.982 182.244 108.281 180.554 106.883 180.554H89.1228C88.2561 180.554 87.5536 181.256 87.5536 182.123V199.884C87.5536 201.282 89.2439 201.982 90.2324 200.993L94.4918 196.734C94.7861 196.439 94.9514 196.04 94.9514 195.624V189.521Z" fill="white"></path>
	<path fill-rule="evenodd" clip-rule="evenodd" d="M113.446 204.877C113.446 205.743 112.743 206.446 111.877 206.446H93.1915C91.7935 206.446 91.0933 204.756 92.0819 203.767L97.2657 198.583C97.56 198.289 97.7253 197.89 97.7253 197.474V192.295C97.7253 191.428 98.4279 190.725 99.2946 190.725H104.474C104.89 190.725 105.289 190.56 105.583 190.266L110.767 185.082C111.756 184.093 113.446 184.793 113.446 186.192V204.877Z" fill="white"></path>
	<foreignObject x="452.475" y="153.475" width="77.05" height="66.05"><div xmlns="http://www.w3.org/1999/xhtml" style="backdrop-filter:blur(7.76px);clip-path:url(#bgblur_2_4308_4351_clip_path);height:100%;width:100%" bis_skin_checked="1"></div></foreignObject><rect data-figma-bg-blur-radius="15.525" x="468.287" y="169.287" width="45.425" height="34.425" rx="6.6125" fill="#ADDFAC" stroke="white" stroke-width="0.575"></rect>
	<path d="M477.334 178.365H477.978L480.071 184H479.46L478.872 182.366H476.409L475.821 184H475.241L477.334 178.365ZM478.687 181.851L477.656 178.969H477.64L476.594 181.851H478.687ZM480.999 179.975H482.528C483 179.975 483.346 180.074 483.566 180.273C483.786 180.471 483.897 180.74 483.897 181.078C483.897 181.255 483.851 181.416 483.76 181.561C483.674 181.706 483.55 181.818 483.389 181.899V181.915C483.609 182.001 483.776 182.124 483.888 182.285C484.001 182.446 484.058 182.634 484.058 182.849C484.058 183.208 483.947 183.49 483.727 183.694C483.507 183.898 483.161 184 482.689 184H480.999V179.975ZM483.349 181.086C483.349 180.887 483.285 180.734 483.156 180.627C483.027 180.514 482.804 180.458 482.488 180.458H481.53V181.722H482.488C482.804 181.722 483.027 181.668 483.156 181.561C483.285 181.448 483.349 181.29 483.349 181.086ZM483.51 182.841C483.51 182.621 483.446 182.454 483.317 182.342C483.188 182.229 482.965 182.173 482.649 182.173H481.53V183.517H482.649C482.965 183.517 483.188 183.461 483.317 183.348C483.446 183.235 483.51 183.066 483.51 182.841ZM485.181 179.975H487.757V180.458H485.712V184H485.181V179.975ZM491.378 179.001L490.17 179.822V179.194L491.378 178.365H491.941V184H491.378V179.001ZM495.118 184.056C494.823 184.056 494.56 184.019 494.329 183.944C494.098 183.863 493.905 183.753 493.749 183.614C493.594 183.469 493.473 183.3 493.387 183.106C493.307 182.913 493.266 182.701 493.266 182.471C493.266 182.132 493.355 181.845 493.532 181.609C493.714 181.368 493.959 181.183 494.264 181.054C494.007 180.941 493.803 180.78 493.653 180.571C493.502 180.361 493.427 180.104 493.427 179.798C493.427 179.589 493.468 179.395 493.548 179.218C493.634 179.036 493.749 178.878 493.894 178.743C494.044 178.609 494.222 178.505 494.425 178.429C494.635 178.349 494.866 178.309 495.118 178.309C495.375 178.309 495.606 178.346 495.81 178.421C496.019 178.496 496.196 178.601 496.341 178.735C496.492 178.869 496.607 179.028 496.688 179.21C496.768 179.387 496.808 179.583 496.808 179.798C496.808 180.098 496.73 180.353 496.575 180.563C496.425 180.772 496.221 180.936 495.963 181.054C496.269 181.177 496.513 181.36 496.696 181.601C496.878 181.843 496.969 182.132 496.969 182.471C496.969 182.696 496.926 182.905 496.84 183.098C496.76 183.292 496.639 183.461 496.478 183.606C496.317 183.745 496.121 183.855 495.891 183.936C495.665 184.016 495.408 184.056 495.118 184.056ZM495.118 180.828C495.257 180.812 495.394 180.783 495.528 180.74C495.662 180.691 495.781 180.627 495.883 180.547C495.99 180.461 496.073 180.356 496.132 180.233C496.196 180.109 496.229 179.964 496.229 179.798C496.229 179.674 496.202 179.556 496.148 179.444C496.1 179.326 496.027 179.224 495.931 179.138C495.834 179.047 495.716 178.974 495.577 178.92C495.442 178.867 495.289 178.84 495.118 178.84C494.946 178.84 494.79 178.867 494.651 178.92C494.517 178.974 494.401 179.047 494.305 179.138C494.208 179.224 494.133 179.326 494.079 179.444C494.031 179.556 494.007 179.674 494.007 179.798C494.007 179.959 494.039 180.101 494.103 180.225C494.168 180.343 494.251 180.445 494.353 180.53C494.46 180.616 494.581 180.683 494.715 180.732C494.849 180.78 494.984 180.812 495.118 180.828ZM495.118 183.525C495.316 183.525 495.493 183.498 495.649 183.445C495.81 183.386 495.944 183.308 496.052 183.211C496.159 183.115 496.242 183.004 496.301 182.881C496.36 182.752 496.39 182.615 496.39 182.471C496.39 182.299 496.355 182.143 496.285 182.004C496.221 181.864 496.129 181.746 496.011 181.649C495.899 181.547 495.764 181.467 495.609 181.408C495.453 181.349 495.289 181.311 495.118 181.295C494.941 181.311 494.774 181.349 494.619 181.408C494.463 181.462 494.326 181.539 494.208 181.641C494.095 181.738 494.007 181.856 493.942 181.996C493.878 182.135 493.846 182.293 493.846 182.471C493.846 182.615 493.875 182.752 493.934 182.881C493.993 183.004 494.077 183.115 494.184 183.211C494.291 183.308 494.423 183.386 494.578 183.445C494.739 183.498 494.919 183.525 495.118 183.525ZM476.449 189.001L475.241 189.822V189.194L476.449 188.365H477.012V194H476.449V189.001ZM478.177 193.485L480.173 191.505C480.345 191.333 480.495 191.177 480.624 191.038C480.758 190.898 480.868 190.767 480.954 190.643C481.045 190.52 481.112 190.402 481.155 190.289C481.198 190.176 481.22 190.058 481.22 189.935C481.22 189.618 481.109 189.358 480.889 189.154C480.669 188.945 480.369 188.84 479.988 188.84C479.607 188.84 479.306 188.945 479.086 189.154C478.866 189.358 478.756 189.618 478.756 189.935H478.177C478.177 189.704 478.22 189.489 478.305 189.291C478.391 189.092 478.512 188.92 478.668 188.776C478.823 188.631 479.014 188.518 479.239 188.437C479.465 188.352 479.714 188.309 479.988 188.309C480.262 188.309 480.511 188.352 480.737 188.437C480.962 188.518 481.152 188.631 481.308 188.776C481.464 188.92 481.584 189.092 481.67 189.291C481.756 189.489 481.799 189.704 481.799 189.935C481.799 190.246 481.692 190.549 481.477 190.844C481.268 191.14 480.975 191.47 480.6 191.835L478.909 193.485H481.799V194H478.177V193.485ZM482.603 193.485L484.599 191.505C484.771 191.333 484.921 191.177 485.05 191.038C485.184 190.898 485.294 190.767 485.38 190.643C485.471 190.52 485.538 190.402 485.581 190.289C485.624 190.176 485.645 190.058 485.645 189.935C485.645 189.618 485.535 189.358 485.315 189.154C485.095 188.945 484.795 188.84 484.414 188.84C484.033 188.84 483.732 188.945 483.512 189.154C483.292 189.358 483.182 189.618 483.182 189.935H482.603C482.603 189.704 482.645 189.489 482.731 189.291C482.817 189.092 482.938 188.92 483.094 188.776C483.249 188.631 483.44 188.518 483.665 188.437C483.891 188.352 484.14 188.309 484.414 188.309C484.687 188.309 484.937 188.352 485.162 188.437C485.388 188.518 485.578 188.631 485.734 188.776C485.89 188.92 486.01 189.092 486.096 189.291C486.182 189.489 486.225 189.704 486.225 189.935C486.225 190.246 486.118 190.549 485.903 190.844C485.694 191.14 485.401 191.47 485.026 191.835L483.335 193.485H486.225V194H482.603V193.485ZM488.88 192.132L491.52 188.365H492.221V192.132H492.985V192.648H492.221V194H491.657V192.648H488.88V192.132ZM491.657 192.132V189.017L489.5 192.132H491.657ZM495.686 194.056C495.401 194.056 495.144 194.011 494.913 193.92C494.687 193.823 494.494 193.67 494.333 193.461C494.172 193.251 494.049 192.983 493.963 192.656C493.877 192.323 493.834 191.918 493.834 191.44V190.925C493.834 190.453 493.877 190.053 493.963 189.725C494.054 189.393 494.18 189.122 494.341 188.912C494.502 188.703 494.696 188.55 494.921 188.454C495.152 188.357 495.407 188.309 495.686 188.309C495.965 188.309 496.217 188.357 496.442 188.454C496.673 188.545 496.869 188.695 497.03 188.904C497.191 189.114 497.314 189.385 497.4 189.717C497.492 190.05 497.537 190.453 497.537 190.925V191.44C497.537 191.912 497.492 192.315 497.4 192.648C497.314 192.975 497.191 193.243 497.03 193.453C496.869 193.662 496.673 193.815 496.442 193.911C496.217 194.008 495.965 194.056 495.686 194.056ZM495.686 193.525C495.879 193.525 496.053 193.493 496.209 193.428C496.37 193.359 496.504 193.243 496.611 193.082C496.724 192.921 496.81 192.707 496.869 192.438C496.928 192.17 496.958 191.837 496.958 191.44V190.925C496.958 190.528 496.928 190.198 496.869 189.935C496.81 189.666 496.724 189.452 496.611 189.291C496.499 189.13 496.365 189.014 496.209 188.945C496.053 188.875 495.879 188.84 495.686 188.84C495.492 188.84 495.315 188.875 495.154 188.945C494.999 189.009 494.865 189.122 494.752 189.283C494.645 189.444 494.561 189.658 494.502 189.927C494.443 190.195 494.414 190.528 494.414 190.925V191.44C494.414 191.837 494.443 192.17 494.502 192.438C494.561 192.701 494.647 192.913 494.76 193.074C494.873 193.235 495.007 193.351 495.162 193.42C495.318 193.49 495.492 193.525 495.686 193.525ZM500.599 194.056C500.315 194.056 500.057 194.011 499.826 193.92C499.601 193.823 499.408 193.67 499.247 193.461C499.086 193.251 498.962 192.983 498.876 192.656C498.79 192.323 498.747 191.918 498.747 191.44V190.925C498.747 190.453 498.79 190.053 498.876 189.725C498.968 189.393 499.094 189.122 499.255 188.912C499.416 188.703 499.609 188.55 499.834 188.454C500.065 188.357 500.32 188.309 500.599 188.309C500.878 188.309 501.13 188.357 501.356 188.454C501.586 188.545 501.782 188.695 501.943 188.904C502.104 189.114 502.228 189.385 502.314 189.717C502.405 190.05 502.45 190.453 502.45 190.925V191.44C502.45 191.912 502.405 192.315 502.314 192.648C502.228 192.975 502.104 193.243 501.943 193.453C501.782 193.662 501.586 193.815 501.356 193.911C501.13 194.008 500.878 194.056 500.599 194.056ZM500.599 193.525C500.792 193.525 500.967 193.493 501.122 193.428C501.283 193.359 501.417 193.243 501.525 193.082C501.637 192.921 501.723 192.707 501.782 192.438C501.841 192.17 501.871 191.837 501.871 191.44V190.925C501.871 190.528 501.841 190.198 501.782 189.935C501.723 189.666 501.637 189.452 501.525 189.291C501.412 189.13 501.278 189.014 501.122 188.945C500.967 188.875 500.792 188.84 500.599 188.84C500.406 188.84 500.229 188.875 500.068 188.945C499.912 189.009 499.778 189.122 499.665 189.283C499.558 189.444 499.475 189.658 499.416 189.927C499.357 190.195 499.327 190.528 499.327 190.925V191.44C499.327 191.837 499.357 192.17 499.416 192.438C499.475 192.701 499.561 192.913 499.673 193.074C499.786 193.235 499.92 193.351 500.076 193.42C500.231 193.49 500.406 193.525 500.599 193.525Z" fill="white"></path>
	<path d="M113 300C96.6778 300 75 322 75 322V368L517 373V244H507C507 244 489.79 226 477 226C459.947 226 433.053 282 416 282C397.131 282 387.79 254 375 254C362.21 254 354.369 282 343 282C331.631 282 325.457 239 314 239C301.21 239 274.316 294 253 294C235.947 294 220.632 254 205 254C192.829 254 192.527 282 184 282C170.126 282 160.211 277 146 277C131.851 277 125.79 300 113 300Z" fill="url(#paint3_linear_4308_4351)"></path>
	<path d="M75 320C75 320 96.6405 297 113 297C125.819 297 131.819 274 146 274C160.243 274 170.094 279 184 279C192.546 279 192.801 251 205 251C220.668 251 237.908 292 255 292C276.365 292 300.181 239 313 239C324.483 239 331.605 279 343 279C354.395 279 363.181 251 376 251C388.819 251 399.088 279 418 279C435.092 279 461.908 226 479 226C491.819 226 508 244 508 244" stroke="#ADDFAC" stroke-width="1.13428"></path>
	<path d="M112 310C94.2731 310 83 353 83 353V373H525L510 237C510 237 495.332 253.215 481 254C456.041 255.367 466.811 191 454 191C439.766 191 452.109 259.282 427 267C416.151 270.335 408.387 262 397 262C375.775 262 378.504 310 360 310C343.813 310 337.081 295 320 295C302.84 295 297.16 320 280 320C267.189 320 259.308 303.025 248 302C236.692 300.975 230.387 310 219 310C198.644 310 202.811 257 190 257C174.343 257 168.504 325 150 325C134.879 325 127.657 310 112 310Z" fill="url(#paint4_linear_4308_4351)"></path>
	<path d="M83 353C83 353 94.1908 310 112 310C127.73 310 134.809 325 150 325C168.59 325 174.27 257 190 257C202.87 257 200.55 310 221 310C232.44 310 236.64 300.974 248 302C259.36 303.026 267.13 320 280 320C297.24 320 301.76 295 319 295C336.16 295 344.738 310 361 310C379.59 310 377.676 262 399 262C410.44 262 417.101 270.339 428 267C453.226 259.271 440.7 191 455 191C467.87 191 457.925 255.369 483 254C497.398 253.214 512 237 512 237" stroke="#ADDFAC" stroke-width="1.13428"></path>
	<rect x="145" y="172" width="216" height="8" rx="4" fill="#F6F6F8"></rect>
	<rect x="145" y="186" width="236" height="8" rx="4" fill="#F6F6F8"></rect>
	<rect x="75" y="390" width="412" height="10" rx="5" fill="#F6F6F8"></rect>
	<rect x="75" y="412" width="450" height="10" rx="5" fill="#F6F6F8"></rect>
	<circle cx="455" cy="191" r="3" fill="#ADDFAC"></circle>
	</g>
	</g>

	<!-- ОБЪЕДИНЕННАЯ ГРУППА КУРСОР + ТАБЛИЧКА ДЛЯ ОБЩЕЙ АНИМАЦИИ ДВИЖЕНИЯ -->
	<g id="cursor-manager">
	<path fill-rule="evenodd" clip-rule="evenodd" d="M363 336.022C362.476 336.166 362 336.482 362 337.022C362 337.232 362.612 339.995 366 349.022C370.177 360.151 370.749 360.762 371 361.022C371.205 361.234 371.759 360.972 372 361.022C371.867 361.054 372.188 361.061 372 361.022C372.276 360.956 372.881 360.228 373 360.022C373.052 359.931 373.909 358.478 375 356.022L377 351.022L382 349.022C386.605 346.877 386.829 346.442 387 346.022C387.193 345.55 387.391 345.334 387 345.022C386.798 344.861 363.364 336.085 363 336.022C363.141 335.983 362.894 336.004 363 336.022Z" fill="url(#paint5_linear_4308_4351)"></path>
	<rect x="391" y="348.022" width="121" height="31" rx="15.5" fill="url(#paint6_linear_4308_4351)"></rect>
	<path d="M413.308 357.536H415.014L418.493 364.395H418.526L422.005 357.536H423.646V369.022H422.497V358.93H422.464L419.051 365.658H417.902L414.489 358.93H414.456V369.022H413.308V357.536ZM429.546 369.137C429.021 369.137 428.539 369.049 428.102 368.874C427.664 368.699 427.292 368.448 426.986 368.119C426.68 367.78 426.439 367.37 426.264 366.889C426.1 366.396 426.018 365.833 426.018 365.199V364.641C426.018 364.017 426.1 363.459 426.264 362.967C426.439 362.475 426.68 362.064 426.986 361.736C427.303 361.397 427.675 361.14 428.102 360.965C428.539 360.79 429.021 360.702 429.546 360.702C430.071 360.702 430.552 360.79 430.99 360.965C431.428 361.14 431.799 361.397 432.106 361.736C432.412 362.075 432.647 362.497 432.811 363C432.986 363.492 433.074 364.066 433.074 364.723V365.215H427.134C427.134 366.167 427.342 366.894 427.757 367.397C428.173 367.901 428.769 368.152 429.546 368.152C430.716 368.152 431.493 367.676 431.876 366.725H432.992C432.795 367.512 432.401 368.114 431.81 368.53C431.231 368.934 430.476 369.137 429.546 369.137ZM429.546 361.687C428.846 361.687 428.282 361.911 427.856 362.36C427.429 362.797 427.188 363.443 427.134 364.296H431.958C431.903 363.41 431.657 362.754 431.22 362.327C430.793 361.9 430.235 361.687 429.546 361.687ZM435.372 360.817H436.455V364.345H441.017V360.817H442.1V369.022H441.017V365.33H436.455V369.022H435.372V360.817ZM447.926 369.137C447.401 369.137 446.92 369.049 446.482 368.874C446.045 368.699 445.673 368.448 445.366 368.119C445.06 367.78 444.819 367.37 444.644 366.889C444.1 366.396 444.018 365.833 444.398 365.199V364.641C444.398 364.017 444.48 363.459 444.644 362.967C444.819 362.475 445.06 362.064 445.366 361.736C445.684 361.397 446.056 361.14 446.482 360.965C446.92 360.79 447.401 360.702 447.926 360.702C448.451 360.702 448.933 360.79 449.37 360.965C449.808 361.14 450.18 361.397 450.486 361.736C450.792 362.075 451.028 362.497 451.192 363C451.367 363.492 451.454 364.066 451.454 364.723V365.215H445.514C445.514 366.167 445.722 366.894 446.138 367.397C446.553 367.901 447.149 368.152 447.926 368.152C449.097 368.152 449.873 367.676 450.256 366.725H451.372C451.175 367.512 450.781 368.114 450.191 368.53C449.611 368.934 448.856 369.137 447.926 369.137ZM447.926 361.687C447.226 361.687 446.663 361.911 446.236 362.36C445.809 362.797 445.569 363.443 445.514 364.296H450.338C450.284 363.41 450.038 362.754 449.6 362.327C449.173 361.9 448.615 361.687 447.926 361.687ZM452.525 368.037H453.428C453.603 367.764 453.745 367.485 453.854 367.201C453.975 366.916 454.068 366.593 454.133 366.232C454.21 365.871 454.259 365.456 454.281 364.985C454.314 364.504 454.33 363.935 454.33 363.279V360.817H459.909V368.037H460.976V371.155H459.926V369.022H453.575V371.155H452.525V368.037ZM458.826 368.037V361.802H455.38V363.279C455.38 363.869 455.37 364.389 455.348 364.838C455.326 365.286 455.287 365.696 455.233 366.068C455.178 366.429 455.102 366.768 455.003 367.086C454.905 367.392 454.784 367.698 454.642 368.005V368.037H458.826ZM464.477 364.706L462.114 360.817H463.328L465.346 364.263H466.823V360.817H467.906V364.263H469.383L471.401 360.817H472.616L470.253 364.706L472.78 369.022H471.533L469.383 365.248H467.906V369.022H466.823V365.248H465.346L463.197 369.022H461.95L464.477 364.706ZM477.379 369.137C476.854 369.137 476.373 369.049 475.935 368.874C475.498 368.699 475.126 368.448 474.82 368.119C474.513 367.78 474.273 367.37 474.098 366.889C473.934 366.396 473.852 365.833 473.852 365.199V364.641C473.852 364.017 473.934 363.459 474.098 362.967C474.273 362.475 474.513 362.064 474.82 361.736C475.137 361.397 475.509 361.14 475.935 360.965C476.373 360.79 476.854 360.702 477.379 360.702C477.905 360.702 478.386 360.79 478.824 360.965C479.261 361.14 479.633 361.397 479.939 361.736C480.246 362.075 480.481 362.497 480.645 363C480.82 363.492 480.907 364.066 480.907 364.723V365.215H474.967C474.967 366.167 475.175 366.894 475.591 367.397C476.007 367.901 476.603 368.152 477.379 368.152C478.55 368.152 479.327 367.676 479.71 366.725H480.825C480.629 367.512 480.235 368.114 479.644 368.53C479.064 368.934 478.309 369.137 477.379 369.137ZM477.379 361.687C476.679 361.687 476.116 361.911 475.689 362.36C475.263 362.797 475.022 363.443 474.967 364.296H479.792C479.737 363.41 479.491 362.754 479.053 362.327C478.627 361.9 478.069 361.687 477.379 361.687ZM483.205 360.817H484.059L484.19 362.048H484.223C484.584 361.578 484.983 361.239 485.421 361.031C485.858 360.812 486.372 360.702 486.963 360.702C487.444 360.702 487.888 360.79 488.292 360.965C488.697 361.129 489.042 361.381 489.326 361.72C489.621 362.048 489.851 362.458 490.015 362.951C490.179 363.443 490.261 364.006 490.261 364.641V365.199C490.261 365.833 490.179 366.396 490.015 366.889C489.851 367.37 489.621 367.78 489.326 368.119C489.031 368.448 488.681 368.699 488.276 368.874C487.871 369.049 487.434 369.137 486.963 369.137C485.782 369.137 484.901 368.716 484.321 367.873H484.288V372.304H483.205V360.817ZM486.717 368.152C487.439 368.152 488.024 367.912 488.473 367.43C488.921 366.938 489.146 366.194 489.146 365.199V364.641C489.146 363.667 488.916 362.934 488.456 362.442C488.008 361.939 487.428 361.687 486.717 361.687C485.995 361.687 485.41 361.933 484.961 362.425C484.513 362.907 484.288 363.645 484.288 364.641V365.199C484.288 366.172 484.513 366.911 484.961 367.414C485.421 367.906 486.006 368.152 486.717 368.152Z" fill="white"></path>
	</g>
	</g>

	<defs>
	<filter id="filter0_dddd_4308_4351" x="-51.9381" y="115.32" width="703.876" height="682.464" filterUnits="userSpaceOnUse" color-interpolation-filters="sRGB">
	<feFlood flood-opacity="0" result="BackgroundImageFix"></feFlood>
	<feColorMatrix in="SourceAlpha" type="matrix" values="0 0 0 0 0 0 0 0 0 0 0 0 0 0 0 0 0 0 127 0" result="hardAlpha"></feColorMatrix>
	<feOffset dy="14.1443"></feOffset>
	<feGaussianBlur stdDeviation="15.9124"></feGaussianBlur>
	<feColorMatrix type="matrix" values="0 0 0 0 0 0 0 0 0 0 0 0 0 0 0 0 0 0 0.05 0"></feColorMatrix>
	<feBlend mode="normal" in2="BackgroundImageFix" result="effect1_dropShadow_4308_4351"></feBlend>
	<feColorMatrix in="SourceAlpha" type="matrix" values="0 0 0 0 0 0 0 0 0 0 0 0 0 0 0 0 0 0 127 0" result="hardAlpha"></feColorMatrix>
	<feOffset dy="56.5773"></feOffset>
	<feGaussianBlur stdDeviation="28.2887"></feGaussianBlur>
	<feColorMatrix type="matrix" values="0 0 0 0 0 0 0 0 0 0 0 0 0 0 0 0 0 0 0.04 0"></feColorMatrix>
	<feBlend mode="normal" in2="effect1_dropShadow_4308_4351" result="effect2_dropShadow_4308_4351"></feBlend>
	<feColorMatrix in="SourceAlpha" type="matrix" values="0 0 0 0 0 0 0 0 0 0 0 0 0 0 0 0 0 0 127 0" result="hardAlpha"></feColorMatrix>
	<feOffset dy="129.067"></feOffset>
	<feGaussianBlur stdDeviation="38.8969"></feGaussianBlur>
	<feColorMatrix type="matrix" values="0 0 0 0 0 0 0 0 0 0 0 0 0 0 0 0 0 0 0.03 0"></feColorMatrix>
	<feBlend mode="normal" in2="effect2_dropShadow_4308_4351" result="effect3_dropShadow_4308_4351"></feBlend>
	<feColorMatrix in="SourceAlpha" type="matrix" values="0 0 0 0 0 0 0 0 0 0 0 0 0 0 0 0 0 0 127 0" result="hardAlpha"></feColorMatrix>
	<feOffset dy="229.845"></feOffset>
	<feGaussianBlur stdDeviation="45.9691"></feGaussianBlur>
	<feColorMatrix type="matrix" values="0 0 0 0 0 0 0 0 0 0 0 0 0 0 0 0 0 0 0.01 0"></feColorMatrix>
	<feBlend mode="normal" in2="effect3_dropShadow_4308_4351" result="effect4_dropShadow_4308_4351"></feBlend>
	<feBlend mode="normal" in="SourceGraphic" in2="effect4_dropShadow_4308_4351" result="shape"></feBlend>
	</filter>
	<clipPath id="bgblur_2_4308_4351_clip_path" transform="translate(-452.475 -153.475)"><rect x="468.287" y="169.287" width="45.425" height="34.425" rx="6.6125"></rect>
	</clipPath><linearGradient id="paint0_linear_4308_4351" x1="630" y1="319.5" x2="0" y2="319.5" gradientUnits="userSpaceOnUse">
	<stop stop-color="#5F73FE"></stop>
	<stop offset="1" stop-color="#798AFF" stop-opacity="0.894118"></stop>
	</linearGradient>
	<linearGradient id="paint1_linear_4308_4351" x1="200" y1="0" x2="200" y2="284" gradientUnits="userSpaceOnUse">
	<stop stop-color="#F3F3F9"></stop>
	<stop offset="1" stop-color="#EBEBF5"></stop>
	</linearGradient>
	<linearGradient id="paint2_linear_4308_4351" x1="126" y1="193.5" x2="75" y2="193.5" gradientUnits="userSpaceOnUse">
	<stop stop-color="#5F73FE"></stop>
	<stop offset="1" stop-color="#798AFF" stop-opacity="0.894118"></stop>
	</linearGradient>
	<linearGradient id="paint3_linear_4308_4351" x1="296" y1="232.255" x2="296" y2="351.106" gradientUnits="userSpaceOnUse">
	<stop stop-color="#F6F6F8"></stop>
	<stop offset="1" stop-color="#F6F6F8" stop-opacity="0"></stop>
	</linearGradient>
	<linearGradient id="paint4_linear_4308_4351" x1="304" y1="177" x2="304" y2="341.889" gradientUnits="userSpaceOnUse">
	<stop stop-color="#F6F6F8"></stop>
	<stop offset="1" stop-color="#F6F6F8" stop-opacity="0"></stop>
	</linearGradient>
	<linearGradient id="paint5_linear_4308_4351" x1="387.225" y1="348.553" x2="362" y2="348.553" gradientUnits="userSpaceOnUse">
	<stop stop-color="#5F73FE"></stop>
	<stop offset="1" stop-color="#798AFF" stop-opacity="0.894118"></stop>
	</linearGradient>
	<linearGradient id="paint6_linear_4308_4351" x1="512" y1="363.522" x2="391" y2="363.522" gradientUnits="userSpaceOnUse">
	<stop stop-color="#5F73FE"></stop>
	<stop offset="1" stop-color="#798AFF" stop-opacity="0.894118"></stop>
	</linearGradient>
	<clipPath id="clip0_4308_4351">
	<rect width="630" height="639" rx="30" fill="white"></rect>
	</clipPath>
	<clipPath id="clip1_4308_4351">
	<rect x="40" y="133" width="520" height="343" rx="17.6804" fill="white"></rect>
	</clipPath>
	</defs>
	</g>
</svg>