<svg width="906" height="701" viewBox="0 0 906 701" fill="none" xmlns="http://www.w3.org/2000/svg">
<rect x="3.26582" y="-3.26582" width="406.532" height="290.532" rx="19.4158" transform="matrix(-1 0 0 1 905.443 80.3291)" fill="url(#paint0_linear_8025_468)" stroke="white" stroke-width="6.53165"/>
<rect width="349" height="137" rx="16.15" transform="matrix(-1 0 0 1 872.911 124.329)" fill="#E1E3EA"/>
<rect width="168" height="10" rx="5" transform="matrix(-1 0 0 1 872.911 98.3291)" fill="#E1E3EA"/>
<rect width="349" height="10" rx="5" transform="matrix(-1 0 0 1 872.911 277.329)" fill="#E1E3EA"/>
<rect width="271" height="10" rx="5" transform="matrix(-1 0 0 1 872.911 297.329)" fill="#E1E3EA"/>
<rect width="296" height="10" rx="5" transform="matrix(-1 0 0 1 872.911 315.329)" fill="#E1E3EA"/>
<rect x="3.26582" y="-3.26582" width="406.532" height="290.532" rx="19.4158" transform="matrix(-1 0 0 1 547.443 186.329)" fill="url(#paint1_linear_8025_468)" stroke="white" stroke-width="6.53165"/>
<rect width="349" height="137" rx="16.15" transform="matrix(-1 0 0 1 514.911 230.329)" fill="#E1E3EA"/>
<rect width="168" height="10" rx="5" transform="matrix(-1 0 0 1 514.911 204.329)" fill="#E1E3EA"/>
<rect width="349" height="10" rx="5" transform="matrix(-1 0 0 1 514.911 383.329)" fill="#E1E3EA"/>
<rect width="271" height="10" rx="5" transform="matrix(-1 0 0 1 514.911 403.329)" fill="#E1E3EA"/>
<rect width="296" height="10" rx="5" transform="matrix(-1 0 0 1 514.911 421.329)" fill="#E1E3EA"/>
<g filter="url(#filter0_dddd_8025_468)">
<rect x="251.911" y="16.3291" width="400" height="387" rx="16.15" fill="white"/>
<rect x="277.911" y="68.3291" width="349" height="136" rx="16.15" fill="#F6F6F8"/>
<rect x="277.911" y="42.3291" width="167" height="10" rx="5" fill="#F6F6F8"/>
<rect x="277.911" y="222.329" width="349" height="8" rx="4" fill="#F6F6F8"/>
<rect x="277.911" y="240.329" width="271" height="10" rx="5" fill="#F6F6F8"/>
<rect x="277.911" y="258.329" width="296" height="10" rx="5" fill="#F6F6F8"/>
<rect x="418.911" y="103.329" width="65" height="65" rx="16.3291" fill="url(#paint2_linear_8025_468)"/>
<path fill-rule="evenodd" clip-rule="evenodd" d="M444.911 131.329C444.911 130.027 445.609 129.329 446.911 129.329H452.911C453.514 129.329 454.473 127.744 454.911 127.329L459.911 122.329C461.458 120.864 460.042 119.329 457.911 119.329H436.911C435.609 119.329 434.911 120.027 434.911 121.329V142.329C434.911 144.46 436.446 145.876 437.911 144.329L442.911 139.329C443.326 138.891 444.911 137.932 444.911 137.329V131.329Z" fill="white"/>
<path d="M467.911 150.329C467.911 151.631 467.213 152.329 465.911 152.329H442.911C440.811 152.329 440.426 150.814 441.911 149.329L447.911 142.329C448.353 141.887 447.911 140.954 447.911 140.329V134.329C447.911 133.027 448.609 132.329 449.911 132.329H455.911C456.536 132.329 457.469 132.771 457.911 132.329L464.911 126.329C466.396 124.844 467.911 125.229 467.911 127.329V150.329Z" fill="white"/>
</g>
<path fill-rule="evenodd" clip-rule="evenodd" d="M498.911 299.329C498.408 299.468 497.911 299.811 497.911 300.329C497.911 300.531 498.658 302.663 501.911 311.329C505.921 322.013 506.67 323.079 506.911 323.329C507.108 323.533 507.68 323.281 507.911 323.329C507.784 323.36 508.092 323.366 507.911 323.329C508.176 323.266 507.797 322.527 507.911 322.329C507.961 322.242 508.864 320.687 509.911 318.329L511.911 313.329L516.911 311.329C521.332 309.27 521.747 309.732 521.911 309.329C522.096 308.875 522.287 308.629 521.911 308.329C521.717 308.174 499.261 299.389 498.911 299.329C499.047 299.292 498.81 299.312 498.911 299.329Z" fill="url(#paint3_linear_8025_468)"/>
<rect x="528.911" y="320.329" width="121" height="31" rx="15.5" fill="url(#paint4_linear_8025_468)"/>
<path d="M551.219 329.843H552.926L556.404 336.702H556.437L559.916 329.843H561.557V341.329H560.408V331.237H560.375L556.962 337.965H555.814L552.4 331.237H552.368V341.329H551.219V329.843ZM567.457 341.444C566.932 341.444 566.451 341.356 566.013 341.181C565.575 341.006 565.204 340.755 564.897 340.427C564.591 340.087 564.35 339.677 564.175 339.196C564.011 338.704 563.929 338.14 563.929 337.506V336.948C563.929 336.324 564.011 335.766 564.175 335.274C564.35 334.782 564.591 334.372 564.897 334.043C565.214 333.704 565.586 333.447 566.013 333.272C566.451 333.097 566.932 333.01 567.457 333.01C567.982 333.01 568.463 333.097 568.901 333.272C569.339 333.447 569.711 333.704 570.017 334.043C570.323 334.383 570.558 334.804 570.722 335.307C570.898 335.799 570.985 336.374 570.985 337.03V337.522H565.045C565.045 338.474 565.253 339.201 565.668 339.705C566.084 340.208 566.68 340.459 567.457 340.459C568.628 340.459 569.404 339.984 569.787 339.032H570.903C570.706 339.819 570.312 340.421 569.722 340.837C569.142 341.242 568.387 341.444 567.457 341.444ZM567.457 333.994C566.757 333.994 566.194 334.218 565.767 334.667C565.34 335.105 565.1 335.75 565.045 336.603H569.869C569.815 335.717 569.568 335.061 569.131 334.634C568.704 334.207 568.146 333.994 567.457 333.994ZM573.283 333.124H574.366V336.652H578.928V333.124H580.011V341.329H578.928V337.637H574.366V341.329H573.283V333.124ZM585.837 341.444C585.312 341.444 584.831 341.356 584.393 341.181C583.956 341.006 583.584 340.755 583.277 340.427C582.971 340.087 582.731 339.677 582.555 339.196C582.391 338.704 582.309 338.14 582.309 337.506V336.948C582.309 336.324 582.391 335.766 582.555 335.274C582.731 334.782 582.971 334.372 583.277 334.043C583.595 333.704 583.967 333.447 584.393 333.272C584.831 333.097 585.312 333.01 585.837 333.01C586.362 333.01 586.844 333.097 587.281 333.272C587.719 333.447 588.091 333.704 588.397 334.043C588.703 334.383 588.939 334.804 589.103 335.307C589.278 335.799 589.365 336.374 589.365 337.03V337.522H583.425C583.425 338.474 583.633 339.201 584.049 339.705C584.464 340.208 585.061 340.459 585.837 340.459C587.008 340.459 587.785 339.984 588.167 339.032H589.283C589.086 339.819 588.693 340.421 588.102 340.837C587.522 341.242 586.767 341.444 585.837 341.444ZM585.837 333.994C585.137 333.994 584.574 334.218 584.147 334.667C583.721 335.105 583.48 335.75 583.425 336.603H588.249C588.195 335.717 587.949 335.061 587.511 334.634C587.084 334.207 586.527 333.994 585.837 333.994ZM590.436 340.345H591.339C591.514 340.071 591.656 339.792 591.766 339.508C591.886 339.223 591.979 338.901 592.044 338.54C592.121 338.179 592.17 337.763 592.192 337.292C592.225 336.811 592.241 336.242 592.241 335.586V333.124H597.821V340.345H598.887V343.462H597.837V341.329H591.487V343.462H590.436V340.345ZM596.738 340.345V334.109H593.292V335.586C593.292 336.177 593.281 336.696 593.259 337.145C593.237 337.593 593.199 338.003 593.144 338.375C593.089 338.736 593.013 339.076 592.914 339.393C592.816 339.699 592.695 340.005 592.553 340.312V340.345H596.738ZM602.388 337.013L600.025 333.124H601.239L603.258 336.57H604.734V333.124H605.817V336.57H607.294L609.313 333.124H610.527L608.164 337.013L610.691 341.329H609.444L607.294 337.555H605.817V341.329H604.734V337.555H603.258L601.108 341.329H599.861L602.388 337.013ZM615.291 341.444C614.766 341.444 614.284 341.356 613.847 341.181C613.409 341.006 613.037 340.755 612.731 340.427C612.424 340.087 612.184 339.677 612.009 339.196C611.845 338.704 611.763 338.14 611.763 337.506V336.948C611.763 336.324 611.845 335.766 612.009 335.274C612.184 334.782 612.424 334.372 612.731 334.043C613.048 333.704 613.42 333.447 613.847 333.272C614.284 333.097 614.766 333.01 615.291 333.01C615.816 333.01 616.297 333.097 616.735 333.272C617.172 333.447 617.544 333.704 617.85 334.043C618.157 334.383 618.392 334.804 618.556 335.307C618.731 335.799 618.819 336.374 618.819 337.03V337.522H612.878C612.878 338.474 613.086 339.201 613.502 339.705C613.918 340.208 614.514 340.459 615.291 340.459C616.461 340.459 617.238 339.984 617.621 339.032H618.737C618.54 339.819 618.146 340.421 617.555 340.837C616.975 341.242 616.22 341.444 615.291 341.444ZM615.291 333.994C614.59 333.994 614.027 334.218 613.6 334.667C613.174 335.105 612.933 335.75 612.878 336.603H617.703C617.648 335.717 617.402 335.061 616.964 334.634C616.538 334.207 615.98 333.994 615.291 333.994ZM621.117 333.124H621.97L622.101 334.355H622.134C622.495 333.885 622.894 333.546 623.332 333.338C623.769 333.119 624.284 333.01 624.874 333.01C625.356 333.01 625.799 333.097 626.203 333.272C626.608 333.436 626.953 333.688 627.237 334.027C627.533 334.355 627.762 334.765 627.926 335.258C628.09 335.75 628.173 336.313 628.173 336.948V337.506C628.173 338.14 628.09 338.704 627.926 339.196C627.762 339.677 627.533 340.087 627.237 340.427C626.942 340.755 626.592 341.006 626.187 341.181C625.782 341.356 625.345 341.444 624.874 341.444C623.693 341.444 622.812 341.023 622.232 340.18H622.2V344.611H621.117V333.124ZM624.628 340.459C625.35 340.459 625.935 340.219 626.384 339.737C626.832 339.245 627.057 338.501 627.057 337.506V336.948C627.057 335.974 626.827 335.241 626.367 334.749C625.919 334.246 625.339 333.994 624.628 333.994C623.906 333.994 623.321 334.24 622.872 334.733C622.424 335.214 622.2 335.952 622.2 336.948V337.506C622.2 338.479 622.424 339.218 622.872 339.721C623.332 340.213 623.917 340.459 624.628 340.459Z" fill="white"/>
<g filter="url(#filter1_dddd_8025_468)">
<g filter="url(#filter2_dddd_8025_468)">
<rect x="84.9111" y="286.329" width="350" height="70" rx="9.8903" fill="white"/>
<rect x="149.911" y="318.329" width="217" height="6" rx="3" fill="#F6F6F8"/>
<rect x="149.911" y="329.329" width="126" height="6" rx="3" fill="#F6F6F8"/>
<rect x="149.911" y="307.329" width="236" height="6" rx="3" fill="#F6F6F8"/>
<circle cx="408.411" cy="318.829" r="7.5" fill="#ADDFAC"/>
<path d="M404.911 319.329L406.911 321.329L411.911 316.329" stroke="white" stroke-linecap="round" stroke-linejoin="round"/>
<rect x="99.9111" y="301.329" width="40" height="40" rx="10" fill="url(#paint5_linear_8025_468)"/>
<path d="M121.727 319.75C121.616 319.75 121.527 319.661 121.527 319.55V311.933C121.527 311.74 121.281 311.659 121.166 311.814L113.505 322.11C113.26 322.439 113.495 322.908 113.906 322.908H118.096C118.206 322.908 118.296 322.998 118.296 323.108V330.725C118.296 330.918 118.541 330.999 118.656 330.845L126.317 320.549C126.562 320.219 126.327 319.75 125.916 319.75H121.727Z" fill="white" stroke="white" stroke-width="1.5"/>
</g>
</g>
<defs>
<filter id="filter0_dddd_8025_468" x="167" y="-1.23978e-05" width="569.823" height="700.519" filterUnits="userSpaceOnUse" color-interpolation-filters="sRGB">
<feFlood flood-opacity="0" result="BackgroundImageFix"/>
<feColorMatrix in="SourceAlpha" type="matrix" values="0 0 0 0 0 0 0 0 0 0 0 0 0 0 0 0 0 0 127 0" result="hardAlpha"/>
<feOffset dy="13.0633"/>
<feGaussianBlur stdDeviation="14.6962"/>
<feColorMatrix type="matrix" values="0 0 0 0 0 0 0 0 0 0 0 0 0 0 0 0 0 0 0.05 0"/>
<feBlend mode="normal" in2="BackgroundImageFix" result="effect1_dropShadow_8025_468"/>
<feColorMatrix in="SourceAlpha" type="matrix" values="0 0 0 0 0 0 0 0 0 0 0 0 0 0 0 0 0 0 127 0" result="hardAlpha"/>
<feOffset dy="52.2532"/>
<feGaussianBlur stdDeviation="26.1266"/>
<feColorMatrix type="matrix" values="0 0 0 0 0 0 0 0 0 0 0 0 0 0 0 0 0 0 0.04 0"/>
<feBlend mode="normal" in2="effect1_dropShadow_8025_468" result="effect2_dropShadow_8025_468"/>
<feColorMatrix in="SourceAlpha" type="matrix" values="0 0 0 0 0 0 0 0 0 0 0 0 0 0 0 0 0 0 127 0" result="hardAlpha"/>
<feOffset dy="119.203"/>
<feGaussianBlur stdDeviation="35.924"/>
<feColorMatrix type="matrix" values="0 0 0 0 0 0 0 0 0 0 0 0 0 0 0 0 0 0 0.03 0"/>
<feBlend mode="normal" in2="effect2_dropShadow_8025_468" result="effect3_dropShadow_8025_468"/>
<feColorMatrix in="SourceAlpha" type="matrix" values="0 0 0 0 0 0 0 0 0 0 0 0 0 0 0 0 0 0 127 0" result="hardAlpha"/>
<feOffset dy="212.278"/>
<feGaussianBlur stdDeviation="42.4557"/>
<feColorMatrix type="matrix" values="0 0 0 0 0 0 0 0 0 0 0 0 0 0 0 0 0 0 0.01 0"/>
<feBlend mode="normal" in2="effect3_dropShadow_8025_468" result="effect4_dropShadow_8025_468"/>
<feBlend mode="normal" in="SourceGraphic" in2="effect4_dropShadow_8025_468" result="shape"/>
</filter>
<filter id="filter1_dddd_8025_468" x="-0.00025177" y="270" width="519.823" height="383.519" filterUnits="userSpaceOnUse" color-interpolation-filters="sRGB">
<feFlood flood-opacity="0" result="BackgroundImageFix"/>
<feColorMatrix in="SourceAlpha" type="matrix" values="0 0 0 0 0 0 0 0 0 0 0 0 0 0 0 0 0 0 127 0" result="hardAlpha"/>
<feOffset dy="13.0633"/>
<feGaussianBlur stdDeviation="14.6962"/>
<feColorMatrix type="matrix" values="0 0 0 0 0 0 0 0 0 0 0 0 0 0 0 0 0 0 0.05 0"/>
<feBlend mode="normal" in2="BackgroundImageFix" result="effect1_dropShadow_8025_468"/>
<feColorMatrix in="SourceAlpha" type="matrix" values="0 0 0 0 0 0 0 0 0 0 0 0 0 0 0 0 0 0 127 0" result="hardAlpha"/>
<feOffset dy="52.2532"/>
<feGaussianBlur stdDeviation="26.1266"/>
<feColorMatrix type="matrix" values="0 0 0 0 0 0 0 0 0 0 0 0 0 0 0 0 0 0 0.04 0"/>
<feBlend mode="normal" in2="effect1_dropShadow_8025_468" result="effect2_dropShadow_8025_468"/>
<feColorMatrix in="SourceAlpha" type="matrix" values="0 0 0 0 0 0 0 0 0 0 0 0 0 0 0 0 0 0 127 0" result="hardAlpha"/>
<feOffset dy="119.203"/>
<feGaussianBlur stdDeviation="35.924"/>
<feColorMatrix type="matrix" values="0 0 0 0 0 0 0 0 0 0 0 0 0 0 0 0 0 0 0.03 0"/>
<feBlend mode="normal" in2="effect2_dropShadow_8025_468" result="effect3_dropShadow_8025_468"/>
<feColorMatrix in="SourceAlpha" type="matrix" values="0 0 0 0 0 0 0 0 0 0 0 0 0 0 0 0 0 0 127 0" result="hardAlpha"/>
<feOffset dy="212.278"/>
<feGaussianBlur stdDeviation="42.4557"/>
<feColorMatrix type="matrix" values="0 0 0 0 0 0 0 0 0 0 0 0 0 0 0 0 0 0 0.01 0"/>
<feBlend mode="normal" in2="effect3_dropShadow_8025_468" result="effect4_dropShadow_8025_468"/>
<feBlend mode="normal" in="SourceGraphic" in2="effect4_dropShadow_8025_468" result="shape"/>
</filter>
<filter id="filter2_dddd_8025_468" x="-0.00025177" y="270" width="519.823" height="383.519" filterUnits="userSpaceOnUse" color-interpolation-filters="sRGB">
<feFlood flood-opacity="0" result="BackgroundImageFix"/>
<feColorMatrix in="SourceAlpha" type="matrix" values="0 0 0 0 0 0 0 0 0 0 0 0 0 0 0 0 0 0 127 0" result="hardAlpha"/>
<feOffset dy="13.0633"/>
<feGaussianBlur stdDeviation="14.6962"/>
<feColorMatrix type="matrix" values="0 0 0 0 0 0 0 0 0 0 0 0 0 0 0 0 0 0 0.05 0"/>
<feBlend mode="normal" in2="BackgroundImageFix" result="effect1_dropShadow_8025_468"/>
<feColorMatrix in="SourceAlpha" type="matrix" values="0 0 0 0 0 0 0 0 0 0 0 0 0 0 0 0 0 0 127 0" result="hardAlpha"/>
<feOffset dy="52.2532"/>
<feGaussianBlur stdDeviation="26.1266"/>
<feColorMatrix type="matrix" values="0 0 0 0 0 0 0 0 0 0 0 0 0 0 0 0 0 0 0.04 0"/>
<feBlend mode="normal" in2="effect1_dropShadow_8025_468" result="effect2_dropShadow_8025_468"/>
<feColorMatrix in="SourceAlpha" type="matrix" values="0 0 0 0 0 0 0 0 0 0 0 0 0 0 0 0 0 0 127 0" result="hardAlpha"/>
<feOffset dy="119.203"/>
<feGaussianBlur stdDeviation="35.924"/>
<feColorMatrix type="matrix" values="0 0 0 0 0 0 0 0 0 0 0 0 0 0 0 0 0 0 0.03 0"/>
<feBlend mode="normal" in2="effect2_dropShadow_8025_468" result="effect3_dropShadow_8025_468"/>
<feColorMatrix in="SourceAlpha" type="matrix" values="0 0 0 0 0 0 0 0 0 0 0 0 0 0 0 0 0 0 127 0" result="hardAlpha"/>
<feOffset dy="212.278"/>
<feGaussianBlur stdDeviation="42.4557"/>
<feColorMatrix type="matrix" values="0 0 0 0 0 0 0 0 0 0 0 0 0 0 0 0 0 0 0.01 0"/>
<feBlend mode="normal" in2="effect3_dropShadow_8025_468" result="effect4_dropShadow_8025_468"/>
<feBlend mode="normal" in="SourceGraphic" in2="effect4_dropShadow_8025_468" result="shape"/>
</filter>
<linearGradient id="paint0_linear_8025_468" x1="200" y1="0" x2="200" y2="284" gradientUnits="userSpaceOnUse">
<stop stop-color="#F3F3F9"/>
<stop offset="1" stop-color="#EBEBF5"/>
</linearGradient>
<linearGradient id="paint1_linear_8025_468" x1="200" y1="0" x2="200" y2="284" gradientUnits="userSpaceOnUse">
<stop stop-color="#F3F3F9"/>
<stop offset="1" stop-color="#EBEBF5"/>
</linearGradient>
<linearGradient id="paint2_linear_8025_468" x1="483.911" y1="135.829" x2="418.911" y2="135.829" gradientUnits="userSpaceOnUse">
<stop stop-color="#5F73FE"/>
<stop offset="1" stop-color="#798AFF" stop-opacity="0.894118"/>
</linearGradient>
<linearGradient id="paint3_linear_8025_468" x1="522.127" y1="311.359" x2="497.911" y2="311.359" gradientUnits="userSpaceOnUse">
<stop stop-color="#5F73FE"/>
<stop offset="1" stop-color="#798AFF" stop-opacity="0.894118"/>
</linearGradient>
<linearGradient id="paint4_linear_8025_468" x1="649.911" y1="335.829" x2="528.911" y2="335.829" gradientUnits="userSpaceOnUse">
<stop stop-color="#5F73FE"/>
<stop offset="1" stop-color="#798AFF" stop-opacity="0.894118"/>
</linearGradient>
<linearGradient id="paint5_linear_8025_468" x1="139.911" y1="321.329" x2="99.9111" y2="321.329" gradientUnits="userSpaceOnUse">
<stop stop-color="#5F73FE"/>
<stop offset="1" stop-color="#798AFF" stop-opacity="0.894118"/>
</linearGradient>
</defs>
</svg>
