<svg width="24" height="24" viewBox="0 0 24 24" fill="none" xmlns="http://www.w3.org/2000/svg">
<path fill-rule="evenodd" clip-rule="evenodd" d="M14.0002 8.00176C13.9993 9.1061 13.1034 10.0006 11.9991 10C10.8947 9.99935 9.99992 9.10376 10.0002 7.99942C10.0006 6.89507 10.8959 6 12.0002 6C12.5309 6.00023 13.0397 6.21126 13.4148 6.58666C13.7899 6.96207 14.0005 7.47109 14.0002 8.00176Z" fill="white" stroke="white" stroke-width="1.1" stroke-linecap="round" stroke-linejoin="round"/>
<path fill-rule="evenodd" clip-rule="evenodd" d="M14.4969 13H10.5036C9.10851 13.0424 8.00024 14.1492 8.00024 15.5C8.00024 16.8508 9.10851 17.9576 10.5036 18H14.4969C15.892 17.9576 17.0002 16.8508 17.0002 15.5C17.0002 14.1492 15.892 13.0424 14.4969 13V13Z" fill="white" stroke="white" stroke-width="1.1" stroke-linecap="round" stroke-linejoin="round"/>
<path fill-rule="evenodd" clip-rule="evenodd" d="M19 9.50086C18.9995 10.3292 18.3277 11.0003 17.4994 11C16.6711 10.9997 15.9998 10.328 16 9.49971C16.0002 8.6714 16.6717 8 17.5 8C17.898 8 18.2796 8.15815 18.561 8.43964C18.8423 8.72113 19.0002 9.10289 19 9.50086V9.50086Z" fill="white" stroke="white" stroke-width="1.1" stroke-linecap="round" stroke-linejoin="round"/>
<path fill-rule="evenodd" clip-rule="evenodd" d="M5.00024 9.5C5.00024 10.3284 5.67182 11 6.50024 11C7.32867 11 8.00024 10.3284 8.00024 9.5C8.00024 8.67157 7.32867 8 6.50024 8C5.67182 8 5.00024 8.67157 5.00024 9.5V9.5Z" fill="white" stroke="white" stroke-width="1.1" stroke-linecap="round" stroke-linejoin="round"/>
<path d="M17.9338 12.8089C17.6301 12.8089 17.3838 13.0551 17.3838 13.3589C17.3838 13.6626 17.6301 13.9089 17.9338 13.9089V13.3589V12.8089ZM19.0516 13.3589L19.063 12.8089H19.0516V13.3589ZM19.0516 17.3366V17.8867L19.063 17.8865L19.0516 17.3366ZM17.9338 16.7866C17.6301 16.7866 17.3838 17.0328 17.3838 17.3366C17.3838 17.6404 17.6301 17.8866 17.9338 17.8866V17.3366V16.7866ZM6.08757 13.9089C6.39132 13.9089 6.63757 13.6626 6.63757 13.3589C6.63757 13.0551 6.39132 12.8089 6.08757 12.8089V13.3589V13.9089ZM4.96977 13.3589V12.8088L4.95837 12.809L4.96977 13.3589ZM4.96977 17.3366L4.95836 17.8866H4.96977V17.3366ZM6.08757 17.8866C6.39132 17.8866 6.63757 17.6404 6.63757 17.3366C6.63757 17.0328 6.39132 16.7866 6.08757 16.7866V17.3366V17.8866ZM17.9338 13.3589V13.9089H19.0516V13.3589V12.8089H17.9338V13.3589ZM19.0516 13.3589L19.0402 13.9088C19.8233 13.925 20.4497 14.5645 20.4497 15.3477H20.9997H21.5497C21.5497 13.9659 20.4446 12.8377 19.063 12.809L19.0516 13.3589ZM20.9997 15.3477H20.4497C20.4497 16.131 19.8233 16.7705 19.0402 16.7867L19.0516 17.3366L19.063 17.8865C20.4446 17.8578 21.5497 16.7296 21.5497 15.3477H20.9997ZM19.0516 17.3366V16.7866H17.9338V17.3366V17.8866H19.0516V17.3366ZM6.08757 13.3589V12.8089H4.96977V13.3589V13.9089H6.08757V13.3589ZM4.96977 13.3589L4.95837 12.809C3.57677 12.8377 2.47173 13.9659 2.47173 15.3477H3.02173H3.57173C3.57173 14.5645 4.19808 13.925 4.98117 13.9088L4.96977 13.3589ZM3.02173 15.3477H2.47173C2.47173 16.7296 3.57677 17.8578 4.95837 17.8865L4.96977 17.3366L4.98117 16.7867C4.19808 16.7705 3.57173 16.131 3.57173 15.3477H3.02173ZM4.96977 17.3366V17.8866H6.08757V17.3366V16.7866H4.96977V17.3366Z" fill="white"/>
</svg>
