<svg width="24" height="24" viewBox="0 0 24 24" fill="none" xmlns="http://www.w3.org/2000/svg">
<path fill-rule="evenodd" clip-rule="evenodd" d="M10.1483 5H13.8588C14.8091 5 14.2872 6.42593 13.9025 7.29571L13.4646 8.29317L13.4055 8.42771C13.8202 8.40759 14.2303 8.52244 14.5743 8.75506C15.8609 9.93233 16.9051 11.3497 17.6481 12.9274C17.9377 13.5109 18.0525 14.1655 17.9789 14.8127C17.8905 16.4622 16.5671 17.7766 14.9171 17.8539H9.08997C7.43949 17.7789 6.11417 16.4658 6.02389 14.8161C5.95023 14.169 6.06509 13.5143 6.35466 12.9309C7.09856 11.3515 8.14422 9.93295 9.43275 8.75506C9.77672 8.52244 10.1868 8.40759 10.6016 8.42771L10.533 8.27261L10.1046 7.29571C9.72153 6.42593 9.19709 5 10.1483 5Z" fill="white" stroke="white" stroke-linecap="round" stroke-linejoin="round"/>
<path d="M13.4057 8.92773C13.6818 8.92773 13.9057 8.70387 13.9057 8.42773C13.9057 8.15159 13.6818 7.92773 13.4057 7.92773V8.42773V8.92773ZM10.6018 7.92773C10.3257 7.92773 10.1018 8.15159 10.1018 8.42773C10.1018 8.70387 10.3257 8.92773 10.6018 8.92773V8.42773V7.92773ZM15.6767 8.00673C15.9175 7.8715 16.003 7.5667 15.8678 7.32593C15.7326 7.08517 15.4278 6.99961 15.187 7.13484L15.4318 7.57078L15.6767 8.00673ZM13.4652 8.29317L13.5593 8.78423L13.5607 8.78396L13.4652 8.29317ZM10.5336 8.27261L10.6347 7.7829L10.6302 7.78202L10.5336 8.27261ZM8.81359 7.13062C8.5705 6.99963 8.26724 7.09051 8.13625 7.33361C8.00526 7.5767 8.09614 7.87996 8.33924 8.01095L8.57642 7.57078L8.81359 7.13062ZM13.4057 8.42773V7.92773H10.6018V8.42773V8.92773H13.4057V8.42773ZM15.4318 7.57078L15.187 7.13484C14.6207 7.4529 14.0072 7.67827 13.3696 7.80239L13.4652 8.29317L13.5607 8.78396C14.303 8.63944 15.0174 8.37705 15.6767 8.00673L15.4318 7.57078ZM13.4652 8.29317L13.371 7.80212C12.4665 7.97554 11.5367 7.96901 10.6347 7.78292L10.5336 8.27261L10.4326 8.7623C11.4633 8.97493 12.5258 8.98239 13.5593 8.78423L13.4652 8.29317ZM10.5336 8.27261L10.6302 7.78202C9.99547 7.65707 9.3831 7.43749 8.81359 7.13062L8.57642 7.57078L8.33924 8.01095C8.9969 8.36532 9.70407 8.6189 10.4371 8.76319L10.5336 8.27261Z" fill="#73CCE5"/>
</svg>
