<svg width="24" height="24" viewBox="0 0 24 24" fill="none" xmlns="http://www.w3.org/2000/svg">
<path d="M6.72095 19V16.7305H8.95589L7.11747 10.4135C6.79304 10.2244 6.52569 9.94702 6.31541 9.58137C6.10514 9.21572 6 8.82486 6 8.40877C6 7.77834 6.21028 7.24248 6.63083 6.80118C7.05138 6.35987 7.56205 6.13922 8.16284 6.13922C8.63146 6.13922 9.04901 6.28107 9.41549 6.56476C9.78197 6.84846 10.0373 7.21096 10.1815 7.65226H12.4885V6.89574C12.4885 6.68139 12.5576 6.50172 12.6958 6.35672C12.834 6.21172 13.0052 6.13922 13.2095 6.13922C13.3176 6.13922 13.4228 6.16444 13.5249 6.21488C13.627 6.26531 13.7141 6.34096 13.7862 6.44183L15.0118 5.2314C15.12 5.11793 15.2492 5.04543 15.3994 5.01391C15.5496 4.98239 15.6967 5.00445 15.8409 5.0801L18.6526 6.44183C18.7968 6.51748 18.896 6.62781 18.95 6.77281C19.0041 6.91781 19.0011 7.05965 18.941 7.19835C18.8689 7.34965 18.7638 7.44737 18.6256 7.4915C18.4874 7.53563 18.3522 7.52617 18.2201 7.46313L15.6247 6.21488L13.9304 7.87921V8.93833L15.6247 10.5648L18.2201 9.31659C18.3522 9.25355 18.4904 9.24724 18.6346 9.29768C18.7788 9.34811 18.8809 9.44268 18.941 9.58137C19.0131 9.73268 19.0191 9.87768 18.959 10.0164C18.899 10.1551 18.7968 10.2622 18.6526 10.3379L15.8409 11.7374C15.6967 11.8131 15.5496 11.8352 15.3994 11.8036C15.2492 11.7721 15.12 11.6996 15.0118 11.5861L13.7862 10.3757C13.7141 10.4514 13.627 10.5207 13.5249 10.5838C13.4228 10.6468 13.3176 10.6783 13.2095 10.6783C13.0052 10.6783 12.834 10.6058 12.6958 10.4608C12.5576 10.3158 12.4885 10.1362 12.4885 9.92181V9.16529H10.1815C10.1455 9.26616 10.1064 9.36072 10.0643 9.44898C10.0223 9.53724 9.96521 9.63181 9.89312 9.73268L13.4979 16.7305H16.0933V19H6.72095ZM8.16284 9.16529C8.36711 9.16529 8.53834 9.09279 8.67652 8.94779C8.8147 8.80279 8.88379 8.62312 8.88379 8.40877C8.88379 8.19443 8.8147 8.01475 8.67652 7.86976C8.53834 7.72476 8.36711 7.65226 8.16284 7.65226C7.95857 7.65226 7.78735 7.72476 7.64917 7.86976C7.51099 8.01475 7.4419 8.19443 7.4419 8.40877C7.4419 8.62312 7.51099 8.80279 7.64917 8.94779C7.78735 9.09279 7.95857 9.16529 8.16284 9.16529ZM10.4338 16.7305H11.8397L8.7396 10.6783C8.7396 10.6783 8.72759 10.6783 8.70355 10.6783C8.67952 10.6783 8.66751 10.6783 8.66751 10.6783L10.4338 16.7305Z" fill="white"/>
</svg>
