<svg width="40" height="40" viewBox="0 0 40 40" fill="none" xmlns="http://www.w3.org/2000/svg">
<path d="M6.66797 5.83326C6.66797 4.45254 7.78726 3.33325 9.16797 3.33325H17.5013C18.882 3.33325 20.0013 4.45254 20.0013 5.83325V19.1666C20.0013 20.5473 18.882 21.6666 17.5013 21.6666H6.66797V5.83326Z" fill="#6F81FE" stroke="#6F81FE" stroke-width="2.5"/>
<path d="M20 6.6665H30.0604C31.4225 6.6665 32.2095 8.21184 31.4083 9.31346L28.0925 13.8726C27.2425 15.0414 27.2425 16.6249 28.0925 17.7937L31.4083 22.3529C32.2095 23.4545 31.4225 24.9998 30.0604 24.9998H21.6667C20.7462 24.9998 20 24.2536 20 23.3332V6.6665Z" fill="#6F81FE" stroke="#6F81FE" stroke-width="2.5"/>
<path d="M6.66797 36.6667L6.66797 6.66675" stroke="#6F81FE" stroke-width="2.5" stroke-linecap="round" stroke-linejoin="round"/>
</svg>
