<svg width="31" height="31" viewBox="0 0 31 31" fill="none" xmlns="http://www.w3.org/2000/svg">
<path fill-rule="evenodd" clip-rule="evenodd" d="M26.1454 0.0328944C28.5552 -0.282008 30.5445 1.70802 30.2294 4.11786C29.7912 7.46751 28.5845 13.2016 25.1454 16.9098C24.0801 18.0584 22.798 19.1188 21.4794 20.0651L21.8563 22.7018C21.975 23.5331 21.6961 24.3727 21.1024 24.9665L16.5897 29.4782C15.0352 31.0321 12.3739 30.145 12.0624 27.9694L11.4735 23.8513C11.1061 23.6616 10.7646 23.4147 10.4647 23.1149L7.14732 19.7985C6.84716 19.4984 6.60077 19.1556 6.41099 18.7878L2.29283 18.1999C0.117102 17.8885 -0.769854 15.227 0.784038 13.6725L5.29673 9.16082C5.89051 8.56704 6.72911 8.28723 7.56041 8.40594L10.1961 8.78192C11.1425 7.4633 12.2039 6.18213 13.3524 5.11688C17.0609 1.6775 22.7958 0.470988 26.1454 0.0328944ZM8.8065 25.7048C9.29465 25.2169 10.086 25.2168 10.5741 25.7048C11.0618 26.1929 11.0618 26.9843 10.5741 27.4723L8.56919 29.4782C8.08115 29.9661 7.28878 29.966 6.80064 29.4782C6.31273 28.9902 6.31303 28.1988 6.80064 27.7106L8.8065 25.7048ZM5.79869 22.697C6.28687 22.2091 7.07821 22.2089 7.56626 22.697C8.05373 23.1851 8.05392 23.9766 7.56626 24.4645L3.55455 28.4763C3.06653 28.9635 2.27493 28.9636 1.78697 28.4763C1.29905 27.9883 1.29953 27.1969 1.78697 26.7087L5.79869 22.697ZM2.7899 19.6882C3.27799 19.2004 4.0694 19.2004 4.55748 19.6882C5.04535 20.1762 5.04526 20.9676 4.55748 21.4557L2.55259 23.4616C2.06449 23.9496 1.27216 23.9495 0.784038 23.4616C0.296315 22.9736 0.296491 22.1821 0.784038 21.694L2.7899 19.6882ZM21.7245 8.53973C20.6169 7.43217 18.8203 7.43217 17.7127 8.53973C16.6056 9.64729 16.6054 11.443 17.7127 12.5505C18.8203 13.658 20.6169 13.658 21.7245 12.5505C22.8318 11.443 22.8316 9.64729 21.7245 8.53973Z" fill="#6F81FE"/>
</svg>
