<svg width="40" height="40" viewBox="0 0 40 40" fill="none" xmlns="http://www.w3.org/2000/svg">
<path d="M18.3333 9.99992C18.3333 9.07944 17.5843 8.32252 16.671 8.43728C14.6229 8.69463 12.6546 9.42514 10.9257 10.5803C8.73307 12.0454 7.02411 14.1278 6.01494 16.5641C5.00577 19.0005 4.74173 21.6814 5.2562 24.2678C5.77067 26.8542 7.04054 29.23 8.90524 31.0947C10.7699 32.9594 13.1457 34.2293 15.7321 34.7437C18.3185 35.2582 20.9994 34.9941 23.4358 33.985C25.8721 32.9758 27.9545 31.2668 29.4196 29.0742C30.5748 27.3453 31.3053 25.377 31.5626 23.329C31.6774 22.4157 30.9205 21.6666 30 21.6666H20.8333C19.4526 21.6666 18.3333 20.5473 18.3333 19.1666V9.99992Z" fill="#6F81FE"/>
<path d="M23.3333 6.66667C23.3333 5.74619 24.0833 4.9878 24.9943 5.11885C25.9552 5.25705 26.8971 5.51494 27.798 5.88807C29.2134 6.47438 30.4996 7.33374 31.5829 8.41709C32.6663 9.50044 33.5256 10.7866 34.1119 12.202C34.4851 13.1029 34.743 14.0448 34.8812 15.0057C35.0122 15.9167 34.2538 16.6667 33.3333 16.6667L25 16.6667C24.0795 16.6667 23.3333 15.9205 23.3333 15V6.66667Z" fill="#6F81FE"/>
</svg>
