<svg width="40" height="40" viewBox="0 0 40 40" fill="none" xmlns="http://www.w3.org/2000/svg">
<path d="M30.001 6.6665C33.6827 6.66668 36.667 9.65171 36.667 13.3335V15.3707C36.667 15.6877 36.4414 15.9554 36.1417 16.0588C34.5081 16.6226 33.335 18.1744 33.335 19.9995C33.335 21.8246 34.5082 23.3756 36.1417 23.9392C36.4414 24.0426 36.667 24.3103 36.667 24.6273V26.6665C36.667 30.3483 33.6827 33.3333 30.001 33.3335H10.001C6.31908 33.3335 3.33398 30.3484 3.33398 26.6665V24.6275C3.33398 24.3104 3.5597 24.0427 3.8595 23.9394C5.49379 23.3761 6.66797 21.8251 6.66797 19.9995C6.6679 18.1739 5.49385 16.622 3.85953 16.0587C3.55973 15.9554 3.33398 15.6876 3.33398 15.3705V13.3335C3.33398 9.6516 6.31908 6.6665 10.001 6.6665H30.001Z" fill="#6F81FE"/>
<circle cx="16.334" cy="16.3305" r="1.31923" transform="rotate(45 16.334 16.3305)" fill="#F7F7FA"/>
<circle cx="23.6699" cy="23.6684" r="1.31923" transform="rotate(45 23.6699 23.6684)" fill="#F7F7FA"/>
<path d="M16.2702 23.7308L23.7329 16.2681" stroke="#F7F7FA" stroke-width="2.5" stroke-linecap="round" stroke-linejoin="round"/>
</svg>
