<svg width="24" height="26" viewBox="0 0 24 26" fill="none" xmlns="http://www.w3.org/2000/svg">
<path fill-rule="evenodd" clip-rule="evenodd" d="M4.62109 4.62358C4.62109 1.69586 7.08255 0.750928 10.1187 0.750928H17.7091C19.1415 0.724389 20.5258 1.26797 21.5574 2.26209C22.5889 3.25621 23.1834 4.61942 23.2098 6.05181V12.4897C23.2098 15.4174 22.4353 17.7906 19.3372 17.7906" fill="white"/>
<path d="M3.87109 4.62358C3.87109 5.03779 4.20688 5.37358 4.62109 5.37358C5.03531 5.37358 5.37109 5.03779 5.37109 4.62358H4.62109H3.87109ZM17.7091 0.750928V1.50106L17.723 1.5008L17.7091 0.750928ZM21.5574 2.26209L21.0369 2.80214V2.80214L21.5574 2.26209ZM23.2098 6.05181H23.9599L23.9597 6.03796L23.2098 6.05181ZM19.3372 17.0406C18.923 17.0406 18.5872 17.3764 18.5872 17.7906C18.5872 18.2048 18.923 18.5406 19.3372 18.5406V17.7906V17.0406ZM4.62109 4.62358H5.37109C5.37109 3.41549 5.85493 2.69389 6.61971 2.23097C7.44268 1.73284 8.65494 1.50093 10.1187 1.50093V0.750928V0.000928044C8.54632 0.000928044 7.00977 0.241484 5.84298 0.947741C4.61798 1.68922 3.87109 2.90395 3.87109 4.62358H4.62109ZM10.1187 0.750928V1.50093H17.7091V0.750928V0.000928044H10.1187V0.750928ZM17.7091 0.750928L17.723 1.5008C18.9565 1.47795 20.1486 1.94605 21.0369 2.80214L21.5574 2.26209L22.0778 1.72204C20.903 0.589893 19.3265 -0.029167 17.6952 0.00105673L17.7091 0.750928ZM21.5574 2.26209L21.0369 2.80214C21.9253 3.65823 22.4372 4.83216 22.4599 6.06566L23.2098 6.05181L23.9597 6.03796C23.9296 4.40668 23.2526 2.85419 22.0778 1.72204L21.5574 2.26209ZM23.2098 6.05181H22.4598V12.4897H23.2098H23.9598V6.05181H23.2098ZM23.2098 12.4897H22.4598C22.4598 13.9164 22.2655 15.0706 21.7937 15.8496C21.3647 16.558 20.6563 17.0406 19.3372 17.0406V17.7906V18.5406C21.1162 18.5406 22.344 17.8366 23.0768 16.6265C23.7669 15.487 23.9598 13.9907 23.9598 12.4897H23.2098Z" fill="#6F81FE"/>
<path fill-rule="evenodd" clip-rule="evenodd" d="M0.75 16.6444C0.773018 19.6588 3.23317 22.085 6.24762 22.0661H6.99271L9.19548 24.3897C9.41897 24.6202 9.72636 24.7504 10.0475 24.7504C10.3686 24.7504 10.6759 24.6202 10.8994 24.3897L13.1022 22.0661H13.8473C16.8593 22.0815 19.3157 19.6564 19.3387 16.6444V10.0454C19.3157 7.03096 16.8556 4.60477 13.8411 4.62367H6.25071C3.23506 4.60306 0.773016 7.02974 0.75 10.0454L0.75 16.6444Z" fill="white" stroke="#6F81FE" stroke-width="1.5" stroke-linecap="round" stroke-linejoin="round"/>
<path d="M5.39648 11.5944H14.3268" stroke="#6F81FE" stroke-linecap="round"/>
<path d="M6.51172 14.8595H13.2083" stroke="#6F81FE" stroke-linecap="round"/>
</svg>
