<svg width="26" height="26" viewBox="0 0 26 26" fill="none" xmlns="http://www.w3.org/2000/svg">
<path fill-rule="evenodd" clip-rule="evenodd" d="M17.9996 0H8.0007C5.86698 0.0117884 3.82534 0.870726 2.32494 2.38785C0.824534 3.90497 -0.0117296 5.956 0.000124321 8.08971V17.9103C-0.0117296 20.044 0.824534 22.095 2.32494 23.6122C3.82534 25.1293 5.86698 25.9882 8.0007 26H17.9996C20.1333 25.9882 22.1749 25.1293 23.6753 23.6122C25.1757 22.095 26.012 20.044 26.0001 17.9103V8.08971C26.012 5.956 25.1757 3.90497 23.6753 2.38785C22.1749 0.870726 20.1333 0.0117884 17.9996 0Z" fill="#6F81FE"/>
<path fill-rule="evenodd" clip-rule="evenodd" d="M14.2695 10.2686H20.4835V16.4621" fill="#6F81FE"/>
<path d="M14.2695 10.2686H20.4835V16.4621" stroke="white" stroke-width="1.5" stroke-linecap="round" stroke-linejoin="round"/>
<path fill-rule="evenodd" clip-rule="evenodd" d="M20.4835 10.2686L12.6835 18.2914C12.0004 18.9742 10.908 19.0194 10.1708 18.3954L8.49939 16.9747C8.10974 16.6436 7.60081 16.4878 7.09258 16.544C6.58435 16.6003 6.1218 16.8636 5.81396 17.2718C5.74153 17.3684 5.67096 17.4668 5.58925 17.556L1.26953 22.2861" fill="#6F81FE"/>
<path d="M20.4835 10.2686L12.6835 18.2914C12.0004 18.9742 10.908 19.0194 10.1708 18.3954L8.49939 16.9747C8.10974 16.6436 7.60081 16.4878 7.09258 16.544C6.58435 16.6003 6.1218 16.8636 5.81396 17.2718C5.74153 17.3684 5.67096 17.4668 5.58925 17.556L1.26953 22.2861" stroke="white" stroke-width="1.5" stroke-linecap="round" stroke-linejoin="round"/>
</svg>
