<svg width="26" height="26" viewBox="0 0 26 26" fill="none" xmlns="http://www.w3.org/2000/svg">
<path d="M21.9865 0.0265083C23.9231 -0.226688 25.5191 1.3692 25.2658 3.30581C24.8955 6.13666 23.8803 10.9459 21.0061 14.0451C20.0918 15.0308 18.9854 15.9399 17.8498 16.7492L18.1818 19.0753C18.2751 19.7295 18.0544 20.3903 17.5871 20.8576L13.7697 24.6759C12.5462 25.8992 10.4504 25.2001 10.2053 23.4874L9.69649 19.924L9.70235 19.922C9.37634 19.7646 9.0721 19.5543 8.80879 19.2912L6.00215 16.4835C5.73849 16.2198 5.52685 15.9156 5.36934 15.589L5.36836 15.5968L1.80489 15.0871C0.0920293 14.8421 -0.606066 12.7462 0.617387 11.5226L4.43477 7.70522C4.90216 7.23783 5.56362 7.01799 6.21797 7.11147L8.54219 7.44252C9.35159 6.30671 10.2623 5.20165 11.2482 4.28725C14.3474 1.41304 19.1557 0.396811 21.9865 0.0265083ZM7.4045 21.7052C7.75586 21.3539 8.32644 21.3541 8.67793 21.7052C9.02913 22.0567 9.02931 22.6273 8.67793 22.9787L6.98164 24.6759C6.6303 25.027 6.05963 25.0269 5.70821 24.6759C5.35682 24.3245 5.357 23.754 5.70821 23.4025L7.4045 21.7052ZM4.85957 19.1603C5.21105 18.8088 5.78154 18.8088 6.13301 19.1603C6.48386 19.5118 6.4833 20.0815 6.13204 20.4328L2.73848 23.8273C2.3872 24.1784 1.81747 24.1781 1.46602 23.8273C1.11458 23.4758 1.11464 22.9053 1.46602 22.5539L4.85957 19.1603ZM2.31465 16.6154C2.66608 16.264 3.23563 16.2631 3.58711 16.6144C3.93813 16.9659 3.93843 17.5365 3.58711 17.8878L1.88985 19.5841C1.5385 19.9352 0.968806 19.9351 0.617387 19.5841C0.266142 19.2327 0.266228 18.6631 0.617387 18.3117L2.31465 16.6154ZM18.2238 7.0685C17.2866 6.13124 15.7675 6.13124 14.8303 7.0685C13.893 8.00576 13.893 9.5248 14.8303 10.4621C15.7675 11.3993 17.2866 11.3993 18.2238 10.4621C19.1611 9.5248 19.1611 8.00576 18.2238 7.0685Z" fill="white"/>
</svg>
