<svg width="40" height="40" viewBox="0 0 40 40" fill="none" xmlns="http://www.w3.org/2000/svg">
<path d="M4.35963 30.1496C3.73855 29.8908 3.33398 29.284 3.33398 28.6111V10.2778L18.7186 3.86753C19.5391 3.52565 20.4622 3.52565 21.2827 3.86753L28.334 6.80557L36.6673 10.2778V28.6111C36.6673 29.284 36.2628 29.8908 35.6417 30.1496L20.0007 36.6667L4.35963 30.1496Z" fill="#6F81FE"/>
<path d="M28.334 6.80557L21.2827 3.86753C20.4622 3.52565 19.5391 3.52565 18.7186 3.86753L3.33398 10.2778V28.6111C3.33398 29.284 3.73855 29.8908 4.35963 30.1496L20.0007 36.6667L35.6417 30.1496C36.2628 29.8908 36.6673 29.284 36.6673 28.6111V10.2778L28.334 6.80557ZM20.0007 17.2222L11.6673 13.75L3.33398 10.2778M20.0007 17.2222V36.6667M20.0007 17.2222L36.6673 10.2778M11.6673 13.75L28.334 6.80557" stroke="#F7F7FA" stroke-width="2.5" stroke-linejoin="round"/>
</svg>
