<svg width="136" height="40" viewBox="0 0 136 40" fill="none" xmlns="http://www.w3.org/2000/svg">
<rect x="96" width="40" height="40" rx="10" fill="url(#paint0_linear_4415_4246)"/>
<path fill-rule="evenodd" clip-rule="evenodd" d="M106 25.2395C106 25.6432 106.243 26.0073 106.615 26.1626L115.25 29.7603V18.9027L110.209 16.764L106 15.0102V25.2395ZM107.025 13.8123L110.494 15.2575L119.278 11.4385L116.769 10.3933C116.277 10.1882 115.723 10.1882 115.231 10.3933L107.025 13.8123ZM121.199 12.2389L112.4 16.0642L115.995 17.5892L124.777 13.7301L121.199 12.2389ZM126 14.8312L116.75 18.8958V29.7604L125.385 26.1626C125.757 26.0073 126 25.6432 126 25.2395V14.8312Z" fill="#F7F8FC"/>
<path d="M60.2218 19.7782H75.7782M68.7071 26.8492L75.7782 19.7782L68.7071 12.7071" stroke="#C9CBD6" stroke-linecap="round" stroke-linejoin="round"/>
<rect width="40" height="40" rx="10" fill="white"/>
<path fill-rule="evenodd" clip-rule="evenodd" d="M14 16C14 14.9743 14.9743 14 16 14H22C22.4752 14 22.655 14.3268 23 14L27 10C28.2188 8.84536 27.6789 7 26 7L9 7C7.97432 7 7 7.9743 7 9L7 26C7 27.6789 8.84538 28.2188 10 27L14 23C14.3268 22.655 14 22.4752 14 22V16Z" fill="#C9CBD6"/>
<path d="M33 31C33 32.0257 32.0257 33 31 33H14C12.3455 33 11.8301 31.17 13 30L17 26C17.3483 25.6517 17 24.4926 17 24V19C17 17.9743 17.9743 17 19 17H24C24.4925 17 25.6517 17.3483 26 17L30 13C31.1699 11.83 33 12.3454 33 14V31Z" fill="#C9CBD6"/>
<defs>
<linearGradient id="paint0_linear_4415_4246" x1="136" y1="20" x2="96" y2="20" gradientUnits="userSpaceOnUse">
<stop stop-color="#5F73FE"/>
<stop offset="1" stop-color="#798AFF" stop-opacity="0.894118"/>
</linearGradient>
</defs>
</svg>
