<svg width="179" height="28" viewBox="0 0 179 28" fill="none" xmlns="http://www.w3.org/2000/svg">
<g clip-path="url(#clip0_4202_708)">
<path d="M47.0902 17.8505H47.1901L51.9051 6.47222H56.2804L49.2479 22.5278H45.0324L38 6.47222H42.3953L47.0902 17.8505Z" fill="#6F81FE"/>
<path d="M62.6588 9.93519C65.1761 9.93519 67.0608 10.5048 68.3128 11.6442C69.5648 12.7685 70.1907 14.3726 70.1907 16.4563C70.1907 18.5551 69.5648 20.1667 68.3128 21.291C67.0608 22.4153 65.1761 22.9775 62.6588 22.9775C60.1415 22.9775 58.2569 22.4153 57.0049 21.291C55.7529 20.1667 55.1269 18.5551 55.1269 16.4563C55.1269 14.3726 55.7529 12.7685 57.0049 11.6442C58.2569 10.5048 60.1415 9.93519 62.6588 9.93519ZM62.6588 19.9643C65.1095 19.9643 66.3349 18.795 66.3349 16.4563C66.3349 14.1327 65.1095 12.9709 62.6588 12.9709C60.2081 12.9709 58.9828 14.1327 58.9828 16.4563C58.9828 18.795 60.2081 19.9643 62.6588 19.9643Z" fill="#6F81FE"/>
<path d="M75.7854 10.4074V12.0265H75.8853C76.4979 11.3668 77.2172 10.8796 78.0429 10.5648C78.882 10.25 79.9009 10.0926 81.0997 10.0926C81.6324 10.0926 82.0853 10.1301 82.4582 10.205V14.1402C81.7656 14.0053 81.1063 13.9378 80.4803 13.9378C79.1218 13.9378 78.0096 14.2152 77.1439 14.7698C76.2782 15.3245 75.8453 16.3664 75.8453 17.8955V22.5278H72.1692V10.4074H75.7854Z" fill="#6F81FE"/>
<path d="M87.8037 12.004H87.9036C88.3831 11.3593 89.0157 10.8796 89.8016 10.5648C90.6007 10.25 91.4598 10.0926 92.3788 10.0926C94.4832 10.0926 95.8817 10.7447 96.5743 12.0489C97.1204 11.3893 97.8196 10.9021 98.672 10.5873C99.5245 10.2575 100.457 10.0926 101.469 10.0926C102.868 10.0926 104.006 10.4749 104.885 11.2394C105.764 11.989 106.204 13.1133 106.204 14.6124V22.5278H102.508V15.6918C102.508 14.1327 101.669 13.3532 99.9906 13.3532C99.1915 13.3532 98.4989 13.593 97.9129 14.0728C97.3268 14.5375 97.0338 15.2795 97.0338 16.2989V22.5278H93.3378V15.6918C93.3378 14.1327 92.4987 13.3532 90.8205 13.3532C90.0213 13.3532 89.3287 13.593 88.7427 14.0728C88.1567 14.5375 87.8636 15.2795 87.8636 16.2989V22.5278H84.1876V10.4074H87.8037V12.004Z" fill="#6F81FE"/>
<path d="M129.484 22.5278L126.627 11.5317H126.527L123.651 22.5278H119.075L114.56 6.47222H118.696L121.493 17.6257H121.613L124.49 6.47222H128.685L131.582 17.6257H131.682L134.479 6.47222H138.575L134.019 22.5278H129.484Z" fill="#6F81FE"/>
<path d="M160.107 22.5278H156.351V10.4524H156.251L151.576 22.5278H148.539L143.804 10.295H143.684V22.5278H140.108V6.47222H146.082L150.018 17.0635H150.138L154.013 6.47222H160.107V22.5278Z" fill="#6F81FE"/>
<path d="M174.225 11.3294C174.145 10.4749 173.766 9.87522 173.086 9.53042C172.42 9.18563 171.455 9.01323 170.189 9.01323C168.977 9.01323 168.085 9.16314 167.512 9.46296C166.94 9.76279 166.653 10.2125 166.653 10.8122C166.653 11.2919 166.813 11.6367 167.133 11.8466C167.452 12.0414 167.979 12.1839 168.711 12.2738L174.225 12.8135C175.797 12.9784 176.982 13.4356 177.781 14.1852C178.594 14.9347 179 16.0891 179 17.6481C179 19.0123 178.667 20.0917 178.001 20.8862C177.348 21.6658 176.403 22.213 175.164 22.5278C173.925 22.8426 172.354 23 170.449 23C168.611 23 167.086 22.8351 165.874 22.5053C164.662 22.1605 163.716 21.5608 163.037 20.7063C162.371 19.8519 162.018 18.6675 161.978 17.1534H166.254C166.36 18.2178 166.766 18.9524 167.472 19.3571C168.192 19.7469 169.237 19.9418 170.609 19.9418C171.968 19.9418 172.973 19.7769 173.626 19.4471C174.278 19.1173 174.605 18.6151 174.605 17.9405C174.605 17.3708 174.432 16.966 174.085 16.7262C173.752 16.4713 173.26 16.3064 172.607 16.2315L167.193 15.6243C165.608 15.4444 164.409 15.0097 163.597 14.3201C162.784 13.6305 162.378 12.5437 162.378 11.0595C162.378 9.24559 163.064 7.94885 164.436 7.16931C165.808 6.38977 167.772 6 170.329 6C172.9 6 174.891 6.39727 176.303 7.1918C177.715 7.98633 178.447 9.36552 178.501 11.3294H174.225Z" fill="#6F81FE"/>
<path fill-rule="evenodd" clip-rule="evenodd" d="M7.89474 9.89474C7.89474 8.79017 8.79017 7.89474 9.89474 7.89474H15.8697C16.3815 7.89474 16.8737 7.69858 17.2452 7.34664L21.3563 3.4519C22.6688 2.20847 21.7888 0 19.9808 0H2C0.89543 0 0 0.89543 0 2V19.9808C0 21.7888 2.20848 22.6688 3.45191 21.3563L7.34665 17.2452C7.69858 16.8737 7.89474 16.3814 7.89474 15.8697V9.89474Z" fill="#6F81FE"/>
<path fill-rule="evenodd" clip-rule="evenodd" d="M27.9998 25.9993C27.9998 27.1039 27.1044 27.9993 25.9998 27.9993H7.49522C5.71341 27.9993 4.82108 25.845 6.08101 24.5851L10.5253 20.1408C10.9004 19.7657 11.1111 19.257 11.1111 18.7266V13.1106C11.1111 12.0061 12.0066 11.1106 13.1111 11.1106H18.727C19.2575 11.1106 19.7662 10.8999 20.1413 10.5249L24.5856 6.08052C25.8455 4.82059 27.9998 5.71293 27.9998 7.49473V25.9993Z" fill="#6F81FE"/>
</g>
<defs>
<clipPath id="clip0_4202_708">
<rect width="179" height="28" fill="white"/>
</clipPath>
</defs>
</svg>
