<svg width="0" height="0" class="hidden">
  <symbol fill="none" xmlns="http://www.w3.org/2000/svg" viewBox="0 0 24 24" id="ic_arr_hor">
    <path d="M9 19L14.3306 12.7809C14.7158 12.3316 14.7158 11.6684 14.3306 11.219L9 5" stroke="currentColor" stroke-linecap="round"></path>
  </symbol>
  <symbol fill="none" xmlns="http://www.w3.org/2000/svg" viewBox="0 0 6 4" id="ic_arr_ver">
    <path d="M3 2.3L5.3 -3.0598e-08L6 0.7L3 3.7L-3.0598e-08 0.7L0.7 -2.3167e-07L3 2.3Z" fill="currentColor"></path>
  </symbol>
  <symbol fill="none" xmlns="http://www.w3.org/2000/svg" viewBox="0 0 24 24" id="ic_arrow_diagonal">
    <path d="M7 17L17 7M17 17V7L7 7" stroke="currentColor" stroke-linecap="round" stroke-linejoin="round"></path>
  </symbol>
  <symbol fill="none" xmlns="http://www.w3.org/2000/svg" viewBox="0 0 24 24" id="ic_arrow_hor">
    <path d="M4.92893 12.0711H19.0711M12 19.1421L19.0711 12.0711L12 5" stroke="currentColor" stroke-linecap="round" stroke-linejoin="round"></path>
  </symbol>
  <symbol fill="none" xmlns="http://www.w3.org/2000/svg" viewBox="0 0 18 14" id="ic_arrow_long_hor">
    <path d="M10.75 12.75L16.0429 7.45711C16.4334 7.06658 16.4334 6.43342 16.0429 6.04289L10.75 0.75" stroke="currentColor" stroke-width="1.5" stroke-linecap="round"></path>
    <path d="M14.75 6.75L0.75 6.75" stroke="currentColor" stroke-width="1.5" stroke-linecap="round"></path>
  </symbol>
  <symbol fill="none" xmlns="http://www.w3.org/2000/svg" viewBox="0 0 16 15" id="ic_checkbox">
    <ellipse cx="7.53112" cy="7.5" rx="7.53112" ry="7.5" fill="currentColor"></ellipse>
    <path d="M4.0166 8L6.0249 10L11.0456 5" stroke="white" stroke-linecap="round" stroke-linejoin="round"></path>
  </symbol>
  <symbol fill="none" xmlns="http://www.w3.org/2000/svg" viewBox="0 0 20 20" id="ic_close">
    <path d="M5.5 16L16.1066 5.3934" stroke="currentColor" stroke-width="2" stroke-linecap="round" stroke-linejoin="round"></path>
    <path d="M5.5 5L16.1066 15.6066" stroke="currentColor" stroke-width="2" stroke-linecap="round" stroke-linejoin="round"></path>
  </symbol>
  <symbol fill="none" xmlns="http://www.w3.org/2000/svg" viewBox="0 0 16 15" id="ic_duration">
    <path fill-rule="evenodd" clip-rule="evenodd" d="M7.63022 14.1659C10.9676 14.1661 13.9762 11.4385 14.6302 8.16586C15.2842 4.89323 13.7113 2.4483 10.6302 1.16586C7.54912 -0.116588 3.49141 0.395698 1.63022 3.16586C-0.230976 5.93602 0.278347 9.79805 2.63022 12.1659C3.9442 13.4887 5.76566 14.1657 7.63022 14.1659Z" stroke="currentColor" stroke-linecap="round" stroke-linejoin="round"></path>
    <path d="M6.5 5.83209V8.83209H9.5" stroke="currentColor" stroke-linecap="round" stroke-linejoin="round"></path>
  </symbol>
  <symbol fill="none" xmlns="http://www.w3.org/2000/svg" viewBox="0 0 16 16" id="ic_duration2">
    <circle cx="8.00007" cy="8.00016" r="6.66667" stroke="currentColor" stroke-width="0.8"></circle>
    <path d="M7.99991 5.3335V7.82177C7.99991 7.93322 8.05561 8.0373 8.14834 8.09912L9.99991 9.3335" stroke="currentColor" stroke-width="0.8" stroke-linecap="round"></path>
  </symbol>
  <symbol fill="none" xmlns="http://www.w3.org/2000/svg" viewBox="0 0 15 15" id="ic_economy">
    <path d="M8.57064 4.9463C8.16995 5.23196 7.6796 5.4 7.15 5.4C5.7969 5.4 4.7 4.3031 4.7 2.95C4.7 1.5969 5.7969 0.5 7.15 0.5C8.02709 0.5 8.79654 0.960892 9.22936 1.6537M3.3 13.161H5.1272C5.36544 13.161 5.60222 13.1894 5.83317 13.2461L7.76383 13.7152C8.18274 13.8173 8.61914 13.8272 9.04243 13.745L11.1771 13.3297C11.741 13.2198 12.2597 12.9498 12.6662 12.5544L14.1765 11.0852C14.6078 10.6664 14.6078 9.9867 14.1765 9.56715C13.7882 9.1894 13.1733 9.14688 12.734 9.46722L10.9738 10.7514C10.7217 10.9357 10.415 11.0349 10.0996 11.0349H8.39985L9.48175 11.0348C10.0915 11.0348 10.5855 10.5543 10.5855 9.96114V9.7464C10.5855 9.25385 10.2409 8.82437 9.74985 8.70531L8.08002 8.29922C7.80827 8.23331 7.52996 8.2 7.2502 8.2C6.57483 8.2 5.35233 8.75917 5.35233 8.75917L3.3 9.61742M13.1 3.65C13.1 5.0031 12.0031 6.1 10.65 6.1C9.2969 6.1 8.2 5.0031 8.2 3.65C8.2 2.2969 9.2969 1.2 10.65 1.2C12.0031 1.2 13.1 2.2969 13.1 3.65ZM0.5 9.32L0.5 13.38C0.5 13.772 0.5 13.9681 0.576295 14.1178C0.643407 14.2495 0.750493 14.3566 0.882206 14.4237C1.03194 14.5 1.22796 14.5 1.62 14.5H2.18C2.57204 14.5 2.76805 14.5 2.91779 14.4237C3.04951 14.3566 3.15659 14.2495 3.2237 14.1178C3.3 13.9681 3.3 13.772 3.3 13.38V9.32C3.3 8.92796 3.3 8.73195 3.2237 8.58221C3.15659 8.45049 3.04951 8.34341 2.91779 8.2763C2.76806 8.2 2.57204 8.2 2.18 8.2L1.62 8.2C1.22796 8.2 1.03195 8.2 0.882207 8.2763C0.750493 8.34341 0.643407 8.45049 0.576295 8.58221C0.5 8.73195 0.5 8.92796 0.5 9.32Z" stroke="currentColor" stroke-linecap="round" stroke-linejoin="round"></path>
  </symbol>
  <symbol fill="none" xmlns="http://www.w3.org/2000/svg" viewBox="0 0 12 7" id="ic_format">
    <path fill-rule="evenodd" clip-rule="evenodd" d="M8.0173 0.5H3.0093C1.53075 0.604684 0.413225 1.87657 0.505305 3.34989C0.413225 4.8232 1.53075 6.09509 3.0093 6.19977H8.0173C9.49586 6.09509 10.6134 4.8232 10.5213 3.34989C10.6134 1.87657 9.49586 0.604684 8.0173 0.5Z" fill="currentColor" stroke="currentColor" stroke-linecap="round" stroke-linejoin="round"></path>
    <path fill-rule="evenodd" clip-rule="evenodd" d="M7.52881 5.5C8.63796 5.5 9.53711 4.60457 9.53711 3.5C9.53711 2.39543 8.63796 1.5 7.52881 1.5C6.41965 1.5 5.52051 2.39543 5.52051 3.5C5.52051 4.60457 6.41965 5.5 7.52881 5.5Z" fill="white"></path>
  </symbol>
  <symbol fill="none" xmlns="http://www.w3.org/2000/svg" viewBox="0 0 21 21" id="ic_honest_sign">
    <path d="M16.4012 3.49851C16.6071 3.99653 17.0024 4.3924 17.5001 4.59907L19.2452 5.32198C19.7433 5.52828 20.139 5.92399 20.3453 6.42206C20.5516 6.92012 20.5516 7.47974 20.3453 7.97781L19.6229 9.7218C19.4165 10.2201 19.4162 10.7803 19.6236 11.2783L20.3447 13.0218C20.4469 13.2685 20.4996 13.5329 20.4996 13.7999C20.4997 14.067 20.4471 14.3314 20.3449 14.5781C20.2427 14.8249 20.0929 15.049 19.9041 15.2378C19.7152 15.4266 19.491 15.5764 19.2443 15.6785L17.5004 16.4009C17.0023 16.6068 16.6065 17.0021 16.3998 17.4998L15.6769 19.245C15.4706 19.7431 15.075 20.1388 14.5769 20.3451C14.0789 20.5514 13.5193 20.5514 13.0212 20.3451L11.2773 19.6227C10.7792 19.4169 10.2198 19.4173 9.72208 19.6239L7.97689 20.3458C7.47912 20.5516 6.92001 20.5514 6.42237 20.3453C5.92473 20.1391 5.52925 19.7439 5.32281 19.2464L4.59972 17.5006C4.3938 17.0026 3.99854 16.6067 3.50085 16.4L1.75566 15.6771C1.25783 15.4709 0.862256 15.0754 0.655882 14.5777C0.449508 14.0799 0.449228 13.5205 0.655104 13.0225L1.37746 11.2786C1.58325 10.7805 1.58283 10.2211 1.3763 9.72328L0.654972 7.97678C0.552703 7.7301 0.500043 7.46568 0.5 7.19863C0.499957 6.93159 0.552533 6.66715 0.654723 6.42043C0.756913 6.17372 0.906715 5.94955 1.09557 5.76075C1.28442 5.57195 1.50862 5.42222 1.75537 5.3201L3.4993 4.59772C3.99687 4.39197 4.39248 3.9972 4.5993 3.50006L5.32218 1.75481C5.52848 1.25674 5.92418 0.861034 6.42222 0.654729C6.92027 0.448424 7.47987 0.448424 7.97792 0.654729L9.72185 1.37712C10.2199 1.58291 10.7793 1.58249 11.2771 1.37595L13.023 0.655849C13.521 0.44966 14.0804 0.449702 14.5784 0.655967C15.0763 0.862231 15.472 1.25783 15.6783 1.75576L16.4014 3.50153L16.4012 3.49851Z" fill="currentColor" stroke="currentColor" stroke-linecap="round" stroke-linejoin="round"></path>
    <path d="M7.5 11L9.5 13L14 8.5" stroke="white" stroke-linecap="round" stroke-linejoin="round"></path>
  </symbol>
  <symbol fill="none" xmlns="http://www.w3.org/2000/svg" viewBox="0 0 12 11" id="ic_integration">
    <path d="M6.96018 4.06356C6.7645 3.86871 6.44792 3.86937 6.25307 4.06504C6.05822 4.26071 6.05888 4.5773 6.25456 4.77215L6.60737 4.41785L6.96018 4.06356ZM6.60737 7.66352L6.25456 7.30923L6.25454 7.30924L6.60737 7.66352ZM4.43413 9.82778L4.78695 10.1821V10.1821L4.43413 9.82778ZM1.17499 6.58211L1.52781 6.93639V6.93639L1.17499 6.58211ZM2.61443 5.85427C2.8101 5.65941 2.81075 5.34283 2.61589 5.14716C2.42104 4.95149 2.10445 4.95084 1.90879 5.1457L2.26161 5.49998L2.61443 5.85427ZM4.08175 6.93642C4.27742 7.13128 4.594 7.13061 4.78886 6.93494C4.98371 6.73927 4.98304 6.42269 4.78737 6.22783L4.43456 6.58213L4.08175 6.93642ZM4.43456 3.33646L4.78737 3.69075L4.78738 3.69074L4.43456 3.33646ZM6.6078 1.1722L6.96062 1.52649V1.52649L6.6078 1.1722ZM9.86694 1.1722L9.51412 1.52649V1.52649L9.86694 1.1722ZM9.86694 4.41787L10.2198 4.77216V4.77216L9.86694 4.41787ZM8.4275 5.14572C8.23183 5.34057 8.23118 5.65715 8.42603 5.85282C8.62089 6.04849 8.93747 6.04914 9.13314 5.85428L8.78032 5.5L8.4275 5.14572ZM6.60737 4.41785L6.25456 4.77215C6.59276 5.10893 6.78238 5.56528 6.78238 6.04069H7.28238H7.78238C7.78238 5.29872 7.48638 4.58756 6.96018 4.06356L6.60737 4.41785ZM7.28238 6.04069H6.78238C6.78238 6.51609 6.59276 6.97244 6.25456 7.30923L6.60737 7.66352L6.96018 8.01782C7.48638 7.49382 7.78238 6.78266 7.78238 6.04069H7.28238ZM6.60737 7.66352L6.25454 7.30924L4.08131 9.4735L4.43413 9.82778L4.78695 10.1821L6.96019 8.01781L6.60737 7.66352ZM4.43413 9.82778L4.08131 9.4735C3.37641 10.1755 2.2327 10.1755 1.52781 9.4735L1.17499 9.82778L0.822169 10.1821C1.91725 11.2726 3.69187 11.2726 4.78695 10.1821L4.43413 9.82778ZM1.17499 9.82778L1.52781 9.4735C0.824063 8.77266 0.824063 7.63723 1.52781 6.93639L1.17499 6.58211L0.822169 6.22783C-0.274056 7.31952 -0.274056 9.09037 0.822169 10.1821L1.17499 9.82778ZM1.17499 6.58211L1.52781 6.93639L2.61443 5.85427L2.26161 5.49998L1.90879 5.1457L0.822169 6.22783L1.17499 6.58211ZM4.43456 6.58213L4.78737 6.22783C4.44917 5.89105 4.25954 5.4347 4.25954 4.95929H3.75954H3.25954C3.25954 5.70126 3.55554 6.41242 4.08175 6.93642L4.43456 6.58213ZM3.75954 4.95929H4.25954C4.25954 4.48389 4.44917 4.02754 4.78737 3.69075L4.43456 3.33646L4.08175 2.98216C3.55554 3.50617 3.25954 4.21732 3.25954 4.95929H3.75954ZM4.43456 3.33646L4.78738 3.69074L6.96062 1.52649L6.6078 1.1722L6.25498 0.817916L4.08174 2.98217L4.43456 3.33646ZM6.6078 1.1722L6.96062 1.52649C7.66551 0.824505 8.80922 0.824505 9.51412 1.52649L9.86694 1.1722L10.2198 0.817916C9.12468 -0.272639 7.35006 -0.272639 6.25498 0.817916L6.6078 1.1722ZM9.86694 1.1722L9.51412 1.52649C10.2179 2.22732 10.2179 3.36275 9.51412 4.06359L9.86694 4.41787L10.2198 4.77216C11.316 3.68046 11.316 1.90961 10.2198 0.817916L9.86694 1.1722ZM9.86694 4.41787L9.51412 4.06359L8.4275 5.14572L8.78032 5.5L9.13314 5.85428L10.2198 4.77216L9.86694 4.41787Z" fill="currentColor"></path>
  </symbol>
  <symbol fill="none" xmlns="http://www.w3.org/2000/svg" viewBox="0 0 12 11" id="ic_license">
    <path fill-rule="evenodd" clip-rule="evenodd" d="M6.40365 3.0773C6.21119 3.02498 6.01255 2.99857 5.81304 2.99878H2.86213C2.66262 2.99857 2.46398 3.02498 2.27151 3.0773C1.20325 3.39724 0.479564 4.38638 0.50111 5.49708V7.99539C0.460912 9.33434 1.51765 10.4525 2.86213 10.4937H5.81376C7.15823 10.4525 8.21497 9.33434 8.17477 7.99539V5.49708C8.19623 4.38618 7.4722 3.39698 6.40365 3.0773Z" fill="currentColor" stroke="currentColor"></path>
    <path d="M4.51684 8.50049V6.50049" stroke="white"></path>
    <path d="M6.40335 3.07731V2.74896C6.35273 1.5606 7.27668 0.555254 8.46978 0.500488C9.66259 0.555634 10.5861 1.56087 10.5355 2.74896V3.07731" stroke="currentColor"></path>
  </symbol>
  <symbol fill="none" xmlns="http://www.w3.org/2000/svg" viewBox="0 0 12 11" id="ic_loading">
    <path d="M0.5 5.49997H2.65175" stroke="currentColor" stroke-linecap="round"></path>
    <path d="M5.52073 0.5V2.64286" stroke="currentColor" stroke-linecap="round"></path>
    <path d="M10.541 5.50003H8.38927" stroke="currentColor" stroke-linecap="round"></path>
    <path d="M5.52126 10.5V8.35714" stroke="currentColor" stroke-linecap="round"></path>
    <path d="M1.97038 9.03574L3.4919 7.52051" stroke="currentColor" stroke-linecap="round"></path>
    <path d="M1.97038 1.96426L3.4919 3.47949" stroke="currentColor" stroke-linecap="round"></path>
    <path d="M9.07063 1.96426L7.54912 3.47949" stroke="currentColor" stroke-linecap="round"></path>
    <path d="M9.07063 9.03574L7.54912 7.52051" stroke="currentColor" stroke-linecap="round"></path>
  </symbol>
  <symbol fill="none" xmlns="http://www.w3.org/2000/svg" viewBox="0 0 16 16" id="ic_location">
    <path d="M13.3333 6.94428C13.3333 10.5628 9.06663 14.3332 7.99996 14.3332C6.93329 14.3332 2.66663 10.5628 2.66663 6.94428C2.66663 4.02945 5.05444 1.6665 7.99996 1.6665C10.9455 1.6665 13.3333 4.02945 13.3333 6.94428Z" stroke="currentColor" stroke-width="0.8"></path>
    <circle cx="2" cy="2" r="2" transform="matrix(-1 0 0 1 10.0001 4.6665)" stroke="currentColor" stroke-width="0.8"></circle>
  </symbol>
  <symbol fill="none" xmlns="http://www.w3.org/2000/svg" viewBox="0 0 26 26" id="ic_location_fill">
    <path fill-rule="evenodd" clip-rule="evenodd" d="M18.362 5.48395C21.3234 8.47019 21.3234 13.2855 18.362 16.2718L12.9995 21.6668L7.63705 16.2729C4.67567 13.2866 4.67567 8.47128 7.63705 5.48503C9.05495 4.05482 10.9854 3.2502 12.9993 3.25C15.0133 3.2498 16.9439 4.05402 18.362 5.48395Z" fill="currentColor" stroke="currentColor" stroke-linecap="round" stroke-linejoin="round"></path>
    <path fill-rule="evenodd" clip-rule="evenodd" d="M16.0333 10.4121C16.0136 12.0826 14.6469 13.4227 12.9764 13.4096C11.3058 13.3965 9.96033 12.0351 9.96682 10.3646C9.97331 8.694 11.3293 7.34313 12.9999 7.34302C14.6849 7.35316 16.0429 8.72708 16.0333 10.4121Z" fill="#6F81FE" stroke="currentColor" stroke-linecap="round" stroke-linejoin="round"></path>
  </symbol>
  <symbol fill="none" xmlns="http://www.w3.org/2000/svg" viewBox="0 0 24 24" id="ic_max">
    <path fill-rule="evenodd" clip-rule="evenodd" d="M12.2578 23.9315C9.90253 23.9315 8.80799 23.5862 6.90543 22.2048C5.70199 23.7588 1.89113 24.9733 1.72492 22.8955C1.72492 21.3358 1.38108 20.0178 0.991393 18.5789C0.527223 16.8062 0 14.832 0 11.9715C0 5.13969 5.58166 0 12.1948 0C18.8137 0 23.9999 5.39294 23.9999 12.0348C24.0221 18.574 18.7687 23.8966 12.2578 23.9315ZM12.3553 5.90517C9.13465 5.73827 6.62461 7.97718 6.06875 11.4881C5.6103 14.3946 6.42405 17.9342 7.11745 18.1184C7.44983 18.199 8.28651 17.5198 8.80799 16.9961C9.6703 17.5944 10.6745 17.9537 11.7192 18.0378C15.0563 18.1991 17.9077 15.6475 18.1317 12.2996C18.2622 8.94459 15.6928 6.10294 12.3553 5.91094V5.90517Z" fill="currentColor"></path>
  </symbol>
  <symbol fill="none" xmlns="http://www.w3.org/2000/svg" viewBox="0 0 20 20" id="ic_menu">
    <path d="M2.5 7.0835H17.5M2.5 12.9168H17.5" stroke="currentColor" stroke-width="2" stroke-linecap="round" stroke-linejoin="round"></path>
  </symbol>
  <symbol fill="none" xmlns="http://www.w3.org/2000/svg" viewBox="0 0 26 26" id="ic_phone">
    <path fill-rule="evenodd" clip-rule="evenodd" d="M6.35335 6.8922C7.30668 5.88795 7.6436 5.60628 8.04985 5.4752C8.331 5.40153 8.62585 5.39744 8.90893 5.46328C9.2816 5.57161 9.38018 5.65395 10.6022 6.87161C11.6758 7.94086 11.783 8.05678 11.8859 8.26586C12.0827 8.63287 12.1135 9.06643 11.9704 9.45753C11.8621 9.75545 11.7083 9.95261 11.0572 10.6059L10.6325 11.0316C10.521 11.1449 10.4948 11.3171 10.5675 11.4584C11.511 13.0681 12.8496 14.4105 14.4567 15.3584C14.6417 15.4575 14.8695 15.4255 15.02 15.2794L15.4284 14.8774C15.6809 14.6187 15.9482 14.3749 16.229 14.1473C16.6701 13.8765 17.2197 13.8523 17.6829 14.0834C17.9093 14.1917 17.984 14.2589 19.0912 15.3639C20.233 16.5024 20.2655 16.5382 20.3912 16.7993C20.6277 17.2315 20.6252 17.7549 20.3847 18.1849C20.2623 18.4275 20.1875 18.5153 19.5451 19.1718C19.1573 19.5683 18.7922 19.9301 18.7337 19.9832C18.2037 20.422 17.5238 20.6372 16.8379 20.5834C15.5828 20.469 14.3681 20.0811 13.2791 19.4469C10.8667 18.1688 8.81295 16.3065 7.3056 14.0303C6.97729 13.5539 6.68541 13.0534 6.43243 12.5331C5.75382 11.37 5.40337 10.0446 5.41843 8.69811C5.47024 7.99369 5.80806 7.34115 6.35335 6.8922Z" fill="currentColor" stroke="currentColor" stroke-linecap="round" stroke-linejoin="round"></path>
  </symbol>
  <symbol fill="none" xmlns="http://www.w3.org/2000/svg" viewBox="0 0 14 14" id="ic_plus">
    <path d="M-2.62268e-07 6L7 6C6.82569 6 6.28523 5.27731 6 5C5.72269 4.72269 6 4.4833 6 4L6 -3.49691e-07L8 -2.62268e-07L8 6L14 6L14 8L7 8C7.17431 8 7.72269 8.72269 8 9C8.28523 9.27731 8 9.51669 8 10L8 14L6 14L6 8L-3.49691e-07 8L-2.62268e-07 6Z" fill="currentColor"></path>
  </symbol>
  <symbol fill="none" xmlns="http://www.w3.org/2000/svg" viewBox="0 0 24 24" id="ic_power">
    <path d="M13.8154 10.4211C13.7049 10.4211 13.6154 10.3316 13.6154 10.2211V2.60383C13.6154 2.41125 13.3699 2.32994 13.2549 2.48445L5.59411 12.7804C5.34868 13.1103 5.58411 13.5789 5.99525 13.5789H10.1846C10.2951 13.5789 10.3846 13.6684 10.3846 13.7789V21.3962C10.3846 21.5888 10.6301 21.6701 10.7451 21.5156L18.4059 11.2196C18.6513 10.8897 18.4159 10.4211 18.0047 10.4211H13.8154Z" fill="currentColor" stroke="currentColor" stroke-width="1.5"></path>
  </symbol>
  <symbol fill="none" xmlns="http://www.w3.org/2000/svg" viewBox="0 0 10 11" id="ic_price">
    <path fill-rule="evenodd" clip-rule="evenodd" d="M3.58642 0.5H6.34859C7.05603 0.5 6.66754 1.56149 6.38112 2.20897L6.05515 2.9515L6.01113 3.05165C6.31989 3.03667 6.62518 3.12217 6.88124 3.29534C7.83903 4.17172 8.61633 5.22683 9.16944 6.40134C9.385 6.83565 9.47051 7.32299 9.41567 7.80475C9.34987 9.03267 8.36474 10.0112 7.13641 10.0687H2.7986C1.56995 10.0129 0.583353 9.03538 0.516146 7.8073C0.461313 7.32554 0.546819 6.8382 0.76238 6.40389C1.31615 5.22819 2.09456 4.17218 3.05377 3.29534C3.30983 3.12217 3.61512 3.03667 3.92388 3.05165L3.87285 2.93619L3.55389 2.20897C3.26874 1.56149 2.87834 0.5 3.58642 0.5Z" fill="currentColor" stroke="currentColor" stroke-linecap="round" stroke-linejoin="round"></path>
    <path fill-rule="evenodd" clip-rule="evenodd" d="M6.0101 3.05151H3.92285H6.0101ZM7.51835 2.4137C7.06216 2.66992 6.56791 2.85147 6.05433 2.95146C5.33296 3.08976 4.5914 3.08456 3.87203 2.93615C3.36295 2.83593 2.8718 2.65982 2.41504 2.4137" fill="currentColor"></path>
    <path d="M6.0101 3.55151C6.28625 3.55151 6.5101 3.32765 6.5101 3.05151C6.5101 2.77537 6.28625 2.55151 6.0101 2.55151V3.05151V3.55151ZM3.92285 2.55151C3.64671 2.55151 3.42285 2.77537 3.42285 3.05151C3.42285 3.32765 3.64671 3.55151 3.92285 3.55151V3.05151V2.55151ZM7.7632 2.84964C8.00396 2.71441 8.08952 2.40961 7.95429 2.16884C7.81906 1.92808 7.51426 1.84252 7.27349 1.97775L7.51835 2.4137L7.7632 2.84964ZM6.05433 2.95146L6.14848 3.44252L6.14989 3.44224L6.05433 2.95146ZM3.87203 2.93615L3.97306 2.44644L3.96861 2.44556L3.87203 2.93615ZM2.65222 1.97353C2.40912 1.84254 2.10586 1.93342 1.97487 2.17652C1.84388 2.41962 1.93476 2.72287 2.17786 2.85386L2.41504 2.4137L2.65222 1.97353ZM6.0101 3.05151V2.55151H3.92285V3.05151V3.55151H6.0101V3.05151ZM7.51835 2.4137L7.27349 1.97775C6.86383 2.20784 6.41998 2.37088 5.95878 2.46067L6.05433 2.95146L6.14989 3.44224C6.71583 3.33205 7.26049 3.13199 7.7632 2.84964L7.51835 2.4137ZM6.05433 2.95146L5.96019 2.4604C5.30333 2.58634 4.62809 2.5816 3.97306 2.44646L3.87203 2.93615L3.77101 3.42583C4.55471 3.58752 5.36259 3.59319 6.14848 3.44251L6.05433 2.95146ZM3.87203 2.93615L3.96861 2.44556C3.50865 2.35502 3.0649 2.1959 2.65222 1.97353L2.41504 2.4137L2.17786 2.85386C2.67871 3.12374 3.21725 3.31685 3.77546 3.42673L3.87203 2.93615Z" fill="currentColor"></path>
    <path d="M4.9822 8.21994C4.91742 8.0812 4.78329 7.97999 4.62096 7.96196C4.48352 7.9467 4.34896 7.91798 4.22098 7.87658C4.16358 7.85773 4.10973 7.83721 4.05989 7.81518L4.1427 7.59505C4.20118 7.6205 4.26146 7.64382 4.32314 7.66486L4.32572 7.66574L4.32831 7.66658C4.52631 7.73035 4.72112 7.7627 4.90731 7.7627C5.09418 7.7627 5.2297 7.73829 5.3338 7.68588L5.34003 7.68275L5.3461 7.67935C5.50381 7.59112 5.59426 7.43945 5.59426 7.26322C5.59426 7.06763 5.48605 6.90529 5.29728 6.81756C5.20237 6.77251 5.06752 6.72955 4.87327 6.68247C4.67405 6.63334 4.50668 6.58123 4.3769 6.52784C4.28198 6.48599 4.1997 6.41918 4.1255 6.3237C4.06167 6.2385 4.0293 6.1103 4.0293 5.9426C4.0293 5.74029 4.08774 5.57329 4.20798 5.43204C4.31504 5.30825 4.46705 5.22422 4.67106 5.17706C4.82234 5.14207 4.9404 5.03678 4.99347 4.90076C5.05344 5.03865 5.18113 5.14115 5.33994 5.16583C5.47264 5.18645 5.59449 5.21926 5.70402 5.26375L5.62776 5.47949C5.42094 5.39854 5.2174 5.35762 5.02054 5.35762C4.36671 5.35762 4.33359 5.79743 4.33359 5.8856C4.33359 6.0767 4.43946 6.23697 4.62404 6.32531L4.62922 6.32779L4.63448 6.33008C4.72767 6.37063 4.85999 6.40973 5.05092 6.45314C5.24831 6.49663 5.41291 6.54645 5.54226 6.60171L5.54492 6.60284L5.54761 6.60393C5.64366 6.64291 5.72604 6.70799 5.79947 6.80287L5.80064 6.80438L5.80183 6.80588C5.86602 6.8868 5.89856 7.0119 5.89856 7.17772C5.89856 7.36917 5.84169 7.53124 5.72471 7.67316C5.62328 7.79628 5.48161 7.88148 5.29155 7.93369C5.14478 7.97399 5.03093 8.08336 4.9822 8.21994Z" fill="white" stroke="white" stroke-width="0.2"></path>
    <path d="M5.14732 8.79291H4.83231C4.76185 8.79291 4.70473 8.73579 4.70473 8.66533V8.4092C4.70473 8.34184 4.6523 8.28646 4.58534 8.27902C4.42584 8.26131 4.27153 8.22834 4.12242 8.1801C3.97757 8.13256 3.85208 8.07612 3.74594 8.01078C3.69716 7.98075 3.67942 7.91973 3.69959 7.86612L3.91566 7.29166C3.94476 7.2143 4.03867 7.18472 4.11101 7.22471C4.20862 7.27866 4.31352 7.32477 4.4257 7.36303C4.59285 7.41687 4.75325 7.44379 4.90692 7.44379C5.03902 7.44379 5.13337 7.42954 5.18999 7.40104C5.2466 7.36937 5.27491 7.32344 5.27491 7.26327C5.27491 7.1936 5.23717 7.14134 5.16168 7.10651C5.08889 7.07167 4.96758 7.03367 4.79773 6.9925C4.57937 6.93866 4.3974 6.88166 4.25182 6.82148C4.10624 6.75814 3.97953 6.6568 3.8717 6.51746C3.76386 6.37494 3.70995 6.18334 3.70995 5.94265C3.70995 5.66397 3.79487 5.42486 3.96471 5.22535C4.11775 5.04837 4.32912 4.9287 4.59882 4.86635C4.65953 4.85231 4.70473 4.79967 4.70473 4.73735V4.4551C4.70473 4.38463 4.76185 4.32751 4.83231 4.32751H5.14732C5.21779 4.32751 5.27491 4.38463 5.27491 4.4551V4.72123C5.27491 4.7864 5.32412 4.8407 5.38853 4.85071C5.62476 4.88742 5.83234 4.95691 6.01125 5.05916C6.06198 5.08815 6.08216 5.14994 6.06268 5.20503L5.86046 5.7772C5.83366 5.85301 5.74433 5.8851 5.67252 5.8489C5.44473 5.73406 5.22727 5.67663 5.02015 5.67663C4.77482 5.67663 4.65216 5.7463 4.65216 5.88565C4.65216 5.95216 4.68856 6.00283 4.76134 6.03766C4.83413 6.06934 4.9541 6.10417 5.12124 6.14217C5.33691 6.18968 5.51888 6.2451 5.66716 6.30844C5.81543 6.36861 5.94348 6.46837 6.05132 6.60772C6.16185 6.74706 6.21712 6.93708 6.21712 7.17777C6.21712 7.44379 6.1349 7.67656 5.97044 7.87608C5.82717 8.05 5.6289 8.17174 5.37563 8.2413C5.31742 8.25729 5.27491 8.30884 5.27491 8.36921V8.66533C5.27491 8.73579 5.21779 8.79291 5.14732 8.79291Z" fill="white" stroke="white" stroke-width="0.1"></path>
  </symbol>
  <symbol fill="none" xmlns="http://www.w3.org/2000/svg" viewBox="0 0 24 20" id="ic_r">
    <path d="M16.6608 9.08682H4.96158V4.41051H16.6608C17.3442 4.41051 17.8194 4.53085 18.0578 4.74094C18.2963 4.95106 18.444 5.34076 18.444 5.91003V7.58912C18.444 8.18891 18.2963 8.57861 18.0578 8.78873C17.8194 8.99882 17.3442 9.08864 16.6608 9.08864V9.08682ZM17.4635 0.00178828H0V20H4.96158V13.4938H14.1053L18.444 20H24L19.2164 13.4632C20.98 13.1992 21.7719 12.6533 22.425 11.7536C23.0781 10.8539 23.4057 9.41545 23.4057 7.49573V5.99624C23.4057 4.85767 23.2863 3.95797 23.0781 3.26839C22.8699 2.57879 22.5141 1.979 22.0086 1.44024C21.4747 0.930242 20.8803 0.571061 20.1667 0.330424C19.4531 0.120334 18.5615 0 17.4635 0V0.00178828Z" fill="currentColor"></path>
  </symbol>
  <symbol fill="none" xmlns="http://www.w3.org/2000/svg" viewBox="0 0 24 24" id="ic_search">
    <path fill-rule="evenodd" clip-rule="evenodd" d="M5 10.7655C5.00003 8.01511 6.94296 5.64777 9.64053 5.1113C12.3381 4.57483 15.039 6.01866 16.0913 8.55977C17.1437 11.1009 16.2544 14.0315 13.9674 15.5593C11.6804 17.0871 8.63257 16.7866 6.688 14.8415C5.60716 13.7604 4.99998 12.2942 5 10.7655Z" stroke="currentColor" stroke-linecap="round" stroke-linejoin="round"></path>
    <path d="M16.5288 16.5293L18.9998 19.0003" stroke="currentColor" stroke-linecap="round" stroke-linejoin="round"></path>
  </symbol>
  <symbol fill="none" xmlns="http://www.w3.org/2000/svg" viewBox="0 0 16 16" id="ic_team">
    <circle cx="2.2695" cy="2.2695" r="2.2695" transform="matrix(-1 0 0 1 10.4113 3.3335)" stroke="currentColor" stroke-width="0.8"></circle>
    <path d="M4.17004 11.2398C4.17004 10.7516 4.47691 10.3162 4.93662 10.152C7.00922 9.41177 9.27413 9.41177 11.3467 10.152C11.8064 10.3162 12.1133 10.7516 12.1133 11.2398V11.9861C12.1133 12.6599 11.5166 13.1774 10.8496 13.0821L10.6273 13.0504C8.97858 12.8148 7.30477 12.8148 5.65608 13.0504L5.43371 13.0821C4.76676 13.1774 4.17004 12.6599 4.17004 11.9861V11.2398Z" stroke="currentColor" stroke-width="0.8"></path>
    <path d="M11.5459 7.93502C12.5307 7.93502 13.3291 7.13666 13.3291 6.15183C13.3291 5.16701 12.5307 4.36865 11.5459 4.36865" stroke="currentColor" stroke-width="0.8" stroke-linecap="round"></path>
    <path d="M13.4988 12.0032L13.6735 12.0282C14.1976 12.103 14.6664 11.6964 14.6664 11.167V10.5806C14.6664 10.1971 14.4253 9.85492 14.0641 9.72592C13.7038 9.59724 13.3361 9.49703 12.9643 9.42529" stroke="currentColor" stroke-width="0.8" stroke-linecap="round"></path>
    <path d="M4.45384 7.93502C3.46901 7.93502 2.67065 7.13666 2.67065 6.15183C2.67065 5.16701 3.46901 4.36865 4.45384 4.36865" stroke="currentColor" stroke-width="0.8" stroke-linecap="round"></path>
    <path d="M2.50093 12.0032L2.32621 12.0282C1.80218 12.103 1.33333 11.6964 1.33333 11.167V10.5806C1.33333 10.1971 1.57444 9.85492 1.93564 9.72592C2.29594 9.59724 2.66364 9.49703 3.03546 9.42529" stroke="currentColor" stroke-width="0.8" stroke-linecap="round"></path>
  </symbol>
  <symbol fill="none" xmlns="http://www.w3.org/2000/svg" viewBox="0 0 22 18" id="ic_tg">
    <path d="M1.51224 7.74886C7.41892 5.20887 11.3566 3.53418 13.3255 2.72512C18.9537 0.414817 20.1217 0.0135696 20.8845 0.000132155C21.0523 -0.00268034 21.4258 0.0382567 21.6696 0.232944C21.8721 0.397006 21.9292 0.618879 21.9577 0.774504C21.983 0.930129 22.0178 1.28482 21.9893 1.56169C21.6855 4.72418 20.3655 12.3985 19.6944 15.9407C19.4127 17.4395 18.8524 17.942 18.3111 17.9911C17.1335 18.098 16.2409 17.2236 15.1013 16.4863C13.3192 15.3323 12.3126 14.6142 10.5811 13.4882C8.5806 12.187 9.87838 11.4717 11.0179 10.3029C11.3155 9.99698 16.5004 5.3423 16.5985 4.92012C16.6112 4.86731 16.6239 4.67043 16.5036 4.56668C16.3865 4.46262 16.2123 4.49824 16.0857 4.52637C15.9053 4.56637 13.0596 6.42511 7.53906 10.1023C6.73188 10.6504 6.00069 10.9176 5.34228 10.9035C4.62056 10.8882 3.22787 10.4998 2.19278 10.1679C0.926608 9.76073 -0.0832116 9.54542 0.00542027 8.85386C0.0497362 8.49386 0.553119 8.12542 1.51224 7.74886Z" fill="currentColor"></path>
  </symbol>
  <symbol fill="none" xmlns="http://www.w3.org/2000/svg" viewBox="0 0 35 43" id="ic_video_play">
    <path fill-rule="evenodd" clip-rule="evenodd" d="M10.5567 1.2552L32.6851 16.6481C34.1186 17.5049 35 19.0764 35 20.7757C35 22.4751 34.1186 24.0466 32.6851 24.9034L10.5567 41.7438C6.35641 44.6605 0 42.1738 0 37.6162V5.36856C0 0.832395 6.36341 -1.66142 10.5567 1.2552Z" fill="currentColor"></path>
  </symbol>
  <symbol fill="none" xmlns="http://www.w3.org/2000/svg" viewBox="0 0 24 24" id="ic_views">
    <path d="M3.20057 12.7844C2.93314 12.2954 2.93314 11.7045 3.20058 11.2154C4.9 8.10803 8.20336 6 12 6C15.7966 6 19.1 8.10809 20.7994 11.2156C21.0669 11.7046 21.0669 12.2956 20.7994 12.7846C19.1 15.892 15.7966 18 12 18C8.20336 18 4.89997 15.8919 3.20057 12.7844Z" stroke="currentColor"></path>
    <circle cx="12" cy="12" r="3" stroke="currentColor"></circle>
  </symbol>
  <symbol fill="none" xmlns="http://www.w3.org/2000/svg" viewBox="0 0 26 14" id="ic_vk">
    <path d="M14.1611 14C5.27787 14 0.211118 8.74474 0 0H4.44972C4.59588 6.41842 7.87625 9.13714 10.4746 9.6977V0H14.6647V5.53553C17.2306 5.2973 19.9261 2.77477 20.8355 0H25.0254C24.3271 3.41942 21.404 5.94194 19.3253 6.97898C21.404 7.81982 24.7333 10.02 26 14H21.3877C20.3971 11.3373 17.9289 9.27728 14.6647 8.997V14H14.1611Z" fill="currentColor"></path>
  </symbol>
  <symbol fill="none" xmlns="http://www.w3.org/2000/svg" viewBox="0 0 16 16" id="ic_warehouse_type">
    <rect x="1.3334" y="1.3335" width="13.3333" height="13.3333" rx="3.33333" stroke="currentColor" stroke-width="0.8"></rect>
    <path d="M6.66665 11.3335H9.33331" stroke="currentColor" stroke-width="0.8" stroke-linecap="round" stroke-linejoin="round"></path>
    <path d="M5.99991 1.33333L5.99991 6L7.99991 5.33333L9.99991 6L9.99991 1.66667" stroke="currentColor" stroke-width="0.8" stroke-linecap="round" stroke-linejoin="round"></path>
  </symbol>
</svg>