<svg width="446" height="873" viewBox="0 0 446 873" fill="none" xmlns="http://www.w3.org/2000/svg">
<path d="M244.994 751.878C224.139 759.89 204.243 754.843 196.902 750.97V865.301C215.24 877.16 236.604 872.057 244.994 867.116V751.878Z" fill="url(#paint0_linear_4434_8577)"/>
<path d="M196.902 750.063L19.9617 659.324L14.5174 647.528V762.766C14.5174 764.758 14.1218 770.959 19.9617 774.562L196.902 865.301V750.063Z" fill="#F0F0F0"/>
<path d="M421.936 661.139L244.088 752.785V867.578L421.936 775.47C430.003 770.664 430.26 765.266 430.102 763.674L431.917 648.789L423.751 657.509L421.936 661.139Z" fill="#E4E4E4"/>
<rect width="250.439" height="250.439" rx="25.6502" transform="matrix(0.888962 -0.457981 0.888962 0.457981 0 649.293)" fill="#F5F5F5"/>
<path fill-rule="evenodd" clip-rule="evenodd" d="M193.076 653.059C189.83 651.387 189.83 648.913 193.076 647.241L210.822 638.099C212.325 637.324 213.184 636.285 213.242 635.19L214.048 623.138C214.251 619.269 204.841 617.077 199.529 619.814L146.291 647.241C143.045 648.913 143.045 651.387 146.291 653.059L199.529 680.487C204.842 683.224 214.251 681.031 214.048 677.162L213.242 665.111C213.184 664.015 212.325 662.976 210.822 662.202L193.076 653.059Z" fill="#F5F5F5"/>
<path d="M299.551 647.241C302.797 648.913 302.797 651.387 299.551 653.059L244.7 681.318C239.464 684.015 230.988 682.223 230.987 678.409L230.181 664.695C230.181 663.559 229.32 662.589 227.761 661.786L211.628 653.475C208.382 651.802 208.383 648.498 211.628 646.826L227.761 638.514C229.32 637.711 230.181 636.741 230.181 635.605L230.987 621.892C230.987 618.077 239.464 616.285 244.7 618.983L299.551 647.241Z" fill="#F5F5F5"/>
<path d="M244.994 618.308C224.139 626.32 204.243 621.273 196.902 617.4V731.731C215.24 743.59 236.604 738.487 244.994 733.546V618.308Z" fill="url(#paint1_linear_4434_8577)"/>
<path d="M196.902 616.493L19.9617 525.754L14.5174 513.958V629.196C14.5174 631.188 14.1218 637.389 19.9617 640.992L196.902 731.731V616.493Z" fill="#F0F0F0"/>
<path d="M421.936 527.569L244.088 619.215V734.008L421.936 641.9C430.003 637.093 430.26 631.696 430.102 630.104L431.917 515.219L423.751 523.939L421.936 527.569Z" fill="#E4E4E4"/>
<rect width="250.439" height="250.439" rx="25.6502" transform="matrix(0.888962 -0.457981 0.888962 0.457981 0 515.723)" fill="#F5F5F5"/>
<path fill-rule="evenodd" clip-rule="evenodd" d="M193.076 519.489C189.83 517.817 189.83 515.343 193.076 513.671L210.822 504.529C212.325 503.754 213.184 502.715 213.242 501.62L214.048 489.568C214.251 485.699 204.841 483.507 199.529 486.244L146.291 513.671C143.045 515.343 143.045 517.817 146.291 519.489L199.529 546.916C204.842 549.654 214.251 547.461 214.048 543.592L213.242 531.54C213.184 530.445 212.325 529.406 210.822 528.632L193.076 519.489Z" fill="#F5F5F5"/>
<path d="M299.551 513.671C302.797 515.343 302.797 517.817 299.551 519.489L244.7 547.748C239.464 550.445 230.988 548.653 230.987 544.839L230.181 531.125C230.181 529.989 229.32 529.019 227.761 528.216L211.628 519.905C208.382 518.232 208.383 514.928 211.628 513.256L227.761 504.944C229.32 504.141 230.181 503.171 230.181 502.035L230.987 488.322C230.987 484.507 239.464 482.715 244.7 485.413L299.551 513.671Z" fill="#F5F5F5"/>
<path d="M244.994 484.737C224.139 492.75 204.243 487.703 196.902 483.83V598.161C215.24 610.019 236.604 604.917 244.994 599.976V484.737Z" fill="url(#paint2_linear_4434_8577)"/>
<path d="M196.902 482.922L19.9617 392.183L14.5174 380.387V495.626C14.5174 497.618 14.1218 503.819 19.9617 507.422L196.902 598.161V482.922Z" fill="#F0F0F0"/>
<path d="M421.936 393.998L244.088 485.645V600.437L421.936 508.329C430.003 503.523 430.26 498.125 430.102 496.533L431.917 381.649L423.751 390.369L421.936 393.998Z" fill="#E4E4E4"/>
<rect width="250.439" height="250.439" rx="25.6502" transform="matrix(0.888962 -0.457981 0.888962 0.457981 0 382.152)" fill="#F5F5F5"/>
<path fill-rule="evenodd" clip-rule="evenodd" d="M193.076 385.919C189.83 384.247 189.83 381.773 193.076 380.101L210.822 370.958C212.325 370.184 213.184 369.145 213.242 368.049L214.048 355.998C214.251 352.129 204.841 349.936 199.529 352.673L146.291 380.101C143.045 381.773 143.045 384.247 146.291 385.919L199.529 413.346C204.842 416.083 214.251 413.891 214.048 410.022L213.242 397.97C213.184 396.875 212.325 395.836 210.822 395.061L193.076 385.919Z" fill="#F5F5F5"/>
<path d="M299.551 380.101C302.797 381.773 302.797 384.247 299.551 385.919L244.7 414.177C239.464 416.875 230.988 415.083 230.987 411.268L230.181 397.555C230.181 396.419 229.32 395.449 227.761 394.646L211.628 386.334C208.382 384.662 208.383 381.357 211.628 379.685L227.761 371.374C229.32 370.571 230.181 369.601 230.181 368.465L230.987 354.751C230.987 350.936 239.464 349.145 244.7 351.842L299.551 380.101Z" fill="#F5F5F5"/>
<path d="M244.994 351.167C224.139 359.18 204.243 354.132 196.902 350.26V464.59C215.24 476.449 236.604 471.346 244.994 466.405V351.167Z" fill="url(#paint3_linear_4434_8577)"/>
<path d="M196.902 349.352L19.9617 258.613L14.5174 246.817V362.055C14.5174 364.048 14.1218 370.248 19.9617 373.851L196.902 464.59V349.352Z" fill="#F0F0F0"/>
<path d="M421.936 260.428L244.088 352.074V466.867L421.936 374.759C430.003 369.953 430.26 364.555 430.102 362.963L431.917 248.078L423.751 256.798L421.936 260.428Z" fill="#E4E4E4"/>
<rect width="250.439" height="250.439" rx="25.6502" transform="matrix(0.888962 -0.457981 0.888962 0.457981 0 248.582)" fill="#F5F5F5"/>
<path fill-rule="evenodd" clip-rule="evenodd" d="M193.076 252.348C189.83 250.676 189.83 248.203 193.076 246.53L210.822 237.388C212.325 236.613 213.184 235.574 213.242 234.479L214.048 222.428C214.251 218.558 204.841 216.366 199.529 219.103L146.291 246.53C143.045 248.203 143.045 250.676 146.291 252.348L199.529 279.776C204.842 282.513 214.251 280.321 214.048 276.451L213.242 264.4C213.184 263.305 212.325 262.266 210.822 261.491L193.076 252.348Z" fill="#F5F5F5"/>
<path d="M299.551 246.53C302.797 248.203 302.797 250.676 299.551 252.348L244.7 280.607C239.464 283.304 230.988 281.513 230.987 277.698L230.181 263.984C230.181 262.849 229.32 261.878 227.761 261.075L211.628 252.764C208.382 251.092 208.383 247.787 211.628 246.115L227.761 237.804C229.32 237.001 230.181 236.03 230.181 234.895L230.987 221.181C230.987 217.366 239.464 215.575 244.7 218.272L299.551 246.53Z" fill="#F5F5F5"/>
<path d="M244.994 217.597C224.139 225.609 204.243 219.831 196.902 215.958V331.02C215.24 342.879 236.604 337.776 244.994 332.835V217.597Z" fill="url(#paint4_linear_4434_8577)"/>
<path d="M196.902 215.782L20.4154 123.858L13.1562 114.331L14.5172 228.485C14.5172 230.477 14.1216 236.678 19.9615 240.281L196.902 331.02V215.782Z" fill="#465CFA"/>
<path d="M421.936 126.858L244.088 218.227V332.835L421.936 241.189C430.003 236.383 430.26 230.985 430.102 229.393L431.917 114.331L423.751 123.228L421.936 126.858Z" fill="#6F81FE"/>
<rect width="250.439" height="250.439" rx="25.6502" transform="matrix(0.888962 -0.457981 0.888962 0.457981 0 114.697)" fill="#6F81FE"/>
<path fill-rule="evenodd" clip-rule="evenodd" d="M193.076 118.147C189.83 116.475 189.83 114.002 193.076 112.33L210.822 103.187C212.325 102.412 213.184 101.373 213.242 100.278L214.048 88.2267C214.251 84.3573 204.841 82.1651 199.529 84.9022L146.291 112.33C143.045 114.002 143.045 116.475 146.291 118.147L199.529 145.575C204.842 148.312 214.251 146.12 214.048 142.25L213.242 130.199C213.184 129.104 212.325 128.065 210.822 127.29L193.076 118.147Z" fill="#FBFBFB"/>
<path d="M299.551 112.33C302.797 114.002 302.797 116.475 299.551 118.147L244.7 146.406C239.464 149.103 230.988 147.312 230.987 143.497L230.181 129.783C230.181 128.648 229.32 127.677 227.761 126.874L211.628 118.563C208.382 116.891 208.383 113.586 211.628 111.914L227.761 103.603C229.32 102.8 230.181 101.829 230.181 100.694L230.987 86.98C230.987 83.1652 239.464 81.3736 244.7 84.071L299.551 112.33Z" fill="#FBFBFB"/>
<defs>
<linearGradient id="paint0_linear_4434_8577" x1="196.902" y1="811.469" x2="244.544" y2="811.469" gradientUnits="userSpaceOnUse">
<stop stop-color="#F0F0F0"/>
<stop offset="1" stop-color="#E4E4E4"/>
</linearGradient>
<linearGradient id="paint1_linear_4434_8577" x1="196.902" y1="677.899" x2="244.544" y2="677.899" gradientUnits="userSpaceOnUse">
<stop stop-color="#F0F0F0"/>
<stop offset="1" stop-color="#E4E4E4"/>
</linearGradient>
<linearGradient id="paint2_linear_4434_8577" x1="196.902" y1="544.328" x2="244.544" y2="544.328" gradientUnits="userSpaceOnUse">
<stop stop-color="#F0F0F0"/>
<stop offset="1" stop-color="#E4E4E4"/>
</linearGradient>
<linearGradient id="paint3_linear_4434_8577" x1="196.902" y1="410.758" x2="244.544" y2="410.758" gradientUnits="userSpaceOnUse">
<stop stop-color="#F0F0F0"/>
<stop offset="1" stop-color="#E4E4E4"/>
</linearGradient>
<linearGradient id="paint4_linear_4434_8577" x1="196.902" y1="277.188" x2="244.544" y2="277.188" gradientUnits="userSpaceOnUse">
<stop stop-color="#465CFA"/>
<stop offset="1" stop-color="#6F81FE"/>
</linearGradient>
</defs>
</svg>
