<svg width="446" height="891" viewBox="0 0 446 891" fill="none" xmlns="http://www.w3.org/2000/svg">
<path d="M244.995 769.478C224.14 777.491 204.244 772.444 196.903 768.571V882.902C215.241 894.761 236.605 889.658 244.995 884.717V769.478Z" fill="url(#paint0_linear_4092_1315)"/>
<path d="M196.903 767.664L19.9627 676.925L14.5183 665.129V780.367C14.5183 782.359 14.1227 788.56 19.9627 792.163L196.903 882.902V767.664Z" fill="#F0F0F0"/>
<path d="M421.936 678.74L244.088 770.386V885.178L421.936 793.07C430.003 788.264 430.26 782.866 430.102 781.274L431.917 666.39L423.751 675.11L421.936 678.74Z" fill="#E4E4E4"/>
<rect width="250.439" height="250.439" rx="25.6502" transform="matrix(0.888962 -0.457981 0.888962 0.457981 0 666.894)" fill="#F5F5F5"/>
<path fill-rule="evenodd" clip-rule="evenodd" d="M193.077 670.66C189.831 668.988 189.831 666.514 193.077 664.842L210.823 655.7C212.326 654.925 213.185 653.886 213.243 652.791L214.049 640.739C214.252 636.87 204.842 634.678 199.53 637.415L146.292 664.842C143.046 666.514 143.046 668.988 146.292 670.66L199.53 698.087C204.843 700.825 214.252 698.632 214.049 694.763L213.243 682.711C213.185 681.616 212.326 680.577 210.823 679.803L193.077 670.66Z" fill="#F5F5F5"/>
<path d="M299.552 664.842C302.798 666.514 302.798 668.988 299.552 670.66L244.701 698.919C239.465 701.616 230.989 699.824 230.988 696.01L230.182 682.296C230.182 681.16 229.321 680.19 227.762 679.387L211.629 671.076C208.383 669.403 208.384 666.099 211.629 664.427L227.762 656.115C229.321 655.312 230.182 654.342 230.182 653.206L230.988 639.493C230.988 635.678 239.465 633.886 244.701 636.584L299.552 664.842Z" fill="#F5F5F5"/>
<path d="M244.995 631.508C224.14 639.521 204.244 634.473 196.903 630.601V744.931C215.241 756.79 236.605 751.687 244.995 746.746V631.508Z" fill="url(#paint1_linear_4092_1315)"/>
<path d="M196.903 629.693L19.9627 538.954L14.5183 527.158V642.397C14.5183 644.389 14.1227 650.589 19.9627 654.193L196.903 744.931V629.693Z" fill="#F0F0F0"/>
<path d="M421.936 540.769L244.088 632.415V747.208L421.936 655.1C430.003 650.294 430.26 644.896 430.102 643.304L431.917 528.42L423.751 537.14L421.936 540.769Z" fill="#E4E4E4"/>
<rect width="250.439" height="250.439" rx="25.6502" transform="matrix(0.888962 -0.457981 0.888962 0.457981 0 528.923)" fill="#F5F5F5"/>
<path fill-rule="evenodd" clip-rule="evenodd" d="M193.077 532.69C189.831 531.017 189.831 528.544 193.077 526.872L210.823 517.729C212.326 516.955 213.185 515.915 213.243 514.82L214.049 502.769C214.252 498.899 204.842 496.707 199.53 499.444L146.292 526.872C143.046 528.544 143.046 531.017 146.292 532.69L199.53 560.117C204.843 562.854 214.252 560.662 214.049 556.793L213.243 544.741C213.185 543.646 212.326 542.607 210.823 541.832L193.077 532.69Z" fill="#F5F5F5"/>
<path d="M299.552 526.872C302.798 528.544 302.798 531.017 299.552 532.69L244.701 560.948C239.465 563.646 230.989 561.854 230.988 558.039L230.182 544.326C230.182 543.19 229.321 542.22 227.762 541.417L211.629 533.105C208.383 531.433 208.384 528.128 211.629 526.456L227.762 518.145C229.321 517.342 230.182 516.371 230.182 515.236L230.988 501.522C230.988 497.707 239.465 495.916 244.701 498.613L299.552 526.872Z" fill="#F5F5F5"/>
<path d="M244.995 493.537C224.14 501.55 204.244 496.503 196.903 492.63V606.961C215.241 618.82 236.605 613.717 244.995 608.776V493.537Z" fill="url(#paint2_linear_4092_1315)"/>
<path d="M196.903 491.723L19.9627 400.984L14.5183 389.188V504.426C14.5183 506.418 14.1227 512.619 19.9627 516.222L196.903 606.961V491.723Z" fill="#F0F0F0"/>
<path d="M421.936 402.799L244.088 494.445V609.238L421.936 517.13C430.003 512.323 430.26 506.926 430.102 505.334L431.917 390.449L423.751 399.169L421.936 402.799Z" fill="#E4E4E4"/>
<rect width="250.439" height="250.439" rx="25.6502" transform="matrix(0.888962 -0.457981 0.888962 0.457981 0 390.953)" fill="#F5F5F5"/>
<path fill-rule="evenodd" clip-rule="evenodd" d="M193.077 394.719C189.831 393.047 189.831 390.573 193.077 388.901L210.823 379.759C212.326 378.984 213.185 377.945 213.243 376.85L214.049 364.798C214.252 360.929 204.842 358.737 199.53 361.474L146.292 388.901C143.046 390.573 143.046 393.047 146.292 394.719L199.53 422.147C204.843 424.884 214.252 422.692 214.049 418.822L213.243 406.771C213.185 405.676 212.326 404.636 210.823 403.862L193.077 394.719Z" fill="#F5F5F5"/>
<path d="M299.552 388.901C302.798 390.574 302.798 393.047 299.552 394.719L244.701 422.978C239.465 425.675 230.989 423.884 230.988 420.069L230.182 406.355C230.182 405.219 229.321 404.249 227.762 403.446L211.629 395.135C208.383 393.463 208.384 390.158 211.629 388.486L227.762 380.174C229.321 379.371 230.182 378.401 230.182 377.265L230.988 363.552C230.988 359.737 239.465 357.945 244.701 360.643L299.552 388.901Z" fill="#F5F5F5"/>
<path d="M244.995 355.567C224.14 363.58 204.244 358.532 196.903 354.66V468.991C215.241 480.849 236.605 475.747 244.995 470.805V355.567Z" fill="url(#paint3_linear_4092_1315)"/>
<path d="M196.903 353.752L19.9627 263.014L14.5183 251.217V366.456C14.5183 368.448 14.1227 374.649 19.9627 378.252L196.903 468.991V353.752Z" fill="#F0F0F0"/>
<path d="M421.936 264.828L244.088 356.474V471.267L421.936 379.159C430.003 374.353 430.26 368.955 430.102 367.363L431.917 252.479L423.751 261.199L421.936 264.828Z" fill="#E4E4E4"/>
<rect width="250.439" height="250.439" rx="25.6502" transform="matrix(0.888962 -0.457981 0.888962 0.457981 0 252.982)" fill="#F5F5F5"/>
<path fill-rule="evenodd" clip-rule="evenodd" d="M193.077 256.749C189.831 255.077 189.831 252.603 193.077 250.931L210.823 241.788C212.326 241.014 213.185 239.975 213.243 238.879L214.049 226.828C214.252 222.959 204.842 220.766 199.53 223.503L146.292 250.931C143.046 252.603 143.046 255.077 146.292 256.749L199.53 284.176C204.843 286.913 214.252 284.721 214.049 280.852L213.243 268.8C213.185 267.705 212.326 266.666 210.823 265.891L193.077 256.749Z" fill="#F5F5F5"/>
<path d="M299.552 250.931C302.798 252.603 302.798 255.077 299.552 256.749L244.701 285.007C239.465 287.705 230.989 285.913 230.988 282.098L230.182 268.385C230.182 267.249 229.321 266.279 227.762 265.476L211.629 257.164C208.383 255.492 208.384 252.187 211.629 250.515L227.762 242.204C229.321 241.401 230.182 240.431 230.182 239.295L230.988 225.581C230.988 221.767 239.465 219.975 244.701 222.672L299.552 250.931Z" fill="#F5F5F5"/>
<path d="M244.995 217.597C224.14 225.609 204.244 219.831 196.903 215.958V331.02C215.241 342.879 236.605 337.776 244.995 332.835V217.597Z" fill="url(#paint4_linear_4092_1315)"/>
<path d="M196.903 215.782L20.4163 123.858L13.1572 114.331L14.5182 228.485C14.5182 230.478 14.1226 236.678 19.9625 240.281L196.903 331.02V215.782Z" fill="#465CFA"/>
<path d="M421.936 126.858L244.088 218.227V332.835L421.936 241.189C430.003 236.383 430.26 230.985 430.102 229.393L431.917 114.331L423.751 123.228L421.936 126.858Z" fill="#6F81FE"/>
<rect width="250.439" height="250.439" rx="25.6502" transform="matrix(0.888962 -0.457981 0.888962 0.457981 0 114.696)" fill="#6F81FE"/>
<path fill-rule="evenodd" clip-rule="evenodd" d="M193.077 118.147C189.831 116.475 189.831 114.001 193.077 112.329L210.823 103.187C212.326 102.412 213.185 101.373 213.243 100.278L214.049 88.2265C214.252 84.3571 204.842 82.1649 199.53 84.9019L146.292 112.329C143.046 114.001 143.046 116.475 146.292 118.147L199.53 145.575C204.843 148.312 214.252 146.119 214.049 142.25L213.243 130.199C213.185 129.103 212.326 128.064 210.823 127.29L193.077 118.147Z" fill="#FBFBFB"/>
<path d="M299.552 112.329C302.798 114.002 302.798 116.475 299.552 118.147L244.701 146.406C239.465 149.103 230.989 147.312 230.988 143.497L230.182 129.783C230.182 128.647 229.321 127.677 227.762 126.874L211.629 118.563C208.383 116.891 208.384 113.586 211.629 111.914L227.762 103.602C229.321 102.799 230.182 101.829 230.182 100.693L230.988 86.9798C230.988 83.165 239.465 81.3733 244.701 84.0708L299.552 112.329Z" fill="#FBFBFB"/>
<defs>
<linearGradient id="paint0_linear_4092_1315" x1="196.903" y1="829.07" x2="244.545" y2="829.07" gradientUnits="userSpaceOnUse">
<stop stop-color="#F0F0F0"/>
<stop offset="1" stop-color="#E4E4E4"/>
</linearGradient>
<linearGradient id="paint1_linear_4092_1315" x1="196.903" y1="691.099" x2="244.545" y2="691.099" gradientUnits="userSpaceOnUse">
<stop stop-color="#F0F0F0"/>
<stop offset="1" stop-color="#E4E4E4"/>
</linearGradient>
<linearGradient id="paint2_linear_4092_1315" x1="196.903" y1="553.129" x2="244.545" y2="553.129" gradientUnits="userSpaceOnUse">
<stop stop-color="#F0F0F0"/>
<stop offset="1" stop-color="#E4E4E4"/>
</linearGradient>
<linearGradient id="paint3_linear_4092_1315" x1="196.903" y1="415.158" x2="244.545" y2="415.158" gradientUnits="userSpaceOnUse">
<stop stop-color="#F0F0F0"/>
<stop offset="1" stop-color="#E4E4E4"/>
</linearGradient>
<linearGradient id="paint4_linear_4092_1315" x1="196.903" y1="277.188" x2="244.545" y2="277.188" gradientUnits="userSpaceOnUse">
<stop stop-color="#465CFA"/>
<stop offset="1" stop-color="#6F81FE"/>
</linearGradient>
</defs>
</svg>
